<svg width="160" height="29" viewBox="0 0 160 29" fill="none" xmlns="http://www.w3.org/2000/svg">
<g clip-path="url(#clip0_708_5802)">
<path d="M35.9659 19.5025L34.7528 23.4227H32.0848L36.594 9.58557H39.8739L44.4528 23.4227H41.6936L40.4214 19.5025H35.9659ZM39.9812 17.6072L38.8754 14.1997C38.6016 13.3607 38.3708 12.4131 38.1615 11.6104H38.1132C37.9092 12.4079 37.6998 13.3763 37.4475 14.1997L36.3739 17.6072H39.9812Z" fill="white"/>
<path d="M45.5586 22.0297L52.7679 11.7398V11.6829H46.2081V9.61145H56.1122V11.0925L49.0049 21.2322V21.315H56.2142V23.3865H45.5586V22.0297Z" fill="white"/>
<path d="M60.8951 9.58557V23.4227H58.3239V9.58557H60.8951Z" fill="white"/>
<path d="M63.8422 23.4227V9.58557H66.7677L70.4019 15.5357C71.312 17.035 72.1155 18.5922 72.8068 20.1965H72.8497C72.6833 18.3477 72.6189 16.5715 72.6189 14.4482V9.58557H75.0023V23.4227H72.3452L68.668 17.3482C67.7373 15.7979 66.8933 14.2007 66.1397 12.5632H66.0753C66.1826 14.3499 66.2041 16.1882 66.2041 18.4565V23.402L63.8422 23.4227Z" fill="white"/>
<path d="M90.4623 16.3591C90.4623 21.0198 87.6012 23.6505 83.7147 23.6505C79.7423 23.6505 77.2355 20.6728 77.2355 16.6077C77.2355 12.3561 79.9517 9.35767 83.9241 9.35767C88.036 9.36284 90.4623 12.4286 90.4623 16.3591ZM79.9517 16.5662C79.9517 19.3782 81.3957 21.6153 83.8596 21.6153C86.3236 21.6153 87.7461 19.3575 87.7461 16.4368C87.7461 13.8475 86.4309 11.367 83.8596 11.367C81.2883 11.367 79.9517 13.7128 79.9517 16.5714V16.5662Z" fill="white"/>
<path d="M104.564 17.7781C104.484 15.9915 104.376 13.8372 104.398 11.9677H104.333C103.877 13.6507 103.292 15.5202 102.664 17.2654L100.619 23.257H98.6325L96.7537 17.3482C96.2169 15.5824 95.6801 13.6922 95.3312 11.9677H95.2882C95.2238 13.775 95.1433 15.9708 95.0359 17.8609L94.7246 23.4227H92.3304L93.2699 9.58557H96.6249L98.4661 15.1525C98.9653 16.7734 99.4055 18.415 99.7598 19.9531H99.8457C100.221 18.4565 100.699 16.7527 101.241 15.1318L103.185 9.58557H106.529L107.361 23.4227H104.838L104.564 17.7781Z" fill="white"/>
<path d="M122.45 16.3591C122.45 21.0198 119.589 23.6505 115.703 23.6505C111.731 23.6505 109.224 20.6728 109.224 16.6077C109.224 12.3561 111.94 9.35767 115.912 9.35767C120.03 9.36284 122.45 12.4286 122.45 16.3591ZM111.94 16.5662C111.94 19.3782 113.384 21.6153 115.848 21.6153C118.312 21.6153 119.734 19.3575 119.734 16.4368C119.734 13.8475 118.419 11.367 115.848 11.367C113.277 11.367 111.94 13.7128 111.94 16.5714V16.5662Z" fill="white"/>
<path d="M124.667 23.4227V9.58557H127.593L131.227 15.5357C132.137 17.035 132.941 18.5922 133.632 20.1965H133.664C133.498 18.3477 133.439 16.5715 133.439 14.4482V9.58557H135.812V23.4227H133.16L129.493 17.3482C128.561 15.7991 127.716 14.2017 126.965 12.5632H126.901C127.008 14.3499 127.029 16.1882 127.029 18.4565V23.402L124.667 23.4227Z" fill="white"/>
<path d="M146.666 17.2861H141.362V21.3513H147.294V23.4227H138.791V9.58557H146.983V11.657H141.362V15.225H146.666V17.2861Z" fill="white"/>
<path d="M152.748 23.4227V17.6538L148.298 9.58557H151.223L152.914 13.1381C153.397 14.1738 153.752 14.9454 154.127 15.8879H154.17C154.525 15.0075 154.922 14.1427 155.4 13.1381L157.096 9.58557H160L155.319 17.6072V23.4227H152.748Z" fill="white"/>
<path d="M22.4921 9.83929C20.2375 7.35357 13.3664 0 13.3664 0C13.3664 0 6.49532 7.35357 4.24074 9.83929C0.483106 13.9821 -0.805225 17.6071 0.483106 20.7143C1.01991 22.0452 2.71621 23.8214 4.24074 24.3393C7.25758 25.3077 10.4623 24.0493 12.2928 23.3036C11.0023 25.0845 9.10108 26.3684 6.92476 26.9286C6.09271 27.1564 6.38796 29 6.38796 29H20.3449C20.3449 29 20.6509 27.1305 19.8081 26.9286C15.5136 25.8929 14.44 23.3036 14.44 23.3036C16.2759 24.0493 19.4806 25.3077 22.4921 24.3393C24.0166 23.8214 25.7129 22.0452 26.2497 20.7143C27.5381 17.6071 26.2497 13.9821 22.4921 9.83929ZM19.0082 11.9107H7.73534L13.3664 5.69643L19.0082 11.9107ZM20.8817 20.1964C18.9492 21.2321 15.0842 19.9582 13.3664 19.1607V19.2125C11.6486 20.01 7.78365 21.2321 5.85115 20.1964C4.11191 19.2487 4.35884 16.877 4.77754 15.5357H21.9553C22.3794 16.877 22.6263 19.2487 20.8817 20.1964Z" fill="#A9C254"/>
</g>
<defs>
<clipPath id="clip0_708_5802">
<rect width="160" height="29" fill="white"/>
</clipPath>
</defs>
</svg>
