<svg width="60" height="60" viewBox="0 0 60 60" fill="none" xmlns="http://www.w3.org/2000/svg">
<path d="M43.4767 10.9116C43.4767 4.88663 38.6214 0 32.6074 0H17.4345C16.6345 0 16 0.638593 16 1.44378V58.5562C16 59.3614 16.6345 60 17.4345 60H35.8627C40.0559 60 43.4491 56.5849 43.4491 52.3646V37.8436C43.4491 34.4007 41.3249 31.4854 38.3179 30.3193C38.1524 30.2638 38.0697 30.1249 38.0697 29.9584V29.5974C38.0697 29.4308 38.18 29.292 38.3179 29.2365C41.3249 28.0703 43.4491 25.1273 43.4491 21.7122L43.4767 10.9116ZM32.2488 45.9232C32.2488 47.2559 31.1729 48.3387 29.8487 48.3387H27.89C27.5314 48.3387 27.2279 48.0333 27.2279 47.6724V35.2615C27.2279 34.9005 27.5314 34.5951 27.89 34.5951H29.8487C31.1729 34.5951 32.2488 35.6779 32.2488 37.0106V45.9232ZM32.2488 22.4896C32.2488 23.8223 31.1729 24.9051 29.8487 24.9051H27.89C27.5314 24.9051 27.2279 24.5997 27.2279 24.2388V12.2443C27.2279 11.8834 27.5314 11.578 27.89 11.578H29.8487C31.1729 11.578 32.2488 12.6608 32.2488 13.9935V22.4896Z" fill="#4E7BFF"/>
</svg>
