<?xml version="1.0" encoding="utf-8"?>
<!-- Generator: Adobe Illustrator 24.1.2, SVG Export Plug-In . SVG Version: 6.00 Build 0)  -->
<svg version="1.1" id="Слой_1" xmlns="http://www.w3.org/2000/svg" xmlns:xlink="http://www.w3.org/1999/xlink" x="0px" y="0px"
	 viewBox="0 0 60 60" style="enable-background:new 0 0 60 60;" xml:space="preserve">
<style type="text/css">
	.st0{fill:#F5F5F5;}
	.st1{fill:#FDE107;}
</style>
<g id="betsoft">
	<g>
		<path class="st0" d="M25.6,29.1c0.7-1.1,1.1-2.4,1.1-3.9V15.2c0-0.2,0-0.4,0-0.6c-0.2-1.8-0.9-3.5-2.3-4.7C23.1,8.7,21.5,8,19.5,8
			h-6.7v21.2H25.6z M21.2,13.4c0.4,0.4,0.7,0.9,0.7,1.6c0,0.1,0,0.1,0,0.2v10.1c0,0.7-0.2,1.2-0.7,1.7s-1,0.7-1.7,0.7h-1.9V12.9h1.9
			C20.1,12.7,20.7,13,21.2,13.4z"/>
		<path class="st0" d="M27.2,34.2C27.1,33,26.6,31.9,26,31H12.8v21.2h7.1c1.9,0,3.7-0.7,5.1-2.1c1.4-1.4,2.1-3.2,2.1-5.1V34.8
			C27.3,34.6,27.3,34.4,27.2,34.2z M22.4,44.9c0,0.7-0.2,1.2-0.7,1.7c-0.5,0.5-1,0.7-1.6,0.7h-2.3V32.5h2.4c0.6,0,1.1,0.2,1.6,0.6
			c0.4,0.4,0.7,0.9,0.7,1.6c0,0.1,0,0.1,0,0.2L22.4,44.9z"/>
	</g>
	<g>
		<path class="st1" d="M35.7,29h7.8c-0.8-0.7-1.7-1.4-2.6-2.1c-1.5-1.4-2.4-3.2-2.5-5.4c0-0.3,0-0.7,0-1.1v-5.3
			c0-0.7,0.2-1.2,0.7-1.7c0.5-0.5,1-0.7,1.6-0.7s1.2,0.2,1.6,0.6c0.4,0.4,0.7,0.9,0.7,1.6c0,0.1,0,0.1,0,0.2v3.4h4.8v-3.4
			c0-0.2,0-0.4,0-0.6c-0.2-1.8-0.9-3.5-2.2-4.7s-2.9-1.9-4.9-1.9c-1.9,0-3.7,0.7-5,2.1c-1.4,1.4-2.1,3.2-2.1,5.1v6.7
			c0,0.5,0,1.1,0,1.6C33.8,25.7,34.5,27.5,35.7,29z"/>
		<path class="st1" d="M45.6,30.9h-7.8c0.9,0.7,1.8,1.5,2.7,2.2c1.5,1.4,2.3,3.2,2.5,5.4c0,0.3,0,1.1,0,1.1v5.3
			c0,0.7-0.2,1.2-0.7,1.7c-0.5,0.5-1,0.7-1.6,0.7s-1.2-0.2-1.6-0.6c-0.4-0.4-0.7-0.9-0.7-1.6c0-0.1,0-0.1,0-0.2l0.1-3.4h-4.8v3.4
			c0,0.2,0,0.4,0,0.6c0.2,1.8,0.9,3.5,2.2,4.7c1.3,1.2,2.9,1.9,4.9,1.9c1.9,0,3.7-0.7,5-2.1c1.4-1.4,2.1-3.2,2.1-5.1v-6.7
			c0-0.5,0-1.1,0-1.6C47.5,34.3,46.8,32.4,45.6,30.9z"/>
	</g>
	<polygon class="st1" points="0,38.2 0,21.5 8.4,29.9 	"/>
	<polygon class="st1" points="60,38.3 60,21.6 51.6,29.9 	"/>
</g>
</svg>
