<?xml version="1.0" encoding="utf-8"?>
<!-- Generator: Adobe Illustrator 24.1.2, SVG Export Plug-In . SVG Version: 6.00 Build 0)  -->
<svg version="1.1" id="Слой_1" xmlns="http://www.w3.org/2000/svg" xmlns:xlink="http://www.w3.org/1999/xlink" x="0px" y="0px"
	 viewBox="0 0 60 60" style="enable-background:new 0 0 60 60;" xml:space="preserve">
<style type="text/css">
	.st0{fill:#EC1C24;}
</style>
<path class="st0" d="M54.6,31.3c-0.8,4.2-4.5,7.3-8.8,7.3c-0.1,0-0.1,0-0.2,0c-0.6,0-1.3,0-3-0.7c-1.7-0.7-2-1.1-3.2-2.1
	c-0.7-0.5-1.7-1.6-2.7-2.5c-1,1.1-3.2,3.5-3.4,3.7c0.9,0.9,2.9,2.7,3.8,3.4l-0.1-0.1c1.8,1.5,4.1,2.6,6.6,3c0.8,0.1,1.4,0.2,2.1,0.2
	c0.7,0,1.3,0,1.9-0.1c5.5-0.7,10.2-4.6,11.7-9.9L54.6,31.3z"/>
<path class="st0" d="M39.1,23.8c1.6-1.9,4-3.1,6.7-3.1c2.1,0,4.1,0.7,5.6,2l-2.1,1.5l9.8,4.5l-1-10.7l-2.5,1.8c-2.6-2.5-6-4-9.8-4
	c-4.3,0-8.1,2-10.7,5c0,0,0,0,0,0C35,21,27.4,30.4,24.2,33.5c-0.2,0.2-0.3,0.3-0.5,0.5c0,0-0.1,0.1-0.1,0.1
	c-0.2,0.2-0.4,0.4-0.7,0.6c0,0-0.1,0.1-0.1,0.1c-0.2,0.2-0.4,0.3-0.6,0.5c-0.1,0-0.1,0.1-0.2,0.1c-0.1,0.1-0.3,0.2-0.4,0.3
	c-0.1,0-0.1,0.1-0.2,0.1c-0.1,0-0.1,0.1-0.2,0.1c-0.2,0.1-0.4,0.3-0.5,0.4c-0.1,0-0.1,0.1-0.2,0.1c-0.2,0.1-0.3,0.2-0.5,0.3
	c0,0-0.1,0.1-0.1,0.1c-0.2,0.1-0.3,0.2-0.4,0.3c-0.1,0-0.1,0.1-0.2,0.1c-0.1,0.1-0.3,0.2-0.4,0.2c-0.9,0.5-1.7,0.8-2.3,1
	c-0.6,0.2-1.1,0.3-2.2,0.3c-5-0.2-8.9-4.5-8.5-9.6c0.3-4.4,3.9-7.9,8.3-8.2c2.8-0.2,5.3,1,7.1,2.8c0.3,0.3,2.8,3,3.3,3.6
	c1-1,3.2-3.7,3.3-3.8c-0.4-0.6-2.3-2.6-2.5-2.7c-2.7-3-6.6-4.9-10.9-4.9C7.5,16,1.4,21.8,1,29c-0.4,7.7,5.5,14.1,12.9,14.6
	c0.3,0,1.5,0.1,2.1,0c0.6-0.1,1.2-0.2,1.7-0.3c0.8-0.2,1.6-0.6,1.6-0.6c0,0,0.1,0,0.1-0.1c0.2-0.1,0.3-0.1,0.5-0.2
	c0.1,0,0.2-0.1,0.2-0.1c0.2-0.1,0.3-0.2,0.5-0.3c0.1,0,0.1-0.1,0.2-0.1c0.5-0.3,1-0.6,1.6-0.9c0.1,0,0.2-0.1,0.2-0.1
	c0.2-0.1,0.4-0.3,0.6-0.4c0.1-0.1,0.2-0.1,0.3-0.2c0.2-0.1,0.4-0.3,0.6-0.4c0.1-0.1,0.2-0.1,0.3-0.2c0.2-0.2,0.4-0.3,0.6-0.5
	c0.1,0,0.1-0.1,0.2-0.1c0,0,0.1-0.1,0.1-0.1c0.3-0.2,0.6-0.5,0.9-0.8c0.1-0.1,0.2-0.1,0.2-0.2c0.2-0.2,0.5-0.4,0.7-0.6
	c0.1-0.1,0.2-0.2,0.3-0.3c0,0,0.1-0.1,0.1-0.1c0.2-0.2,0.4-0.3,0.6-0.5c0.1-0.1,2.9-2.8,4.8-5.1C34.9,29,37,26.3,39.1,23.8z"/>
</svg>
