<svg width="110" height="24" viewBox="0 0 110 24" fill="none" xmlns="http://www.w3.org/2000/svg">
<g clip-path="url(#clip0_708_5749)">
<path d="M10.4861 12.116L9.79214 15.0046C10.6468 15.2243 13.2766 16.1072 13.671 14.4757C14.0764 12.7751 11.3225 12.3357 10.4861 12.116Z" fill="#5C3C80"/>
<path d="M11.4284 8.16138L10.782 10.7937C11.4905 10.9727 13.682 11.7254 14.0399 10.2444C14.3978 8.76351 12.137 8.3526 11.4284 8.16138Z" fill="#5C3C80"/>
<path d="M14.2664 0.358013C8.08646 -1.22056 1.88099 2.66078 0.34332 9.08492C-1.19435 15.5091 2.55669 22.0105 8.70737 23.5972C14.858 25.1839 21.0927 21.2904 22.645 14.8744C24.1644 8.4543 20.417 2.00168 14.2664 0.358013ZM16.5455 10.2648C16.511 10.7418 16.3339 11.1923 16.0426 11.5441C15.7513 11.8959 15.3625 12.1287 14.9384 12.2054C15.4468 12.395 15.8672 12.8008 16.1081 13.3343C16.3489 13.8678 16.3906 14.4858 16.2241 15.0534C16.1906 15.1673 16.1478 15.2777 16.0962 15.3829C15.4169 17.3846 13.7988 17.584 11.6074 17.1568L11.0851 19.3375L9.88345 19.0161L10.3948 16.8639L9.39037 16.5953L8.87538 18.7476L7.61164 18.418L8.14124 16.2373L7.24275 15.9973L5.59916 15.566L6.22737 14.0647C6.22737 14.0647 7.12587 14.3251 7.12587 14.3048C7.23932 14.3486 7.36361 14.3417 7.47259 14.2856C7.58158 14.2294 7.66677 14.1284 7.71026 14.0037L8.5357 10.5536H8.65988L8.5357 10.5048L9.12009 8.06373C9.13229 7.87589 9.07795 7.6902 8.96871 7.54647C8.85947 7.40273 8.70403 7.31238 8.5357 7.29478L7.63721 7.05474L7.96958 5.65518L9.71178 6.10271L10.5117 6.30207L11.034 4.1417L12.2904 4.47125L11.7681 6.62348L12.7762 6.87573L13.2765 4.77232L14.5366 5.10187L14.0216 7.24189C15.6141 7.82368 16.7792 8.674 16.5455 10.2648Z" fill="#5C3C80"/>
<path d="M33.6571 7.24192C34.4859 7.2228 35.3088 7.40032 36.0713 7.76269C36.7053 8.09032 37.2693 8.56466 37.7259 9.15411C38.1753 9.75967 38.5106 10.4598 38.712 11.2128C38.9274 12.0416 39.0333 12.9009 39.0261 13.7637C39.0412 15.1409 38.7922 16.5058 38.2956 17.7671C37.8286 18.985 37.1538 20.0903 36.3087 21.0219C35.4334 21.9541 34.4055 22.6903 33.2809 23.1904C32.0841 23.7375 30.8015 24.0141 29.5079 24.0041H28.6094C28.1109 23.9913 27.6134 23.9479 27.1192 23.8739C26.5148 23.7855 25.915 23.6619 25.3222 23.5037C24.7053 23.3499 24.1035 23.1291 23.5252 22.8446L28.5546 0.813711L33.0471 0.109863L31.2501 7.92136C31.6236 7.74517 32.0113 7.60894 32.4079 7.51451C32.8132 7.36898 33.2325 7.27748 33.6571 7.24192ZM29.8768 20.2611C30.545 20.2655 31.2041 20.0896 31.798 19.7484C32.3921 19.4075 32.9197 18.9387 33.3503 18.3692C33.7964 17.7738 34.1462 17.0965 34.3839 16.3675C34.6323 15.643 34.7562 14.8729 34.7491 14.0973C34.7981 13.2982 34.6396 12.5002 34.2926 11.7986C34.0974 11.5082 33.837 11.28 33.5376 11.1372C33.2382 10.9944 32.9103 10.9419 32.5869 10.9849C32.2306 11.0007 31.8762 11.0511 31.5277 11.1355C31.0893 11.245 30.6817 11.4727 30.3407 11.7986L28.4304 20.0861L28.7336 20.1472C28.9385 20.1878 29.1463 20.2082 29.3545 20.2082L29.8768 20.2611ZM43.7341 23.5606H39.4461L43.0986 7.58367H47.4267L43.7341 23.5199V23.5606ZM45.8087 5.65928C45.2299 5.65683 44.666 5.45503 44.1943 5.08155C43.9504 4.89033 43.755 4.63215 43.627 4.33206C43.499 4.03197 43.4428 3.70013 43.4638 3.36872C43.4609 2.95341 43.5434 2.54286 43.7049 2.16852C43.8696 1.79449 44.0921 1.4557 44.3623 1.16767C44.6513 0.902186 44.9786 0.693097 45.3302 0.54926C45.695 0.382639 46.0865 0.300949 46.4807 0.309219C47.0621 0.300548 47.6311 0.497084 48.106 0.87067C48.3454 1.06577 48.5374 1.32407 48.6649 1.62234C48.7924 1.9206 48.8514 2.24949 48.8365 2.57943C48.8317 2.99607 48.7431 3.40619 48.5772 3.77964C48.4195 4.15729 48.1975 4.4972 47.9234 4.78049C47.6453 5.05631 47.3265 5.27654 46.9811 5.43144C46.6056 5.58304 46.2079 5.6548 45.8087 5.643V5.65928ZM51.1522 3.66165L55.6446 2.92932L54.5489 7.63249H59.3811L58.4826 11.3226H53.7344L52.4597 16.9086C52.3504 17.3316 52.2842 17.767 52.2625 18.2065C52.2378 18.548 52.2866 18.8911 52.4049 19.2073C52.5259 19.5171 52.7478 19.7643 53.0258 19.899C53.4363 20.0817 53.8773 20.1636 54.3188 20.139C54.7823 20.1514 55.2458 20.1146 55.7031 20.0292C56.1501 19.9362 56.5907 19.8084 57.0216 19.6467L57.3467 23.109C56.7258 23.3416 56.0927 23.5318 55.4511 23.6786C54.6592 23.858 53.8519 23.9385 53.0441 23.9186C51.9775 23.9803 50.9123 23.7717 49.9286 23.3084C49.2487 22.9566 48.6971 22.3566 48.3654 21.6077C48.0359 20.8329 47.8888 19.9775 47.938 19.1219C47.9895 18.1288 48.1278 17.1436 48.3508 16.1804L51.196 3.61283L51.1522 3.66165ZM59.1875 17.2056C59.1838 15.8783 59.4031 14.5619 59.834 13.3243C60.2351 12.1402 60.8463 11.0581 61.631 10.1427C62.4543 9.21536 63.4385 8.48446 64.5237 7.99459C65.7267 7.44702 67.0153 7.17046 68.3149 7.18089C69.099 7.17378 69.8815 7.26109 70.6488 7.44128C71.2918 7.60137 71.9185 7.83449 72.5188 8.13699L71.0359 11.6603C70.6415 11.4894 70.2361 11.3511 69.8343 11.2209C69.3359 11.0775 68.8223 11.0105 68.3076 11.0215C67.6714 10.988 67.0364 11.1093 66.4466 11.377C65.8568 11.6447 65.3265 12.0524 64.8926 12.5716C64.0083 13.7227 63.5557 15.2087 63.6288 16.7215C63.5932 17.608 63.8232 18.4825 64.2826 19.2073C64.5809 19.5593 64.949 19.8287 65.3574 19.994C65.7658 20.1593 66.2032 20.2159 66.6348 20.1594C67.1832 20.1469 67.729 20.0719 68.2638 19.9356C68.7398 19.8255 69.2075 19.6745 69.6626 19.484L69.9877 23.0887C69.3993 23.3235 68.7993 23.5204 68.1907 23.6786C67.4178 23.8626 66.6289 23.9499 65.8385 23.939C64.7978 23.9634 63.7618 23.7759 62.7815 23.3857C62.0062 23.0684 61.3021 22.5672 60.7179 21.9169C60.1787 21.3132 59.7735 20.5777 59.5345 19.7688C59.2913 18.9246 59.168 18.0434 59.1692 17.1568L59.1875 17.2056ZM78.3006 24C77.3842 24.0198 76.4722 23.8544 75.6088 23.5118C74.8988 23.2255 74.2585 22.7589 73.7387 22.1489C73.2444 21.5355 72.8711 20.8133 72.643 20.0292C72.3853 19.1749 72.2617 18.2775 72.2778 17.3765C72.2823 16.14 72.4737 14.9132 72.8439 13.7474C73.2253 12.5509 73.8079 11.4462 74.5605 10.4926C75.3091 9.50878 76.2252 8.69986 77.256 8.11258C78.3687 7.48684 79.5999 7.16735 80.8464 7.18089C81.7639 7.16138 82.6771 7.32678 83.5418 7.66911C84.2569 7.96054 84.9046 8.42619 85.4374 9.03205C85.9308 9.63429 86.3097 10.3415 86.5514 11.111C86.8075 11.9658 86.931 12.8628 86.9167 13.7637C86.9087 14.9995 86.7238 16.226 86.3688 17.3969C86.0082 18.5849 85.4534 19.6884 84.7325 20.6516C83.9956 21.6472 83.0784 22.4582 82.0407 23.0317C80.8813 23.6748 79.5991 23.9945 78.3043 23.9634L78.3006 24ZM80.4555 10.9809C79.8517 10.9688 79.2603 11.1727 78.7681 11.5627C78.2863 11.9589 77.8761 12.4531 77.5592 13.0192C77.2269 13.6142 76.9804 14.2635 76.8287 14.9436C76.6683 15.5947 76.5836 16.266 76.5767 16.9412C76.5398 17.7615 76.7013 18.5778 77.0442 19.305C77.2294 19.6043 77.4844 19.8417 77.7817 19.9916C78.0791 20.1414 78.4075 20.198 78.7316 20.1553C79.3333 20.168 79.9225 19.9639 80.4117 19.5735C80.9021 19.1863 81.318 18.6938 81.6353 18.1251C81.9628 17.5274 82.209 16.8789 82.3658 16.2007C82.5226 15.5491 82.6036 14.8777 82.6068 14.2031C82.6489 13.3823 82.4871 12.5644 82.1393 11.8393C81.9505 11.5483 81.6949 11.3192 81.3993 11.1761C81.1037 11.0329 80.779 10.9809 80.4592 11.0256L80.4555 10.9809ZM91.621 23.5281H87.2929L90.8832 7.59181H95.2223L91.621 23.5281ZM93.7138 5.65114C93.1327 5.65787 92.5643 5.46152 92.0885 5.08969C91.8446 4.89846 91.6492 4.64029 91.5212 4.3402C91.3932 4.0401 91.337 3.70827 91.358 3.37686C91.3551 2.96154 91.4376 2.551 91.5991 2.17665C91.7568 1.79801 91.9803 1.45787 92.2565 1.17581C92.5136 0.902303 92.8115 0.680662 93.1368 0.52078C93.5081 0.367728 93.9025 0.295896 94.2982 0.309219C94.8796 0.300548 95.4486 0.497084 95.9235 0.87067C96.1672 1.06125 96.3624 1.31872 96.4904 1.61811C96.6184 1.91749 96.6748 2.24864 96.654 2.57943C96.6585 2.99359 96.5799 3.40363 96.4239 3.77964C96.2602 4.15429 96.0375 4.49325 95.7665 4.78049C95.1933 5.35833 94.4467 5.67619 93.6737 5.67148L93.7138 5.65114ZM98.3853 8.32007L99.4627 8.01086C100.44 7.69615 101.441 7.48233 102.454 7.37211C103.143 7.29474 103.836 7.25807 104.529 7.26226C106.803 7.26226 108.369 7.95255 109.226 9.33312C110.083 10.7137 110.235 12.5906 109.682 14.9639L107.699 23.5688H103.364L105.288 15.1429C105.405 14.614 105.493 14.1421 105.566 13.6132C105.639 13.183 105.639 12.7414 105.566 12.3113C105.493 11.9401 105.299 11.6124 105.022 11.3918C104.634 11.1273 104.182 11.0036 103.729 11.0378C103.154 11.0417 102.581 11.103 102.016 11.2209L99.1925 23.5565H94.8461L98.367 8.34855L98.3853 8.32007Z" fill="#AA8ACE"/>
</g>
<defs>
<clipPath id="clip0_708_5749">
<rect width="110" height="24" fill="white"/>
</clipPath>
</defs>
</svg>
