<svg width="19" height="20" viewBox="0 0 19 20" fill="none" xmlns="http://www.w3.org/2000/svg"><path d="M12.1743 18.9885H6.82812C9.32221 17.5184 8.21368 12.7871 8.21368 12.7871H10.7885C10.7885 12.7871 9.67991 17.5184 12.1743 18.9885Z" fill="#FCF600"/><path d="M3.21126 2.36133C1.4378 2.36133 0 3.80237 0 5.58069C0 7.35859 1.4378 8.80001 3.21126 8.80001C4.98472 8.80001 6.42252 7.35859 6.42252 5.58069C6.42252 3.80237 4.98472 2.36133 3.21126 2.36133ZM3.21126 7.65023C2.07278 7.65023 1.14687 6.72161 1.14687 5.58065C1.14687 4.43931 2.07278 3.51107 3.21126 3.51107C4.34974 3.51107 5.27565 4.43931 5.27565 5.58065C5.27565 6.72161 4.34974 7.65023 3.21126 7.65023ZM15.7887 2.36133C14.0153 2.36133 12.5775 3.80237 12.5775 5.58065C12.5775 7.35856 14.0153 8.79997 15.7887 8.79997C17.5622 8.79997 19 7.35859 19 5.58069C19 3.80237 17.5622 2.36133 15.7887 2.36133ZM15.7887 7.65023C14.6503 7.65023 13.7243 6.72161 13.7243 5.58065C13.7243 4.43931 14.6503 3.51107 15.7887 3.51107C16.9272 3.51107 17.8531 4.43931 17.8531 5.58065C17.8531 6.72161 16.9272 7.65023 15.7887 7.65023Z" fill="#FCF600"/><path d="M9.97534 14.2858C6.42838 14.2858 3.61056 11.3238 3.81036 7.80543L4.24044 0.232069C4.24399 0.169346 4.27158 0.110354 4.31753 0.0671997C4.36348 0.024045 4.42432 3.52729e-07 4.48755 0L15.4631 0C15.5264 9.2368e-06 15.5872 0.0240557 15.6331 0.0672076C15.6791 0.110359 15.7067 0.169346 15.7103 0.232069L16.1404 7.80547C16.3401 11.3238 13.5223 14.2858 9.97534 14.2858Z" fill="#FCF600"/><path d="M13.5568 19.9994H5.44324C5.40387 19.9994 5.36611 19.9837 5.33828 19.9558C5.31044 19.9279 5.2948 19.89 5.2948 19.8505V19.6681C5.2948 19.2161 5.66033 18.8496 6.11121 18.8496H12.8889C13.3397 18.8496 13.7053 19.2161 13.7053 19.6681V19.8505C13.7053 19.89 13.6896 19.9279 13.6618 19.9558C13.634 19.9837 13.5962 19.9994 13.5568 19.9994Z" fill="#FCF600"/></svg>