<?xml version="1.0" encoding="utf-8"?>
<!-- Generator: Adobe Illustrator 24.1.2, SVG Export Plug-In . SVG Version: 6.00 Build 0)  -->
<svg version="1.1" id="Слой_1" xmlns="http://www.w3.org/2000/svg" xmlns:xlink="http://www.w3.org/1999/xlink" x="0px" y="0px"
	 viewBox="0 0 60 60" style="enable-background:new 0 0 60 60;" xml:space="preserve">
<style type="text/css">
	.st0{fill:#DDDDDD;}
	.st1{fill:#9A989B;}
</style>
<g id="evolution_1_">
	<g id="evolution-color">
		<g id="evolution" transform="translate(16.000000, 7.000000)">
			<g id="Group" transform="translate(-0.000000, 0.000000)">
				<path id="Shape" class="st0" d="M-7.6-3.4C10.5-13.1,34-2.9,35.7,21.7C2.1,24.4-1.9,9.2-7.6-3.4z"/>
				<path class="st0" d="M-7.6,49.4c18.1,9.7,41.6-0.5,43.3-25.1C2.1,21.6-1.9,36.8-7.6,49.4z"/>
			</g>
			<path class="st1" d="M29.4,4.3C21-7,5.3-10.2-7.7-3.4C-2.6,8,1.1,21.3,26,22c2.4-4.3,3.6-9.2,3.6-14C29.7,6.7,29.6,5.5,29.4,4.3z
				 M-1.5,37c0.7,0.1,1.4,0.1,2.2,0.1c9.7,0,18.8-4.8,24.2-13C9.9,24.8,2.9,30.2-1.5,37z"/>
		</g>
	</g>
</g>
</svg>
