<svg width="60" height="60" viewBox="0 0 60 60" fill="none" xmlns="http://www.w3.org/2000/svg">
<g clip-path="url(#clip0)">
<path d="M4 31C4 25.9 4.7 21.5 6.3 17.8C7.9 14.1 9.8 10.9 12.3 8.30005C14.8 5.80005 17.6 3.9 20.9 2.5C24.1 1.1 27.6 0.699951 30.9 0.699951C39 0.699951 45.3 3.2001 49.9 8.1001C54.5 12.9001 56.8 20.1 56.8 29.8V32.8C56.8 34 56.6 34.9 56.6 35.8H20.4C20.9 39 22.3 41.8001 25 43.6001C27.8 45.4001 31.5 46.6001 35.9 46.6001C38.9 46.6001 41.7 46.3999 44.5 45.8999C47.3 45.3999 49.6 44.7 51.4 43.8L53.5 56.7C52.6 57.2 51.4 57.6001 50 58.1001C48.6 58.6001 47 58.8 45.1 59.3C43.2 59.5 41.4 60 39.5 60C37.4 60.2 35.6 60.2 33.5 60.2C28.4 60.2 24 59.4999 20.3 57.8999C16.6 56.2999 13.4 54.4 11 51.7C8.5 49.2 6.6 45.9 5.4 42.5C4.5 39.1 4 35.2 4 31ZM41.5 24.8C41.5 23.4 41.3 21.9999 40.8 20.8999C40.3 19.4999 39.9 18.3999 38.9 17.3999C38 16.4999 37 15.5999 35.9 14.8999C34.7 14.1999 33.1 14 31.3 14C29.4 14 28.1 14.1999 26.7 14.8999C25.3 15.5999 24.4 16.3 23.5 17.2C22.6 18.1 21.9 19.3 21.4 20.7C20.9 22.1 20.7 23.5001 20.5 24.6001H41.6L41.5 24.8Z" fill="#01A3FB"/>
</g>
<defs>
<clipPath id="clip0">
<rect width="60" height="60" fill="white"/>
</clipPath>
</defs>
</svg>
