<svg width="100" height="112" viewBox="0 0 100 112" fill="none" xmlns="http://www.w3.org/2000/svg"><path d="M41.1097 81.9887L82.6352 57.8651C83.2868 57.4881 83.6879 56.7869 83.6879 56.0318C83.6879 55.2766 83.2868 54.5755 82.6352 54.1974L41.1097 30.0707C40.4581 29.6926 39.6559 29.6926 39.0043 30.0707C38.3527 30.4488 37.9516 31.1489 37.9516 31.9051V43.137H2.10538C0.943211 43.137 0 44.086 0 45.2553V66.802C0 67.9712 0.943211 68.9202 2.10538 68.9202H37.9527V80.1511C37.9527 80.9094 38.3537 81.6074 39.0054 81.9855C39.3317 82.1761 39.6949 82.2693 40.058 82.2693C40.4212 82.2693 40.7844 82.1761 41.1097 81.9887Z" fill="black"/><path fill-rule="evenodd" clip-rule="evenodd" d="M89.455 0H30.4031C27.6064 0 24.9243 1.01131 22.9467 2.81146C20.9691 4.6116 19.8582 7.05312 19.8582 9.59892V17.278L19.8582 17.2957V26.9503C19.8582 30.4756 22.7159 33.3333 26.2412 33.3333C29.7664 33.3333 32.6241 30.4756 32.6241 26.9503V12.766C32.6241 12.3569 32.5857 11.9568 32.5121 11.5692V11.5187H87.346V99.8287H32.6241V85.8155C32.6241 82.2902 29.7664 79.4325 26.2412 79.4325C22.7159 79.4325 19.8582 82.2902 19.8582 85.8155V94.0517C19.8582 94.0576 19.8582 94.0635 19.8582 94.0694V101.748C19.8582 104.294 20.9691 106.736 22.9467 108.536C24.9243 110.336 27.6064 111.347 30.4031 111.347H89.455C92.2517 111.347 94.9338 110.336 96.9114 108.536C98.8889 106.736 99.9999 104.294 99.9999 101.748V9.59892C99.9999 7.05312 98.8889 4.6116 96.9114 2.81146C94.9338 1.01131 92.2517 0 89.455 0Z" fill="black"/></svg>