<?xml version="1.0" encoding="utf-8"?>
<!-- Generator: Adobe Illustrator 24.1.2, SVG Export Plug-In . SVG Version: 6.00 Build 0)  -->
<svg version="1.1" id="Слой_1" xmlns="http://www.w3.org/2000/svg" xmlns:xlink="http://www.w3.org/1999/xlink" x="0px" y="0px"
	 viewBox="0 0 60 60" style="enable-background:new 0 0 60 60;" xml:space="preserve">
<style type="text/css">
	.st0{fill:#811628;}
</style>
<g id="felixgaming" transform="translate(0 -270.5417)">
	<g id="g1593" transform="matrix(.37811 0 0 .4074 -2.0655 267.1603)">
		<path id="path1589" class="st0" d="M54.8,8.3C69.3,18.7,85.5,26.2,102.7,31c-8.2,12-15.8,24.7-19.3,38.8
			c7.7-8.4,11.8-19.5,18.3-28.5C106.3,34.7,114,30,122,30c6.8,0,13.6,4.5,15.6,11.1c1.1,3.4,0.4,7.1,0.4,10.7c4.5-4,6.4-10,7.7-15.6
			c3.1,8.9,6.6,17.4,10.2,25.8c-4.5-3.4-9.8-6.1-15.4-6.4c2.5,3.6,6.1,6.4,7.1,10.9c1.6,6.6-1.1,13.8-6.8,17.6
			c-5.8,4-13.1,5.6-20.2,4.3c-11.1-1.8-21.3-6.6-32.5-8.2c5.4,5.6,12.9,8.6,19.3,12.7c8,4.3,16.3,10.4,18.9,19.8
			c2.9,8.4-1.6,18.5-10,21.3c-4.5,1.8-9.5,0.2-13.8-1.6c-1.6,3.4-3.1,7.1-6.4,9.1c-6.1,4.5-15.4,3.6-20.7-1.8
			c-5.4-5.4-7.7-13.6-6.8-21.1c0.7-7.1,3.6-13.6,4.9-20.4c-2.9,2-3.6,5.4-4.7,8.6c-4.7,13.4-10.9,26.5-11.3,41
			c-0.4,2.5,0.4,5.8-1.8,7.7c-2,0.2-4,0-6.1,0c-0.9-10.9,1.8-21.6,6.6-31.3c5.8-11.8,12.5-23.1,18.3-34.9c2.9-5.4,1.8-12.2-2.2-16.7
			c-3.6-3.8-8.6-5.4-13.4-7.3C50,62.2,41.2,59,32.1,56.3C42.5,41.6,50.3,25.2,54.8,8.3z"/>
		<path id="path1591" class="st0" d="M20.3,81.1c-1.1-6.1,2.9-12.9,9.3-14.3c3.4-0.5,7.3-0.5,10.2,1.6c2.7,1.6,3.8,4.5,5.4,7.1
			c4.7-3.2,11.3-4.3,16.1-0.7c5.6,3.8,6.8,12.2,2.7,17.6c-2.5,3.8-7.3,4.9-11.6,5.2c1.6,4.9,0.7,11.1-3.6,14.5
			c-5.4,5-14.9,3.6-18.9-2.7c-3.1-4.5-1.3-10-0.4-14.7c-4.7,2.9-6.6,8.4-8.2,13.6c-2.2-7.5-4.9-14.9-7.7-22.2
			c4,3.4,8.9,5.8,14.3,6.1C25.3,88.5,21,85.8,20.3,81.1z"/>
	</g>
</g>
</svg>
