<svg width="60" height="60" viewBox="0 0 60 60" fill="none" xmlns="http://www.w3.org/2000/svg">
<g clip-path="url(#clip0_1_2554)">
<path d="M59.1563 29.5915H30.587V39.8062H47.0346C45.461 43.1785 43.3935 45.6511 40.8322 47.2241C38.2707 48.7968 35.1182 49.5862 31.3744 49.5918C25.6296 49.5918 20.7988 47.6762 16.882 43.8454C12.9653 40.0143 11.0077 35.3424 11.009 29.8295C11.009 24.4947 12.8957 19.9644 16.6689 16.2381C20.442 12.5121 25.1238 10.6482 30.7138 10.6466C37.1301 10.6466 42.7461 13.2098 47.5623 18.3364L55.1746 10.7634C51.6999 6.9834 48.1478 4.31614 44.518 2.76165C40.1325 0.905148 35.417 -0.0341424 30.6589 0.000948123C22.5271 0.000948123 15.7125 2.46718 10.2153 7.39965C10.2446 7.56807 10.2148 7.74152 10.1309 7.89024C10.1153 8.0723 10.0334 8.24218 9.90093 8.3672C9.76847 8.49222 9.59476 8.56361 9.41313 8.56767C9.39555 8.5687 9.37791 8.5687 9.36033 8.56767C8.56948 9.25679 7.86611 10.0413 7.26616 10.9036C7.12895 12.2244 5.83274 13.1759 4.99888 14.1762C4.84053 14.4884 4.68008 14.7983 4.5112 15.0998C4.08226 15.9203 3.74591 16.7865 3.50846 17.6822C3.25936 18.5083 2.93425 19.2962 2.63447 20.1054C2.01381 21.7809 1.76683 23.5372 1.23905 25.2381C0.956168 26.145 0.59518 27.0473 0.536067 27.9987C0.476955 28.9502 0.508619 29.8677 0.348175 30.8019C0.33716 30.8581 0.318708 30.9123 0.293304 30.9634C1.1905 37.0286 3.14114 42.9831 6.77006 47.9715C10.0063 52.4312 14.8386 55.4891 19.8587 57.5489C25.0837 59.6982 31.079 60.0486 36.6184 59.1397C41.9912 58.2563 47.1738 56.0137 50.8198 51.8428C54.5267 47.5955 57.0093 42.5223 58.3815 37.0668C58.405 36.9466 58.4627 36.8357 58.5473 36.7476C58.6319 36.6594 58.74 36.5977 58.8586 36.5698C59.1103 35.0596 59.2381 33.5309 59.2407 31.9997L59.1563 29.5915Z" fill="white"/>
<path d="M58.9917 35.6992C58.4888 39.4103 57.259 42.9839 55.3731 46.2132C52.8006 50.6942 49.4672 54.1119 45.3731 56.4662C41.2791 58.8205 36.4791 59.9985 30.9737 60C25.0795 60 19.8229 58.7121 15.2038 56.137C12.5838 54.6835 10.2148 52.8133 8.18878 50.5985C7.76656 50.1294 12.1132 51.6327 18.8877 52.1763C24.2983 52.6118 31.4697 52.3421 37.4101 50.6643C43.4499 48.9655 49.1097 45.4701 52.9391 42.1699C56.986 38.6703 59.0295 35.3977 58.9917 35.6992Z" fill="url(#paint0_linear_1_2554)"/>
<path d="M22.6751 59.0245C19.6864 58.4275 16.8245 57.31 14.2181 55.7223C10.7539 53.5986 8.65122 51.1798 7.22419 49.5128C3.72918 45.5924 1.40135 40.7617 0.50674 35.5734C-0.468294 30.3148 -0.0310442 24.8903 1.77338 19.8586C2.97056 16.3713 4.82163 13.1473 7.22626 10.3616C8.19204 9.26159 9.23629 8.23391 10.3506 7.28662C10.3506 7.28662 9.19381 12.4703 8.29447 19.0302C7.02783 28.3254 9.19588 36.7116 9.19588 36.7116C10.2436 40.9812 11.9193 45.0698 14.1675 48.8417C16.4618 52.6588 19.3319 56.0942 22.6751 59.0245Z" fill="url(#paint1_linear_1_2554)"/>
</g>
<defs>
<linearGradient id="paint0_linear_1_2554" x1="10.8191" y1="56.1497" x2="60.6865" y2="44.8106" gradientUnits="userSpaceOnUse">
<stop offset="0.01" stop-color="#352B19"/>
<stop offset="1" stop-color="#DEA329"/>
</linearGradient>
<linearGradient id="paint1_linear_1_2554" x1="2148.46" y1="7691.91" x2="6160.02" y2="16498.7" gradientUnits="userSpaceOnUse">
<stop offset="0.01" stop-color="#84662E"/>
<stop offset="1" stop-color="#E7AF3D"/>
</linearGradient>
<clipPath id="clip0_1_2554">
<rect width="60" height="60" fill="white"/>
</clipPath>
</defs>
</svg>
