<svg width="64" height="14" viewBox="0 0 64 14" fill="none" xmlns="http://www.w3.org/2000/svg">
<path d="M13.8249 6.94998H7.11492V9.34906H10.9779C10.6083 10.1411 10.1227 10.7218 9.52114 11.0913C8.91955 11.4606 8.17913 11.646 7.29985 11.6473C5.95059 11.6473 4.81604 11.1975 3.89611 10.2977C2.97621 9.39793 2.51642 8.30067 2.51675 7.00587C2.51675 5.75293 2.95985 4.68891 3.84604 3.81374C4.7322 2.93863 5.83178 2.50086 7.14471 2.50051C8.65167 2.50051 9.97067 3.10251 11.1018 4.30657L12.8897 2.52792C12.0736 1.64014 11.2393 1.0137 10.3868 0.648604C9.35678 0.212565 8.24929 -0.00804136 7.13181 0.000223945C5.22193 0.000223945 3.62143 0.579449 2.33033 1.7379C2.33721 1.77744 2.3302 1.81817 2.3105 1.85314C2.30685 1.89589 2.28761 1.93579 2.25649 1.96517C2.22538 1.99448 2.18458 2.01125 2.14192 2.0122C2.13779 2.01244 2.13365 2.01244 2.12952 2.0122C1.94378 2.17406 1.77858 2.35833 1.63768 2.56086C1.60545 2.87108 1.30102 3.09454 1.10517 3.32948C1.06798 3.40279 1.0303 3.47558 0.990635 3.5464C0.889894 3.73911 0.810892 3.94254 0.755128 4.15292C0.696622 4.34694 0.620266 4.53199 0.549857 4.72203C0.404084 5.11556 0.346078 5.52805 0.222123 5.92752C0.155685 6.14051 0.0708973 6.35244 0.0570187 6.5759C0.0431342 6.79936 0.0505671 7.01485 0.0128856 7.23427C0.010299 7.24747 0.0059641 7.26019 0 7.2722C0.210718 8.69669 0.668853 10.0952 1.52116 11.2668C2.28124 12.3142 3.41617 13.0324 4.59521 13.5162C5.82238 14.021 7.23046 14.1033 8.5315 13.8898C9.79336 13.6823 11.0106 13.1556 11.8669 12.176C12.7375 11.1785 13.3206 9.98697 13.6428 8.70567C13.6484 8.67743 13.6619 8.65138 13.6818 8.63069C13.7017 8.60999 13.727 8.59549 13.7549 8.58894C13.814 8.23425 13.8441 7.87522 13.8447 7.51559L13.8249 6.94998Z" fill="white"/>
<path d="M17.7444 1.94727H20.0311L24.587 13.8638H22.244L21.3166 11.4093H16.483L15.5196 13.8638H13.1759L17.7444 1.94727ZM18.902 5.10693L17.313 9.19683H20.4822L18.902 5.10693Z" fill="white"/>
<path d="M27.4796 1.94727H29.6765L32.4228 10.2592L35.1939 1.94727H37.3895L39.3792 13.8638H37.1976L35.9258 6.33793L33.4096 13.8638H31.4223L28.9279 6.33793L27.6283 13.8638H25.429L27.4796 1.94727Z" fill="white"/>
<path d="M40.5444 1.94727H47.7118L43.4945 11.6852H47.4386V13.8643H40.1997L44.3968 4.19121H40.5444V1.94727Z" fill="white"/>
<path d="M49.2578 1.94727H51.4968V13.8638H49.2578V1.94727Z" fill="white"/>
<path d="M53.2646 1.94727H55.8011L58.2913 5.77333L60.7857 1.94727H63.3194L59.5614 7.72495L63.5561 13.8638H61.0194L58.2925 9.67414L55.5656 13.8638H53.0142L57.0209 7.71996L53.2646 1.94727Z" fill="white"/>
<path d="M52.3403 1.7287C52.3184 1.46986 52.0052 0 50.3462 0C48.756 0 48.4075 1.7287 48.4075 1.7287C48.5612 1.54169 49.2727 1.07235 50.3738 1.07235C51.4751 1.07235 52.1861 1.54169 52.3403 1.7287Z" fill="#DEA329"/>
</svg>
