<svg width="64" height="64" viewBox="0 0 64 64" fill="none" xmlns="http://www.w3.org/2000/svg">
<g clip-path="url(#clip0_708_5995)">
<path d="M64 0H0V64H64V0Z" fill="#AA8745"/>
<path d="M64 43.0769H0V64H64V43.0769Z" fill="white"/>
<path d="M64 0H43.4286V42.4615H64V0Z" fill="white"/>
<path d="M60.9524 10.9108L46.4305 9.31697V8.47389L57.3562 7.20004H58.2095C58.0114 7.20004 57.7295 7.20004 57.3562 7.16927L46.4305 5.87081V5.02158L60.9524 3.42773V4.46158L50.5067 5.4585L49.4629 5.48927C49.6991 5.48927 50.0495 5.48927 50.5067 5.52004L60.96 6.75081V7.63697L50.5067 8.86773L49.4629 8.8985C49.6991 8.8985 50.0495 8.8985 50.5067 8.93543L60.9524 9.88312V10.9108Z" fill="#AA8745"/>
<path d="M46.4762 13.4032V12.3632H60.9524V13.4032H46.4762Z" fill="#AA8745"/>
<path d="M46.4762 20.1785V19.4646L57.1429 16.3323H46.4762V15.3846H60.9524V16.1662L50.4762 19.2431H60.9524V20.2216L46.4762 20.1785Z" fill="#AA8745"/>
<path d="M46.4762 26.8739V26.1539L57.1429 23.0278H46.4762V22.0493H60.9524V22.8309L50.4762 25.9078H60.9524V26.8862L46.4762 26.8739Z" fill="#AA8745"/>
<path d="M46.4762 32.6154V28.7446H60.9524V32.5477H59.8248V29.7846H54.4152V32.2954H53.2571V29.7846H47.6038V32.6154H46.4762Z" fill="#AA8745"/>
<path d="M46.4762 39.1939V38.1047L54.2324 35.9262L54.4914 36.0678V37.9139H59.8248V35.2555H46.4762V34.2155H60.9524V38.1539C60.9595 38.2671 60.9374 38.3802 60.8876 38.4862C60.8378 38.5921 60.7612 38.6885 60.6629 38.7693C60.5634 38.8494 60.4441 38.9116 60.3128 38.9519C60.1815 38.9922 60.0412 39.0097 59.901 39.0031H54.4305C53.7295 39.0031 53.3867 38.6216 53.3867 37.8647C53.3867 37.7908 53.3867 37.6801 53.3867 37.5324C53.3867 37.3847 53.3867 37.2862 53.3867 37.2185C51.0908 37.8708 48.7873 38.5293 46.4762 39.1939Z" fill="#AA8745"/>
<path d="M9.80568 7.8216C9.46254 7.82748 9.12194 7.77288 8.80759 7.6616C8.50497 7.55456 8.25361 7.37098 8.0914 7.13853C7.89746 6.83497 7.808 6.49493 7.83235 6.15391V3.78468C7.81272 3.45185 7.90207 3.12073 8.0914 2.82468C8.25415 2.59483 8.50194 2.41191 8.79997 2.3016C9.11543 2.19321 9.45526 2.13873 9.79806 2.1416C10.1627 2.1335 10.5248 2.19242 10.8571 2.31391C11.138 2.41974 11.3796 2.5831 11.5581 2.78776C11.7222 2.99288 11.8071 3.2328 11.8019 3.47699C11.8067 3.51371 11.8017 3.55084 11.7872 3.58587C11.7728 3.6209 11.7492 3.65302 11.7181 3.68007C11.6514 3.71823 11.5711 3.73768 11.4895 3.73545C11.4147 3.73798 11.3407 3.72302 11.2762 3.69237C11.2449 3.67708 11.2192 3.65534 11.2018 3.62938C11.1844 3.60342 11.1759 3.57419 11.1771 3.54468C11.1491 3.3646 11.0766 3.1909 10.9638 3.03391C10.8538 2.89702 10.6979 2.78818 10.5143 2.72007C10.2913 2.64086 10.0492 2.603 9.80568 2.6093C9.62492 2.60066 9.44388 2.62185 9.27359 2.67157C9.1033 2.7213 8.94733 2.79852 8.81521 2.89853C8.55934 3.1455 8.43352 3.46364 8.46473 3.78468V6.15391C8.43148 6.47702 8.55742 6.79768 8.81521 7.04622C8.94733 7.14623 9.1033 7.22345 9.27359 7.27317C9.44388 7.3229 9.62492 7.34409 9.80568 7.33545C9.98866 7.3433 10.1718 7.32178 10.3444 7.27214C10.517 7.2225 10.6757 7.14571 10.8114 7.04622C11.0747 6.79957 11.2062 6.47871 11.1771 6.15391V5.25545H9.90473C9.86988 5.25618 9.83528 5.25046 9.80359 5.23872C9.77189 5.22699 9.74394 5.20956 9.72187 5.18776C9.68349 5.14235 9.66231 5.08889 9.66092 5.03391C9.66244 4.98086 9.68368 4.9294 9.72187 4.88622C9.74311 4.86366 9.77091 4.84568 9.8028 4.83387C9.8347 4.82207 9.86971 4.8168 9.90473 4.81853H11.5733C11.6058 4.81677 11.6383 4.82082 11.6686 4.8304C11.6989 4.83997 11.7262 4.85483 11.7485 4.87391C11.7886 4.91394 11.8101 4.96398 11.8095 5.01545V6.15391C11.8311 6.48957 11.7389 6.82363 11.5428 7.12007C11.3806 7.35252 11.1293 7.5361 10.8266 7.64314C10.5068 7.76284 10.1581 7.82379 9.80568 7.8216Z" fill="white"/>
<path d="M13.3562 7.77844C13.2881 7.77732 13.2219 7.76021 13.1657 7.7292C13.1358 7.71177 13.1117 7.68855 13.0958 7.66168C13.0798 7.63481 13.0724 7.60513 13.0743 7.57536V2.32613C13.0711 2.29794 13.0781 2.26961 13.0943 2.24452C13.1105 2.21943 13.1353 2.19863 13.1657 2.18459C13.2333 2.15464 13.3096 2.13977 13.3867 2.14151C13.4613 2.13965 13.5352 2.15457 13.6 2.18459C13.6339 2.19614 13.6625 2.21603 13.6817 2.24143C13.7008 2.26684 13.7096 2.29647 13.7067 2.32613V7.30459H16.4267C16.4595 7.30207 16.4925 7.30782 16.5212 7.32104C16.5498 7.33426 16.5727 7.35431 16.5867 7.37844C16.6171 7.42817 16.6327 7.48296 16.6324 7.53844C16.6334 7.59594 16.6177 7.65284 16.5867 7.70459C16.5727 7.72872 16.5498 7.74877 16.5212 7.76199C16.4925 7.7752 16.4595 7.78095 16.4267 7.77844H13.3562Z" fill="white"/>
<path d="M19.2152 7.82154C18.8695 7.82811 18.5263 7.7735 18.2095 7.66154C17.9182 7.55014 17.6781 7.367 17.5238 7.13846C17.3189 6.8374 17.2189 6.49715 17.2343 6.15384V3.78461C17.224 3.44957 17.3239 3.11831 17.5238 2.82461C17.6857 2.59647 17.9304 2.41392 18.2247 2.30154C18.8719 2.08845 19.5966 2.08845 20.2438 2.30154C20.5464 2.40858 20.7978 2.59216 20.96 2.82461C21.1574 3.11864 21.2522 3.45045 21.2343 3.78461V6.15384C21.2536 6.49007 21.1587 6.82416 20.96 7.12C20.7978 7.35245 20.5464 7.53603 20.2438 7.64308C19.9218 7.76406 19.5703 7.82505 19.2152 7.82154ZM19.2152 7.35384C19.3965 7.36273 19.5782 7.34226 19.7496 7.29365C19.921 7.24504 20.0787 7.16926 20.2133 7.07077C20.3461 6.94516 20.4463 6.79925 20.5078 6.64172C20.5693 6.48419 20.591 6.31827 20.5714 6.15384V3.78461C20.5882 3.62459 20.5645 3.46347 20.5016 3.31111C20.4387 3.15875 20.338 3.01834 20.2057 2.89846C19.9246 2.7114 19.5718 2.60911 19.2076 2.60911C18.8434 2.60911 18.4906 2.7114 18.2095 2.89846C17.9536 3.14544 17.8278 3.46357 17.859 3.78461V6.15384C17.8415 6.31486 17.8635 6.47707 17.9236 6.63123C17.9838 6.78539 18.0809 6.92847 18.2095 7.05231C18.3394 7.16101 18.4959 7.24669 18.6691 7.30389C18.8422 7.3611 19.0282 7.38859 19.2152 7.38461V7.35384Z" fill="white"/>
<path d="M22.8571 7.77844C22.7825 7.78097 22.7093 7.76126 22.6514 7.72305C22.6268 7.7063 22.6066 7.68565 22.5922 7.66236C22.5778 7.63908 22.5694 7.61366 22.5676 7.58767V2.33229C22.5662 2.30429 22.5739 2.27649 22.5899 2.25165C22.606 2.22681 22.6298 2.20581 22.659 2.19075C22.7176 2.15892 22.7865 2.1418 22.8571 2.14152H24.419C24.7507 2.1378 25.0814 2.17093 25.4019 2.23998C25.6808 2.30198 25.927 2.43597 26.1029 2.62152C26.2989 2.86846 26.3923 3.1595 26.3695 3.45229C26.3824 3.73452 26.3036 4.01457 26.1409 4.26459C26.0151 4.4673 25.8085 4.62989 25.5543 4.72613C25.7461 4.78142 25.9223 4.86721 26.0724 4.97844C26.224 5.09546 26.3411 5.23846 26.4152 5.3969C26.5061 5.60626 26.5474 5.82753 26.5371 6.04921V6.19075C26.5548 6.51218 26.4709 6.83197 26.2933 7.11998C26.1372 7.3407 25.9004 7.51698 25.6152 7.62459C25.3127 7.73126 24.9852 7.78374 24.6552 7.77844H22.8571ZM23.2 4.49844H24.4571C24.8021 4.52703 25.1488 4.45973 25.44 4.30767C25.5609 4.20066 25.6515 4.07366 25.7054 3.9355C25.7594 3.79734 25.7754 3.65134 25.7524 3.50767C25.7693 3.31151 25.7108 3.11592 25.5848 2.94767C25.4729 2.82628 25.3192 2.73423 25.1429 2.68305C24.9176 2.6307 24.6839 2.60581 24.4495 2.60921H23.2152L23.2 4.49844ZM23.2 7.30459H24.5714C24.7493 7.31416 24.9277 7.29516 25.0964 7.24868C25.2651 7.20221 25.4207 7.12918 25.5543 7.03382C25.6841 6.91428 25.7821 6.77451 25.8424 6.62316C25.9027 6.4718 25.9239 6.31206 25.9048 6.15382V6.0369C25.9242 5.88288 25.9022 5.72729 25.8404 5.58073C25.7786 5.43418 25.6784 5.30011 25.5467 5.18767C25.2766 5.00883 24.9357 4.91486 24.5867 4.92305H23.2152L23.2 7.30459Z" fill="white"/>
<path d="M27.5505 7.77848C27.4948 7.78384 27.4385 7.78384 27.3828 7.77848C27.329 7.7591 27.28 7.732 27.2381 7.69848C27.2202 7.68401 27.2062 7.66669 27.197 7.64762C27.1878 7.62855 27.1837 7.60815 27.1848 7.58771C27.1806 7.5694 27.1806 7.55064 27.1848 7.53233L29.1809 2.2954C29.2051 2.23656 29.2571 2.18787 29.3257 2.16002C29.3972 2.13269 29.4752 2.11801 29.5543 2.11694C29.6393 2.11719 29.7229 2.13408 29.7981 2.16617C29.8309 2.17875 29.86 2.19675 29.8837 2.21902C29.9073 2.24128 29.9249 2.26731 29.9352 2.2954L31.9238 7.53233C31.9275 7.5486 31.9275 7.56529 31.9238 7.58156C31.9201 7.62309 31.8985 7.66228 31.8628 7.69233C31.8238 7.72576 31.7773 7.75291 31.7257 7.77233C31.6675 7.79132 31.6056 7.80174 31.5428 7.8031C31.4922 7.80247 31.4425 7.79191 31.3981 7.77233C31.3753 7.76258 31.3558 7.74853 31.3412 7.73139C31.3267 7.71425 31.3174 7.69452 31.3143 7.67387L30.8647 6.48617H28.2438L27.8019 7.67387C27.7959 7.69448 27.7846 7.71386 27.7689 7.7308C27.7532 7.74775 27.7333 7.76188 27.7105 7.77233C27.6584 7.78433 27.6037 7.78643 27.5505 7.77848ZM28.3962 6.01848H30.6819L29.5238 2.94156L28.3962 6.01848Z" fill="white"/>
<path d="M33.1429 7.77847C33.0725 7.77716 33.0039 7.76012 32.9448 7.72924C32.9148 7.7118 32.8908 7.68859 32.8748 7.66171C32.8588 7.63484 32.8515 7.60516 32.8533 7.57539V2.32616C32.8509 2.29733 32.859 2.26855 32.8766 2.24339C32.8942 2.21823 32.9205 2.1978 32.9524 2.18462C33.0196 2.15379 33.0961 2.13886 33.1733 2.14154C33.2479 2.14031 33.3216 2.15518 33.3867 2.18462C33.4192 2.19713 33.4461 2.21743 33.4639 2.24276C33.4816 2.26808 33.4892 2.2972 33.4857 2.32616V7.30462H36.2057C36.2394 7.30326 36.2728 7.30944 36.3024 7.32247C36.332 7.3355 36.3565 7.35488 36.3733 7.37847C36.4038 7.42821 36.4194 7.48299 36.419 7.53847C36.42 7.59597 36.4044 7.65287 36.3733 7.70462C36.3565 7.72821 36.332 7.74759 36.3024 7.76062C36.2728 7.77365 36.2394 7.77983 36.2057 7.77847H33.1429Z" fill="white"/>
<path d="M3.5276 16.5662C3.15344 16.5715 2.78213 16.5128 2.43808 16.3939C2.11567 16.2729 1.84897 16.0725 1.67617 15.8216C1.46442 15.4982 1.3644 15.1347 1.38665 14.7693V12.1908C1.36469 11.832 1.46203 11.4751 1.66855 11.157C1.84135 10.906 2.10806 10.7057 2.43046 10.5846C2.7716 10.4652 3.1406 10.4064 3.51236 10.4123C3.90553 10.4049 4.29586 10.4679 4.65522 10.597C4.96456 10.7077 5.22873 10.8869 5.41713 11.1139C5.60185 11.3331 5.6977 11.5933 5.69141 11.8585C5.6972 11.8991 5.69127 11.9402 5.67409 11.9787C5.6569 12.0171 5.62893 12.0518 5.59236 12.08C5.52148 12.1213 5.43593 12.1429 5.34855 12.1416C5.26585 12.1421 5.1844 12.1252 5.11236 12.0923C5.08083 12.0739 5.05487 12.0499 5.0364 12.0222C5.01793 11.9945 5.00744 11.9638 5.0057 11.9323C4.97609 11.7372 4.89837 11.5489 4.77713 11.3785C4.66233 11.2273 4.49181 11.109 4.28951 11.04C4.04961 10.9554 3.78921 10.9154 3.5276 10.9231C3.33196 10.9119 3.13556 10.9335 2.9507 10.9864C2.76585 11.0393 2.59652 11.1226 2.45332 11.2308C2.31169 11.3614 2.20426 11.5137 2.13748 11.6787C2.0707 11.8437 2.04596 12.0179 2.06474 12.1908V14.7693C2.04751 14.943 2.07297 15.1179 2.13965 15.2837C2.20634 15.4495 2.31293 15.603 2.45332 15.7354C2.59753 15.8425 2.76701 15.9249 2.95161 15.9777C3.1362 16.0306 3.33212 16.0529 3.5276 16.0431C3.92409 16.0583 4.31225 15.9479 4.60951 15.7354C4.7527 15.6042 4.8616 15.451 4.92969 15.285C4.99777 15.119 5.02362 14.9436 5.0057 14.7693V13.7846H3.61903C3.58217 13.7862 3.54543 13.7802 3.51216 13.7673C3.47888 13.7544 3.45014 13.735 3.42855 13.7108C3.3819 13.6614 3.35769 13.6006 3.35998 13.5385C3.36053 13.4805 3.38462 13.4243 3.42855 13.3785C3.45014 13.3543 3.47888 13.3349 3.51216 13.322C3.54543 13.3091 3.58217 13.3031 3.61903 13.3046H5.43236C5.46785 13.3022 5.50356 13.3065 5.53663 13.3172C5.5697 13.3279 5.59922 13.3446 5.62284 13.3662C5.66849 13.4088 5.69293 13.4637 5.69141 13.52V14.7508C5.71128 15.1121 5.61133 15.4711 5.40189 15.7908C5.22628 16.04 4.96038 16.2397 4.63998 16.3631C4.2915 16.4944 3.91213 16.5637 3.5276 16.5662Z" fill="white"/>
<path d="M6.85714 16.517C6.79652 16.5181 6.73645 16.5076 6.6819 16.4862C6.62197 16.4693 6.56735 16.442 6.5219 16.4062C6.48458 16.3721 6.46304 16.3286 6.46095 16.2831C6.45662 16.2648 6.45662 16.246 6.46095 16.2277L8.61714 10.5539C8.64436 10.4896 8.70184 10.4365 8.77714 10.4062C8.85285 10.376 8.93654 10.3612 9.02095 10.3631C9.11366 10.3602 9.20566 10.3772 9.28761 10.4123C9.32373 10.4262 9.35592 10.4459 9.38214 10.4702C9.40837 10.4946 9.42807 10.5231 9.43999 10.5539L11.5886 16.2277C11.5929 16.2439 11.5929 16.2607 11.5886 16.277C11.5898 16.2989 11.585 16.3207 11.5744 16.341C11.5639 16.3612 11.5479 16.3793 11.5276 16.3939C11.4851 16.4327 11.4333 16.4641 11.3752 16.4862C11.312 16.5058 11.2449 16.5163 11.1771 16.517C11.1241 16.5161 11.072 16.5056 11.0248 16.4862C10.9995 16.4744 10.9776 16.4585 10.9605 16.4394C10.9434 16.4203 10.9316 16.3985 10.9257 16.3754L10.4457 15.0893H7.61904L7.13904 16.3754C7.12478 16.4212 7.08933 16.4609 7.03999 16.4862C6.98295 16.5081 6.92025 16.5186 6.85714 16.517ZM7.77904 14.6154H10.2933L9.03618 11.2431L7.77904 14.6154Z" fill="white"/>
<path d="M12.9523 16.5169C12.8686 16.5176 12.7864 16.4983 12.7162 16.4615C12.6831 16.4448 12.6564 16.421 12.6389 16.3927C12.6214 16.3645 12.6139 16.333 12.6171 16.3015V10.6769C12.6119 10.6382 12.6182 10.5991 12.6355 10.5627C12.6527 10.5263 12.6803 10.4938 12.7162 10.4677C12.7864 10.4309 12.8686 10.4117 12.9523 10.4123C13.0337 10.4118 13.1134 10.4311 13.1809 10.4677C13.2502 10.5052 13.3097 10.5533 13.3562 10.6092C13.4158 10.6645 13.4646 10.7267 13.5009 10.7939L15.2838 13.5692L17.059 10.7939C17.1123 10.7262 17.1581 10.6646 17.2114 10.6092C17.2585 10.5516 17.321 10.5032 17.3942 10.4677C17.4567 10.432 17.5311 10.4127 17.6076 10.4123C17.6941 10.4092 17.7796 10.4286 17.8514 10.4677C17.8872 10.4938 17.9149 10.5263 17.9321 10.5627C17.9493 10.5991 17.9556 10.6382 17.9504 10.6769V16.3015C17.9536 16.333 17.9461 16.3645 17.9286 16.3927C17.9112 16.421 17.8845 16.4448 17.8514 16.4615C17.7784 16.4985 17.6937 16.5177 17.6076 16.5169C17.5262 16.5175 17.4466 16.4982 17.379 16.4615C17.3431 16.4464 17.3133 16.4233 17.2931 16.395C17.2728 16.3666 17.263 16.3342 17.2647 16.3015V11.6062L15.5504 14.2277C15.5193 14.2813 15.4722 14.3278 15.4133 14.3631C15.3716 14.389 15.3211 14.404 15.2685 14.4062C15.2219 14.4041 15.1769 14.3913 15.139 14.3692C15.0824 14.3297 15.0358 14.2816 15.0019 14.2277L13.2952 11.5815V16.3015C13.2968 16.3335 13.2877 16.3652 13.269 16.3933C13.2502 16.4215 13.2224 16.445 13.1885 16.4615C13.1177 16.4974 13.0359 16.5166 12.9523 16.5169Z" fill="white"/>
<path d="M19.8476 16.5169C19.7669 16.5203 19.6877 16.4982 19.6267 16.4554C19.5987 16.4378 19.576 16.4155 19.5601 16.3899C19.5443 16.3644 19.5358 16.3362 19.5352 16.3077V10.6215C19.5342 10.5912 19.5427 10.5611 19.5601 10.5342C19.5774 10.5073 19.6029 10.4844 19.6343 10.4677C19.6967 10.432 19.7712 10.4127 19.8476 10.4123H21.5467C21.9038 10.4106 22.2596 10.4458 22.6057 10.5169C22.9103 10.584 23.1785 10.7312 23.3676 10.9354C23.5822 11.2016 23.6838 11.5169 23.6571 11.8338C23.6672 12.1389 23.5834 12.4413 23.4133 12.7138C23.2735 12.9322 23.0486 13.1074 22.7733 13.2123C22.9815 13.2717 23.1731 13.3637 23.3371 13.4831C23.5007 13.6114 23.628 13.7667 23.7105 13.9384C23.8049 14.1663 23.8487 14.4059 23.84 14.6461V14.7692C23.8591 15.1205 23.7674 15.4699 23.5733 15.7846C23.3984 16.0268 23.1311 16.2168 22.8114 16.3261C22.4872 16.4402 22.1365 16.4969 21.7829 16.4923L19.8476 16.5169ZM20.221 12.9661H21.5619C21.9416 12.9918 22.32 12.9066 22.6286 12.7261C22.756 12.6143 22.8525 12.4818 22.9116 12.3375C22.9707 12.1932 22.9911 12.0404 22.9714 11.8892C22.9901 11.6738 22.9263 11.4589 22.7886 11.2738C22.6596 11.1371 22.4812 11.036 22.2781 10.9846C22.0296 10.9315 21.7732 10.9066 21.5162 10.9107H20.221V12.9661ZM20.221 16.0061H21.7448C21.9367 16.0155 22.129 15.9943 22.3107 15.9436C22.4924 15.8929 22.66 15.8138 22.8038 15.7107C22.9406 15.5822 23.0429 15.4322 23.1046 15.2702C23.1662 15.1082 23.1857 14.9376 23.1619 14.7692V14.6277C23.1831 14.4612 23.1593 14.2931 23.0922 14.1348C23.0251 13.9765 22.9163 13.8318 22.7733 13.7107C22.474 13.5183 22.0959 13.4238 21.7143 13.4461H20.1905L20.221 16.0061Z" fill="white"/>
<path d="M25.4171 16.517C25.3403 16.5183 25.2652 16.4988 25.2038 16.4616C25.1707 16.4448 25.144 16.421 25.1265 16.3928C25.1091 16.3646 25.1015 16.333 25.1047 16.3016V10.6093C25.1021 10.5788 25.11 10.5482 25.1274 10.5211C25.1449 10.494 25.1713 10.4712 25.2038 10.4554C25.2793 10.4248 25.3631 10.4099 25.4476 10.4124C25.527 10.4112 25.6055 10.426 25.6762 10.4554C25.7106 10.4698 25.7391 10.4921 25.7581 10.5194C25.7771 10.5468 25.7857 10.578 25.7828 10.6093V16.0001H28.7314C28.7671 15.9981 28.8027 16.0046 28.8339 16.0188C28.865 16.033 28.8903 16.0543 28.9066 16.0801C28.9431 16.1326 28.9615 16.1921 28.96 16.2524C28.9633 16.3147 28.9448 16.3766 28.9066 16.4308C28.8911 16.4571 28.866 16.4789 28.8346 16.4932C28.8033 16.5075 28.7672 16.5137 28.7314 16.5108L25.4171 16.517Z" fill="white"/>
<path d="M30.2248 16.5169C30.1409 16.5184 30.0585 16.499 29.9886 16.4616C29.9535 16.4461 29.9247 16.4228 29.9058 16.3944C29.8868 16.366 29.8785 16.3337 29.8819 16.3016V10.6092C29.8785 10.5787 29.887 10.5481 29.9061 10.5217C29.9252 10.4952 29.954 10.4742 29.9886 10.4616C30.0591 10.4259 30.1416 10.4087 30.2248 10.4123C30.313 10.4055 30.4016 10.4229 30.4762 10.4616C30.5115 10.474 30.5413 10.4947 30.5617 10.5211C30.5821 10.5474 30.5921 10.5782 30.5905 10.6092V16.3016C30.5922 16.3342 30.5824 16.3666 30.5621 16.395C30.5419 16.4233 30.5121 16.4464 30.4762 16.4616C30.4023 16.502 30.3138 16.5214 30.2248 16.5169Z" fill="white"/>
<path d="M32.48 16.517C32.3961 16.5184 32.3137 16.4991 32.2438 16.4616C32.2087 16.4462 32.1799 16.4228 32.161 16.3944C32.142 16.366 32.1337 16.3338 32.1371 16.3016V10.6216C32.1322 10.5885 32.1397 10.5549 32.1587 10.5252C32.1777 10.4956 32.2074 10.4713 32.2438 10.4554C32.3165 10.4248 32.3979 10.4099 32.48 10.4124C32.5567 10.411 32.6319 10.4305 32.6933 10.4678C32.7603 10.505 32.8194 10.5507 32.8685 10.6031C32.9298 10.6597 32.9787 10.7242 33.0133 10.7939L35.8095 15.237V10.6093C35.8068 10.5788 35.8147 10.5483 35.8322 10.5211C35.8497 10.494 35.8761 10.4712 35.9085 10.4554C35.984 10.4248 36.0679 10.41 36.1523 10.4124C36.2319 10.4104 36.3107 10.4253 36.3809 10.4554C36.4154 10.4698 36.4439 10.4921 36.4628 10.5194C36.4818 10.5468 36.4904 10.578 36.4876 10.6093V16.3016C36.491 16.3338 36.4827 16.366 36.4637 16.3944C36.4448 16.4228 36.416 16.4462 36.3809 16.4616C36.3134 16.4982 36.2337 16.5175 36.1523 16.517C36.1028 16.517 36.0539 16.5082 36.0091 16.4912C35.9644 16.4742 35.9248 16.4494 35.8933 16.4185C35.8182 16.3524 35.7518 16.2803 35.6952 16.2031L32.8228 11.6924V16.3139C32.8245 16.3466 32.8147 16.379 32.7945 16.4073C32.7742 16.4357 32.7444 16.4588 32.7085 16.4739C32.6393 16.5062 32.5597 16.5212 32.48 16.517Z" fill="white"/>
<path d="M40.1295 16.5662C39.7578 16.5715 39.3889 16.5128 39.0476 16.3939C38.7224 16.2762 38.4545 16.075 38.2857 15.8216C38.0709 15.4989 37.9683 15.1352 37.9885 14.7692V12.1908C37.9689 11.8315 38.0689 11.4745 38.2781 11.1569C38.4478 10.9041 38.7154 10.7031 39.04 10.5846C39.3811 10.4651 39.7501 10.4064 40.1219 10.4123C40.5175 10.4049 40.9103 10.468 41.2723 10.5969C41.5789 10.7112 41.842 10.8897 42.0343 11.1139C42.2132 11.335 42.3061 11.5943 42.3009 11.8585C42.3061 11.8985 42.3006 11.939 42.2848 11.9772C42.269 12.0154 42.2434 12.0505 42.2095 12.08C42.1363 12.1222 42.0479 12.1438 41.9581 12.1416C41.8777 12.1429 41.7984 12.1258 41.7295 12.0923C41.6957 12.0752 41.6676 12.0517 41.6477 12.0238C41.6278 11.9959 41.6166 11.9645 41.6152 11.9323C41.5917 11.737 41.5163 11.5481 41.3943 11.3785C41.2755 11.2301 41.1062 11.1125 40.9066 11.04C40.6664 10.9562 40.4063 10.9162 40.1447 10.9231C39.9492 10.913 39.7532 10.9351 39.5685 10.9879C39.3839 11.0408 39.2144 11.1234 39.0704 11.2308C38.9316 11.3626 38.8265 11.5153 38.7611 11.68C38.6958 11.8448 38.6714 12.0184 38.6895 12.1908V14.7692C38.6559 15.1191 38.7926 15.4657 39.0704 15.7354C39.2154 15.8416 39.385 15.9234 39.5694 15.9762C39.7538 16.0291 39.9494 16.0518 40.1447 16.0431C40.5438 16.0599 40.9351 15.9494 41.2343 15.7354C41.5123 15.466 41.6466 15.1185 41.6076 14.7692V13.7846H40.2209C40.1842 13.7856 40.1476 13.7794 40.1145 13.7666C40.0813 13.7537 40.0525 13.7346 40.0304 13.7108C39.9876 13.6625 39.9661 13.604 39.9695 13.5446C39.9673 13.4873 39.9887 13.431 40.0304 13.3846C40.0525 13.3609 40.0813 13.3417 40.1145 13.3289C40.1476 13.316 40.1842 13.3098 40.2209 13.3108H42.0343C42.0697 13.3083 42.1054 13.3126 42.1385 13.3233C42.1716 13.334 42.2011 13.3508 42.2247 13.3723C42.2704 13.415 42.2948 13.4698 42.2933 13.5262V14.7569C42.3132 15.1182 42.2132 15.4773 42.0038 15.7969C41.8323 16.0487 41.5652 16.2493 41.2419 16.3692C40.8933 16.4996 40.5136 16.5668 40.1295 16.5662Z" fill="white"/>
<path d="M9.90473 22.9415C9.85931 22.9474 9.81301 22.9474 9.76759 22.9415C9.72371 22.9262 9.68466 22.903 9.6533 22.8738C9.63592 22.863 9.622 22.849 9.61272 22.8329C9.60344 22.8169 9.59907 22.7993 9.59997 22.7815C9.59997 22.7815 9.59997 22.7508 9.59997 22.7385L11.2685 18.3754C11.2749 18.3508 11.2887 18.3278 11.3086 18.3085C11.3285 18.2892 11.354 18.2741 11.3828 18.2646C11.4417 18.2401 11.5071 18.2274 11.5733 18.2277C11.6445 18.2269 11.7149 18.2395 11.779 18.2646C11.8071 18.275 11.832 18.2903 11.8518 18.3095C11.8716 18.3286 11.8858 18.3512 11.8933 18.3754L13.5466 22.7385C13.5502 22.7506 13.5502 22.7632 13.5466 22.7754C13.5474 22.7925 13.5437 22.8095 13.5358 22.8254C13.528 22.8413 13.5161 22.8557 13.5009 22.8677C13.4703 22.9002 13.4276 22.924 13.379 22.9354C13.3314 22.9445 13.2818 22.9445 13.2343 22.9354C13.1944 22.9446 13.1522 22.9446 13.1123 22.9354C13.0931 22.9275 13.0762 22.9162 13.063 22.9024C13.0498 22.8885 13.0407 22.8725 13.0362 22.8554L12.6628 21.8646H10.4457L10.08 22.8554C10.0755 22.8725 10.0663 22.8885 10.0531 22.9024C10.0399 22.9162 10.0231 22.9275 10.0038 22.9354C9.97156 22.9426 9.93793 22.9447 9.90473 22.9415ZM10.6133 21.4769H12.5485L11.5809 18.8923L10.6133 21.4769Z" fill="white"/>
<path d="M15.4514 22.9846C15.3841 22.9857 15.3178 22.9707 15.2609 22.9415C15.2325 22.9306 15.2071 22.9151 15.1861 22.8961C15.1652 22.8771 15.1492 22.8549 15.139 22.8308L13.5771 18.4615C13.5706 18.4434 13.5706 18.4242 13.5771 18.4061C13.582 18.3715 13.6007 18.3391 13.6305 18.3138C13.6623 18.2866 13.7013 18.2655 13.7447 18.2523H13.8819C13.9273 18.2465 13.9736 18.2465 14.019 18.2523C14.0385 18.2615 14.0554 18.2739 14.0685 18.2888C14.0817 18.3036 14.0908 18.3206 14.0952 18.3384L15.4743 22.2831L16.2362 19.8892C16.2426 19.8639 16.2563 19.8401 16.2762 19.8198C16.296 19.7995 16.3215 19.7833 16.3505 19.7723C16.4039 19.7478 16.4643 19.7351 16.5257 19.7354C16.5848 19.7343 16.6431 19.7471 16.6933 19.7723C16.7188 19.7847 16.7403 19.8017 16.7562 19.822C16.7721 19.8423 16.7819 19.8653 16.7847 19.8892L17.5924 22.2831L18.9638 18.3384C18.9696 18.3202 18.98 18.3031 18.9944 18.2882C19.0089 18.2734 19.027 18.2611 19.0476 18.2523C19.0903 18.2453 19.1344 18.2453 19.1771 18.2523C19.2251 18.2459 19.274 18.2459 19.3219 18.2523C19.362 18.2671 19.3982 18.288 19.4286 18.3138C19.4565 18.3394 19.4727 18.372 19.4743 18.4061C19.478 18.4245 19.478 18.4432 19.4743 18.4615L17.9505 22.8184C17.9403 22.8425 17.9243 22.8648 17.9034 22.8838C17.8824 22.9028 17.857 22.9183 17.8286 22.9292C17.7693 22.9592 17.7003 22.9742 17.6305 22.9723C17.5607 22.9735 17.492 22.9585 17.4324 22.9292C17.4042 22.9189 17.3794 22.9035 17.3596 22.8844C17.3398 22.8652 17.3256 22.8427 17.3181 22.8184L16.5562 20.5477L15.7943 22.8184C15.7867 22.8427 15.7726 22.8652 15.7528 22.8844C15.733 22.9035 15.7081 22.9189 15.68 22.9292C15.6131 22.967 15.533 22.9864 15.4514 22.9846Z" fill="white"/>
<path d="M19.8095 22.9416H19.68C19.6328 22.9279 19.5908 22.9046 19.5581 22.8739C19.5429 22.8619 19.531 22.8475 19.5232 22.8316C19.5153 22.8157 19.5116 22.7987 19.5124 22.7816C19.5082 22.7674 19.5082 22.7526 19.5124 22.7385L21.1733 18.3754C21.1811 18.3504 21.1962 18.3272 21.2174 18.3079C21.2387 18.2887 21.2654 18.2738 21.2952 18.2646C21.3538 18.2394 21.4194 18.2267 21.4857 18.2277C21.5544 18.2274 21.6222 18.2401 21.6838 18.2646C21.7119 18.275 21.7368 18.2903 21.7566 18.3095C21.7764 18.3287 21.7906 18.3512 21.7981 18.3754L23.459 22.7385C23.459 22.7385 23.459 22.7385 23.459 22.7754C23.4599 22.7931 23.4556 22.8107 23.4463 22.8268C23.437 22.8429 23.4231 22.8569 23.4057 22.8677C23.3764 22.8987 23.3368 22.9222 23.2914 22.9354C23.2413 22.9446 23.1892 22.9446 23.139 22.9354C23.0992 22.9446 23.057 22.9446 23.0171 22.9354C22.9981 22.928 22.9818 22.9168 22.9698 22.9027C22.9577 22.8887 22.9504 22.8724 22.9486 22.8554L22.5752 21.8646H20.3962L20.0305 22.8554C20.0156 22.8895 19.9858 22.9179 19.9467 22.9354C19.9025 22.9474 19.8551 22.9495 19.8095 22.9416ZM20.5181 21.477H22.4533L21.4933 18.8923L20.5181 21.477Z" fill="white"/>
<path d="M27.2762 22.9478C27.2447 22.9481 27.2135 22.942 27.1856 22.9302C27.1577 22.9184 27.1338 22.9012 27.1162 22.8801C27.0727 22.8337 27.0344 22.7843 27.0019 22.7324L25.7752 20.8062H24.7619V22.7693C24.7623 22.7948 24.7548 22.8199 24.7402 22.8425C24.7255 22.865 24.7042 22.8843 24.6781 22.8985C24.6218 22.9228 24.559 22.9355 24.4952 22.9355C24.4315 22.9355 24.3687 22.9228 24.3124 22.8985C24.2872 22.884 24.2669 22.8645 24.2536 22.8419C24.2403 22.8193 24.2343 22.7943 24.2362 22.7693V18.4001C24.2347 18.3805 24.2387 18.3609 24.2479 18.3428C24.2572 18.3247 24.2714 18.3085 24.2895 18.2955C24.3291 18.2658 24.3803 18.2483 24.4343 18.2462H25.8438C26.1372 18.2424 26.429 18.282 26.7048 18.3632C26.9591 18.435 27.1781 18.5709 27.3295 18.7508C27.4969 18.9815 27.5764 19.2469 27.5581 19.5139C27.5787 19.7365 27.5343 19.96 27.4286 20.1662C27.3299 20.33 27.1769 20.4685 26.9867 20.5662C26.79 20.6603 26.5727 20.723 26.3467 20.7508L27.5733 22.6524C27.5733 22.6524 27.5733 22.6524 27.5733 22.6955C27.5733 22.7385 27.5733 22.6955 27.5733 22.7385C27.5722 22.7764 27.5562 22.8131 27.5276 22.8432C27.497 22.8761 27.458 22.9034 27.4133 22.9232C27.3701 22.9388 27.3235 22.9471 27.2762 22.9478ZM24.7619 20.437H25.8438C26.152 20.4489 26.4559 20.375 26.7048 20.2278C26.92 20.0391 27.0395 19.792 27.0395 19.5355C27.0395 19.2789 26.92 19.0318 26.7048 18.8432C26.4533 18.7007 26.1506 18.6293 25.8438 18.6401H24.7619V20.437Z" fill="white"/>
<path d="M28.6781 22.9416C28.6152 22.9444 28.5531 22.9292 28.5029 22.8985C28.4808 22.8849 28.463 22.8671 28.4511 22.8468C28.4391 22.8264 28.4334 22.8041 28.4343 22.7816V18.4001C28.4346 18.3786 28.4409 18.3575 28.4528 18.3383C28.4647 18.3191 28.4818 18.3024 28.5029 18.2893C28.5548 18.2615 28.6157 18.2465 28.6781 18.2462H30.08C30.3732 18.2411 30.6643 18.2873 30.9333 18.3816C31.1847 18.4716 31.3932 18.6249 31.5276 18.8185C31.6867 19.065 31.7629 19.3408 31.7486 19.6185V21.5693C31.7628 21.849 31.6867 22.1268 31.5276 22.3755C31.3907 22.5675 31.1829 22.7203 30.9333 22.8124C30.6627 22.9017 30.3724 22.9457 30.08 22.9416H28.6781ZM28.96 22.5539H30.08C30.2325 22.5615 30.3854 22.5442 30.5294 22.503C30.6734 22.4617 30.8056 22.3974 30.9181 22.3139C31.029 22.2131 31.1132 22.095 31.1656 21.967C31.218 21.839 31.2375 21.7036 31.2229 21.5693V19.6185C31.2375 19.4842 31.218 19.3489 31.1656 19.2208C31.1132 19.0928 31.029 18.9748 30.9181 18.8739C30.6878 18.7098 30.3866 18.6258 30.08 18.6401H28.9524L28.96 22.5539Z" fill="white"/>
<path d="M34.2019 22.9908C33.9044 22.9966 33.6087 22.9526 33.3333 22.8616C33.1223 22.7983 32.9302 22.6997 32.7695 22.5723C32.6625 22.5036 32.5917 22.4046 32.5714 22.2954C32.5748 22.2562 32.588 22.218 32.6103 22.1831C32.6326 22.1482 32.6634 22.1173 32.7009 22.0923C32.7326 22.0697 32.773 22.0567 32.8152 22.0554C32.8473 22.0592 32.878 22.0682 32.9055 22.082C32.933 22.0958 32.9568 22.1139 32.9752 22.1354C33.0443 22.2024 33.1181 22.2661 33.1962 22.3262C33.3093 22.4016 33.435 22.4637 33.5695 22.5108C33.7614 22.57 33.9661 22.5972 34.1714 22.5908C34.3912 22.5968 34.6098 22.5632 34.8114 22.4923C34.9829 22.4304 35.1265 22.3272 35.2228 22.197C35.3204 22.0452 35.3676 21.8756 35.36 21.7047C35.3701 21.5309 35.3199 21.3582 35.2152 21.2062C35.1227 21.0792 34.9915 20.9733 34.8343 20.8985C34.6722 20.8166 34.5013 20.7466 34.3238 20.6893L33.7676 20.517C33.5839 20.4639 33.4097 20.3915 33.2495 20.3016C33.0878 20.2109 32.9547 20.0907 32.8609 19.9508C32.759 19.7803 32.7094 19.5924 32.7162 19.4031C32.7061 19.2023 32.7612 19.0029 32.8762 18.8247C32.9761 18.6826 33.1173 18.5622 33.2876 18.4739C33.454 18.3886 33.6368 18.3262 33.8286 18.2893C34.0183 18.253 34.2126 18.2344 34.4076 18.2339C34.5607 18.2355 34.7134 18.2457 34.8647 18.2647C35.0121 18.2812 35.1574 18.3079 35.299 18.3447C35.4136 18.3706 35.5218 18.4123 35.619 18.4677C35.6552 18.4831 35.6856 18.5061 35.7071 18.5343C35.7285 18.5624 35.7402 18.5947 35.7409 18.6277C35.7506 18.6601 35.7506 18.6938 35.7409 18.7262C35.7259 18.7636 35.6997 18.7974 35.6647 18.8247C35.6488 18.8374 35.6297 18.8472 35.6087 18.8536C35.5877 18.8599 35.5652 18.8627 35.5428 18.8616C35.4709 18.8566 35.4022 18.8353 35.3447 18.8C35.232 18.7535 35.1148 18.7144 34.9943 18.6831C34.6286 18.5968 34.24 18.5968 33.8743 18.6831C33.7046 18.7223 33.5534 18.8016 33.44 18.9108C33.3171 19.0386 33.2573 19.1987 33.2724 19.36C33.2657 19.5064 33.3163 19.6507 33.4171 19.7723C33.5197 19.8804 33.653 19.9669 33.8057 20.0247C33.9698 20.0949 34.1405 20.1545 34.3162 20.2031L34.88 20.3816C35.0621 20.4487 35.2336 20.5334 35.3905 20.6339C35.5554 20.738 35.6862 20.8733 35.7714 21.0277C35.8743 21.222 35.9237 21.4319 35.9162 21.6431C35.9268 21.9021 35.8533 22.1588 35.7028 22.3877C35.5659 22.5798 35.3581 22.7325 35.1086 22.8247C34.8256 22.9344 34.5157 22.9912 34.2019 22.9908Z" fill="white"/>
<path d="M4.19046 40.9354C4.02212 40.935 3.85869 40.8896 3.7257 40.8062C3.65039 40.7718 3.58797 40.7217 3.54505 40.661C3.50214 40.6003 3.48031 40.5314 3.48189 40.4616V38.6708C3.4828 38.1669 3.68006 37.676 4.0457 37.2677C4.45101 36.8044 4.93587 36.39 5.4857 36.037C6.09522 35.6924 6.68951 35.2923 7.35237 34.9293C7.99646 34.5699 8.61698 34.1838 9.21142 33.7724C9.76409 33.4062 10.2535 32.9819 10.6667 32.5108C11.0353 32.0763 11.2295 31.5606 11.2228 31.0339C11.2233 30.6371 11.1112 30.2456 10.8952 29.8893C10.6645 29.5143 10.3115 29.1973 9.87427 28.9724C9.35647 28.7123 8.75401 28.5837 8.14475 28.6031C7.42977 28.5845 6.73092 28.7771 6.17903 29.1447C5.8947 29.3459 5.67079 29.5967 5.52427 29.8782C5.37774 30.1597 5.31245 30.4644 5.33332 30.7693C5.33057 30.8351 5.31086 30.8998 5.27544 30.9591C5.24002 31.0184 5.18967 31.0712 5.12761 31.1139C4.96181 31.2256 4.74864 31.2808 4.53332 31.2677C4.43817 31.2734 4.3427 31.2613 4.25421 31.2325C4.16572 31.2037 4.08658 31.1589 4.02284 31.1016C3.87847 30.9189 3.81657 30.7015 3.84761 30.4862C3.84351 29.9284 4.05089 29.3829 4.44189 28.9231C4.82608 28.4623 5.35092 28.0892 5.9657 27.84C6.64573 27.5708 7.39516 27.4359 8.15237 27.4462C8.9696 27.4318 9.77687 27.5932 10.4914 27.9139C11.1558 28.2179 11.71 28.657 12.099 29.1877C12.4984 29.731 12.7041 30.3529 12.6933 30.9847C12.7202 31.6047 12.5469 32.2197 12.1905 32.7693C11.8082 33.3063 11.325 33.7921 10.7581 34.2093C10.1781 34.6409 9.56201 35.0398 8.91427 35.4031C8.25903 35.7723 7.64189 36.1293 7.06284 36.4739C6.52245 36.7807 6.02887 37.1381 5.59237 37.5385C5.24083 37.8527 5.0431 38.2597 5.03618 38.6831V39.8154H12.32C12.3951 39.8147 12.4695 39.8283 12.537 39.855C12.6044 39.8817 12.6632 39.9208 12.7086 39.9693C12.8184 40.0833 12.875 40.2249 12.8686 40.3693C12.8732 40.5115 12.8167 40.6507 12.7086 40.7631C12.6667 40.8157 12.6092 40.859 12.5413 40.8891C12.4735 40.9192 12.3974 40.9351 12.32 40.9354H4.19046Z" fill="white"/>
<path d="M19.6266 41.0462C18.8022 41.0577 17.9841 40.9277 17.2266 40.6646C16.5131 40.4102 15.9181 39.9792 15.5276 39.4339C15.0713 38.7225 14.8558 37.9264 14.9028 37.1262V31.3846C14.8565 30.5923 15.0721 29.8043 15.5276 29.1016C15.917 28.5578 16.5089 28.1271 17.219 27.8708C17.978 27.6039 18.799 27.4717 19.6266 27.4831C20.4591 27.4722 21.285 27.6043 22.0495 27.8708C22.7638 28.1267 23.3608 28.5572 23.7562 29.1016C24.2155 29.8032 24.4314 30.592 24.3809 31.3846V37.1016C24.4266 37.8938 24.211 38.6817 23.7562 39.3846C23.3608 39.9291 22.7638 40.3595 22.0495 40.6154C21.289 40.8967 20.463 41.0435 19.6266 41.0462ZM19.6266 39.9262C20.0628 39.9467 20.4996 39.8968 20.9117 39.7796C21.3237 39.6623 21.7027 39.4799 22.0266 39.2431C22.3358 38.9494 22.5687 38.6084 22.7114 38.2405C22.854 37.8726 22.9036 37.4853 22.8571 37.1016V31.3846C22.8988 31.0031 22.844 30.6186 22.696 30.2547C22.548 29.8908 22.3099 29.555 21.9962 29.2677C21.6723 29.0309 21.2932 28.8486 20.8812 28.7313C20.4691 28.614 20.0323 28.5642 19.5962 28.5846C19.1634 28.5632 18.7297 28.6126 18.3212 28.73C17.9126 28.8474 17.5377 29.0303 17.219 29.2677C16.916 29.5592 16.6878 29.8965 16.5479 30.26C16.4079 30.6234 16.3589 31.0057 16.4038 31.3846V37.1016C16.3628 37.4859 16.4164 37.8731 16.5616 38.2406C16.7067 38.6082 16.9405 38.9489 17.2495 39.2431C17.5682 39.4805 17.9431 39.6635 18.3516 39.7808C18.7602 39.8982 19.1938 39.9477 19.6266 39.9262ZM19.6266 34.9477C19.5139 34.952 19.4015 34.936 19.2974 34.9008C19.1933 34.8657 19.1002 34.8124 19.0247 34.7446C18.947 34.6815 18.8855 34.6066 18.8436 34.5243C18.8018 34.4419 18.7805 34.3537 18.7809 34.2646C18.7787 34.1737 18.8014 34.0835 18.8475 34.0005C18.8937 33.9175 18.962 33.8438 19.0476 33.7846C19.1276 33.7231 19.2221 33.675 19.3255 33.6433C19.4288 33.6116 19.539 33.5969 19.6495 33.6C19.7599 33.5926 19.871 33.6046 19.975 33.6354C20.079 33.6661 20.1735 33.7148 20.2519 33.7781C20.3302 33.8414 20.3905 33.9177 20.4286 34.0017C20.4667 34.0858 20.4816 34.1755 20.4723 34.2646C20.4757 34.4425 20.3938 34.6145 20.2438 34.7446C20.1691 34.8116 20.0773 34.8644 19.9746 34.8995C19.8719 34.9346 19.7609 34.9511 19.6495 34.9477H19.6266Z" fill="white"/>
<path d="M28.739 40.9353C28.5533 40.9393 28.3703 40.8986 28.2133 40.8184C28.139 40.781 28.0786 40.7281 28.0384 40.6653C27.9982 40.6025 27.9796 40.5321 27.9847 40.4615V29.5384L27.0704 30.7692C27.0179 30.8362 26.9477 30.8929 26.8647 30.9353C26.7963 30.9704 26.7172 30.9895 26.6361 30.9907C26.555 30.9919 26.4746 30.9775 26.4017 30.9486C26.3288 30.9197 26.2656 30.8772 26.2171 30.8246C26.1025 30.7241 26.0398 30.592 26.0419 30.4553C26.0495 30.3489 26.0887 30.2455 26.1561 30.1538C26.2112 30.0585 26.2889 29.9727 26.3847 29.9015L28.259 27.6923C28.3294 27.6224 28.4058 27.5566 28.4876 27.4953C28.5856 27.4352 28.7078 27.4067 28.8304 27.4153C28.9944 27.4136 29.1547 27.4546 29.2876 27.5323C29.3548 27.5713 29.4088 27.6232 29.4447 27.6834C29.4807 27.7436 29.4974 27.8101 29.4933 27.8769V40.4615C29.4968 40.5333 29.476 40.6045 29.433 40.6674C29.39 40.7303 29.3266 40.7826 29.2495 40.8184C29.0966 40.896 28.9195 40.9366 28.739 40.9353Z" fill="white"/>
<path d="M37.1657 41.0462C36.3364 41.0572 35.5135 40.9272 34.7505 40.6646C34.0333 40.4124 33.4351 39.981 33.0438 39.4339C32.5849 38.7231 32.3667 37.927 32.4114 37.1262V31.3846C32.3656 30.5909 32.5868 29.8019 33.0514 29.1015C33.4496 28.5567 34.0491 28.1263 34.7657 27.8708C36.181 27.3868 37.7629 27.3235 39.2305 27.6923C39.7756 27.8441 40.2762 28.085 40.701 28.4C41.0823 28.6861 41.3881 29.0315 41.6 29.4154C41.8052 29.783 41.9116 30.1814 41.9124 30.5846C41.921 30.6629 41.9076 30.7417 41.8733 30.8152C41.839 30.8887 41.7847 30.955 41.7143 31.0092C41.5691 31.1007 41.3877 31.1466 41.2038 31.1385C41.0071 31.1422 40.8126 31.104 40.64 31.0277C40.5607 30.9865 40.4968 30.9287 40.4552 30.8604C40.4135 30.7921 40.3958 30.7159 40.4038 30.64C40.4167 30.2419 40.2637 29.8519 39.9695 29.5323C39.6607 29.2171 39.2566 28.9712 38.7962 28.8185C38.2802 28.6433 37.7254 28.5554 37.1657 28.56C36.7307 28.539 36.2948 28.5886 35.8839 28.7059C35.473 28.8232 35.0954 29.0059 34.7733 29.2431C34.4582 29.5344 34.22 29.8746 34.0733 30.2428C33.9265 30.611 33.8744 30.9996 33.92 31.3846V34.2092C34.2848 33.7868 34.7965 33.4613 35.3905 33.2739C36.0109 33.0834 36.6696 32.9874 37.3333 32.9908C38.1146 32.9822 38.8906 33.095 39.619 33.3231C40.3189 33.5415 40.9087 33.9421 41.2952 34.4615C41.7446 35.1347 41.9555 35.8948 41.9048 36.6585V37.1015C41.9481 37.8944 41.7298 38.6823 41.2724 39.3846C40.8782 39.9275 40.2843 40.3577 39.5733 40.6154C38.8182 40.8966 37.9972 41.0435 37.1657 41.0462ZM37.1657 39.9631C37.5996 39.9836 38.0341 39.9338 38.4437 39.8165C38.8533 39.6992 39.2296 39.5167 39.5505 39.28C39.8572 38.9887 40.0886 38.6508 40.2312 38.2862C40.3739 37.9216 40.4248 37.5377 40.381 37.1569V36.7139C40.43 36.3409 40.3792 35.9638 40.232 35.6081C40.0848 35.2524 39.8445 34.9264 39.5276 34.6523C38.854 34.2165 38.0046 33.9973 37.1429 34.0369C36.2971 34.0002 35.4611 34.1977 34.7733 34.5969C34.4528 34.8453 34.2072 35.1498 34.0552 35.4869C33.9033 35.8241 33.8493 36.1849 33.8971 36.5415V37.1569C33.8564 37.5389 33.911 37.9236 34.0576 38.2883C34.2041 38.6529 34.4397 38.9902 34.7505 39.28C35.0752 39.5195 35.4566 39.7035 35.8717 39.8209C36.2867 39.9383 36.7269 39.9867 37.1657 39.9631Z" fill="white"/>
<path d="M7.29144 49.077H8.05335V53.5385H7.29144V49.077ZM7.61906 51.077H9.52382C9.66034 51.0794 9.79481 51.0499 9.91105 50.9921C10.0273 50.9342 10.1204 50.8504 10.1791 50.7509C10.2422 50.6345 10.2734 50.5086 10.2705 50.3816C10.2735 50.2566 10.2423 50.1327 10.1791 50.0185C10.1193 49.9186 10.0271 49.8335 9.9124 49.7724C9.79479 49.716 9.66057 49.6863 9.52382 49.6862H7.61906V49.0709H9.48573C9.77736 49.066 10.0657 49.121 10.3238 49.2309C10.5646 49.333 10.7612 49.4918 10.8876 49.6862C11.0226 49.8963 11.093 50.1296 11.093 50.3662C11.093 50.6029 11.0226 50.8361 10.8876 51.0462C10.7589 51.2393 10.5629 51.3977 10.3238 51.5016C10.0651 51.6099 9.77715 51.6649 9.48573 51.6616H7.61906V51.077ZM9.14287 51.5385L9.90478 51.397L11.3295 53.5385H10.4076L9.14287 51.5385Z" fill="#AA8745"/>
<path d="M12.381 49.0831H13.1429V53.5385H12.381V49.0831ZM12.7619 49.0831H15.9467V49.6985H12.7619V49.0831ZM12.7619 51.0339H15.5276V51.6493H12.7619V51.0339ZM12.7619 52.96H15.9467V53.5754H12.7619V52.96Z" fill="#AA8745"/>
<path d="M18.2857 53.6062L17.9276 53.5447C17.6963 53.5036 17.4714 53.4417 17.2571 53.3601C17.0492 53.2772 16.8547 53.1738 16.6781 53.0524L17.1581 52.5724C17.3653 52.7161 17.6027 52.8286 17.8591 52.9047C18.1258 52.9802 18.4068 53.0177 18.6895 53.0154C19.0142 53.0293 19.3369 52.9674 19.6191 52.837C19.7225 52.7805 19.8071 52.7044 19.8656 52.6154C19.924 52.5263 19.9545 52.427 19.9543 52.3262C19.9612 52.1922 19.907 52.0608 19.8019 51.957C19.6978 51.8619 19.5634 51.7917 19.4133 51.7539C19.2114 51.7014 19.0052 51.6602 18.7962 51.6308H18.6895C18.3821 51.5901 18.079 51.5305 17.7829 51.4524C17.5531 51.3751 17.3568 51.2444 17.2191 51.077C17.0361 50.8625 16.9476 50.6046 16.9676 50.3447C16.961 50.0954 17.043 49.8498 17.2038 49.637C17.3641 49.4346 17.5985 49.2776 17.8743 49.1877C18.2129 49.0775 18.5761 49.0252 18.941 49.0339C19.3384 49.0377 19.7303 49.109 20.0914 49.2431C20.2856 49.3125 20.4696 49.3992 20.64 49.5016L20.1981 50.0001C20.0053 49.885 19.7954 49.7899 19.5733 49.717C19.3707 49.6572 19.1567 49.6259 18.941 49.6247C18.6296 49.6089 18.32 49.6736 18.0571 49.8093C17.9569 49.8684 17.876 49.9464 17.8216 50.0365C17.7671 50.1265 17.7408 50.226 17.7448 50.3262C17.7398 50.3923 17.7515 50.4585 17.779 50.5209C17.8064 50.5833 17.8492 50.6406 17.9048 50.6893C18.0187 50.7793 18.1569 50.8467 18.3086 50.8862C18.5285 50.9405 18.7524 50.9837 18.9791 51.0154H19.1238C19.4114 51.0588 19.6923 51.1269 19.9619 51.2185C20.1886 51.294 20.3841 51.4199 20.5257 51.5816C20.69 51.7884 20.77 52.0316 20.7543 52.277C20.7626 52.5253 20.6776 52.7699 20.5105 52.9785C20.3426 53.1813 20.1001 53.3363 19.8171 53.4216C19.4679 53.5318 19.0948 53.5841 18.72 53.5754L18.2857 53.6062Z" fill="#AA8745"/>
<path d="M21.7829 49.0831H22.5448V53.5385H21.7829V49.0831ZM22.1867 51.2246H23.9619C24.1208 51.2352 24.2798 51.2052 24.4164 51.139C24.5531 51.0728 24.6606 50.9736 24.7239 50.8554C24.8001 50.7313 24.8368 50.5938 24.8305 50.4554C24.8368 50.315 24.8002 50.1755 24.7239 50.0492C24.6606 49.9311 24.5531 49.8319 24.4164 49.7656C24.2798 49.6994 24.1208 49.6695 23.9619 49.68H22.1867V49.0646H23.9315C24.2362 49.0597 24.5375 49.1168 24.8077 49.2308C25.0558 49.3452 25.2591 49.5137 25.3943 49.7169C25.5421 49.9464 25.613 50.2031 25.6 50.4616C25.6062 50.7116 25.5355 50.959 25.3943 51.1815C25.256 51.3814 25.0533 51.5473 24.8077 51.6615C24.5375 51.7755 24.2362 51.8327 23.9315 51.8277H22.1867V51.2246Z" fill="#AA8745"/>
<path d="M27.3829 53.4031C27.0893 53.2684 26.8509 53.0674 26.6971 52.8246C26.5309 52.5554 26.4473 52.2578 26.4533 51.9569V50.6831C26.4438 50.3946 26.5168 50.1082 26.6667 49.8462C26.8226 49.6046 27.0604 49.404 27.3524 49.2677C27.6688 49.1345 28.0203 49.0649 28.3771 49.0649C28.734 49.0649 29.0855 49.1345 29.4019 49.2677C29.69 49.406 29.9248 49.6062 30.08 49.8462C30.2497 50.1144 30.3336 50.4127 30.3238 50.7139V51.9877C30.3336 52.2888 30.2497 52.5871 30.08 52.8554C29.9268 53.0965 29.6916 53.2972 29.4019 53.4339C29.0855 53.5671 28.734 53.6366 28.3771 53.6366C28.0203 53.6366 27.6688 53.5671 27.3524 53.4339L27.3829 53.4031ZM29.0133 52.8615C29.1848 52.7763 29.3243 52.6551 29.4171 52.5108C29.512 52.3429 29.5588 52.1599 29.5543 51.9754V50.6646C29.5601 50.482 29.5132 50.3008 29.4171 50.1354C29.3268 49.9881 29.1868 49.8644 29.0133 49.7785C28.8282 49.6926 28.6172 49.6499 28.4038 49.6554C28.1929 49.6501 27.9843 49.6928 27.8019 49.7785C27.6249 49.861 27.4839 49.9856 27.3981 50.1354C27.296 50.2993 27.2463 50.4812 27.2533 50.6646V51.9754C27.2472 52.1607 27.2969 52.3444 27.3981 52.5108C27.4864 52.6576 27.627 52.7798 27.8019 52.8615C27.9843 52.9473 28.1929 52.9899 28.4038 52.9846C28.6172 52.9901 28.8282 52.9475 29.0133 52.8615Z" fill="#AA8745"/>
<path d="M31.5353 49.0831H32.2438L34.9562 52.5416L34.8648 52.6216V49.0831H35.6267V53.5385H34.9105L32.2058 50.1293L32.2972 50.0493V53.5385H31.5353V49.0831Z" fill="#AA8745"/>
<path d="M38.2781 53.6063L37.9124 53.5447C37.6835 53.5037 37.4611 53.4417 37.2495 53.3601C37.0381 53.2787 36.8409 53.1753 36.6628 53.0524L37.1505 52.5724C37.3546 52.7164 37.5896 52.829 37.8438 52.9047C38.1107 52.9798 38.3916 53.0172 38.6743 53.0155C39.0039 53.0311 39.3321 52.9691 39.619 52.837C39.721 52.7799 39.8042 52.7035 39.8613 52.6145C39.9184 52.5255 39.9477 52.4265 39.9467 52.3263C39.9564 52.193 39.9048 52.0615 39.8019 51.957C39.6935 51.8631 39.5571 51.7932 39.4057 51.754C39.2067 51.7005 39.0029 51.6594 38.7962 51.6309H38.6895C38.3819 51.591 38.0787 51.5313 37.7828 51.4524C37.5426 51.3878 37.3326 51.2654 37.1809 51.1017C37.0063 50.8844 36.9209 50.6281 36.9371 50.3693C36.9282 50.1207 37.0075 49.8751 37.1657 49.6617C37.3279 49.4606 37.5616 49.304 37.8362 49.2124C38.1749 49.1027 38.538 49.0504 38.9028 49.0586C39.1004 49.0584 39.2973 49.077 39.4895 49.114C39.6863 49.1485 39.8779 49.2001 40.0609 49.2678C40.2533 49.34 40.437 49.4265 40.6095 49.5263L40.1676 50.0247C39.9722 49.9095 39.7598 49.8144 39.5352 49.7417C39.3327 49.6813 39.1187 49.6501 38.9028 49.6493C38.5918 49.6365 38.2834 49.7009 38.019 49.834C37.9188 49.8931 37.8379 49.971 37.7835 50.0611C37.729 50.1512 37.7027 50.2507 37.7067 50.3509C37.7017 50.417 37.7133 50.4832 37.7408 50.5456C37.7683 50.608 37.8111 50.6652 37.8667 50.714C37.9806 50.804 38.1188 50.8714 38.2705 50.9109C38.4928 50.9659 38.7193 51.009 38.9486 51.0401H39.0857C39.3754 51.0844 39.6588 51.1524 39.9314 51.2432C40.1571 51.3201 40.3521 51.4457 40.4952 51.6063C40.6516 51.8176 40.7259 52.062 40.7086 52.3078C40.7191 52.5555 40.6368 52.8 40.4724 53.0093C40.3026 53.2107 40.0607 53.3653 39.779 53.4524C39.4273 53.5631 39.0516 53.6154 38.6743 53.6063H38.2781Z" fill="#AA8745"/>
<path d="M42.5219 53.5385H41.76V49.0831H42.5219V53.5385Z" fill="#AA8745"/>
<path d="M43.8934 49.0831H44.6553V53.5385H43.8934V49.0831ZM44.3505 52.9785H45.8743C46.1815 52.9989 46.488 52.9338 46.7429 52.7939C46.8337 52.7315 46.9052 52.6528 46.9515 52.5641C46.9978 52.4754 47.0177 52.3792 47.0096 52.2831C47.0152 52.1474 46.9812 52.0125 46.9105 51.8893C46.8466 51.7801 46.7393 51.6913 46.6058 51.637C46.4359 51.5753 46.2509 51.5458 46.0648 51.5508H44.3505V50.9847H46.0419C46.2786 50.9989 46.513 50.9394 46.6972 50.8185C46.8487 50.6838 46.9326 50.5082 46.9326 50.3262C46.9326 50.1442 46.8487 49.9687 46.6972 49.8339C46.4772 49.7046 46.2059 49.6455 45.9353 49.6677H44.3505V49.0893H46.08C46.3899 49.0812 46.6978 49.1318 46.9791 49.237C47.2105 49.3257 47.4003 49.4725 47.52 49.6554C47.642 49.8455 47.7048 50.0567 47.7029 50.2708C47.704 50.4194 47.665 50.5664 47.5886 50.7016C47.5198 50.8517 47.3979 50.9822 47.2381 51.077C47.0722 51.1778 46.8789 51.2453 46.6743 51.2739C46.8853 51.2934 47.0857 51.3594 47.2534 51.4647C47.4158 51.5642 47.5443 51.6955 47.6267 51.8462C47.7169 51.9999 47.7612 52.1685 47.7562 52.3385C47.7581 52.5541 47.6898 52.7663 47.5581 52.9539C47.428 53.1399 47.2315 53.29 46.9943 53.3847C46.7234 53.4895 46.4261 53.5422 46.1258 53.5385H44.3505V52.9785Z" fill="#AA8745"/>
<path d="M48.9371 49.0831H49.699V53.5385H48.9371V49.0831ZM49.3257 52.96H52.5028V53.5754H49.3257V52.96Z" fill="#AA8745"/>
<path d="M53.4172 49.0831H54.1791V53.5385H53.4172V49.0831ZM53.7905 49.0831H56.9753V49.6985H53.7905V49.0831ZM53.7905 51.0339H56.5562V51.6493H53.7905V51.0339ZM53.7905 52.96H56.9753V53.5754H53.7905V52.96Z" fill="#AA8745"/>
<path d="M15.7714 55.6001H16.5333V60.0801H15.7714V55.6001ZM16.2286 59.4955H17.7524C18.0586 59.5177 18.3651 59.4547 18.6209 59.317C18.7118 59.2547 18.7832 59.176 18.8295 59.0873C18.8758 58.9986 18.8957 58.9023 18.8876 58.8063C18.8935 58.6725 18.8595 58.5395 18.7886 58.4186C18.7267 58.3082 18.6189 58.2189 18.4838 58.1663C18.3152 58.1016 18.1292 58.072 17.9429 58.0801H16.2286V57.5078H17.92C18.1557 57.5244 18.3903 57.4671 18.5752 57.3478C18.6536 57.2846 18.7139 57.2084 18.7521 57.1244C18.7903 57.0404 18.8053 56.9508 18.7962 56.8616C18.8047 56.7691 18.7872 56.6762 18.745 56.5898C18.7028 56.5035 18.6369 56.426 18.5524 56.3632C18.3309 56.2365 18.0608 56.1776 17.7905 56.197H16.2286V55.5816H17.9581C18.2679 55.5736 18.5758 55.6242 18.8571 55.7293C19.0886 55.8181 19.2783 55.9649 19.3981 56.1478C19.5184 56.3384 19.581 56.5493 19.5809 56.7632C19.582 56.9137 19.543 57.0627 19.4667 57.2001C19.3939 57.3365 19.2783 57.4553 19.1314 57.5447C18.9649 57.6435 18.7716 57.7089 18.5676 57.7355C18.7778 57.7576 18.9773 57.8233 19.1467 57.9263C19.3096 58.0254 19.4382 58.1568 19.52 58.3078C19.6086 58.4619 19.6529 58.6302 19.6495 58.8001C19.6514 59.0157 19.5831 59.2279 19.4514 59.4155C19.3191 59.6001 19.1232 59.7498 18.8876 59.8463C18.6185 59.9482 18.3239 59.9988 18.0267 59.9939H16.2286V59.4955Z" fill="#AA8745"/>
<path d="M21.5162 59.9324C21.2263 59.8026 20.9944 59.6024 20.8534 59.3601C20.692 59.079 20.6138 58.7714 20.6248 58.4616V55.6001H21.3867V58.4616C21.3641 58.7362 21.4732 59.0073 21.6915 59.2186C21.9275 59.3933 22.2361 59.4902 22.5562 59.4902C22.8764 59.4902 23.1849 59.3933 23.421 59.2186C23.6475 59.0101 23.7649 58.7387 23.7486 58.4616V55.6001H24.5105V58.4616C24.5215 58.7714 24.4433 59.079 24.2819 59.3601C24.1381 59.6028 23.9036 59.803 23.6115 59.9324C23.2828 60.0619 22.9219 60.1291 22.5562 60.1291C22.1905 60.1291 21.8297 60.0619 21.501 59.9324H21.5162Z" fill="#AA8745"/>
<path d="M26.9334 60.1292L26.5753 60.0677C26.3439 60.0267 26.119 59.9647 25.9048 59.8831C25.6972 59.7972 25.5028 59.6919 25.3257 59.5693L25.8057 59.0892C26.0129 59.233 26.2503 59.3455 26.5067 59.4216C26.7735 59.4971 27.0545 59.5346 27.3372 59.5323C27.6621 59.5491 27.9859 59.487 28.2667 59.3539C28.3731 59.3 28.4601 59.2244 28.519 59.1347C28.5778 59.0451 28.6064 58.9445 28.6019 58.8431C28.61 58.7071 28.5557 58.5735 28.4496 58.4677C28.3412 58.3767 28.2082 58.3072 28.061 58.2646C27.8588 58.2145 27.6526 58.1754 27.4438 58.1477H27.4286H27.3676C27.0605 58.1087 26.7574 58.0511 26.461 57.9754C26.2249 57.9044 26.0188 57.7806 25.8667 57.6185C25.6826 57.4044 25.594 57.1462 25.6153 56.8862C25.6049 56.6346 25.6871 56.3862 25.8515 56.1723C26.0126 55.972 26.2469 55.8172 26.5219 55.7292C26.8605 55.619 27.2237 55.5667 27.5886 55.5754C27.7859 55.5735 27.9827 55.59 28.1753 55.6246C28.369 55.6609 28.5578 55.7125 28.7391 55.7785C28.9319 55.8524 29.1156 55.941 29.2876 56.0431L28.8457 56.5416C28.6567 56.4219 28.4459 56.3265 28.221 56.2585C28.0183 56.1987 27.8044 56.1674 27.5886 56.1662C27.2784 56.1515 26.97 56.2137 26.7048 56.3446C26.602 56.4036 26.519 56.4823 26.4632 56.5736C26.4073 56.6649 26.3804 56.7659 26.3848 56.8677C26.3813 56.9342 26.3943 57.0006 26.4231 57.0629C26.4519 57.1253 26.4959 57.1824 26.5524 57.2308C26.6642 57.323 26.8032 57.3907 26.9562 57.4277C27.1759 57.4828 27.3999 57.526 27.6267 57.5569H27.7715C28.0578 57.6014 28.3384 57.6673 28.6096 57.7539C28.8383 57.8295 29.0345 57.9579 29.1734 58.1231C29.3396 58.3292 29.4197 58.5729 29.4019 58.8185C29.4102 59.0668 29.3252 59.3114 29.1581 59.52C28.9863 59.7198 28.745 59.874 28.4648 59.9631C28.1145 60.0702 27.7421 60.1224 27.3676 60.1169L26.9334 60.1292Z" fill="#AA8745"/>
<path d="M31.1771 60.0801H30.4152V55.6001H31.1771V60.0801Z" fill="#AA8745"/>
<path d="M32.5562 55.6001H33.2572L35.9695 59.077L35.8781 59.157V55.6001H36.64V60.0801H35.9315L33.2267 56.6647L33.3181 56.5847V60.0801H32.5562V55.6001Z" fill="#AA8745"/>
<path d="M38.0267 55.6001H38.7886V60.0801H38.0267V55.6001ZM38.4 55.6001H41.5848V56.2155H38.4V55.6001ZM38.4 57.557H41.1429V58.1724H38.4V57.557ZM38.4 59.4832H41.5848V60.0986H38.4V59.4832Z" fill="#AA8745"/>
<path d="M43.9619 60.1293L43.5962 60.0678C43.3673 60.0267 43.1449 59.9648 42.9333 59.8831C42.7234 59.7972 42.5266 59.6919 42.3467 59.5693L42.8343 59.0893C43.0384 59.2332 43.2734 59.3459 43.5276 59.4216C43.7946 59.4967 44.0755 59.5341 44.3581 59.5324C44.6856 59.5501 45.0121 59.4879 45.2953 59.3539C45.4008 59.2997 45.4867 59.2239 45.5443 59.1342C45.6018 59.0445 45.6289 58.9441 45.6229 58.8431C45.6338 58.7079 45.5822 58.5741 45.4781 58.4678C45.3656 58.3779 45.2305 58.3087 45.0819 58.2647C44.8826 58.2137 44.6788 58.1746 44.4724 58.1478H44.4191H44.3657C44.0475 58.1048 43.7341 58.041 43.4286 57.957C43.1893 57.8877 42.9802 57.7637 42.8267 57.6001C42.649 57.3839 42.5634 57.1268 42.5829 56.8678C42.5738 56.6171 42.653 56.3696 42.8114 56.1539C42.9741 55.9547 43.2079 55.8001 43.4819 55.7108C43.8207 55.6011 44.1837 55.5488 44.5486 55.557C44.7459 55.5548 44.9428 55.5713 45.1353 55.6062C45.3311 55.6436 45.5223 55.695 45.7067 55.7601C45.8977 55.8368 46.081 55.9253 46.2552 56.0247L45.8133 56.5231C45.6216 56.4034 45.4083 56.3079 45.181 56.2401C44.9784 56.1798 44.7644 56.1485 44.5486 56.1478C44.2383 56.1331 43.93 56.1953 43.6648 56.3262C43.5634 56.3859 43.4819 56.4649 43.4274 56.5561C43.3729 56.6474 43.3471 56.7481 43.3524 56.8493C43.3475 56.9154 43.3591 56.9816 43.3866 57.044C43.4141 57.1064 43.4569 57.1637 43.5124 57.2124C43.6242 57.3045 43.7631 57.3723 43.9162 57.4093C44.1385 57.4643 44.365 57.5074 44.5943 57.5385H44.7314C45.02 57.5839 45.303 57.6498 45.5772 57.7355C45.8048 57.8126 46.0004 57.9407 46.141 58.1047C46.2985 58.3136 46.3755 58.5557 46.3619 58.8001C46.3724 59.0478 46.2901 59.2923 46.1257 59.5016C45.9516 59.6997 45.7111 59.8534 45.4324 59.9447C45.0797 60.0524 44.7047 60.1046 44.3276 60.0985L43.9619 60.1293Z" fill="#AA8745"/>
</g>
<defs>
<clipPath id="clip0_708_5995">
<rect width="64" height="64" fill="white"/>
</clipPath>
</defs>
</svg>
