<svg width="90" height="64" viewBox="0 0 90 64" fill="none" xmlns="http://www.w3.org/2000/svg">
<g clip-path="url(#clip0_708_6141)">
<path d="M0.0667114 1.40002H1.44106V3.99367H0.0667114V1.40002ZM0.0667114 6.683H1.44106V19.8728H0.0667114V6.683Z" fill="white"/>
<path d="M10.3543 9.92636V13.1495C10.3683 14.4064 10.2228 15.6514 9.93003 16.7806C9.66265 17.7937 9.24435 18.6373 8.72648 19.2081C8.18155 19.789 7.56426 20.0846 6.93848 20.0642C6.30471 20.0886 5.67789 19.8115 5.1158 19.2584C4.6024 18.7362 4.18054 17.9436 3.90157 16.977C3.60455 15.9259 3.45568 14.7484 3.46925 13.5575V8.10829C3.45523 6.85462 3.60074 5.61288 3.89356 4.48726C4.16001 3.47593 4.57746 2.63385 5.09445 2.06485C5.64334 1.47976 6.26552 1.18405 6.89579 1.2087C7.43395 1.19866 7.96558 1.43178 8.44627 1.88859C8.91805 2.34111 9.32533 3.0009 9.63381 3.81241C9.95968 4.67219 10.1803 5.65785 10.2796 6.69815H8.78518C8.71278 6.11496 8.57239 5.56957 8.37421 5.10168C8.19056 4.67333 7.95791 4.32899 7.69371 4.09444C7.44449 3.86374 7.1707 3.74318 6.89312 3.74191C6.51653 3.72431 6.14545 3.91514 5.82566 4.29085C5.51803 4.65605 5.27254 5.18052 5.11847 5.80171C4.94589 6.52084 4.86107 7.30393 4.87029 8.09318V13.5575C4.86463 14.2854 4.95642 15.0043 5.13715 15.6475C5.30095 16.2344 5.5524 16.7177 5.86035 17.0375C6.19114 17.3805 6.56377 17.5542 6.94115 17.5411C7.31472 17.5613 7.68402 17.387 8.00861 17.0375C8.31997 16.6806 8.56658 16.1538 8.7158 15.5266C8.88995 14.7978 8.97478 14.0042 8.96398 13.2049V12.4042H6.95983V9.92636H10.3543Z" fill="white"/>
<path d="M14.8377 1.40002H16.0119L19.6172 19.8728H18.1468L15.4221 4.97069L12.7108 19.8728H11.2297L14.8377 1.40002ZM12.8922 13.356H18.0427V15.8187H12.8922V13.356Z" fill="white"/>
<path d="M28.1328 1.40002H29.4191V19.8728H28.0848V6.0434L28.1515 6.85423L25.7497 17.3094H24.781L22.3792 7.11107L22.438 6.0434V19.8728H21.1036V1.40002H22.3899L25.2587 13.5977L28.1328 1.40002Z" fill="white"/>
<path d="M33.2139 19.8728H31.8422V1.40002H33.2139V19.8728Z" fill="white"/>
<path d="M35.6397 1.40002H36.8833L41.6708 15.6776L41.508 16.01V1.40506H42.8691V19.8577H41.6095L36.8273 5.79662L36.9874 5.46424V19.8577H35.629L35.6397 1.40002Z" fill="white"/>
<path d="M51.9852 9.92636V13.1495C51.9991 14.4064 51.8536 15.6514 51.5609 16.7806C51.2935 17.7937 50.8752 18.6373 50.3573 19.2081C49.8092 19.7925 49.188 20.0882 48.5586 20.0642C47.9249 20.0886 47.298 19.8115 46.736 19.2584C46.222 18.7377 45.7999 17.9447 45.5217 16.977C45.2284 15.9241 45.0832 14.7466 45.1001 13.5575V8.10829C45.0861 6.85462 45.2316 5.61288 45.5244 4.48726C45.7919 3.47574 46.2103 2.63378 46.7279 2.06485C47.2768 1.47976 47.899 1.18405 48.5293 1.2087C49.0674 1.19866 49.5991 1.43178 50.0798 1.88859C50.5515 2.34111 50.9588 3.0009 51.2673 3.81241C51.5932 4.67219 51.8138 5.65785 51.9131 6.69815H50.4267C50.3543 6.11496 50.2139 5.56957 50.0157 5.10168C49.8321 4.67333 49.5994 4.32899 49.3352 4.09444C49.086 3.86374 48.8122 3.74318 48.5346 3.74191C48.158 3.72431 47.7869 3.91514 47.4672 4.29085C47.1595 4.65605 46.914 5.18052 46.76 5.80171C46.5874 6.52084 46.5026 7.30393 46.5118 8.09318V13.5575C46.5061 14.2854 46.5979 15.0043 46.7786 15.6475C46.9417 16.2354 47.1933 16.7191 47.5018 17.0375C47.8326 17.3805 48.2053 17.5542 48.5827 17.5411C48.9562 17.5613 49.3255 17.387 49.6501 17.0375C49.9608 16.6792 50.2072 16.1527 50.3573 15.5266C50.5314 14.7978 50.6163 14.0042 50.6055 13.2049V12.4042H48.62V9.92636H51.9852Z" fill="white"/>
<path d="M3.98428 63.6123H0V26.0171H3.98428V63.6123Z" fill="white"/>
<path d="M8.19543 26.017H12.0383V63.6122H8.19543V26.017ZM10.1409 56.7882H15.0272C16.2885 56.7882 17.267 56.2275 17.9627 55.1061C18.6583 53.9847 19.0034 52.4033 18.9981 50.362V39.2824C18.9981 37.2343 18.6521 35.6479 17.96 34.5232C17.2679 33.3984 16.2894 32.8377 15.0245 32.8411H10.1409V26.017H14.9444C16.4396 25.9385 17.9259 26.4765 19.2997 27.5934C20.4462 28.5499 21.4055 30.1595 22.043 32.1964C22.698 34.4236 23.0225 36.9429 22.9824 39.4889V50.1404C23.0135 52.6109 22.7016 55.0537 22.0777 57.2263C21.4521 59.2891 20.5042 60.9371 19.3637 61.9453C18.1575 63.0633 16.6791 63.6223 14.9284 63.6223H10.1409V56.7882Z" fill="white"/>
<path d="M29.6219 62.2827C28.5166 61.1797 27.6066 59.4903 27.004 57.4228C26.3686 55.186 26.0497 52.6778 26.078 50.1404V39.4889C26.0487 36.9612 26.3648 34.4619 26.996 32.2317C27.5986 30.1528 28.5118 28.454 29.6219 27.3466C30.8276 26.1666 32.1709 25.5761 33.5288 25.6293C34.8867 25.5761 36.23 26.1666 37.4357 27.3466C38.5399 28.4587 39.4473 30.1571 40.0457 32.2317C40.6814 34.4664 41.0004 36.9732 40.9717 39.509V50.1404C40.9991 52.6744 40.6801 55.1789 40.0457 57.4127C39.4431 59.4802 38.533 61.1696 37.4277 62.2726C36.2224 63.4549 34.8789 64.0455 33.5208 63.99C32.1659 64.0461 30.8253 63.459 29.6219 62.2827ZM35.3515 56.1033C35.8688 55.5748 36.2914 54.7686 36.5657 53.7867C36.8606 52.7179 37.0084 51.5264 36.9954 50.3217V39.3076C37.0067 38.102 36.8571 36.9105 36.5604 35.8427C36.286 34.8608 35.8635 34.0545 35.3462 33.526C34.7797 32.9926 34.1552 32.715 33.5222 32.715C32.8891 32.715 32.2646 32.9926 31.6981 33.526C31.1817 34.0548 30.76 34.8611 30.4866 35.8427C30.1917 36.9114 30.044 38.1029 30.0569 39.3076V50.3217C30.044 51.5264 30.1917 52.7179 30.4866 53.7867C30.76 54.7682 31.1817 55.5745 31.6981 56.1033C32.2646 56.6367 32.8891 56.9143 33.5222 56.9143C34.1552 56.9143 34.7797 56.6367 35.3462 56.1033H35.3515Z" fill="white"/>
<path d="M44.7612 26.0171H48.604V63.6123H44.7612V26.0171ZM46.4718 56.7883H58.4273V63.6123H46.4718V56.7883Z" fill="white"/>
<path d="M59.9431 35.1124L51.8304 22.5219C53.5541 21.4493 55.3062 20.5466 57.0796 19.8174C59.4654 18.916 63.2815 18.0195 63.2815 18.0195L67.5754 0L71.3915 16.2065C74.8851 15.6653 78.3964 15.6653 81.89 16.2065C87.6142 17.108 90 18.9059 90 18.9059C90 18.9059 79.0265 19.8074 69.9611 25.2112C60.8958 30.615 59.9431 35.1124 59.9431 35.1124Z" fill="white"/>
<path d="M53.7385 51.3239C53.7385 51.3239 58.977 36.9153 65.1896 31.5115C71.4022 26.1076 73.3023 26.1127 73.3023 26.1127L80.4569 52.2203C80.4569 52.2203 76.6408 44.1171 68.0504 42.304C59.46 40.491 53.7385 51.3239 53.7385 51.3239Z" fill="#BC955A"/>
<path d="M53.7225 2.03967H55.2116V2.57351H53.7225V2.03967ZM54.3176 2.36703H54.6138V6.04345H54.3176V2.36703Z" fill="white"/>
<path d="M57.0183 2.03967H57.2851V6.04345H56.9969V3.02173V3.198L56.4765 5.44918H56.3084L55.7747 3.27354L55.7907 3.04188V6.04345H55.5078V2.03967H55.7747L56.3938 4.6736L57.0183 2.03967Z" fill="white"/>
</g>
<defs>
<clipPath id="clip0_708_6141">
<rect width="90" height="64" fill="white"/>
</clipPath>
</defs>
</svg>
