<svg version="1.2" xmlns="http://www.w3.org/2000/svg" viewBox="0 0 111 36" width="111" height="36">
	<title>evoplay-svg</title>
	<style>
		.s0 { fill: #ffffff } 
		.s1 { fill: #01a3fb } 
		.s2 { fill: #808080 } 
	</style>
	<path id="Layer" fill-rule="evenodd" class="s0" d="m67 14.4q0 1.8-0.5 3.3-0.4 1.5-1.3 2.6-0.9 1.1-2.2 1.7-1.3 0.6-3 0.6-0.9 0-1.8-0.2-0.8-0.2-1.6-0.5v4.3h-4.5v-19.2q0.6-0.1 1.4-0.3 0.8-0.2 1.7-0.3 0.8-0.1 1.7-0.2 0.9-0.1 1.8-0.1 1.9 0 3.5 0.6 1.5 0.6 2.6 1.7c0.7 0.7 1.3 1.5 1.6 2.6q0.6 1.5 0.6 3.4zm-7.8 4.4c2.1 0 3.2-1.4 3.1-4.3q0-2.1-0.9-3.3-0.9-1.3-2.8-1.3-0.6 0.1-1.1 0.1-0.5 0.1-0.9 0.1v8.1q0.6 0.3 1.2 0.4 0.6 0.2 1.4 0.2zm10.8-18.8h4.5v22.7q-0.8-0.1-1.4-0.3-1.2-0.4-1.9-1.1-0.7-0.7-1-1.7-0.2-1-0.2-2.2zm21.3 12.6v9.3q-1 0.2-2.8 0.5c-0.7 0.1-1.7 0.2-2.7 0.2q-0.5 0-1 0h-0.4q-1.4 0-2.6-0.2-1.2-0.3-2.3-1c-0.7-0.4-1.2-1-1.5-1.7q-0.6-1.1-0.6-2.6 0-1.5 0.7-2.6 0.6-1 1.6-1.6 1-0.6 2.3-0.9 1.3-0.3 2.7-0.3 0.9 0 1.7 0.1 0.2 0 0.5 0.1-0.2-0.9-0.7-1.4-0.7-0.7-2.5-0.7-1.1 0-2.2 0.1-1.2 0.2-2 0.5l-0.6-3.6q0.5-0.1 1-0.2c0.4-0.2 0.8-0.2 1.3-0.3q0.7-0.1 1.5-0.2 0.7 0 1.5 0 2.1-0.1 3.4 0.4 1.3 0.5 2.1 1.3c0.6 0.6 1 1.3 1.2 2.1 0.2 0.8 0.3 1.7 0.4 2.7zm-4.5 6.3v-3.8q-0.1 0-0.2 0-0.5-0.1-1-0.1-0.7 0-1.3 0.1-0.6 0.1-1.1 0.3-0.5 0.2-0.7 0.6-0.3 0.4-0.3 1 0.1 1.1 0.8 1.5 0.8 0.5 2.1 0.5 0.7 0 1.4 0 0.2-0.1 0.4-0.1zm22.1-12.4q0 0 0 0zm-2.8 8.5q-1.5 3.9-3.3 7.7-0.1 0.1-0.1 0.2-1 2.1-1.7 3.2h-4.4c0.6-1 1.3-2.4 2.2-4.4 0.1-0.1 0.1-0.1 0.1-0.2q-1.6-2.9-3.1-6.7-1.6-3.7-2.9-8.4h4.8q0.3 1.2 0.7 2.6 0.4 1.4 0.8 2.7 0.5 1.4 1 2.8 0.4 1.1 0.8 2.1 1.4-3.6 2.5-7.3v-0.3c0.2-0.7 0.4-1.3 0.6-1.9q0.1-0.3 0.1-0.6h4.7q-1.4 4.5-2.8 8.5z"/>
	<path id="Layer" fill-rule="evenodd" class="s1" d="m1 14.5q0-2.1 0.6-3.6 0.7-1.6 1.8-2.7 1-1 2.4-1.6 1.4-0.5 2.9-0.5 3.4 0 5.4 2.1 1.9 2 1.9 6 0 0.4 0 0.8 0 0.5 0 0.9h-10.3q0.1 1.3 1.3 2.2 1.1 0.8 3.1 0.8 1.2 0 2.4-0.2 1.2-0.3 2-0.6l0.6 3.6c-0.3 0.2-0.6 0.3-1 0.4q-0.6 0.2-1.3 0.3-0.8 0.1-1.6 0.2-0.9 0.1-1.7 0.1c-1.5 0-2.7-0.2-3.8-0.6q-1.6-0.6-2.6-1.8c-0.7-0.7-1.3-1.6-1.6-2.6q-0.5-1.4-0.5-3.2zm10.6-1.7q0-0.5-0.2-1.1-0.1-0.5-0.5-1-0.4-0.4-0.9-0.6-0.5-0.3-1.3-0.3-0.8 0-1.3 0.2-0.6 0.3-0.9 0.7c-0.3 0.3-0.4 0.6-0.6 1q-0.2 0.5-0.3 1.1zm11.5 9.5q-1.6-3-3.2-7-1.6-4-3-8.8h4.8q0.3 1.2 0.7 2.5 0.4 1.4 0.9 2.8 0.4 1.4 0.9 2.7 0.4 1.3 0.9 2.4 0.3-1.1 0.8-2.4 0.5-1.3 0.9-2.7 0.5-1.4 0.9-2.8 0.4-1.3 0.7-2.5h4.7q-1.4 4.8-3 8.8-1.6 4-3.2 7zm26.3-7.9q0 1.8-0.6 3.4-0.5 1.5-1.6 2.6c-0.7 0.8-1.5 1.3-2.4 1.7q-1.5 0.6-3.3 0.6-1.7 0-3.2-0.6c-1-0.4-1.8-0.9-2.5-1.7-0.7-0.7-1.2-1.6-1.6-2.6q-0.6-1.6-0.6-3.4 0-1.9 0.6-3.4 0.6-1.6 1.7-2.6 1-1.1 2.4-1.7 1.5-0.6 3.2-0.6 1.7 0 3.2 0.6 1.4 0.6 2.5 1.7 1 1 1.6 2.6 0.6 1.5 0.6 3.4zm-4.6 0q0-2.1-0.9-3.3-0.8-1.2-2.4-1.2-1.5 0-2.4 1.2-0.8 1.2-0.8 3.3 0 2 0.8 3.2 0.9 1.2 2.4 1.3 1.6-0.1 2.4-1.3 0.9-1.1 0.9-3.2z"/>
	<path id="Layer" fill-rule="evenodd" class="s2" d="m13.9 34.1v1.2h2.3v0.7h-3.2v-4.3h3v0.7h-2.1v1h1.9v0.7h-1.9zm8.5 0.4q0 0-0.1 0zm0 0v-2.8h0.9v4.2h-0.8q-0.2-0.3-0.5-0.7-0.3-0.4-0.6-0.8-0.3-0.4-0.6-0.8-0.3-0.4-0.6-0.7v3.1h-0.8v-4.3h0.7q0.3 0.3 0.6 0.6 0.3 0.4 0.6 0.7 0.3 0.4 0.6 0.8 0.3 0.4 0.5 0.7zm4-2.8h3.6v0.7h-1.4v3.6h-0.8v-3.6h-1.4zm7.6 2.4v1.2h2.3v0.7h-3.2v-4.3h3v0.7h-2.2v1h1.9v0.7zm8.9 1.4q0.1 0.2 0.3 0.5h-1q-0.1-0.2-0.3-0.5-0.1-0.2-0.3-0.4c-0.1-0.2-0.2-0.3-0.3-0.4q-0.1-0.2-0.3-0.3h-0.7v1.6h-0.8v-4.2l0.7-0.1q0.3 0 0.6 0 1 0 1.5 0.3 0.6 0.3 0.6 1 0 0.9-1 1.2 0.2 0.1 0.3 0.4 0.2 0.2 0.4 0.4 0.1 0.2 0.3 0.5zm-1-2.1q0.1-0.2 0.1-0.4 0-0.2-0.1-0.3c0-0.1-0.1-0.2-0.2-0.2q-0.2-0.1-0.4-0.2-0.2 0-0.4 0-0.3 0-0.5 0v1.4h0.3q0.3 0 0.6 0c0.1 0 0.2-0.1 0.4-0.1q0.1-0.1 0.2-0.2zm3.8-1v-0.7h3.7v0.7h-1.4v3.6h-0.8v-3.6zm9.4 1.2q0.2 0.5 0.5 1.1 0.3 0.6 0.5 1.3h-0.9q-0.1-0.3-0.2-0.5-0.1-0.3-0.2-0.5h-2q-0.1 0.2-0.2 0.5-0.1 0.2-0.2 0.5h-0.8q0.2-0.7 0.5-1.3 0.2-0.6 0.4-1.1 0.2-0.5 0.5-1 0.2-0.5 0.4-0.9h0.8q0.3 0.5 0.5 0.9c0.1 0.4 0.3 0.7 0.4 1zm-2.1 0.7h1.6q-0.2-0.5-0.5-1-0.1-0.5-0.3-0.8-0.2 0.3-0.4 0.8-0.2 0.5-0.4 1zm6.1-2.6h0.8v4.3h-0.8zm7.3 2.8q0 0 0 0zm0 0v-2.8h0.8v4.2h-0.7q-0.2-0.3-0.5-0.7-0.3-0.4-0.6-0.8-0.3-0.5-0.6-0.8-0.3-0.4-0.6-0.7v3h-0.8v-4.2h0.7q0.3 0.2 0.6 0.6 0.3 0.3 0.6 0.7c0.2 0.3 0.4 0.5 0.6 0.8q0.3 0.3 0.5 0.7zm9.3 0.4q0 0.5 0 1h-0.8q0-0.7-0.1-1.5 0-0.8-0.1-1.5-0.1 0.1-0.2 0.3-0.1 0.2-0.2 0.4-0.1 0.3-0.2 0.5c-0.1 0.2-0.1 0.3-0.2 0.5q-0.1 0.2-0.2 0.4c-0.1 0.1-0.1 0.3-0.2 0.4h-0.6q-0.1-0.2-0.2-0.4-0.1-0.2-0.2-0.4-0.1-0.2-0.2-0.5c-0.1-0.2-0.2-0.3-0.2-0.5q-0.2-0.2-0.3-0.4 0-0.2-0.1-0.3-0.1 0.7-0.1 1.5-0.1 0.8-0.1 1.5h-0.8q0-0.5 0-1.1 0.1-0.6 0.1-1.1 0.1-0.5 0.1-1.1c0-0.3 0.1-0.6 0.1-0.9h0.8q0.2 0.2 0.3 0.5 0.2 0.4 0.4 0.8 0.2 0.3 0.4 0.7 0.1 0.4 0.3 0.7 0.2-0.3 0.3-0.7 0.2-0.4 0.4-0.7 0.2-0.4 0.4-0.8c0.1-0.2 0.2-0.4 0.3-0.5h0.8q0 0.4 0.1 0.9 0 0.6 0.1 1.1 0 0.6 0.1 1.2zm4.3-0.9v1.3h2.3v0.6h-3.2v-4.2h3v0.6h-2.1v1.1h1.9v0.6zm8.4 0.5q0 0 0 0zm0 0v-2.8h0.8v4.2h-0.7q-0.2-0.3-0.5-0.7-0.3-0.4-0.6-0.8-0.3-0.5-0.6-0.8-0.3-0.4-0.6-0.7v3h-0.8v-4.2h0.7q0.3 0.2 0.6 0.6 0.3 0.3 0.6 0.7 0.3 0.4 0.6 0.8 0.3 0.3 0.5 0.7zm7.6-2.8v0.6h-1.4v3.6h-0.9v-3.6h-1.4v-0.6z"/>
</svg>