<svg width="50" height="30" viewBox="0 0 50 30" fill="none" xmlns="http://www.w3.org/2000/svg">
<g clip-path="url(#clip0_708_5915)">
<path d="M-1.17503e-05 0V23.6967C-0.0341745 24.5595 0.103088 25.4202 0.402644 26.2216C0.7022 27.023 1.15718 27.7466 1.73732 28.3444C2.31745 28.9422 3.00944 29.4005 3.76725 29.6886C4.52505 29.9768 5.3313 30.0884 6.13234 30.0158H44.7941C44.7941 30.0158 50 30.4897 50 24.9605V0H-1.17503e-05Z" fill="url(#paint0_linear_708_5915)"/>
<path d="M1.30881 0V22.2749C1.22405 23.0688 1.30573 23.873 1.54788 24.6285C1.79004 25.3841 2.18652 26.0719 2.70826 26.6415C3.23 27.211 3.86378 27.6479 4.56314 27.9202C5.2625 28.1925 6.0097 28.2931 6.74999 28.2149H43.5147C43.5147 28.2149 48.5294 28.5466 48.5294 23.3807V0H1.30881Z" fill="url(#paint1_linear_708_5915)"/>
<path d="M1.30881 0V4.21801C1.30881 4.21801 2.99998 16.6983 14.1765 16.6983H48.5294V0H1.30881Z" fill="#F5F5F5"/>
<path d="M22.0588 8.92575L23.0882 9.11532C22.8165 9.70775 22.406 10.2141 21.8971 10.5845C21.463 10.9029 20.952 11.0785 20.4265 11.09C20.1785 11.1056 19.9307 11.0579 19.7032 10.9508C19.4757 10.8437 19.2751 10.6803 19.1177 10.4739C18.9624 10.1997 18.8615 9.89406 18.821 9.57606C18.7805 9.25807 18.8014 8.93453 18.8824 8.62559C18.9854 7.96031 19.2266 7.32854 19.5882 6.77725C19.8987 6.28254 20.3114 5.87164 20.7941 5.57662C21.2133 5.32727 21.6828 5.19169 22.1618 5.18167C22.3903 5.16639 22.6193 5.202 22.8344 5.28628C23.0495 5.37055 23.2461 5.50167 23.4118 5.6714C23.5697 5.85013 23.6866 6.06608 23.753 6.30198C23.8194 6.53789 23.8335 6.78721 23.7941 7.03001L22.7794 7.1406C22.8029 6.87865 22.7289 6.61737 22.5735 6.4139C22.4067 6.25928 22.1906 6.18002 21.9706 6.19273C21.6881 6.20326 21.4136 6.29609 21.1765 6.46129C20.8583 6.67807 20.5954 6.97671 20.4118 7.33017C20.1629 7.73558 19.9975 8.19338 19.9265 8.67298C19.876 8.84842 19.8604 9.0333 19.8807 9.21563C19.9009 9.39797 19.9566 9.57369 20.0441 9.73143C20.1102 9.85135 20.2052 9.94987 20.3191 10.0166C20.433 10.0833 20.5616 10.1158 20.6912 10.1106C20.9798 10.1096 21.2597 10.0038 21.4853 9.81042C21.7434 9.57269 21.9408 9.26821 22.0588 8.92575Z" fill="#535353"/>
<path d="M23.9412 8.75196C24.0236 8.19427 24.2032 7.6583 24.4706 7.17218C24.7565 6.53596 25.1925 5.99129 25.7353 5.5924C26.2306 5.24952 26.8079 5.06842 27.3971 5.07108C27.6723 5.04796 27.9487 5.09452 28.2041 5.20701C28.4595 5.3195 28.6868 5.49479 28.8677 5.71879C29.0361 5.96858 29.1501 6.25594 29.201 6.55951C29.2519 6.86309 29.2385 7.17509 29.1618 7.47234C29.0518 8.20019 28.7793 8.88859 28.3677 9.47866C28.0366 9.99523 27.5987 10.4224 27.0883 10.7267C26.6378 10.9937 26.1321 11.1349 25.6177 11.1374C25.3657 11.1557 25.1132 11.1127 24.8789 11.0115C24.6447 10.9103 24.4347 10.7535 24.2647 10.5529C24.0814 10.302 23.9564 10.0077 23.9002 9.69448C23.8439 9.38127 23.858 9.05816 23.9412 8.75196ZM24.9853 8.75196C24.9431 8.92308 24.9357 9.10196 24.9636 9.27643C24.9915 9.45091 25.0541 9.61687 25.1471 9.76302C25.2368 9.88761 25.3531 9.98713 25.4862 10.0531C25.6194 10.1191 25.7653 10.1497 25.9118 10.1422C26.2009 10.1306 26.4811 10.0321 26.7206 9.85781C27.0548 9.62154 27.3361 9.3086 27.5441 8.94153C27.7936 8.54642 27.9639 8.0999 28.0441 7.63032C28.1077 7.44998 28.1314 7.25627 28.1136 7.06441C28.0957 6.87254 28.0367 6.68773 27.9412 6.52447C27.8553 6.40427 27.7435 6.30837 27.6154 6.24505C27.4873 6.18174 27.3467 6.15293 27.2059 6.16112C26.9075 6.17179 26.6176 6.27014 26.3677 6.44548C26.0335 6.68175 25.7522 6.99469 25.5441 7.36176C25.2772 7.76932 25.092 8.23194 25 8.72037L24.9853 8.75196Z" fill="#535353"/>
<path d="M32.1471 7.89885H34.4265L33.5441 10.3475C33.2039 10.5634 32.8377 10.7282 32.4559 10.8372C32.066 10.9711 31.6593 11.0403 31.25 11.0426C30.9819 11.0763 30.7102 11.044 30.4554 10.9482C30.2006 10.8524 29.9694 10.6956 29.7794 10.4897C29.6042 10.2282 29.4856 9.92796 29.4321 9.61092C29.3787 9.29388 29.3918 8.96803 29.4706 8.65714C29.587 7.97826 29.8432 7.33593 30.2206 6.7772C30.5412 6.2624 30.9692 5.83506 31.4706 5.52918C31.9226 5.26833 32.428 5.13259 32.9412 5.13423C33.417 5.11024 33.8855 5.26683 34.2647 5.57657C34.4303 5.75409 34.5602 5.96631 34.6462 6.20004C34.7322 6.43376 34.7725 6.684 34.7647 6.93518L33.8235 7.10896C33.8262 6.9727 33.802 6.83738 33.7524 6.71192C33.7028 6.58647 33.6291 6.47374 33.5359 6.38117C33.4428 6.28861 33.3325 6.21831 33.2122 6.17493C33.0919 6.13154 32.9645 6.11606 32.8382 6.1295C32.5066 6.13282 32.1817 6.23097 31.8971 6.41386C31.5619 6.62322 31.2831 6.92265 31.0882 7.28273C30.8342 7.7173 30.6596 8.19982 30.5735 8.70454C30.5265 8.88049 30.5127 9.06475 30.5329 9.24651C30.5531 9.42827 30.6069 9.60387 30.6912 9.76299C30.7915 9.88461 30.9168 9.97937 31.0572 10.0397C31.1977 10.1001 31.3493 10.1243 31.5 10.1105C31.7137 10.109 31.9264 10.0771 32.1323 10.0158C32.3845 9.95027 32.6306 9.86038 32.8676 9.74719L33.1618 8.89411H31.8529L32.1471 7.89885Z" fill="#535353"/>
<path d="M35.397 11.0585H34.3529L36.3823 5.33966H38.647C38.9626 5.3241 39.2779 5.37786 39.5735 5.49764C39.7601 5.60373 39.9059 5.77715 39.9853 5.98737C40.0629 6.26561 40.0629 6.56221 39.9853 6.84045C39.9281 7.31099 39.7138 7.74324 39.3823 8.05688C39.0208 8.37389 38.5815 8.57145 38.1176 8.6256C38.2558 8.80819 38.3606 9.01724 38.4264 9.24171C38.6424 9.82904 38.8049 10.4375 38.9117 11.0585H37.7794C37.7794 10.8847 37.6911 10.4581 37.5441 9.74724C37.5141 9.47502 37.4342 9.21189 37.3088 8.97315C37.2628 8.87301 37.1844 8.79436 37.0882 8.75198C36.9528 8.71768 36.8118 8.71768 36.6764 8.75198H36.25L35.397 11.0585ZM36.5441 7.8989H37.1029C37.4877 7.87861 37.8684 7.80425 38.2353 7.67773C38.4296 7.61429 38.6064 7.50034 38.75 7.34598C38.8892 7.19948 38.9862 7.013 39.0294 6.80885C39.0525 6.71424 39.0447 6.61394 39.0072 6.52478C38.9698 6.43562 38.9049 6.36301 38.8235 6.31912C38.6309 6.2627 38.4278 6.2627 38.2353 6.31912H37.0882L36.5441 7.8989Z" fill="#535353"/>
<path d="M43.0441 9.73147H41.0147L40.1764 10.9953H39.1029L42.9558 5.27649H44.1176L43.9853 11.0585H42.9853L43.0441 9.73147ZM43.0441 8.7836L43.147 6.47712L41.6764 8.7836H43.0441Z" fill="#535353"/>
<path d="M9.22056 19.4787L8.82351 20.2844C8.48423 20.0745 8.09715 19.9706 7.70586 19.9842C7.44951 19.9704 7.19613 20.0482 6.98527 20.2054C6.90308 20.2716 6.83637 20.3575 6.79043 20.4562C6.74448 20.5549 6.72057 20.6638 6.72057 20.7741C6.71826 20.8526 6.73301 20.9306 6.76364 21.0019C6.79428 21.0732 6.83995 21.1358 6.89704 21.1849C7.06678 21.3232 7.26247 21.4202 7.47056 21.4692L8.23527 21.7062C8.45585 21.7669 8.66487 21.8684 8.85292 22.0064C9.04804 22.1322 9.20215 22.3198 9.29409 22.5435C9.39423 22.7479 9.44481 22.9761 9.44115 23.207C9.44426 23.4633 9.39595 23.7173 9.29952 23.9517C9.2031 24.1861 9.06081 24.3955 8.88233 24.5656C8.46022 24.9622 7.91335 25.1712 7.35292 25.1501C7.01653 25.1675 6.68048 25.109 6.36641 24.9784C6.05234 24.8478 5.76721 24.648 5.52939 24.3918L6.02939 23.8073C6.42981 24.1228 6.9152 24.2892 7.41174 24.2812C7.71244 24.306 8.01105 24.2104 8.24998 24.0127C8.33621 23.9352 8.40583 23.8386 8.45406 23.7296C8.50229 23.6205 8.52799 23.5015 8.52939 23.3808C8.53425 23.2603 8.4976 23.1422 8.42645 23.049C8.35563 22.9539 8.26494 22.8782 8.16174 22.8278C7.9581 22.7324 7.74633 22.6583 7.52939 22.6067C7.18909 22.5192 6.85871 22.392 6.54409 22.2275C6.3264 22.1166 6.14273 21.9412 6.01468 21.722C5.87999 21.4781 5.80888 21.1998 5.8088 20.9163C5.799 20.6697 5.84311 20.4241 5.9376 20.1992C6.03209 19.9742 6.17433 19.7761 6.35292 19.6209C6.77286 19.2725 7.29332 19.0936 7.82351 19.1154C8.31163 19.0941 8.79556 19.2199 9.22056 19.4787Z" fill="black"/>
<path d="M13.4265 25.0238H12.5294V24.8342C12.5113 24.5871 12.5113 24.3388 12.5294 24.0917C12.4176 24.4032 12.2168 24.6687 11.9559 24.85C11.71 25.0344 11.4175 25.1336 11.1176 25.1343C10.8106 25.1274 10.517 24.9979 10.2941 24.771C10.1806 24.662 10.0903 24.5279 10.0293 24.3779C9.96844 24.228 9.93836 24.0657 9.94116 23.9021C9.93898 23.6682 9.9951 23.4379 10.1037 23.2351C10.2123 23.0323 10.3694 22.8644 10.5588 22.7489C11.1573 22.4185 11.8288 22.271 12.5 22.3223H12.897C12.9022 22.2171 12.9022 22.1116 12.897 22.0064C12.902 21.9052 12.883 21.8044 12.8418 21.7132C12.8007 21.6221 12.7387 21.5436 12.6617 21.4851C12.4918 21.3649 12.2915 21.3042 12.0882 21.3113C11.894 21.3022 11.7015 21.3542 11.5344 21.4608C11.3672 21.5674 11.2326 21.7241 11.147 21.9116L10.2941 21.6588C10.4693 21.3156 10.7335 21.0344 11.0546 20.8493C11.3756 20.6642 11.7398 20.5832 12.1029 20.6162C12.5364 20.5848 12.9669 20.7129 13.3235 20.9795C13.4652 21.0887 13.5797 21.2338 13.6566 21.4019C13.7336 21.57 13.7707 21.756 13.7647 21.9432C13.7295 22.4002 13.6656 22.8541 13.5735 23.3018C13.4768 23.7865 13.408 24.2772 13.3676 24.771C13.3802 24.857 13.3998 24.9416 13.4265 25.0238ZM12.7941 22.8279C12.2907 22.8276 11.7918 22.9295 11.3235 23.128C11.1986 23.1827 11.0923 23.277 11.0187 23.3985C10.9451 23.5199 10.9078 23.6625 10.9117 23.8073C10.9107 23.8841 10.9245 23.9603 10.9524 24.031C10.9802 24.1017 11.0215 24.1654 11.0735 24.2181C11.1996 24.3357 11.3625 24.3978 11.5294 24.3918C11.6742 24.3882 11.8168 24.3527 11.9483 24.2875C12.0799 24.2223 12.1976 24.1287 12.2941 24.0127C12.5691 23.6816 12.7436 23.2683 12.7941 22.8279Z" fill="black"/>
<path d="M15.4853 25.0237H14.5735L15.147 21.5166H14.5735L14.7058 20.7267H15.2647C15.3197 20.2441 15.5213 19.7943 15.8382 19.4471C16.1492 19.1652 16.5498 19.0236 16.9558 19.0522C17.151 19.023 17.3489 19.023 17.5441 19.0522L17.4558 19.8421C17.3195 19.8179 17.1804 19.8179 17.0441 19.8421C16.9319 19.8304 16.8187 19.845 16.7123 19.8849C16.6059 19.9248 16.5088 19.989 16.4277 20.0731C16.3466 20.1572 16.2835 20.2592 16.2426 20.372C16.2018 20.4849 16.1842 20.6059 16.1911 20.7267H17.0735L16.9411 21.5166H16.0441L15.4853 25.0237Z" fill="black"/>
<path d="M20.5882 23.8073C20.4541 24.201 20.2094 24.5402 19.888 24.7779C19.5666 25.0157 19.1843 25.1402 18.7941 25.1343C18.5588 25.148 18.3235 25.1086 18.1031 25.0189C17.8828 24.9291 17.6824 24.7908 17.5147 24.613C17.3549 24.426 17.2311 24.2069 17.1503 23.9683C17.0696 23.7297 17.0335 23.4764 17.0441 23.2228C17.0309 22.5514 17.2393 21.8966 17.6324 21.3744C17.8088 21.1377 18.0327 20.9465 18.2872 20.8153C18.5418 20.684 18.8206 20.616 19.1029 20.6162C19.3367 20.6004 19.5707 20.6421 19.7873 20.7379C20.0038 20.8337 20.1973 20.9811 20.3529 21.1691C20.6541 21.5943 20.8052 22.1205 20.7794 22.6541C20.7794 22.7489 20.7794 22.8594 20.7794 22.9858H18.0147C18.0096 23.0911 18.0096 23.1965 18.0147 23.3018C18.0016 23.5845 18.0795 23.8634 18.2353 24.0917C18.3164 24.1892 18.4163 24.2665 18.528 24.3183C18.6398 24.3702 18.7607 24.3953 18.8824 24.3918C19.102 24.3824 19.3134 24.2997 19.4873 24.1553C19.6612 24.011 19.789 23.812 19.8529 23.5861L20.5882 23.8073ZM19.9559 22.3697C19.9559 21.643 19.6912 21.2797 19.1471 21.2797C18.6029 21.2797 18.2353 21.643 18.0735 22.3697H19.9559Z" fill="black"/>
<path d="M28.4412 25.1659H28.1765C27.959 25.1845 27.7408 25.1408 27.5441 25.0395C27.3482 24.9144 27.178 24.7478 27.0441 24.5497C26.5826 24.9892 25.9842 25.226 25.3676 25.2132C25.1026 25.2348 24.8362 25.1999 24.5838 25.1104C24.3315 25.021 24.098 24.8787 23.897 24.6919C23.7281 24.5323 23.5932 24.3353 23.5018 24.1144C23.4105 23.8935 23.3647 23.654 23.3676 23.4123C23.3676 22.5434 23.897 21.9273 24.9706 21.5798C24.7547 21.2632 24.6364 20.8821 24.6323 20.4897C24.6321 20.305 24.6657 20.122 24.7313 19.9512C24.7969 19.7804 24.8932 19.6252 25.0147 19.4944C25.146 19.3501 25.3043 19.2373 25.4793 19.1638C25.6542 19.0903 25.8418 19.0576 26.0294 19.0679C26.4182 19.0501 26.7998 19.1849 27.1029 19.4471C27.2298 19.5675 27.3309 19.716 27.3994 19.8823C27.4679 20.0486 27.5022 20.2289 27.5 20.4107C27.5 21.09 27.0588 21.5798 26.1912 21.8799L27.1764 23.3175C27.6399 22.7974 27.9869 22.1707 28.1912 21.485L28.9412 21.7061C28.696 22.5554 28.2442 23.319 27.6323 23.9178C27.703 24.0499 27.8064 24.1582 27.9311 24.2307C28.0557 24.3032 28.1967 24.3371 28.3382 24.3286H28.5147L28.4412 25.1659ZM25.5 22.2275C24.7941 22.496 24.4559 22.8752 24.4559 23.3965C24.4536 23.5271 24.4774 23.6566 24.5256 23.7765C24.5738 23.8964 24.6453 24.0038 24.7353 24.0916C24.9415 24.289 25.2091 24.3961 25.4853 24.3918C25.9075 24.3727 26.3136 24.2126 26.647 23.9336L25.5 22.2275ZM25.9559 21.2954L26.1764 21.1848C26.5882 20.9952 26.7941 20.7583 26.7941 20.4581C26.7949 20.3837 26.7809 20.3099 26.753 20.2418C26.7251 20.1737 26.684 20.1128 26.6323 20.0632C26.5131 19.956 26.3613 19.8997 26.2059 19.9052C26.1261 19.9002 26.0462 19.9146 25.9724 19.9474C25.8985 19.9803 25.8325 20.0306 25.7794 20.0948C25.6808 20.206 25.6233 20.352 25.6176 20.5055C25.6271 20.7947 25.7253 21.0724 25.897 21.2954H25.9559Z" fill="black"/>
<path d="M32.3529 25.0238H31.3382L32.2647 19.2576H35.6764L35.5294 20.158H33.1029L32.8529 21.7378H34.8382L34.7058 22.5909H32.7205L32.3529 25.0238Z" fill="black"/>
<path d="M38.6323 25.0237H37.7353C37.7353 24.9447 37.7353 24.8815 37.7353 24.8341C37.7424 24.585 37.767 24.3368 37.8088 24.0916C37.697 24.4031 37.4962 24.6686 37.2353 24.8499C36.9894 25.0343 36.6969 25.1335 36.397 25.1343C36.2325 25.141 36.0684 25.1123 35.9144 25.0499C35.7603 24.9875 35.6194 24.8926 35.5 24.7709C35.3864 24.6619 35.2961 24.5278 35.2352 24.3779C35.1743 24.2279 35.1442 24.0656 35.147 23.902C35.1448 23.6681 35.201 23.4378 35.3096 23.235C35.4182 23.0322 35.5753 22.8643 35.7647 22.7488C36.3632 22.4185 37.0347 22.2709 37.7059 22.3222H38.1029C38.108 22.217 38.108 22.1115 38.1029 22.0063C38.1041 21.9057 38.0834 21.8063 38.0426 21.7158C38.0017 21.6253 37.9418 21.5463 37.8676 21.485C37.6977 21.3648 37.4974 21.3041 37.2941 21.3112C37.0981 21.303 36.904 21.3552 36.7346 21.4615C36.5653 21.5679 36.4277 21.724 36.3382 21.9115L35.5294 21.6429C35.7031 21.2984 35.967 21.016 36.2885 20.8307C36.6099 20.6454 36.9749 20.5653 37.3382 20.6003C37.7714 20.5714 38.2012 20.6993 38.5588 20.9636C38.7005 21.0728 38.8149 21.2179 38.8919 21.386C38.9689 21.5541 39.006 21.7401 39 21.9273C38.9648 22.3843 38.9009 22.8382 38.8088 23.2859C38.7045 23.7691 38.6356 24.2603 38.6029 24.7551C38.6049 24.8454 38.6148 24.9353 38.6323 25.0237ZM38 22.8278C37.4966 22.8275 36.9976 22.9294 36.5294 23.1279C36.4045 23.1826 36.2981 23.277 36.2245 23.3984C36.1509 23.5198 36.1136 23.6624 36.1176 23.8072C36.1166 23.884 36.1304 23.9602 36.1582 24.0309C36.1861 24.1016 36.2273 24.1653 36.2794 24.218C36.4055 24.3356 36.5683 24.3977 36.7353 24.3918C36.8801 24.3881 37.0227 24.3526 37.1542 24.2874C37.2858 24.2222 37.4034 24.1286 37.5 24.0126C37.775 23.6815 37.9494 23.2682 38 22.8278Z" fill="black"/>
<path d="M40.6029 25.0238H39.7059L40.3823 20.7268H41.3382L40.6029 25.0238ZM41.3823 20.2844H40.4265L40.5882 19.2576H41.5441L41.3823 20.2844Z" fill="black"/>
<path d="M42.6471 25.0237H41.75L42.4412 20.7267H43.2647L43.0882 21.8957C43.4412 21.0426 43.9118 20.6161 44.5588 20.6161H44.6618L44.5441 21.6745H44.2647C44.042 21.6761 43.8236 21.7415 43.6324 21.8641C43.4376 21.9863 43.2755 22.1604 43.1618 22.3696C43.0205 22.6947 42.9263 23.0409 42.8824 23.3965L42.6471 25.0237Z" fill="black"/>
<path d="M12.5588 4.64449C12.3717 4.9479 12.1242 5.20301 11.8344 5.39149C11.5445 5.57996 11.2194 5.69712 10.8823 5.73454C9.11764 6.0505 8.82352 4.99204 8.82352 4.99204C9.41113 4.98286 9.98543 4.80269 10.4853 4.47072C10.6474 4.39019 10.7925 4.27487 10.9116 4.13186C11.0306 3.98885 11.1212 3.82116 11.1777 3.63913C11.2342 3.45711 11.2554 3.26458 11.24 3.07342C11.2246 2.88226 11.173 2.6965 11.0882 2.52759C10.7013 2.20477 10.2252 2.02954 9.73529 2.02954C9.24533 2.02954 8.76932 2.20477 8.38235 2.52759C7.86001 3.08327 7.50192 3.79218 7.35294 4.5655C7.13926 4.61024 6.91955 4.61024 6.70588 4.5655C6.47389 4.5269 6.26115 4.40427 6.10294 4.21795C6.17773 4.40034 6.28895 4.56282 6.42873 4.69386C6.56851 4.82491 6.73342 4.92132 6.91176 4.97625L7.57352 5.21321C7.70147 5.60648 7.92882 5.95371 8.23012 6.216C8.53142 6.47828 8.89475 6.64525 9.27941 6.6982C9.82798 6.81438 10.396 6.76017 10.9169 6.54192C11.4379 6.32368 11.8901 5.95045 12.2206 5.46598C12.5882 4.83407 12.5588 4.64449 12.5588 4.64449ZM8.67647 3.38067C8.78215 3.14682 8.9474 2.94997 9.15303 2.81296C9.35867 2.67594 9.59626 2.60438 9.83823 2.60658C10.25 2.60658 10.6471 3.03312 10.25 3.66503C10.0512 3.92638 9.80273 4.1391 9.52121 4.28895C9.2397 4.43879 8.93163 4.52231 8.61764 4.53391C8.50932 4.15416 8.53017 3.74542 8.67647 3.38067Z" fill="#2E0071"/>
<path d="M5.44116 5.63984C6.53125 6.90806 7.42049 8.35963 8.07351 9.93683C8.52578 11.016 8.80425 12.1699 8.89704 13.3492C10.2663 11.1014 11.8164 8.98698 13.5294 7.03004C14.9071 5.27644 16.61 3.85064 18.5294 2.84363C16.1467 3.73371 13.9452 5.1066 12.0441 6.88786C11.1152 7.77883 10.2316 8.7228 9.39704 9.71567C9.39704 9.71567 7.99999 7.77254 7.14704 6.84047C6.67111 6.30572 6.08759 5.89503 5.44116 5.63984Z" fill="#2E0071"/>
<path d="M16.6176 10.1106C16.4668 10.2777 16.2607 10.3742 16.0441 10.3791C15.9622 10.3816 15.8811 10.361 15.8089 10.3194C15.7367 10.2779 15.6758 10.2168 15.6323 10.1422C15.5794 10.0573 15.5441 9.96112 15.5289 9.86025C15.5136 9.75938 15.5188 9.65617 15.5441 9.55765V9.47866H17.7941C17.8723 9.26942 17.9314 9.05249 17.9706 8.83095C18.0226 8.63233 18.035 8.42417 18.0072 8.22003C17.9793 8.01588 17.9117 7.82034 17.8088 7.64612C17.6993 7.50742 17.5612 7.39807 17.4055 7.32677C17.2498 7.25546 17.0807 7.22417 16.9117 7.23538C16.6385 7.23057 16.3673 7.28551 16.1145 7.39686C15.8617 7.50821 15.6326 7.67364 15.4412 7.88309C15.0597 8.29136 14.8031 8.81491 14.7059 9.38388C14.6534 9.59638 14.6459 9.81882 14.6841 10.0348C14.7223 10.2508 14.8051 10.4549 14.9264 10.6319C15.0451 10.7868 15.1963 10.9091 15.3676 10.9887C15.5389 11.0684 15.7255 11.1031 15.9117 11.09C16.238 11.0967 16.5593 11.0036 16.8382 10.8215C17.1172 10.6469 17.358 10.4098 17.5441 10.1264L16.6176 10.1106ZM16.1764 8.16745C16.3171 8.01248 16.5051 7.91714 16.7059 7.89888C16.783 7.89272 16.8603 7.90845 16.93 7.9445C16.9997 7.98054 17.0593 8.03564 17.1029 8.10425C17.1431 8.20123 17.1638 8.30618 17.1638 8.41231C17.1638 8.51844 17.1431 8.62339 17.1029 8.72037V8.84675H15.7059C15.8023 8.57853 15.965 8.34366 16.1764 8.16745Z" fill="#535353"/>
</g>
<defs>
<linearGradient id="paint0_linear_708_5915" x1="24.9118" y1="29.921" x2="25.0815" y2="0.742626" gradientUnits="userSpaceOnUse">
<stop stop-color="#8B8D80"/>
<stop offset="0.52" stop-color="#9D9D9F"/>
<stop offset="0.99" stop-color="#E7E7E7"/>
</linearGradient>
<linearGradient id="paint1_linear_708_5915" x1="24.8088" y1="0.157978" x2="25.0803" y2="27.3298" gradientUnits="userSpaceOnUse">
<stop stop-color="#8B8D80"/>
<stop offset="0.52" stop-color="#9D9D9F"/>
<stop offset="0.99" stop-color="#E7E7E7"/>
</linearGradient>
<clipPath id="clip0_708_5915">
<rect width="50" height="30" fill="white"/>
</clipPath>
</defs>
</svg>
