<svg width="97" height="18" viewBox="0 0 97 18" fill="none" xmlns="http://www.w3.org/2000/svg">
<g clip-path="url(#clip0_708_5819)">
<path d="M5.81878 5.83937C5.87262 5.87451 5.91473 5.92433 5.93988 5.98266C5.98919 6.17207 6.01641 6.36634 6.02102 6.56174C6.04524 6.88503 6.05856 7.30069 6.05856 7.80871V10.9066C6.05856 11.7158 6.04403 12.2388 6.01496 12.4757C5.9859 12.7125 5.92777 12.8629 5.84179 12.9269C5.75581 12.9908 5.54389 13.0228 5.20966 13.0228H5.03406V13.3781C5.78165 13.3504 6.37987 13.337 6.82875 13.3378C7.29861 13.3378 8.03368 13.3512 9.03395 13.3781L9.93977 13.3946C10.3677 13.3946 10.8024 13.3757 11.244 13.3378L11.2331 13.0832C11.2331 12.8084 11.2848 12.2558 11.3881 11.4253H11.0079C10.9069 11.9227 10.8085 12.3367 10.7124 12.6675C10.5168 12.7386 10.3137 12.7878 10.1069 12.8144C9.74518 12.8557 9.38114 12.8743 9.017 12.87C8.37114 12.87 7.76807 12.8495 7.20779 12.8084C7.19568 12.5787 7.18962 12.2152 7.18962 11.7178V10.9196V9.54121C7.53596 9.51516 7.8706 9.50213 8.19353 9.50213C9.06705 9.50213 9.57567 9.54161 9.71937 9.62055C9.86469 9.70108 9.93614 9.92253 9.93614 10.2837V10.6106H10.3285C10.3051 10.1282 10.2934 9.70976 10.2934 9.35529C10.2934 9.01661 10.3067 8.56305 10.3333 7.99463H9.93977V8.36174C9.93977 8.68463 9.87922 8.87766 9.75812 8.94082C9.63702 9.00398 9.11872 9.03476 8.20322 9.03319C7.91016 9.03319 7.5735 9.02016 7.19325 8.99411V7.84424L7.20415 6.9774C7.21626 6.62371 7.2203 6.26845 7.21626 5.91161C7.79269 5.86661 8.3445 5.84411 8.87168 5.84411C9.44059 5.82959 10.0076 5.91378 10.5465 6.09279C10.5924 6.43511 10.6135 6.78019 10.6094 7.12542H11.0018C10.9988 6.53576 11.0803 5.9486 11.244 5.38108C10.8807 5.35148 10.5174 5.33845 10.1541 5.342L9.10419 5.34911L6.88809 5.38108C6.71128 5.38108 6.45132 5.37476 6.10821 5.36213L5.50272 5.342H4.87906V5.69726L5.32349 5.74226C5.49286 5.74835 5.66011 5.78114 5.81878 5.83937Z" fill="#FBFFFC"/>
<path d="M14.0753 12.9694C14.8183 13.3305 15.6399 13.5097 16.4694 13.4917C17.0905 13.4886 17.7099 13.4291 18.3198 13.314C18.9116 13.209 19.4921 13.0504 20.0539 12.8404C19.9991 12.453 19.97 12.0626 19.9667 11.6715C19.9664 11.3479 19.9956 11.025 20.0539 10.7064L20.4572 10.4471V10.1676C20.1417 10.2086 19.8236 10.2276 19.5053 10.2244C19.0775 10.2244 18.4235 10.2055 17.5435 10.1676V10.5229L18.2241 10.5797C18.4279 10.5867 18.6306 10.6121 18.8296 10.6555C18.8527 10.671 18.8722 10.6912 18.8866 10.7147C18.901 10.7382 18.9101 10.7644 18.9132 10.7917C18.9365 11.0579 18.9442 11.3251 18.9362 11.5922C18.9362 11.9498 18.9249 12.2873 18.9023 12.6047C18.2571 12.8564 17.5708 12.9924 16.8763 13.0061C15.6798 13.0061 14.7353 12.5925 14.0426 11.7651C13.454 11.0656 13.1598 10.2039 13.1598 9.17996C13.1598 8.11575 13.4867 7.25957 14.1407 6.61141C14.7413 6.01694 15.6068 5.7197 16.737 5.7197C17.3164 5.71015 17.8928 5.80117 18.4397 5.98852C18.9362 6.16694 19.2422 6.31654 19.3576 6.43733C19.4194 6.50128 19.4496 6.71681 19.4496 7.08628V7.46049H19.8129C19.8495 6.89863 19.9304 6.34038 20.0551 5.79075L19.5647 5.66049C19.0853 5.519 18.5976 5.4059 18.1042 5.32181C17.6993 5.26313 17.2904 5.23502 16.8811 5.23773C15.7961 5.23773 14.8996 5.41339 14.1915 5.7647C13.5074 6.09453 12.9329 6.60742 12.5349 7.24378C12.1329 7.89824 11.9269 8.64992 11.9403 9.41325C11.9277 10.1519 12.1193 10.8802 12.4949 11.5211C12.8679 12.1428 13.4167 12.6458 14.0753 12.9694Z" fill="#FBFFFC"/>
<path d="M22.1514 5.92111C22.2216 6.04506 22.2563 6.57756 22.2555 7.51861V11.0369C22.2555 11.6085 22.2422 12.1181 22.2155 12.5657C22.2173 12.6705 22.1905 12.7739 22.138 12.8653C22.0141 12.9769 21.87 13.0649 21.713 13.1247V13.3816L22.1974 13.3639C22.4783 13.3497 22.7145 13.3414 22.907 13.3414C23.1722 13.3414 23.498 13.3508 23.8758 13.3674L24.3323 13.3816C25.2785 13.3816 26.0584 13.1207 26.672 12.5989C27.2855 12.077 27.5927 11.4565 27.5935 10.7373C27.5935 10.1689 27.4107 9.72361 27.045 9.40151C26.6792 9.0794 26.0826 8.8923 25.2551 8.84019C25.9599 8.62151 26.4572 8.34953 26.7471 8.02427C27.0325 7.71327 27.188 7.30882 27.183 6.89098C27.1936 6.65357 27.1425 6.41741 27.0345 6.20454C26.9265 5.99166 26.7651 5.80901 26.5654 5.67361C26.2425 5.44624 25.748 5.33295 25.0819 5.33374L24.2403 5.35388C23.5242 5.37756 23.0451 5.3894 22.8029 5.3894C22.6454 5.3894 22.4275 5.38348 22.1502 5.37045L21.6197 5.35032H21.1353V5.70559H21.5289C21.8599 5.70401 22.0674 5.77585 22.1514 5.92111ZM23.3406 7.95795C23.3406 7.02953 23.3579 6.33559 23.3926 5.87611C23.6829 5.82945 23.9764 5.8049 24.2706 5.80269C24.8777 5.80269 25.3217 5.91835 25.6027 6.14967C25.8788 6.38059 26.018 6.71335 26.018 7.14559C26.018 7.6469 25.8525 8.0298 25.5215 8.29427C25.1905 8.55874 24.6424 8.69138 23.877 8.69217C23.7147 8.69217 23.5379 8.69217 23.3454 8.67559L23.3406 7.95795ZM23.3406 11.8658V11.1553V9.15756C23.5827 9.14572 23.808 9.14098 24.0042 9.14098C24.6581 9.14098 25.1344 9.20177 25.4331 9.32335C25.7228 9.43894 25.9666 9.64286 26.1282 9.9048C26.3047 10.2118 26.3906 10.5607 26.3765 10.9126C26.3765 11.522 26.1888 12.0044 25.8134 12.3597C25.438 12.7149 24.91 12.893 24.2294 12.8937C23.9315 12.8885 23.6345 12.862 23.3406 12.8144C23.355 12.6965 23.3627 12.5779 23.3636 12.4591C23.3636 12.323 23.3575 12.1276 23.3466 11.8718L23.3406 11.8658Z" fill="#FBFFFC"/>
<path d="M30.9649 13.3816V13.0263L30.4103 12.9647C30.284 12.9607 30.16 12.93 30.047 12.8747C30.0209 12.8512 30.0008 12.822 29.9882 12.7895C29.9756 12.7571 29.9709 12.7222 29.9743 12.6876C29.9743 12.5526 30.1031 12.184 30.3606 11.5816L30.753 10.6733H34.0905L34.7238 12.2424C34.8042 12.4114 34.8624 12.5896 34.897 12.7729C34.897 12.804 34.8892 12.8347 34.8742 12.8622C34.8592 12.8897 34.8375 12.9131 34.811 12.9304C34.6949 12.9729 34.5717 12.9942 34.4477 12.9932L33.8773 13.0263V13.3816C34.5805 13.354 35.1456 13.3405 35.5727 13.3413C36.0272 13.3413 36.5044 13.3547 37.0041 13.3816V13.0263C36.8103 13.029 36.6174 13.0014 36.4325 12.9446C36.3408 12.8994 36.2631 12.8311 36.2073 12.7469C36.0573 12.4845 35.9262 12.2123 35.8149 11.9321L32.8952 5.2887H32.5029C32.3495 5.71028 32.0609 6.38764 31.637 7.3208L30.0409 10.8332C29.7568 11.4647 29.4778 12.0497 29.2041 12.5882C29.1536 12.7236 29.0671 12.8433 28.9535 12.9351C28.7874 12.9986 28.6095 13.0268 28.4315 13.018H28.2584V13.3733C28.6774 13.3457 29.1638 13.3322 29.7176 13.333C30.1802 13.337 30.596 13.3532 30.9649 13.3816ZM32.4181 6.8187L33.8713 10.2091H30.9649L32.4181 6.8187Z" fill="#FBFFFC"/>
<path d="M45.2061 4.87541C45.2311 4.89101 45.2506 4.91375 45.2618 4.94055C45.2843 5.0253 45.2965 5.11235 45.2982 5.19989C45.3103 5.34555 45.3151 5.53265 45.3151 5.7612V7.15384C45.3151 7.51778 45.3087 7.75463 45.2957 7.86436C45.2968 7.93933 45.2691 8.01197 45.2182 8.06805C45.1287 8.10597 45.0307 8.12066 44.9337 8.11068H44.8537V8.27055C45.1896 8.2587 45.4584 8.25278 45.6603 8.25278C45.8621 8.25278 46.1927 8.2587 46.6521 8.27055L47.0589 8.27884C47.2503 8.27884 47.4465 8.27055 47.6451 8.25278V8.13436C47.6451 8.00963 47.6685 7.76173 47.7153 7.39068H47.5433C47.4985 7.61449 47.4549 7.80041 47.4113 7.94844C47.3243 7.98093 47.2337 8.00319 47.1413 8.01476C46.9805 8.03326 46.8188 8.04196 46.6569 8.04081C46.3675 8.04081 46.0974 8.03134 45.8443 8.01239C45.8383 7.90936 45.8358 7.74594 45.8358 7.52212V7.16686V6.53923C45.9921 6.52857 46.1422 6.52147 46.2875 6.52147C46.6799 6.52147 46.9088 6.54002 46.9742 6.57712C47.0384 6.61265 47.0711 6.71212 47.0711 6.87436V7.02239H47.2479C47.2357 6.8037 47.2297 6.61423 47.2297 6.45397C47.2297 6.3012 47.2297 6.0987 47.2479 5.84173H47.0589V6.00752C47.0589 6.15199 47.0311 6.24436 46.9766 6.26686C46.9221 6.28936 46.6896 6.30949 46.2779 6.30949C46.1471 6.30949 45.9957 6.30357 45.8237 6.29173V5.7766V5.38699C45.8298 5.22831 45.831 5.06963 45.8298 4.91331C46.0889 4.89278 46.3372 4.88252 46.5745 4.88252C46.8301 4.87627 47.0847 4.91436 47.3266 4.99502C47.3475 5.14888 47.3568 5.30403 47.3544 5.45923H47.5312C47.5301 5.19423 47.5668 4.93037 47.6402 4.67528C47.4792 4.66128 47.3175 4.65535 47.1558 4.65752H46.6835L45.6881 4.67291C45.6082 4.67291 45.4919 4.67291 45.3381 4.66344L45.0632 4.65515H44.7823V4.81502L44.9821 4.83515C45.0585 4.83663 45.1342 4.85022 45.2061 4.87541Z" fill="#FBFFFC"/>
<path d="M48.3934 6.19702C48.4189 6.35361 48.427 6.51241 48.4177 6.6707L48.4104 7.07925C48.4104 7.23083 48.4031 7.36465 48.4031 7.47952C48.3934 7.64519 48.4194 7.81101 48.4794 7.96623C48.5331 8.07114 48.6174 8.1581 48.7216 8.21609C48.8441 8.28252 48.9825 8.31564 49.1225 8.31202C49.2787 8.31628 49.4343 8.29012 49.5802 8.23504C49.7192 8.17181 49.843 8.08061 49.9435 7.96741L50.0973 7.80517L50.0682 8.2611C50.1805 8.24927 50.2932 8.24335 50.4061 8.24333C50.5563 8.24333 50.7391 8.24333 50.9559 8.2611V8.11781H50.8045C50.6834 8.11781 50.5962 8.09175 50.5623 8.03965C50.5239 7.90168 50.5108 7.75814 50.5236 7.6157C50.5236 7.17675 50.5365 6.66754 50.5623 6.08807L50.5732 5.85123C50.5732 5.81925 50.5575 5.80267 50.5284 5.80267C50.5123 5.80359 50.4965 5.80804 50.4824 5.8157C50.3543 5.86544 50.2222 5.90504 50.0876 5.93412C49.9376 5.96537 49.786 5.98909 49.6335 6.00517V6.14491H49.8381C49.9774 6.14491 50.0549 6.16267 50.0719 6.1982C50.1031 6.46903 50.1128 6.74182 50.1009 7.01412C50.1104 7.19322 50.099 7.37279 50.067 7.54938C50.009 7.67304 49.9183 7.77933 49.8042 7.85728C49.6787 7.95527 49.5229 8.00871 49.3622 8.00886C49.2547 8.012 49.1488 7.98219 49.0595 7.9236C48.9812 7.87364 48.9237 7.79808 48.8972 7.71044C48.8619 7.51509 48.8489 7.3165 48.8585 7.11833C48.8585 6.81044 48.8694 6.47767 48.8948 6.11886L48.9117 5.8607C48.9117 5.81807 48.8972 5.79675 48.8681 5.79675L48.6526 5.87609C48.4403 5.94272 48.2209 5.98524 47.9987 6.00281V6.14254H48.23C48.3184 6.14965 48.3777 6.16504 48.3934 6.19702Z" fill="#FBFFFC"/>
<path d="M52.6161 8.26457V8.11773H52.4599C52.3601 8.12315 52.2603 8.10487 52.1693 8.06444C52.1414 8.04905 52.1245 8.01234 52.1172 7.95313C52.0971 7.75639 52.0878 7.55874 52.0894 7.36102C52.0813 7.12337 52.0959 6.8855 52.1329 6.65049C52.1556 6.53883 52.2172 6.43835 52.3073 6.36628C52.387 6.30164 52.4872 6.26606 52.5907 6.26563C52.6597 6.26356 52.7277 6.28215 52.7857 6.31892C52.8493 6.36567 52.8983 6.42881 52.9274 6.50128H53.0485C53.0473 6.30847 53.0631 6.11592 53.0957 5.92576V5.89971C53.0955 5.88893 53.0919 5.87848 53.0854 5.86978C53.0789 5.86109 53.0698 5.85458 53.0593 5.85115C52.9891 5.8267 52.9147 5.81584 52.8402 5.81918C52.7485 5.81925 52.6584 5.8425 52.5786 5.88668C52.472 5.95341 52.3799 6.03991 52.3073 6.14128C52.2391 6.23173 52.1634 6.3165 52.0809 6.39471L52.0918 5.89023C52.0942 5.8668 52.0904 5.84316 52.0809 5.82155C52.0748 5.81089 52.0615 5.80615 52.0421 5.80615C52.0212 5.80767 52.001 5.81374 51.9828 5.82392C51.8704 5.87454 51.7532 5.9142 51.6328 5.94234C51.4846 5.97503 51.3346 5.99915 51.1835 6.01457V6.1626H51.4015C51.5226 6.1626 51.5916 6.1851 51.6146 6.2301C51.6473 6.30115 51.6631 6.54155 51.6631 6.94892C51.6631 7.28286 51.657 7.57299 51.6449 7.81576C51.6506 7.9002 51.6352 7.98473 51.6001 8.06207C51.5516 8.0963 51.4927 8.11341 51.433 8.11063L51.1835 8.13076V8.2776C51.4088 8.26576 51.6364 8.25984 51.8653 8.25984C52.0942 8.25984 52.3509 8.25273 52.6161 8.26457Z" fill="#FBFFFC"/>
<path d="M54.5513 8.31556C54.8919 8.32281 55.2228 8.20395 55.4777 7.9828C55.6209 7.85866 55.7341 7.70485 55.8089 7.53257C55.8836 7.36029 55.9182 7.17387 55.91 6.98687C55.9189 6.8301 55.8946 6.67322 55.8385 6.52609C55.7824 6.37896 55.6959 6.24474 55.5843 6.13187C55.4662 6.0235 55.3272 5.93937 55.1754 5.88445C55.0235 5.82953 54.862 5.80494 54.7002 5.81214C54.4599 5.80664 54.2222 5.8617 54.01 5.97201C53.8154 6.07336 53.6542 6.2265 53.545 6.41372C53.4329 6.60668 53.3757 6.8254 53.3791 7.04727C53.36 7.38604 53.4769 7.7187 53.7048 7.9745C53.8126 8.08742 53.944 8.17632 54.0901 8.23517C54.2361 8.29402 54.3934 8.32143 54.5513 8.31556ZM53.9749 6.36516C54.0256 6.25287 54.1101 6.15831 54.2171 6.09398C54.3256 6.0265 54.4517 5.99114 54.5804 5.99214C54.7299 5.99081 54.8761 6.03556 54.9981 6.12003C55.137 6.22453 55.2414 6.36659 55.2985 6.52858C55.3795 6.74091 55.4185 6.96635 55.4135 7.19293C55.4135 7.51029 55.3481 7.74595 55.2198 7.90345C55.1602 7.97916 55.0832 8.04007 54.995 8.08122C54.9069 8.12237 54.81 8.14261 54.7123 8.14029C54.5819 8.1427 54.4534 8.1091 54.3416 8.04332C54.2298 7.97755 54.1392 7.88228 54.0802 7.76845C53.9297 7.49197 53.8565 7.18148 53.8683 6.86845C53.867 6.6952 53.9033 6.52365 53.9749 6.36516Z" fill="#FBFFFC"/>
<path d="M56.2733 6.20047C56.3066 6.24012 56.3242 6.29012 56.323 6.34139C56.3375 6.48942 56.3435 6.69665 56.3435 6.96902V8.52626C56.3435 9.06508 56.3314 9.3635 56.3072 9.41915C56.283 9.47481 56.2055 9.50323 56.0723 9.50323H55.8822V9.64534C56.1425 9.6335 56.3569 9.62758 56.524 9.62758C56.6911 9.62758 56.9163 9.62758 57.2445 9.64534V9.50323H57.104C57.0205 9.51196 56.9363 9.4963 56.8618 9.45823C56.8415 9.44002 56.8251 9.4179 56.8139 9.39325C56.8026 9.36859 56.7967 9.34194 56.7965 9.31494C56.7868 9.16415 56.7819 8.9056 56.7819 8.53929V8.18402C56.8728 8.22524 56.9672 8.25853 57.0641 8.2835C57.1478 8.30547 57.2341 8.31701 57.3208 8.31784C57.4142 8.31916 57.5071 8.30515 57.5957 8.27639C57.709 8.23076 57.816 8.17148 57.9142 8.09994L58.0171 8.02652C58.2024 7.9081 58.3078 7.84652 58.3332 7.82521C58.4145 7.76077 58.4851 7.68448 58.5427 7.59902C58.6138 7.48921 58.6673 7.3694 58.7013 7.24376C58.7442 7.10271 58.7658 6.9563 58.7655 6.80915C58.7708 6.67633 58.7483 6.54384 58.6994 6.41983C58.6504 6.29582 58.5761 6.18289 58.4809 6.08797C58.3825 5.99433 58.2656 5.92134 58.1373 5.87349C58.0091 5.82563 57.8721 5.80392 57.735 5.80968C57.6141 5.80732 57.4936 5.8233 57.3777 5.85705C57.2906 5.8919 57.2112 5.94298 57.144 6.00744L56.7807 6.32126V6.14126L56.788 5.87244C56.788 5.82508 56.7747 5.80139 56.7468 5.80139L56.5882 5.86297C56.3565 5.93341 56.1185 5.98179 55.8773 6.00744V6.16494H56.0796C56.1463 6.15732 56.2139 6.16971 56.2733 6.20047ZM56.7831 6.92284C56.7768 6.80159 56.7845 6.68002 56.8061 6.56047C56.8371 6.48402 56.8855 6.41555 56.9478 6.36034C57.0229 6.28862 57.1113 6.23155 57.2082 6.19218C57.3048 6.15244 57.4085 6.13191 57.5134 6.13179C57.6586 6.13111 57.8012 6.17007 57.9251 6.24429C58.0512 6.31792 58.1523 6.42625 58.2157 6.55573C58.2854 6.70418 58.3198 6.86613 58.3162 7.02942C58.323 7.28514 58.2467 7.53638 58.0983 7.74705C58.0292 7.84621 57.9352 7.92638 57.8254 7.97987C57.7156 8.03337 57.5935 8.0584 57.471 8.05258C57.3476 8.05368 57.2255 8.02779 57.1137 7.97679C56.9871 7.91304 56.8747 7.82528 56.7831 7.71863V6.92284Z" fill="#FBFFFC"/>
<path d="M60.2902 8.31556C60.4488 8.31584 60.6068 8.29553 60.76 8.25517C60.9151 8.21258 61.0641 8.1509 61.2033 8.07161L61.2868 7.85846L61.242 7.82056C61.1326 7.89476 61.0132 7.95374 60.8872 7.99582C60.7702 8.03462 60.6474 8.05423 60.5239 8.05385C60.4025 8.05907 60.2815 8.03872 60.1688 7.99418C60.0562 7.94964 59.9547 7.88195 59.8712 7.79569C59.7053 7.6228 59.6181 7.37056 59.6096 7.03661H60.2575C60.5857 7.03661 60.8412 7.03069 61.0265 7.01648C61.1363 7.00711 61.2452 6.98929 61.3522 6.96319V6.81398C61.3605 6.67947 61.3409 6.54471 61.2947 6.41775C61.2485 6.29079 61.1767 6.17423 61.0834 6.07503C60.9868 5.98538 60.8726 5.91585 60.7477 5.87066C60.6228 5.82547 60.4898 5.80556 60.3568 5.81214C60.1367 5.81696 59.9216 5.8769 59.7319 5.98622C59.5524 6.07195 59.4 6.20374 59.2911 6.36754C59.1653 6.59356 59.1026 6.84804 59.1095 7.1053C59.1009 7.26623 59.125 7.42722 59.1803 7.57903C59.2356 7.73084 59.321 7.87047 59.4316 7.9899C59.5434 8.09998 59.6776 8.18585 59.8255 8.24195C59.9734 8.29805 60.1317 8.32313 60.2902 8.31556ZM59.7973 6.19938C59.8528 6.13187 59.9236 6.07798 60.0041 6.042C60.0846 6.00601 60.1726 5.98894 60.2611 5.99214C60.3765 5.98971 60.4903 6.01795 60.5905 6.07385C60.6775 6.11912 60.7478 6.18995 60.7915 6.27635C60.852 6.40982 60.883 6.5543 60.8824 6.7003V6.8424C60.7613 6.85425 60.6402 6.86017 60.5069 6.86017C60.1836 6.86017 59.8869 6.86017 59.6193 6.8424C59.6217 6.55346 59.6811 6.33911 59.7973 6.19938Z" fill="#FBFFFC"/>
<path d="M62.2725 8.31556C62.3378 8.31764 62.4031 8.31046 62.4663 8.29425C62.518 8.27763 62.5663 8.25239 62.6092 8.21964L63.1469 7.81582C63.1469 7.88925 63.1469 7.96267 63.1469 8.03609V8.26109C63.3083 8.24925 63.4379 8.24332 63.5356 8.24332C63.6131 8.24332 63.7512 8.24333 63.9486 8.26109V8.09767H63.7463C63.6761 8.09767 63.6337 8.07398 63.6167 8.02661C63.5874 7.77665 63.5769 7.52492 63.5853 7.27346C63.5887 6.97142 63.5758 6.66942 63.5465 6.36872C63.5316 6.28831 63.5006 6.21157 63.4553 6.14289C63.41 6.0742 63.3513 6.01493 63.2825 5.96846C63.1125 5.85721 62.9104 5.8024 62.7061 5.81214C62.6021 5.81126 62.4986 5.82481 62.3985 5.8524C62.2809 5.88853 62.1679 5.9378 62.0618 5.99925L61.7797 6.15793V6.33319V6.50254L61.925 6.54043C61.9662 6.4303 62.0122 6.31425 62.0618 6.19346C62.1241 6.15349 62.1923 6.12314 62.2641 6.10346C62.3403 6.0837 62.4189 6.07375 62.4978 6.07385C62.5918 6.06835 62.6859 6.08358 62.7731 6.11842C62.8603 6.15327 62.9384 6.20684 63.0016 6.27517C63.1056 6.41452 63.157 6.58487 63.1469 6.75714C62.7817 6.80755 62.4212 6.88676 62.0691 6.99398C61.92 7.04706 61.7926 7.14595 61.7058 7.27582C61.622 7.41042 61.5799 7.56593 61.5847 7.72346C61.5809 7.80339 61.5945 7.88321 61.6248 7.95756C61.6551 8.0319 61.7013 8.09905 61.7603 8.15451C61.9033 8.27108 62.0869 8.32883 62.2725 8.31556ZM62.2302 7.18938C62.361 7.10175 62.6661 7.00583 63.1469 6.90517L63.1408 7.02359L63.1469 7.5849C63.0558 7.71068 62.9406 7.81805 62.8078 7.90109C62.6966 7.97005 62.5677 8.00699 62.436 8.00767C62.3822 8.00873 62.3287 7.99874 62.2791 7.97834C62.2294 7.95795 62.1847 7.92759 62.1478 7.88925C62.1097 7.84916 62.0801 7.80198 62.061 7.75051C62.0419 7.69904 62.0335 7.64433 62.0364 7.58964C62.0329 7.51254 62.0487 7.43576 62.0825 7.366C62.1163 7.29624 62.167 7.23561 62.2302 7.18938Z" fill="#FBFFFC"/>
<path d="M65.3497 8.26455V8.11771H65.1644C65.0881 8.12473 65.0118 8.10408 64.95 8.05968C64.9201 8.01536 64.9072 7.96205 64.9137 7.90929C64.9081 7.64402 64.9052 7.35665 64.9052 7.04718C64.8981 6.87425 64.907 6.70103 64.9319 6.52968C64.9702 6.41637 65.0477 6.31966 65.1511 6.25613C65.2769 6.17293 65.4268 6.13142 65.5785 6.13771C65.7002 6.1343 65.8205 6.16381 65.9261 6.22297C66.0176 6.27572 66.0894 6.35585 66.1308 6.45152C66.1808 6.60724 66.2018 6.77051 66.1925 6.9335C66.1925 7.49481 66.1756 7.94126 66.1429 8.27047C66.293 8.25863 66.4335 8.25271 66.5643 8.25271C66.6987 8.25271 66.8586 8.25271 67.0487 8.27047V8.11771H66.8634C66.8271 8.1223 66.7902 8.11712 66.7567 8.10272C66.7232 8.08832 66.6944 8.06525 66.6733 8.036C66.6373 7.88072 66.6251 7.7211 66.6369 7.56231L66.6466 6.76297C66.6579 6.57496 66.6278 6.38677 66.5582 6.21113C66.4946 6.08811 66.3929 5.98784 66.2676 5.92455C66.1187 5.84725 65.9517 5.80929 65.7832 5.81442C65.6666 5.81441 65.5508 5.83321 65.4405 5.87008C65.3858 5.88991 65.3356 5.92009 65.2927 5.95889L64.9004 6.29876V5.95652V5.85942C64.9004 5.82034 64.8871 5.80139 64.8592 5.80139C64.8441 5.80168 64.8291 5.80533 64.8156 5.81205C64.6886 5.8643 64.5579 5.90744 64.4245 5.94113C64.2932 5.97172 64.1601 5.99466 64.0261 6.00981V6.15784H64.2126C64.2824 6.14994 64.3531 6.16057 64.4172 6.18863C64.4314 6.20355 64.4425 6.22106 64.4497 6.24016C64.457 6.25926 64.4603 6.27958 64.4596 6.29994C64.4656 6.46337 64.4693 6.68955 64.4693 6.9785C64.4693 7.62271 64.4584 7.97363 64.4366 8.03126C64.416 8.08929 64.3409 8.11889 64.2126 8.11889H64.0261V8.26573C64.2598 8.25389 64.4681 8.24797 64.6521 8.24797C64.8362 8.24797 65.0566 8.25271 65.3497 8.26455Z" fill="#FBFFFC"/>
<path d="M69.1933 8.0811C69.5269 8.24409 69.8959 8.32537 70.2687 8.31794C70.5475 8.31676 70.8256 8.2902 71.0994 8.2386C71.3655 8.19157 71.6266 8.12061 71.8793 8.02663C71.8551 7.85233 71.8421 7.67672 71.8405 7.50084C71.8406 7.35554 71.8536 7.21052 71.8793 7.06742L72.0609 6.94899V6.8211C71.9189 6.84011 71.7756 6.84882 71.6323 6.84715C71.4409 6.84715 71.147 6.83847 70.7506 6.8211V6.98689L71.057 7.01294C71.1484 7.01582 71.2392 7.02732 71.3283 7.04728C71.3386 7.05414 71.3473 7.06308 71.3538 7.0735C71.3602 7.08392 71.3644 7.09557 71.3658 7.10768C71.3758 7.22583 71.3791 7.34444 71.3755 7.46294C71.3755 7.62084 71.3707 7.77242 71.361 7.91768C71.0711 8.03124 70.7626 8.09262 70.4503 8.09886C70.2082 8.10922 69.967 8.0642 69.7459 7.96737C69.5247 7.87054 69.3297 7.72458 69.1764 7.5411C68.9078 7.21124 68.7687 6.79838 68.784 6.37702C68.774 6.16562 68.8079 5.95443 68.8837 5.75619C68.9594 5.55795 69.0755 5.37678 69.2248 5.2236C69.4953 4.95597 69.8844 4.82215 70.3922 4.82215C70.6525 4.81707 70.9116 4.85716 71.1575 4.94057C71.3064 4.98298 71.4463 5.05117 71.5705 5.14189C71.6099 5.23426 71.6241 5.33505 71.6117 5.43439V5.60136H71.7751C71.7914 5.34871 71.8279 5.09768 71.8841 4.85057L71.6637 4.79255C71.4485 4.72815 71.2292 4.67712 71.0074 4.63978C70.8253 4.61374 70.6416 4.60107 70.4576 4.60189C70.0406 4.5873 69.6258 4.66842 69.2466 4.83873C68.9395 4.98754 68.6817 5.21826 68.5031 5.50426C68.3217 5.79797 68.2289 6.13582 68.2354 6.47886C68.2293 6.81092 68.3155 7.13837 68.4849 7.42623C68.6514 7.70686 68.8974 7.93432 69.1933 8.0811Z" fill="#FBFFFC"/>
<path d="M73.0855 8.31551C73.1512 8.31758 73.2168 8.31041 73.2804 8.29419C73.332 8.27735 73.3803 8.25213 73.4233 8.21959L73.9598 7.81577C73.9598 7.88919 73.9598 7.96262 73.9598 8.03604V8.26104C74.1221 8.2492 74.2516 8.24327 74.3497 8.24327C74.4272 8.24327 74.5641 8.24327 74.7615 8.26104V8.09762H74.5592C74.4902 8.09762 74.4466 8.07393 74.4296 8.02656C74.4011 7.77655 74.3905 7.52487 74.3982 7.27341C74.4023 6.97136 74.3893 6.66932 74.3594 6.36867C74.3447 6.28833 74.3139 6.21162 74.2688 6.14294C74.2237 6.07425 74.1652 6.01494 74.0966 5.96841C73.9261 5.85737 73.7237 5.8026 73.519 5.81209C73.415 5.81121 73.3115 5.82476 73.2114 5.85235C73.0942 5.88852 72.9816 5.93779 72.876 5.99919L72.5926 6.15788V6.33314V6.50248L72.7379 6.54038C72.7791 6.43025 72.8251 6.31419 72.876 6.19341C72.9381 6.15324 73.0064 6.12287 73.0782 6.10341C73.1544 6.08357 73.233 6.07362 73.3119 6.0738C73.4058 6.06839 73.4996 6.08367 73.5866 6.11852C73.6736 6.15336 73.7515 6.20688 73.8145 6.27512C73.9185 6.41446 73.9699 6.58482 73.9598 6.75709C73.5946 6.80766 73.2342 6.88686 72.882 6.99393C72.7331 7.04731 72.6057 7.14613 72.5187 7.27577C72.4349 7.41036 72.3928 7.56587 72.3976 7.72341C72.3939 7.80343 72.4078 7.8833 72.4383 7.95765C72.4688 8.032 72.5152 8.09911 72.5744 8.15446C72.7175 8.26998 72.9003 8.3276 73.0855 8.31551ZM73.0443 7.18933C73.1739 7.10169 73.479 7.00577 73.9598 6.90512V7.02354V7.58485C73.8714 7.71213 73.7588 7.8215 73.628 7.90696C73.5163 7.97596 73.3871 8.01289 73.255 8.01354C73.2012 8.01453 73.1477 8.0045 73.0981 7.98411C73.0485 7.96372 73.0037 7.9334 72.9668 7.89512C72.9289 7.85484 72.8996 7.80763 72.8804 7.75621C72.8613 7.70479 72.8528 7.65017 72.8554 7.59551C72.8503 7.51784 72.8649 7.44015 72.8979 7.3693C72.9308 7.29846 72.9811 7.23664 73.0443 7.18933Z" fill="#FBFFFC"/>
<path d="M76.2122 8.26462V8.11778L76.033 8.09765C75.9552 8.10142 75.8777 8.08594 75.8077 8.05265C75.7774 8.00754 75.7637 7.95364 75.769 7.89989C75.7617 7.72936 75.7581 7.46173 75.7581 7.09699C75.7476 6.89489 75.7606 6.69228 75.7968 6.49304C75.841 6.38435 75.9189 6.29197 76.0197 6.22896C76.1262 6.15665 76.2532 6.11857 76.3829 6.12002C76.4967 6.11695 76.6086 6.14794 76.7039 6.20883C76.791 6.26609 76.8572 6.34907 76.8928 6.44568C76.9394 6.62749 76.9582 6.81505 76.9485 7.00225C76.9485 7.30423 76.9424 7.59436 76.9279 7.87146C76.9337 7.94342 76.9145 8.01518 76.8734 8.07515C76.8127 8.11106 76.7416 8.12607 76.6712 8.11778H76.4968V8.26462C76.8262 8.25278 77.0478 8.24686 77.1616 8.24686C77.3045 8.24686 77.5249 8.24686 77.8361 8.26462V8.11778L77.6618 8.09765C77.5847 8.09553 77.5088 8.07947 77.4377 8.05028C77.4119 8.02603 77.3967 7.99291 77.3953 7.95791C77.3953 7.9141 77.3869 7.73528 77.3869 7.42265C77.3771 7.12122 77.386 6.81948 77.4135 6.5191C77.4424 6.40335 77.5129 6.30163 77.6121 6.23252C77.7238 6.15205 77.8597 6.11037 77.9984 6.1141C78.1163 6.10919 78.2325 6.14249 78.329 6.20883C78.418 6.27305 78.4814 6.36559 78.5082 6.47054C78.5489 6.70038 78.5643 6.93381 78.5542 7.16686C78.5542 7.58607 78.5421 7.95199 78.5179 8.26462C78.6644 8.25278 78.7928 8.24686 78.9018 8.24686C78.9732 8.24686 79.1101 8.24686 79.3111 8.2587L79.4322 8.26462V8.11778L79.2409 8.11068C79.1331 8.11068 79.0665 8.08225 79.0399 8.04318C79.0028 7.91549 78.9896 7.78228 79.0011 7.65002L79.012 6.65765C79.0194 6.49822 78.9875 6.33939 78.9188 6.19462C78.8557 6.08008 78.7608 5.98526 78.6451 5.92107C78.516 5.84941 78.3697 5.81262 78.2212 5.81449C78.113 5.81506 78.0056 5.83389 77.9039 5.87015C77.8264 5.89556 77.7547 5.93581 77.6932 5.98857L77.359 6.28818C77.2858 6.13895 77.1734 6.01143 77.0332 5.9187C76.8881 5.84498 76.7256 5.80986 76.5622 5.81686C76.471 5.81747 76.3806 5.83267 76.2945 5.86186C76.2292 5.88425 76.1694 5.91974 76.119 5.96607L75.7714 6.27041C75.7714 6.15199 75.7714 6.05015 75.7714 5.9566V5.86541C75.7714 5.82396 75.7557 5.80383 75.7254 5.80383L75.5353 5.87489C75.3212 5.9406 75.1015 5.98737 74.8789 6.01462V6.15436H75.04C75.1148 6.1459 75.1906 6.15608 75.2604 6.18396C75.292 6.22598 75.3074 6.27756 75.304 6.32962C75.3104 6.40857 75.3132 6.65844 75.3124 7.07923C75.3124 7.65831 75.3015 7.97568 75.2785 8.03489C75.2555 8.0941 75.1889 8.12252 75.0763 8.12252H74.8789V8.26936C75.1348 8.25752 75.3718 8.2516 75.5898 8.2516C75.792 8.24686 75.9954 8.25278 76.2122 8.26462Z" fill="#FBFFFC"/>
<path d="M80.7546 8.26338H80.7958C81.0126 8.25272 81.2087 8.2468 81.3807 8.2468C81.5527 8.2468 81.7876 8.2468 82.0806 8.26456V8.11772H81.8954C81.8191 8.12474 81.7428 8.10409 81.681 8.05969C81.651 8.01537 81.6382 7.96206 81.6447 7.9093C81.6447 7.64404 81.6362 7.35627 81.6362 7.04719C81.6297 6.87426 81.6386 6.70111 81.6629 6.52969C81.701 6.41698 81.7775 6.32044 81.8796 6.25614C82.0056 6.17309 82.1553 6.1316 82.3071 6.13772C82.4288 6.13419 82.5491 6.16371 82.6547 6.22298C82.7462 6.27573 82.8179 6.35586 82.8593 6.45154C82.9094 6.60725 82.9303 6.77053 82.9211 6.93351C82.9211 7.49483 82.9041 7.94127 82.8714 8.27048C83.0216 8.25864 83.1621 8.25272 83.2928 8.25272C83.4236 8.25272 83.5851 8.25864 83.7772 8.27048V8.11772H83.5908C83.5545 8.12231 83.5176 8.11713 83.4841 8.10273C83.4506 8.08833 83.4217 8.06526 83.4006 8.03601C83.3647 7.88073 83.3525 7.72111 83.3643 7.56233L83.3752 6.76298C83.3859 6.575 83.3557 6.38693 83.2868 6.21114C83.2216 6.08629 83.1178 5.98475 82.9901 5.92101C82.8412 5.84371 82.6742 5.80575 82.5057 5.81088C82.3891 5.81095 82.2733 5.82976 82.163 5.86654C82.1083 5.88637 82.0581 5.91655 82.0153 5.95535L81.6229 6.29522V5.95298V5.85588C81.6229 5.8168 81.6096 5.79785 81.5817 5.79785C81.5666 5.7983 81.5517 5.80193 81.5381 5.80851C81.4096 5.86179 81.2773 5.90572 81.1421 5.93996C81.0109 5.97066 80.8778 5.99359 80.7437 6.00864V6.15785H80.9302C81.0004 6.15003 81.0715 6.16066 81.1361 6.18864C81.1643 6.21897 81.1791 6.25899 81.1773 6.29996C81.1845 6.46338 81.1869 6.68956 81.1869 6.97851C81.1869 7.62272 81.1764 7.97364 81.1555 8.03127C81.1337 8.0893 81.0586 8.1189 80.9302 8.1189H80.7849L80.6093 8.0964C80.5431 8.09494 80.4783 8.07657 80.4216 8.04311C80.3909 8.00766 80.3738 7.96286 80.3732 7.9164C80.3574 7.76009 80.3489 7.57298 80.3489 7.35272C80.3489 7.13246 80.3489 6.75351 80.3671 6.25969C80.3671 6.10693 80.3792 5.96719 80.3913 5.84048L80.3284 5.80259C80.2027 5.85257 80.0741 5.89527 79.9433 5.93048C79.844 5.95535 79.689 5.98377 79.4782 6.01338V6.15785H79.6829C79.7451 6.15076 79.808 6.16232 79.8633 6.19101C79.8791 6.20647 79.8913 6.22501 79.8993 6.24542C79.9072 6.26582 79.9106 6.28764 79.9094 6.30943C79.9178 6.45154 79.9215 6.65404 79.9215 6.91693C79.9215 7.29509 79.9174 7.59193 79.9094 7.80746C79.9139 7.89081 79.9011 7.97419 79.8718 8.05259C79.826 8.08641 79.7693 8.1032 79.712 8.09996L79.4891 8.12246V8.2693C79.6962 8.25746 79.9021 8.25154 80.1055 8.25154C80.309 8.25154 80.5185 8.25272 80.7546 8.26338Z" fill="#FBFFFC"/>
<path d="M80.1322 5.25316C80.1703 5.25376 80.2081 5.24672 80.2433 5.23246C80.2785 5.2182 80.3103 5.19703 80.3368 5.17026C80.3918 5.11613 80.4227 5.0429 80.4227 4.96658C80.4227 4.89025 80.3918 4.81703 80.3368 4.76289C80.3106 4.73558 80.2789 4.71389 80.2437 4.69922C80.2084 4.68454 80.1705 4.67719 80.1322 4.67763C80.0541 4.67763 79.9793 4.70795 79.9241 4.76192C79.8689 4.81588 79.8379 4.88908 79.8379 4.96539C79.8379 5.04171 79.8689 5.11491 79.9241 5.16887C79.9793 5.22284 80.0541 5.25316 80.1322 5.25316Z" fill="#FBFFFC"/>
<path d="M84.4336 7.45111L84.1817 7.62519C84.114 7.66367 84.0557 7.71622 84.0109 7.77914C83.9729 7.8428 83.9525 7.91503 83.9516 7.98874C83.9508 8.01581 83.9557 8.04275 83.9661 8.06783C83.9766 8.09292 83.9922 8.11559 84.0122 8.1344C84.094 8.19288 84.1864 8.23549 84.2846 8.25993C84.1409 8.35615 83.9889 8.44014 83.8305 8.51098C83.7372 8.63082 83.6843 8.77608 83.6791 8.92664C83.6789 9.03557 83.7048 9.14304 83.7549 9.24035C83.8049 9.33766 83.8777 9.42208 83.9674 9.48677C84.1635 9.63835 84.436 9.71059 84.792 9.71059C85.0591 9.71576 85.3239 9.66235 85.5671 9.55427C85.7742 9.46316 85.9521 9.31866 86.0817 9.13624C86.1949 8.97559 86.2561 8.78539 86.2573 8.59032C86.2597 8.46499 86.2332 8.34074 86.1798 8.22677C86.1418 8.13509 86.0769 8.05641 85.9933 8.00059C85.8963 7.9515 85.7875 7.92899 85.6785 7.93546C85.584 7.93546 85.4302 7.94019 85.2171 7.94967C85.0681 7.94967 84.9543 7.95795 84.8744 7.95795C84.7346 7.96925 84.594 7.95025 84.4626 7.9023C84.4327 7.88918 84.4071 7.86793 84.3891 7.84106C84.3711 7.8142 84.3613 7.78285 84.3609 7.75072C84.363 7.70746 84.3791 7.66598 84.4069 7.6323C84.4702 7.56212 84.5427 7.50041 84.6225 7.44874H84.7436C84.9384 7.45044 85.1307 7.40617 85.3043 7.31967C85.466 7.24415 85.604 7.1276 85.7039 6.98217C85.7937 6.85364 85.8426 6.70201 85.8444 6.54638C85.8394 6.45451 85.819 6.36408 85.7838 6.27874H86.2682C86.3072 6.19857 86.353 6.12172 86.4051 6.04901L86.3772 5.99453C86.203 6.01207 86.0279 6.01958 85.8529 6.01703H85.6349C85.5438 5.94337 85.4406 5.88531 85.3297 5.84532C85.2181 5.80926 85.1009 5.79204 84.9834 5.7944C84.7591 5.79859 84.5386 5.85159 84.3379 5.94953C84.1751 6.02015 84.037 6.13583 83.9407 6.2823C83.8491 6.42187 83.8003 6.58421 83.8002 6.75006C83.7938 6.92688 83.8586 7.0991 83.9807 7.22967C84.1079 7.34292 84.2646 7.41956 84.4336 7.45111ZM84.4336 8.34164C84.5123 8.30769 84.5985 8.29344 84.6843 8.30019H85.2898C85.3806 8.29606 85.4716 8.30202 85.561 8.31795C85.6456 8.34624 85.717 8.40342 85.762 8.47901C85.8197 8.56466 85.8492 8.66545 85.8468 8.76796C85.8455 8.90207 85.8033 9.03276 85.7257 9.14335C85.6424 9.26738 85.5254 9.36622 85.3878 9.42874C85.23 9.50107 85.0572 9.53674 84.8829 9.53296C84.6733 9.5462 84.4662 9.4829 84.3016 9.35532C84.2338 9.29933 84.1797 9.22922 84.1433 9.15012C84.1068 9.07103 84.0889 8.98496 84.0909 8.89822C84.0866 8.78207 84.1138 8.66688 84.1696 8.56427C84.2401 8.47228 84.3302 8.39633 84.4336 8.34164ZM84.4057 6.13664C84.4576 6.0842 84.5203 6.04307 84.5896 6.01593C84.6588 5.98879 84.7332 5.97625 84.8078 5.97914C84.888 5.97793 84.9674 5.99483 85.0399 6.02851C85.1123 6.06219 85.1759 6.11176 85.2256 6.17335C85.3427 6.31852 85.402 6.50026 85.3927 6.68493C85.4025 6.84961 85.347 7.01165 85.2377 7.1373C85.186 7.19086 85.1231 7.23296 85.0533 7.26074C84.9835 7.28852 84.9085 7.30135 84.8332 7.29835C84.7539 7.29915 84.6754 7.28216 84.6038 7.2487C84.5322 7.21524 84.4695 7.1662 84.4203 7.10532C84.302 6.95306 84.2431 6.76451 84.2544 6.57361C84.2449 6.41426 84.2992 6.25755 84.4057 6.13664Z" fill="#FBFFFC"/>
<path d="M89.1964 8.31556C89.379 8.31725 89.5604 8.28635 89.7317 8.22438C89.9289 8.14304 90.1116 8.03151 90.273 7.89398C90.6278 8.17582 90.9378 8.31556 91.2018 8.31556C91.2742 8.31583 91.3462 8.30463 91.4149 8.2824C91.5612 8.15808 91.7144 8.04184 91.8739 7.93425L91.8351 7.81582C91.747 7.87817 91.6448 7.91879 91.5372 7.93425C91.3889 7.93106 91.2423 7.90302 91.1037 7.85135C90.9231 7.78506 90.7534 7.6933 90.5999 7.57898C90.7401 7.44413 90.8567 7.28771 90.9451 7.11596C91.009 6.98407 91.0433 6.84031 91.0456 6.69438C91.0434 6.61927 91.0329 6.54461 91.0141 6.47175C91.2641 6.47652 91.5136 6.4959 91.7613 6.52977C91.7734 6.43148 91.7928 6.30951 91.8206 6.16385C91.6075 6.16385 91.3362 6.17096 91.0189 6.17925L90.692 6.18753C90.5939 6.18753 90.4498 6.18753 90.2766 6.17451L90.1192 6.41135L90.1313 6.44925C90.2754 6.44249 90.4198 6.45003 90.5624 6.47175C90.5804 6.47697 90.5971 6.48577 90.6115 6.49759C90.6259 6.5094 90.6376 6.52399 90.646 6.54043C90.6902 6.63253 90.7114 6.73361 90.7077 6.8353C90.7083 6.94077 90.6895 7.04548 90.652 7.14438C90.6006 7.25987 90.5307 7.36661 90.4449 7.46056C90.0096 7.08167 89.646 6.63069 89.3708 6.12832C89.877 5.78411 90.1305 5.43832 90.1313 5.09096C90.139 4.96173 90.0957 4.83453 90.0102 4.73569C89.9652 4.69108 89.9111 4.6563 89.8514 4.63364C89.7917 4.61099 89.7278 4.60097 89.6638 4.60425C89.5696 4.60192 89.4761 4.62182 89.3914 4.66227C89.2549 4.75135 89.1257 4.85074 89.0051 4.95951C88.9354 5.01421 88.8802 5.08447 88.844 5.16438C88.8 5.27776 88.7786 5.39837 88.781 5.51964C88.7915 5.7442 88.8428 5.96514 88.9324 6.17214C88.7084 6.29138 88.5066 6.44672 88.3354 6.63161C88.1875 6.81986 88.1089 7.05147 88.1126 7.28885C88.109 7.42455 88.1342 7.55949 88.1865 7.68522C88.2388 7.81096 88.3171 7.92476 88.4165 8.01951C88.5193 8.11786 88.6414 8.19481 88.7754 8.24569C88.9095 8.29658 89.0527 8.32035 89.1964 8.31556ZM89.24 4.97609C89.2674 4.93846 89.3038 4.90798 89.346 4.88733C89.3882 4.86668 89.435 4.85649 89.4822 4.85767C89.5212 4.85716 89.5598 4.86557 89.5949 4.88222C89.63 4.89887 89.6607 4.92331 89.6844 4.95359C89.741 5.02655 89.7693 5.11675 89.7644 5.20819C89.7644 5.44977 89.6053 5.69569 89.2872 5.94596C89.2069 5.74513 89.1615 5.5326 89.1528 5.31714C89.1421 5.19638 89.1728 5.07555 89.24 4.97372V4.97609ZM88.6648 6.70859C88.7537 6.56935 88.8733 6.45123 89.0148 6.3628C89.3032 6.88369 89.6748 7.35621 90.1155 7.76254C89.9249 7.91455 89.6892 8.00257 89.4434 8.01359C89.3242 8.01581 89.2059 7.99186 89.0974 7.9435C88.9888 7.89513 88.8927 7.82358 88.8162 7.73411C88.6544 7.56286 88.5645 7.33839 88.5643 7.1053C88.5619 6.96676 88.5965 6.83001 88.6648 6.70859Z" fill="#FBFFFC"/>
<path d="M46.7501 11.5495C47.0029 11.487 47.2343 11.3603 47.421 11.1824C47.5493 11.0427 47.6193 10.861 47.6172 10.6732C47.6218 10.5665 47.5987 10.4603 47.55 10.3646C47.5013 10.2689 47.4286 10.1869 47.3387 10.1261C47.1375 10.0106 46.9053 9.95736 46.6726 9.97336L46.2936 9.98284C45.9715 9.9935 45.7559 9.99823 45.6469 9.99823C45.5767 9.99823 45.4786 9.99823 45.3539 9.98994L45.1117 9.98047H44.8961V10.1403H45.0729C45.2207 10.1403 45.3151 10.1735 45.3502 10.2398C45.3854 10.3061 45.3975 10.5347 45.3975 10.9574V12.5384C45.3975 12.7953 45.3914 13.0239 45.3793 13.2252C45.3799 13.2724 45.3678 13.319 45.3442 13.3602C45.2889 13.411 45.2245 13.4511 45.1541 13.4786V13.597L45.3684 13.5888C45.4956 13.5817 45.6009 13.5793 45.6881 13.5793C45.8092 13.5793 45.9533 13.5793 46.1265 13.5911H46.3311C46.7148 13.6045 47.0899 13.4778 47.3835 13.2359C47.5122 13.1355 47.6162 13.0082 47.6879 12.8633C47.7596 12.7184 47.7971 12.5596 47.7976 12.3986C47.8045 12.2873 47.7863 12.1759 47.7445 12.0722C47.7026 11.9685 47.6381 11.875 47.5554 11.7982C47.3899 11.6561 47.1215 11.5732 46.7501 11.5495ZM45.8891 11.1552C45.8891 10.7372 45.8964 10.4257 45.9121 10.2185C46.0427 10.1981 46.1747 10.1874 46.3069 10.1865C46.5794 10.1865 46.7792 10.2386 46.9027 10.3417C46.9665 10.3978 47.0166 10.4674 47.0491 10.5451C47.0816 10.6228 47.0957 10.7067 47.0904 10.7905C47.0962 10.8875 47.0789 10.9846 47.0398 11.074C47.0008 11.1634 46.941 11.2427 46.8652 11.3056C46.7174 11.424 46.4704 11.4844 46.1265 11.4844C46.0538 11.4844 45.9739 11.4844 45.8843 11.4773L45.8891 11.1552ZM47.0008 13.1328C46.8049 13.3009 46.5488 13.3861 46.2888 13.3697C46.1548 13.3672 46.0213 13.3554 45.8891 13.3342C45.8952 13.2738 45.8988 13.2157 45.8988 13.1743C45.8988 13.1328 45.8988 13.0263 45.8915 12.9114V12.5917V11.6928C46.0022 11.6881 46.1015 11.6857 46.1895 11.6857C46.4067 11.6747 46.6242 11.7024 46.8313 11.7674C46.9616 11.8193 47.0713 11.9112 47.1437 12.0292C47.2236 12.1668 47.2626 12.3234 47.2563 12.4815C47.2623 12.6015 47.2426 12.7213 47.1986 12.8335C47.1546 12.9456 47.0873 13.0475 47.0008 13.1328Z" fill="#FBFFFC"/>
<path d="M49.5003 11.1375C49.2796 11.1423 49.064 11.2027 48.8742 11.3127C48.697 11.3989 48.5468 11.5302 48.4394 11.6928C48.3137 11.9193 48.2511 12.1742 48.2578 12.4318C48.249 12.5927 48.2731 12.7536 48.3286 12.9053C48.3842 13.057 48.47 13.1963 48.5811 13.3152C48.6915 13.4241 48.8239 13.5093 48.9699 13.5654C49.1158 13.6214 49.2721 13.6472 49.4288 13.6409C49.5871 13.6412 49.7447 13.6209 49.8975 13.5805C50.053 13.5385 50.2024 13.4773 50.3419 13.3981L50.4243 13.185L50.377 13.1447C50.2672 13.2182 50.1479 13.2771 50.0222 13.32C49.905 13.358 49.7824 13.3775 49.6589 13.378C49.5377 13.3829 49.4167 13.3623 49.3043 13.3175C49.1919 13.2728 49.0907 13.205 49.0074 13.1186C48.8415 12.9469 48.7543 12.6935 48.7446 12.3607H49.3925C49.7211 12.3607 49.9778 12.354 50.1627 12.3406C50.2724 12.3301 50.3812 12.3123 50.4884 12.2873V12.1369C50.4967 12.0027 50.4773 11.8682 50.4314 11.7414C50.3854 11.6147 50.3138 11.4983 50.2208 11.3992C50.125 11.3102 50.0117 11.2412 49.8879 11.1962C49.7641 11.1512 49.6322 11.1313 49.5003 11.1375ZM50.0161 12.1725C49.895 12.1843 49.7739 12.1902 49.6395 12.1902C49.3166 12.1902 49.0211 12.1843 48.7531 12.1725C48.7531 11.8796 48.8128 11.664 48.9323 11.5259C48.9876 11.4582 49.0584 11.404 49.1389 11.3678C49.2195 11.3317 49.3075 11.3144 49.3961 11.3175C49.5116 11.315 49.6256 11.3437 49.7255 11.4003C49.8128 11.446 49.8828 11.5178 49.9253 11.6052C49.9858 11.7387 50.0168 11.8832 50.0161 12.0292V12.1725Z" fill="#FBFFFC"/>
<path d="M51.72 11.353C51.7362 10.8604 51.7511 10.5486 51.7648 10.4175L51.697 10.3666C51.5559 10.4418 51.4104 10.5087 51.261 10.5667C51.2732 10.8493 51.28 11.1114 51.2816 11.353C51.1605 11.4146 51.0189 11.4714 50.8699 11.5283V11.6372C51.0116 11.6254 51.1484 11.6195 51.2816 11.6195V12.5834L51.272 13.0737C51.2653 13.1853 51.2856 13.2969 51.3313 13.3993C51.3759 13.4758 51.4436 13.537 51.525 13.5746C51.6266 13.6221 51.7383 13.6448 51.8508 13.6409C51.9012 13.6407 51.9515 13.636 52.001 13.6267C52.056 13.6155 52.1102 13.6009 52.1632 13.5829L52.4163 13.2928L52.34 13.2051C52.2981 13.2412 52.2507 13.2707 52.1996 13.2928C52.1531 13.3117 52.1034 13.3218 52.053 13.3224C51.9808 13.3249 51.9098 13.3032 51.852 13.2608C51.7972 13.2181 51.7598 13.1576 51.7467 13.0903C51.7232 12.9255 51.7143 12.7591 51.72 12.5929V11.597H51.8108H52.3098H52.4163L52.4442 11.3353L52.2371 11.3459C52.1039 11.3507 51.9319 11.353 51.72 11.353Z" fill="#FBFFFC"/>
<path d="M52.7094 11.5283V11.6372C52.8511 11.6254 52.9879 11.6195 53.1211 11.6195V12.5834L53.1114 13.0737C53.1047 13.1853 53.1251 13.2969 53.1708 13.3993C53.2152 13.4756 53.2824 13.5367 53.3633 13.5746C53.4649 13.6219 53.5766 13.6446 53.6891 13.6409C53.7399 13.6408 53.7905 13.636 53.8404 13.6267C53.8954 13.6155 53.9496 13.6009 54.0027 13.5829L54.2546 13.2928L54.1795 13.2051C54.1375 13.2412 54.0902 13.2707 54.039 13.2928C53.9926 13.3117 53.9428 13.3218 53.8925 13.3224C53.8199 13.3249 53.7486 13.3032 53.6903 13.2608C53.6362 13.2176 53.5993 13.1573 53.5861 13.0903C53.562 12.9256 53.5531 12.7591 53.5595 12.5929V11.597H53.6467H54.1456H54.251L54.28 11.3353L54.0729 11.3459C53.9397 11.3459 53.7678 11.353 53.5559 11.353C53.572 10.8604 53.5869 10.5486 53.6007 10.4175L53.5329 10.3666C53.3917 10.4416 53.2461 10.5084 53.0969 10.5667C53.109 10.8493 53.1159 11.1114 53.1175 11.353C52.9952 11.4146 52.8571 11.4726 52.7094 11.5283Z" fill="#FBFFFC"/>
<path d="M55.4147 10.4957C55.4425 10.4695 55.4644 10.438 55.4792 10.4032C55.494 10.3683 55.5013 10.3309 55.5007 10.2932C55.5012 10.2552 55.4938 10.2174 55.4791 10.1822C55.4643 10.147 55.4424 10.1151 55.4147 10.0883C55.3885 10.0611 55.3568 10.0394 55.3215 10.0248C55.2863 10.0101 55.2484 10.0027 55.2101 10.0031C55.1712 10.0025 55.1327 10.0098 55.0968 10.0245C55.061 10.0391 55.0286 10.0609 55.0018 10.0883C54.9743 10.1152 54.9527 10.1472 54.9381 10.1824C54.9236 10.2176 54.9164 10.2553 54.917 10.2932C54.9162 10.3308 54.9233 10.3682 54.9379 10.4031C54.9525 10.4379 54.9742 10.4694 55.0018 10.4957C55.0289 10.5228 55.0613 10.5442 55.0971 10.5587C55.1329 10.5731 55.1714 10.5803 55.2101 10.5798C55.2482 10.5801 55.2861 10.5728 55.3213 10.5584C55.3565 10.5439 55.3883 10.5226 55.4147 10.4957Z" fill="#FBFFFC"/>
<path d="M55.5104 13.3674C55.4798 13.3318 55.4623 13.2871 55.4607 13.2406C55.4462 13.0855 55.4377 12.8972 55.4377 12.677C55.4377 12.4567 55.4377 12.0778 55.4559 11.5839C55.4559 11.4324 55.4668 11.2926 55.4789 11.1659L55.4171 11.1268C55.2914 11.1752 55.1628 11.2163 55.0321 11.25C54.8783 11.2858 54.7227 11.3135 54.5658 11.3329V11.4868H54.7608C54.823 11.4804 54.8857 11.4919 54.9412 11.52C54.9561 11.5348 54.9678 11.5524 54.9755 11.5717C54.9832 11.5911 54.9868 11.6117 54.986 11.6325C54.9957 11.7746 54.9994 11.9771 54.9994 12.24C54.9994 12.6189 54.9994 12.915 54.986 13.1305C54.992 13.2139 54.9792 13.2976 54.9485 13.3756C54.9291 13.4005 54.8758 13.4159 54.7899 13.423L54.5658 13.4455V13.5935C54.7741 13.5817 54.98 13.5758 55.1834 13.5758C55.3869 13.5758 55.617 13.5817 55.8737 13.5935V13.4455L55.6969 13.423C55.6308 13.4207 55.5665 13.4015 55.5104 13.3674Z" fill="#FBFFFC"/>
<path d="M58.7667 12.086C58.7773 11.8981 58.7472 11.71 58.6783 11.5342C58.6134 11.4123 58.5114 11.313 58.3865 11.25C58.2376 11.1727 58.0706 11.1347 57.9021 11.1399C57.7856 11.1405 57.6699 11.1593 57.5594 11.1955C57.5051 11.2162 57.455 11.2463 57.4116 11.2843L57.0193 11.6242V11.282V11.186C57.0193 11.147 57.006 11.1268 56.9781 11.1268C56.963 11.1273 56.9481 11.1309 56.9345 11.1375C56.8106 11.1893 56.6832 11.2324 56.553 11.2666C56.422 11.2984 56.2889 11.3214 56.1546 11.3353V11.4868H56.3411C56.4113 11.479 56.4824 11.4896 56.547 11.5176C56.5751 11.548 56.5899 11.588 56.5882 11.6289C56.5954 11.7935 56.5991 12.0197 56.5991 12.3087C56.5991 12.9513 56.5882 13.3022 56.5664 13.3614C56.5446 13.4195 56.4695 13.4479 56.3411 13.4479H56.1546V13.5959C56.3884 13.5841 56.5979 13.5781 56.7819 13.5781C56.966 13.5781 57.1876 13.5781 57.4807 13.5959V13.4479H57.2918C57.2154 13.4549 57.1392 13.4343 57.0774 13.3899C57.048 13.3457 57.0351 13.293 57.0411 13.2406C57.0411 12.9742 57.0338 12.6876 57.0338 12.3774C57.0272 12.2045 57.0357 12.0313 57.0592 11.8599C57.0974 11.7449 57.1753 11.6464 57.2796 11.5816C57.4056 11.4985 57.5554 11.457 57.7071 11.4631C57.829 11.4594 57.9494 11.4894 58.0547 11.5496C58.1465 11.6023 58.2186 11.6824 58.2605 11.7781C58.3096 11.9341 58.3301 12.0972 58.3211 12.2601C58.3211 12.8214 58.3045 13.2671 58.2714 13.5971C58.4216 13.5853 58.5621 13.5793 58.6941 13.5793C58.8261 13.5793 58.9871 13.5793 59.1785 13.5971V13.4491H58.992C58.9558 13.4538 58.919 13.4488 58.8855 13.4346C58.852 13.4204 58.8231 13.3976 58.8019 13.3685C58.7662 13.2132 58.7539 13.0536 58.7655 12.8949L58.7667 12.086Z" fill="#FBFFFC"/>
<path d="M61.0434 11.1754C60.9312 11.14 60.8138 11.1228 60.6958 11.1245C60.4716 11.1287 60.2511 11.1817 60.0504 11.2796C59.8883 11.3513 59.7505 11.4668 59.6532 11.6124C59.5627 11.7544 59.516 11.9188 59.5188 12.0861C59.5119 12.2635 59.5772 12.4364 59.7004 12.5669C59.827 12.6772 59.9819 12.7517 60.1485 12.7824L59.8978 12.9565C59.8297 12.9954 59.771 13.0483 59.7258 13.1116C59.6875 13.1751 59.667 13.2474 59.6665 13.3212C59.6657 13.3483 59.6706 13.3752 59.681 13.4003C59.6915 13.4254 59.7071 13.4481 59.7271 13.4669C59.81 13.5226 59.9028 13.5628 60.0007 13.5853C59.8573 13.682 59.7053 13.766 59.5466 13.8363C59.454 13.9569 59.4015 14.1025 59.3965 14.2532C59.3962 14.362 59.4221 14.4693 59.4722 14.5664C59.5223 14.6635 59.5951 14.7477 59.6847 14.8121C59.8768 14.9637 60.1509 15.0395 60.5069 15.0395C60.7745 15.0448 61.0398 14.9909 61.2832 14.882C61.4902 14.7913 61.6679 14.6467 61.7966 14.464C61.9095 14.3036 61.9707 14.1139 61.9722 13.9192C61.9746 13.7935 61.9481 13.6689 61.8947 13.5545C61.8566 13.4628 61.7918 13.3841 61.7082 13.3283C61.6121 13.2802 61.5048 13.2578 61.397 13.2632C61.3009 13.2632 61.1471 13.2679 60.9356 13.2774C60.7867 13.2774 60.6716 13.2869 60.5929 13.2869C60.4528 13.2975 60.3119 13.2785 60.18 13.2312C60.1501 13.218 60.1246 13.1967 60.1066 13.1699C60.0886 13.143 60.0788 13.1117 60.0782 13.0796C60.0801 13.0363 60.0962 12.9948 60.1243 12.9612C60.1877 12.8908 60.2602 12.8288 60.3398 12.7765H60.4609C60.6555 12.7779 60.8477 12.7341 61.0216 12.6486C61.1831 12.5723 61.321 12.4554 61.4212 12.3099C61.511 12.1814 61.5599 12.0297 61.5617 11.8741C61.5566 11.7824 61.5366 11.692 61.5024 11.6065H61.9868C62.0266 11.5275 62.0723 11.4515 62.1236 11.3791L62.0945 11.3258C61.9203 11.3427 61.7453 11.3503 61.5702 11.3483H61.3522C61.2603 11.2737 61.1558 11.2152 61.0434 11.1754ZM60.1485 13.6623C60.2278 13.6287 60.3143 13.6149 60.4004 13.622H61.0059C61.0971 13.6179 61.1885 13.6239 61.2783 13.6398C61.3621 13.6684 61.4329 13.725 61.4781 13.7996C61.5357 13.8857 61.5653 13.9869 61.5629 14.0898C61.5609 14.2234 61.5188 14.3535 61.4418 14.464C61.3579 14.5882 61.2405 14.6873 61.1027 14.7506C60.9448 14.8226 60.772 14.8583 60.5978 14.8548C60.3891 14.87 60.1821 14.8093 60.0165 14.6842C59.9488 14.6282 59.8948 14.5581 59.8586 14.479C59.8223 14.3999 59.8047 14.3138 59.807 14.2271C59.8023 14.1115 59.8291 13.9967 59.8845 13.8944C59.9541 13.8003 60.0443 13.7227 60.1485 13.667V13.6623ZM60.9538 12.4579C60.9025 12.5123 60.8398 12.5553 60.77 12.5839C60.7002 12.6125 60.625 12.6261 60.5493 12.6237C60.4699 12.6248 60.3912 12.6081 60.3194 12.5749C60.2476 12.5416 60.1846 12.4927 60.1352 12.4319C60.0173 12.2799 59.9589 12.0917 59.9705 11.9013C59.9604 11.7416 60.0147 11.5843 60.1218 11.4632C60.1766 11.4099 60.2421 11.3683 60.3141 11.341C60.3861 11.3138 60.4632 11.3014 60.5403 11.3047C60.6175 11.3081 60.6931 11.327 60.7624 11.3604C60.8317 11.3938 60.8932 11.4409 60.9429 11.4987C61.059 11.6444 61.1178 11.8258 61.1088 12.0103C61.1196 12.1751 61.064 12.3375 60.9538 12.4627V12.4579Z" fill="#FBFFFC"/>
<path d="M65.6803 9.95325C65.6108 10.1427 65.4809 10.4471 65.2903 10.8663L64.5771 12.446C64.456 12.729 64.324 12.9919 64.2017 13.2359C64.1789 13.2968 64.1395 13.3504 64.0878 13.391C64.0136 13.42 63.9339 13.433 63.8541 13.4289H63.7754V13.5888C63.9643 13.5769 64.1835 13.571 64.4317 13.571C64.64 13.571 64.8265 13.571 64.9924 13.5888V13.4289L64.743 13.4005C64.6857 13.3989 64.6295 13.3852 64.5783 13.3602C64.5667 13.3495 64.5579 13.3364 64.5524 13.3218C64.547 13.3072 64.545 13.2916 64.5468 13.2761C64.5826 13.1038 64.6408 12.9367 64.72 12.7788L64.8956 12.3702H66.3972L66.6818 13.0807C66.7176 13.1562 66.7436 13.2358 66.7593 13.3176C66.7594 13.3317 66.7559 13.3455 66.7491 13.3579C66.7424 13.3704 66.7325 13.3809 66.7205 13.3886C66.6682 13.4077 66.6128 13.4173 66.557 13.4171L66.3003 13.4325V13.5923C66.616 13.5805 66.8691 13.5746 67.0596 13.5746C67.2642 13.5746 67.4786 13.5746 67.7038 13.5923V13.4325C67.6168 13.4332 67.5302 13.4208 67.4471 13.3957C67.4056 13.3757 67.3705 13.345 67.3454 13.3069C67.2782 13.1885 67.2192 13.0659 67.1686 12.9398L65.8559 9.95325H65.6803ZM64.9924 12.1654L65.6464 10.6413L66.2991 12.1654H64.9924Z" fill="#FBFFFC"/>
<path d="M67.8515 13.5438C68.0852 13.6046 68.3255 13.6372 68.5672 13.6409C68.8559 13.6558 69.1403 13.5679 69.3677 13.3934C69.4605 13.3236 69.5358 13.2339 69.5878 13.1313C69.6399 13.0287 69.6673 12.9159 69.668 12.8013C69.67 12.6978 69.645 12.5955 69.5954 12.5041C69.5518 12.4231 69.4849 12.3563 69.4028 12.3122C69.2449 12.2469 69.0794 12.2008 68.9099 12.1749C68.5733 12.1086 68.3674 12.0458 68.2923 11.9866C68.2544 11.9556 68.2245 11.9163 68.2052 11.8718C68.1858 11.8273 68.1775 11.779 68.1809 11.7308C68.18 11.6742 68.1923 11.6181 68.2169 11.5668C68.2414 11.5155 68.2776 11.4703 68.3226 11.4347C68.429 11.3513 68.5631 11.3092 68.6992 11.3163C68.8155 11.3161 68.9303 11.342 69.0347 11.3921C69.1219 11.4284 69.1973 11.4874 69.2527 11.5626C69.2909 11.6558 69.3079 11.7561 69.3023 11.8563H69.4573C69.467 11.5863 69.4791 11.3933 69.4936 11.2784C69.2631 11.1855 69.0164 11.1373 68.7671 11.1363C68.5121 11.1206 68.2599 11.1959 68.0574 11.3483C67.976 11.4153 67.9112 11.4994 67.8678 11.5943C67.8244 11.6893 67.8035 11.7926 67.8067 11.8966C67.8005 12.0049 67.8292 12.1124 67.8887 12.204C67.9482 12.2955 68.0356 12.3665 68.1386 12.407C68.3593 12.488 68.5876 12.5475 68.8203 12.5846C68.9572 12.6016 69.0871 12.6535 69.197 12.735C69.2299 12.7676 69.2557 12.8065 69.2726 12.8493C69.2895 12.8921 69.2971 12.9379 69.295 12.9837C69.2949 13.0486 69.2797 13.1126 69.2505 13.1708C69.2214 13.2291 69.179 13.2801 69.1267 13.32C69.004 13.4177 68.8488 13.4679 68.6908 13.4609C68.5526 13.4611 68.4157 13.4354 68.2875 13.3851C68.1881 13.3537 68.098 13.2993 68.0247 13.2265C67.9919 13.1486 67.9794 13.0639 67.9884 12.9801V12.8143H67.8273V12.9328C67.8273 13.024 67.8188 13.153 67.8043 13.3165C67.8011 13.3618 67.795 13.4069 67.7862 13.4515L67.7777 13.487C67.7813 13.5142 67.8055 13.532 67.8515 13.5438Z" fill="#FBFFFC"/>
<path d="M71.5487 12.3158C71.3908 12.2504 71.2252 12.2043 71.0558 12.1784C70.7184 12.1121 70.5125 12.0493 70.4382 11.9901C70.4003 11.9591 70.3704 11.9198 70.351 11.8753C70.3317 11.8309 70.3234 11.7825 70.3268 11.7343C70.3259 11.6778 70.3381 11.6218 70.3624 11.5706C70.3868 11.5193 70.4226 11.4741 70.4673 11.4383C70.5738 11.3552 70.7078 11.313 70.8439 11.3198C70.9606 11.3196 71.0757 11.3455 71.1806 11.3956C71.2678 11.432 71.3432 11.4909 71.3985 11.5662C71.4362 11.6595 71.4527 11.7597 71.447 11.8598H71.6032C71.6129 11.5898 71.625 11.3968 71.6395 11.282C71.4089 11.1893 71.1622 11.1411 70.9129 11.1398C70.6577 11.1237 70.4052 11.1986 70.2021 11.3506C70.1207 11.4176 70.0559 11.5017 70.0125 11.5967C69.9691 11.6916 69.9482 11.795 69.9514 11.8989C69.9481 12.0073 69.9771 12.1143 70.035 12.2068C70.0967 12.2962 70.1833 12.3664 70.2844 12.4093C70.5051 12.4904 70.7335 12.5499 70.9662 12.587C71.103 12.6042 71.2328 12.656 71.3428 12.7373C71.3758 12.77 71.4016 12.8089 71.4185 12.8517C71.4353 12.8945 71.443 12.9402 71.4409 12.986C71.4408 13.0509 71.4256 13.1149 71.3964 13.1732C71.3672 13.2314 71.3249 13.2825 71.2726 13.3223C71.1499 13.4201 70.9947 13.4702 70.8366 13.4633C70.6985 13.4635 70.5616 13.4377 70.4334 13.3875C70.3338 13.3557 70.2433 13.3013 70.1694 13.2288C70.1366 13.1509 70.1241 13.0663 70.1331 12.9825V12.8167H69.9732V12.9351C69.9732 13.0263 69.9647 13.1554 69.949 13.3188C69.947 13.3642 69.9409 13.4094 69.9308 13.4538L69.9236 13.4893C69.9236 13.513 69.9466 13.5308 69.9938 13.5426C70.2274 13.6035 70.4678 13.6362 70.7095 13.6397C70.9981 13.6546 71.2825 13.5667 71.5099 13.3922C71.6027 13.3223 71.6778 13.2327 71.7297 13.1301C71.7815 13.0274 71.8087 12.9146 71.8091 12.8001C71.8108 12.6968 71.7863 12.5946 71.7376 12.5029C71.694 12.4243 71.6285 12.3595 71.5487 12.3158Z" fill="#FBFFFC"/>
<path d="M73.3494 13.6409C73.6895 13.6481 74.0199 13.5297 74.2746 13.3093C74.4185 13.1848 74.5321 13.0305 74.6071 12.8576C74.6821 12.6846 74.7166 12.4975 74.7081 12.3098C74.7158 12.153 74.6902 11.9964 74.6331 11.8497C74.576 11.703 74.4886 11.5694 74.3763 11.4572C74.2583 11.3488 74.1193 11.2647 73.9674 11.2098C73.8156 11.1548 73.654 11.1303 73.4923 11.1375C73.2549 11.1334 73.0203 11.1884 72.8105 11.2973C72.6159 11.3992 72.4547 11.5527 72.3455 11.7402C72.233 11.9326 72.1753 12.151 72.1784 12.3726C72.1594 12.7114 72.2762 13.044 72.5041 13.2998C72.612 13.4123 72.7433 13.501 72.889 13.5598C73.0348 13.6186 73.1918 13.6463 73.3494 13.6409ZM72.773 11.6905C72.8244 11.5785 72.9087 11.4841 73.0152 11.4193C73.1262 11.3514 73.2548 11.316 73.3858 11.3175C73.5353 11.3161 73.6815 11.3609 73.8035 11.4453C73.9418 11.5509 74.0461 11.6931 74.1039 11.8551C74.1844 12.0675 74.2231 12.2929 74.2177 12.5194C74.2177 12.8352 74.1535 13.0721 74.0252 13.23C73.9656 13.3057 73.8887 13.3667 73.8005 13.4079C73.7123 13.449 73.6154 13.4692 73.5178 13.4668C73.3872 13.4695 73.2586 13.436 73.1467 13.3702C73.0349 13.3044 72.9443 13.209 72.8856 13.095C72.7334 12.8206 72.6578 12.5118 72.6664 12.1997C72.6637 12.0244 72.7001 11.8506 72.773 11.6905Z" fill="#FBFFFC"/>
<path d="M77.2064 11.9605C77.2101 11.7348 77.2336 11.5097 77.2767 11.2879C77.1783 11.2369 77.0743 11.1972 76.9666 11.1695C76.8535 11.1465 76.7382 11.1358 76.6227 11.1375C76.4595 11.135 76.2976 11.1669 76.148 11.2311C75.9728 11.3055 75.805 11.3955 75.6467 11.4999C75.5084 11.596 75.3998 11.7275 75.333 11.88C75.2551 12.06 75.2171 12.2542 75.2216 12.4496C75.2157 12.6708 75.2656 12.89 75.3669 13.0879C75.4585 13.2627 75.602 13.4064 75.7787 13.5C75.9788 13.5991 76.2011 13.6475 76.4253 13.6409C76.5539 13.641 76.6821 13.6255 76.8068 13.5947C76.9333 13.5625 77.0553 13.5151 77.1701 13.4538L77.2767 13.2916L77.2064 13.23C77.1119 13.2801 77.012 13.3199 76.9085 13.3484C76.8084 13.3735 76.7055 13.3862 76.6021 13.3863C76.4784 13.3894 76.3556 13.3648 76.243 13.3143C76.1305 13.2638 76.0313 13.1888 75.953 13.095C75.7567 12.8522 75.6573 12.5479 75.6733 12.2388C75.6541 12.0121 75.7214 11.7864 75.8622 11.6053C75.9313 11.5341 76.0154 11.4786 76.1087 11.4426C76.202 11.4066 76.3022 11.391 76.4023 11.3968C76.5301 11.3955 76.657 11.4176 76.7765 11.462C76.86 11.4869 76.9352 11.5331 76.9945 11.5958C77.0332 11.6661 77.05 11.746 77.0429 11.8255V11.9605H77.2064Z" fill="#FBFFFC"/>
<path d="M78.6463 13.3674C78.6157 13.3318 78.5982 13.2871 78.5966 13.2406C78.5821 13.0855 78.5736 12.8972 78.5736 12.677C78.5736 12.4567 78.5736 12.0778 78.5918 11.5839C78.5918 11.4324 78.6027 11.2926 78.6148 11.1659L78.553 11.1268C78.4272 11.1752 78.2987 11.2163 78.1679 11.25C78.0142 11.2857 77.8585 11.3134 77.7017 11.3329V11.4868H77.8967C77.9589 11.4804 78.0216 11.4919 78.0771 11.52C78.0918 11.5349 78.1033 11.5526 78.111 11.5719C78.1187 11.5912 78.1224 11.6118 78.1219 11.6325C78.1304 11.7746 78.1352 11.9771 78.1352 12.24C78.1352 12.6189 78.1353 12.915 78.1219 13.1305C78.1279 13.2139 78.1151 13.2976 78.0844 13.3756C78.065 13.4005 78.0117 13.4159 77.9245 13.423L77.7017 13.4455V13.5935C77.91 13.5817 78.1159 13.5758 78.3193 13.5758C78.5276 13.5758 78.7565 13.5758 79.0096 13.5935V13.4455L78.8328 13.423C78.7667 13.4209 78.7023 13.4017 78.6463 13.3674Z" fill="#FBFFFC"/>
<path d="M78.5506 10.4956C78.5782 10.4693 78.5999 10.4378 78.6145 10.403C78.6291 10.3681 78.6362 10.3308 78.6354 10.2931C78.6361 10.2552 78.6289 10.2175 78.6143 10.1823C78.5998 10.1471 78.5781 10.1151 78.5506 10.0883C78.5238 10.0613 78.4917 10.0399 78.4562 10.0252C78.4208 10.0106 78.3827 10.0031 78.3442 10.0031C78.3057 10.0031 78.2676 10.0106 78.2321 10.0252C78.1967 10.0399 78.1645 10.0613 78.1377 10.0883C78.11 10.115 78.0881 10.1469 78.0734 10.1821C78.0586 10.2173 78.0512 10.2551 78.0517 10.2931C78.0514 10.3498 78.0684 10.4052 78.1004 10.4524C78.1325 10.4996 78.1782 10.5364 78.2317 10.5581C78.2852 10.5798 78.3441 10.5855 78.4009 10.5744C78.4577 10.5632 78.5098 10.5358 78.5506 10.4956Z" fill="#FBFFFC"/>
<path d="M81.4304 13.352C81.401 13.1024 81.3905 12.8511 81.3989 12.6C81.403 12.2979 81.3901 11.9959 81.3601 11.6952C81.3453 11.6148 81.3144 11.538 81.269 11.4693C81.2237 11.4006 81.165 11.3414 81.0961 11.295C80.9265 11.1828 80.7242 11.1276 80.5197 11.1375C80.4157 11.1366 80.3122 11.1502 80.2121 11.1777C80.0946 11.2146 79.9816 11.2642 79.8755 11.3258L79.5933 11.4868V11.6621V11.8326L79.7386 11.8705C79.7798 11.7592 79.8258 11.6443 79.8755 11.5224C79.9382 11.4835 80.0063 11.4536 80.0777 11.4335C80.1538 11.4133 80.2325 11.4033 80.3114 11.4039C80.4054 11.3983 80.4996 11.4135 80.5868 11.4484C80.674 11.4832 80.7521 11.5369 80.8152 11.6052C80.9191 11.7447 80.9704 11.915 80.9605 12.0872C80.5956 12.139 80.2352 12.2182 79.8827 12.3241C79.7336 12.3776 79.6061 12.4769 79.5194 12.6071C79.4354 12.7412 79.3933 12.8964 79.3983 13.0535C79.3946 13.1337 79.4085 13.2138 79.439 13.2883C79.4695 13.3629 79.5159 13.4302 79.5751 13.4858C79.7184 13.6009 79.9012 13.6581 80.0862 13.6456C80.1519 13.6476 80.2175 13.6405 80.2811 13.6243C80.3323 13.6074 80.3802 13.5821 80.4228 13.5497L80.9605 13.1495C80.9605 13.2241 80.9605 13.2975 80.9605 13.3697V13.5959C81.122 13.5841 81.2515 13.5781 81.3492 13.5781C81.4279 13.5781 81.5648 13.5781 81.7622 13.5959V13.4277H81.5599C81.4909 13.423 81.4473 13.3993 81.4304 13.352ZM80.9605 12.9174C80.8687 13.0426 80.7537 13.1498 80.6214 13.2335C80.5102 13.3025 80.3813 13.3394 80.2496 13.3401C80.1958 13.3413 80.1423 13.3314 80.0926 13.311C80.0429 13.2906 79.9982 13.2602 79.9614 13.2217C79.9234 13.1815 79.894 13.1343 79.8749 13.0829C79.8558 13.0314 79.8473 12.9768 79.85 12.9221C79.8442 12.843 79.859 12.7638 79.8931 12.6919C79.9272 12.62 79.9795 12.5578 80.045 12.5112C80.1742 12.4227 80.4793 12.3276 80.9605 12.2258V12.3442V12.9174Z" fill="#FBFFFC"/>
<path d="M82.9526 11.353C82.9679 10.8604 82.9824 10.5486 82.9961 10.4175L82.9283 10.3666C82.7876 10.4416 82.6424 10.5085 82.4936 10.5667C82.5057 10.8497 82.5118 11.1114 82.5142 11.353C82.3931 11.4146 82.2502 11.4714 82.1012 11.5283V11.6372C82.2429 11.6254 82.381 11.6195 82.5142 11.6195V12.5834L82.5033 13.0737C82.497 13.1854 82.5177 13.297 82.5638 13.3993C82.6083 13.4756 82.6754 13.5367 82.7564 13.5746C82.8579 13.6219 82.9697 13.6447 83.0821 13.6409C83.1329 13.6407 83.1836 13.636 83.2335 13.6267C83.2881 13.6155 83.3419 13.6009 83.3946 13.5829L83.6477 13.2928L83.5726 13.2051C83.53 13.241 83.4823 13.2705 83.4309 13.2928C83.3845 13.312 83.3347 13.322 83.2844 13.3224C83.2122 13.3247 83.1413 13.303 83.0833 13.2608C83.0293 13.2174 82.9921 13.1572 82.978 13.0903C82.9552 12.9255 82.9467 12.7591 82.9526 12.5929V11.597H83.0434H83.5411H83.6477L83.6767 11.3353L83.4684 11.3459C83.3336 11.3507 83.1617 11.353 82.9526 11.353Z" fill="#FBFFFC"/>
<path d="M84.9011 13.3674C84.8704 13.3318 84.8529 13.2871 84.8514 13.2406C84.8357 13.0855 84.8284 12.8972 84.8284 12.677C84.8284 12.4567 84.8284 12.0778 84.8466 11.5839C84.8466 11.4324 84.8575 11.2926 84.8696 11.1659L84.8078 11.1268C84.682 11.1752 84.5534 11.2163 84.4227 11.25C84.2689 11.2856 84.1133 11.3133 83.9565 11.3329V11.4868H84.1515C84.2136 11.4804 84.2764 11.4919 84.3319 11.52C84.3466 11.5349 84.3581 11.5526 84.3658 11.5719C84.3734 11.5912 84.3772 11.6118 84.3767 11.6325C84.3852 11.7746 84.39 11.9771 84.39 12.24C84.39 12.6189 84.39 12.915 84.3767 13.1305C84.382 13.2139 84.3692 13.2974 84.3392 13.3756C84.3198 13.4005 84.2665 13.4159 84.1793 13.423L83.9565 13.4455V13.5935C84.164 13.5817 84.3698 13.5758 84.5741 13.5758C84.7783 13.5758 85.0084 13.5817 85.2644 13.5935V13.4455L85.0875 13.423C85.0214 13.4209 84.9571 13.4017 84.9011 13.3674Z" fill="#FBFFFC"/>
<path d="M84.8054 10.4956C84.8329 10.4693 84.8547 10.4378 84.8693 10.403C84.8838 10.3681 84.891 10.3308 84.8901 10.2931C84.8908 10.2552 84.8836 10.2175 84.8691 10.1823C84.8545 10.1471 84.8328 10.1151 84.8054 10.0883C84.7785 10.0613 84.7464 10.0399 84.711 10.0252C84.6755 10.0106 84.6374 10.0031 84.5989 10.0031C84.5604 10.0031 84.5223 10.0106 84.4869 10.0252C84.4514 10.0399 84.4193 10.0613 84.3924 10.0883C84.3648 10.115 84.3429 10.1469 84.3281 10.1821C84.3133 10.2173 84.306 10.2551 84.3064 10.2931C84.3062 10.3498 84.3231 10.4052 84.3552 10.4524C84.3872 10.4996 84.4329 10.5364 84.4864 10.5581C84.5399 10.5798 84.5988 10.5855 84.6556 10.5744C84.7124 10.5632 84.7646 10.5358 84.8054 10.4956Z" fill="#FBFFFC"/>
<path d="M85.8299 11.7402C85.7177 11.9327 85.6604 12.1511 85.664 12.3726C85.6449 12.7114 85.7618 13.044 85.9897 13.2998C86.0977 13.4129 86.2293 13.5019 86.3755 13.5607C86.5218 13.6196 86.6794 13.6469 86.8374 13.6409C87.1778 13.648 87.5085 13.5296 87.7638 13.3093C87.9073 13.1846 88.0206 13.0302 88.0954 12.8573C88.1702 12.6844 88.2046 12.4974 88.1961 12.3098C88.2037 12.153 88.1782 11.9964 88.1211 11.8497C88.064 11.703 87.9766 11.5694 87.8643 11.4572C87.7463 11.3488 87.6073 11.2647 87.4554 11.2098C87.3036 11.1548 87.142 11.1303 86.9803 11.1375C86.7429 11.1334 86.5083 11.1884 86.2985 11.2973C86.1026 11.3986 85.9401 11.5522 85.8299 11.7402ZM86.4995 11.4193C86.6106 11.3514 86.7392 11.316 86.8701 11.3175C87.0196 11.3161 87.1658 11.3609 87.2879 11.4453C87.4265 11.5506 87.5309 11.6929 87.5882 11.8551C87.6688 12.0675 87.7074 12.2929 87.7021 12.5194C87.7021 12.8352 87.6379 13.0721 87.5095 13.23C87.45 13.3057 87.373 13.3667 87.2848 13.4079C87.1967 13.449 87.0998 13.4692 87.0021 13.4668C86.8716 13.4695 86.743 13.436 86.6311 13.3702C86.5192 13.3044 86.4287 13.209 86.37 13.095C86.2177 12.8206 86.1421 12.5118 86.1508 12.1997C86.1496 12.0265 86.1859 11.8549 86.2573 11.6964C86.3077 11.5823 86.3921 11.4857 86.4995 11.4193Z" fill="#FBFFFC"/>
<path d="M91.0831 13.3626C91.0474 13.2073 91.0352 13.0477 91.0468 12.8889L91.0565 12.0896C91.0673 11.9017 91.0376 11.7137 90.9693 11.5378C90.905 11.4145 90.8029 11.3139 90.6774 11.25C90.5285 11.1727 90.3616 11.1347 90.193 11.1399C90.0765 11.1405 89.9608 11.1593 89.8503 11.1955C89.7958 11.2158 89.7457 11.2459 89.7026 11.2843L89.3102 11.6242V11.282V11.186C89.3102 11.147 89.2969 11.1268 89.2691 11.1268C89.2539 11.1273 89.239 11.1309 89.2255 11.1375C89.097 11.1908 88.9646 11.2347 88.8295 11.2689C88.6984 11.3007 88.5653 11.3236 88.4311 11.3376V11.4868H88.6176C88.6878 11.479 88.7588 11.4896 88.8234 11.5176C88.8515 11.548 88.8663 11.588 88.8646 11.6289C88.8707 11.7935 88.8743 12.0197 88.8743 12.3087C88.8743 12.9513 88.8638 13.3022 88.8428 13.3614C88.821 13.4195 88.7459 13.4479 88.6176 13.4479H88.4311V13.5959C88.6648 13.5841 88.8743 13.5781 89.0571 13.5781C89.24 13.5781 89.464 13.5781 89.7571 13.5959V13.4479H89.5718C89.4989 13.4494 89.4278 13.4259 89.3708 13.3816C89.3408 13.3377 89.3279 13.2847 89.3345 13.2324C89.3345 12.9659 89.326 12.6793 89.326 12.3691C89.3195 12.1961 89.3284 12.023 89.3526 11.8516C89.3908 11.7389 89.4673 11.6423 89.5694 11.578C89.6952 11.4948 89.8451 11.4533 89.9969 11.4596C90.1187 11.456 90.2391 11.4859 90.3444 11.546C90.4364 11.5982 90.5084 11.6785 90.5491 11.7746C90.5993 11.9303 90.6202 12.0936 90.6108 12.2566C90.6108 12.8179 90.5943 13.2635 90.5612 13.5935C90.7114 13.5817 90.8518 13.5758 90.9826 13.5758C91.1134 13.5758 91.2749 13.5817 91.467 13.5935V13.4455H91.2805C91.243 13.4514 91.2045 13.4467 91.1695 13.432C91.1346 13.4173 91.1046 13.3933 91.0831 13.3626Z" fill="#FBFFFC"/>
<path d="M41.4157 4.5H40.5681V13.6184H41.4157V4.5Z" fill="#FBFFFC"/>
<path d="M0 0V18H97V0H0ZM94.0936 16.1053H2.54307V1.89474H94.0936V16.1053Z" fill="#FBFFFC"/>
</g>
<defs>
<clipPath id="clip0_708_5819">
<rect width="97" height="18" fill="white"/>
</clipPath>
</defs>
</svg>
