<svg width="64" height="64" viewBox="0 0 64 64" fill="none" xmlns="http://www.w3.org/2000/svg">
<g clip-path="url(#clip0_708_5957)">
<path d="M32 64C49.6731 64 64 49.6731 64 32C64 14.3269 49.6731 0 32 0C14.3269 0 0 14.3269 0 32C0 49.6731 14.3269 64 32 64Z" fill="#FBFFFC"/>
<path d="M18.3435 40.9287C18.6329 40.9742 18.8924 41.1325 19.0653 41.369C19.2435 41.6571 19.3275 41.9934 19.3059 42.3314C19.3388 43.0432 19.165 43.7493 18.8054 44.3645C18.6587 44.6073 18.4553 44.811 18.2127 44.958C17.9701 45.1051 17.6955 45.1912 17.4124 45.209H17.3281C17.038 45.1545 16.7797 44.9909 16.6063 44.7519C16.4264 44.4495 16.3425 44.0996 16.3657 43.7486C16.3602 43.2616 16.4417 42.7777 16.6063 42.3194C16.7366 41.9383 16.9648 41.5981 17.268 41.3329C17.5534 41.0903 17.9115 40.9498 18.2857 40.9335L18.3435 40.9287ZM17.3354 42.1702C17.143 42.6715 17.057 43.2074 17.0827 43.7437C17.0682 43.9551 17.1037 44.167 17.1862 44.3621C17.2206 44.4238 17.272 44.4743 17.3343 44.5075C17.3965 44.5408 17.4671 44.5555 17.5375 44.5498C17.7092 44.5466 17.8756 44.49 18.0137 44.3878C18.1517 44.2856 18.2543 44.1429 18.3074 43.9795C18.4999 43.4757 18.5867 42.9376 18.5624 42.3988C18.578 42.1905 18.5425 41.9815 18.459 41.7901C18.425 41.7307 18.3748 41.6822 18.3143 41.6503C18.2538 41.6183 18.1855 41.6042 18.1173 41.6096C17.9448 41.6099 17.7767 41.6641 17.6365 41.7646C17.4963 41.8651 17.391 42.0069 17.3354 42.1702Z" fill="black"/>
<path d="M23.04 39.0279L22.8259 39.6391L22.7176 39.6559C22.61 39.5891 22.4933 39.5381 22.3712 39.5043C22.2631 39.4741 22.1514 39.4587 22.0391 39.4586C21.9418 39.4573 21.8454 39.4783 21.7574 39.52C21.6694 39.5617 21.5921 39.623 21.5315 39.6992C21.3856 39.8992 21.3019 40.1377 21.2909 40.3849L21.1994 41.1067H22.068L22.1258 41.1789L22.0608 41.6601H21.1224L20.9059 43.3443L20.6653 45.2282L20.634 46.1906L19.84 46.2532L20.2106 43.4285L20.4343 41.6361H19.8569L19.816 41.5735L19.8737 41.0923H20.4945L20.5594 40.5919C20.5913 40.1111 20.7683 39.6513 21.0671 39.2734C21.2125 39.12 21.3898 39.0005 21.5864 38.9231C21.783 38.8458 21.9943 38.8126 22.2052 38.8258L23.0088 38.9606L23.04 39.0279Z" fill="black"/>
<path d="M24.3008 44.0301L24.2839 44.172C24.2801 44.2324 24.2961 44.2925 24.3296 44.3429C24.3467 44.3644 24.3688 44.3814 24.3939 44.3923C24.4191 44.4032 24.4466 44.4077 24.474 44.4054C24.5855 44.3952 24.6888 44.3427 24.7627 44.2587C24.9039 44.1139 25.0268 43.9523 25.1284 43.7775H25.2102L25.434 44.0734C25.2876 44.3521 25.1082 44.6122 24.8999 44.8481C24.7494 45.009 24.5595 45.1276 24.3489 45.1922C24.2434 45.1986 24.1378 45.1834 24.0385 45.1474C23.9391 45.1114 23.8483 45.0554 23.7715 44.9829C23.699 44.9024 23.6439 44.8079 23.6096 44.7053C23.5752 44.6026 23.5623 44.494 23.5718 44.3862L23.5886 44.1624L23.9278 41.9128L23.9615 41.6337H23.413L23.3624 41.5711L23.413 41.0899H24.0241L24.1324 40.1396L24.8542 39.8099L24.9143 39.8725L24.7314 41.0899H25.6939L25.7516 41.1621L25.7011 41.6433H24.6521L24.3008 44.0301Z" fill="black"/>
<path d="M29.132 41.2391C29.1987 41.3085 29.2504 41.3908 29.2839 41.4811C29.3175 41.5713 29.3321 41.6675 29.3269 41.7636V41.8791L28.9973 44.1455L28.954 45.1079L28.1456 45.1705L28.5835 42.2135V42.1148C28.5835 41.9585 28.5353 41.8742 28.4343 41.8742C28.2739 41.8742 28.0646 42.0715 27.8063 42.4661C27.4646 43.0085 27.1685 43.5783 26.9209 44.1696L26.8896 45.1007L26.0956 45.1633L26.8174 39.7858V38.8812L27.6114 38.8186L27.0989 42.8054H27.188C27.3938 42.421 27.6219 42.049 27.8713 41.6914C28.0587 41.421 28.2758 41.1724 28.5185 40.9503H28.6099C28.8091 40.9917 28.9911 41.0923 29.132 41.2391Z" fill="black"/>
<path d="M32.2863 43.8135L32.5269 44.1648C32.3858 44.4171 32.1953 44.6384 31.9667 44.8153C31.738 44.9923 31.4761 45.1213 31.1964 45.1946H31.0881C30.9243 45.1853 30.7643 45.1418 30.6184 45.0668C30.4725 44.9917 30.344 44.8869 30.2412 44.7591C30.0393 44.4375 29.945 44.06 29.9717 43.6812C29.9629 43.2026 30.0446 42.7267 30.2123 42.2785C30.3497 41.906 30.5799 41.5747 30.8812 41.3161C31.1568 41.0808 31.5032 40.9444 31.8653 40.9287H31.9495C32.1705 40.955 32.376 41.056 32.5317 41.215C32.6707 41.3764 32.743 41.5846 32.7338 41.7973C32.7338 42.5255 32.0562 43.1086 30.7008 43.5465C30.6875 43.7949 30.7355 44.0427 30.8403 44.2683C30.8786 44.3394 30.9361 44.3983 31.0063 44.4383C31.0765 44.4783 31.1566 44.4978 31.2373 44.4944C31.3981 44.4903 31.5533 44.4346 31.68 44.3356C31.8672 44.1846 32.0295 44.0052 32.1612 43.8039L32.2863 43.8135ZM31.0593 41.9152C30.8646 42.2383 30.7522 42.6043 30.732 42.981C31.5982 42.6955 32.0313 42.3218 32.0313 41.8598C32.0377 41.8138 32.0333 41.7669 32.0185 41.7228C32.0037 41.6787 31.9789 41.6387 31.9461 41.6058C31.9132 41.5729 31.8731 41.5481 31.8291 41.5334C31.785 41.5186 31.7381 41.5142 31.692 41.5206C31.5613 41.5255 31.4342 41.5645 31.3232 41.6338C31.2122 41.703 31.1212 41.8 31.0593 41.9152Z" fill="black"/>
<path d="M37.5627 41.6721C37.5627 41.8667 37.5352 42.0603 37.4809 42.2472C37.4147 42.4632 37.3285 42.6727 37.2235 42.8727L36.1167 45.0237C35.8731 45.5471 35.5483 46.0286 35.1543 46.4505C35.0258 46.5834 34.8722 46.6897 34.7025 46.7632C34.5328 46.8367 34.3503 46.876 34.1654 46.8788C33.9363 46.8739 33.7096 46.8316 33.4941 46.7536L33.5278 46.0318L33.6024 45.9597C33.7778 46.0099 33.9589 46.0374 34.1414 46.0415C34.369 46.0446 34.5923 45.9783 34.7814 45.8514C35.0018 45.6879 35.1861 45.4807 35.3227 45.2427L34.5287 41.049L35.3155 40.9768L35.3973 41.7106L35.7534 44.1768H35.8593L36.5546 42.7332C36.7196 42.4334 36.8104 42.0984 36.8193 41.7564C36.8181 41.5497 36.758 41.3477 36.646 41.1741L36.6797 41.0754L37.3726 40.96C37.4817 41.1827 37.5463 41.4246 37.5627 41.6721Z" fill="black"/>
<path d="M40.0698 43.8135L40.3104 44.1648C40.1689 44.4173 39.978 44.6386 39.7489 44.8156C39.5199 44.9925 39.2575 45.1214 38.9775 45.1946H38.8716C38.7075 45.1852 38.5472 45.1416 38.4009 45.0666C38.2546 44.9916 38.1257 44.8869 38.0223 44.7591C37.8223 44.4367 37.7289 44.0596 37.7552 43.6812C37.7475 43.2027 37.8291 42.727 37.9958 42.2785C38.1349 41.9062 38.3658 41.5752 38.6671 41.3161C38.9425 41.0805 39.289 40.9441 39.6512 40.9287H39.733C39.954 40.955 40.1594 41.056 40.3152 41.215C40.4559 41.3755 40.5292 41.5841 40.5197 41.7973C40.5197 42.5255 39.8412 43.1086 38.4842 43.5465C38.4722 43.7948 38.52 44.0423 38.6238 44.2683C38.6621 44.3394 38.7196 44.3983 38.7898 44.4383C38.86 44.4783 38.9401 44.4978 39.0208 44.4944C39.1816 44.4906 39.3369 44.4349 39.4635 44.3356C39.6543 44.1849 39.8207 44.0055 39.9567 43.8039L40.0698 43.8135ZM38.8403 41.9152C38.6478 42.2393 38.5356 42.6047 38.5131 42.981C39.3793 42.6955 39.8124 42.3218 39.8124 41.8598C39.8187 41.8138 39.8144 41.7669 39.7996 41.7228C39.7848 41.6787 39.76 41.6387 39.7271 41.6058C39.6943 41.5729 39.6542 41.5481 39.6101 41.5334C39.5661 41.5186 39.5192 41.5142 39.4731 41.5206C39.3425 41.5258 39.2154 41.5649 39.1044 41.6341C38.9935 41.7032 38.9025 41.8001 38.8403 41.9152Z" fill="black"/>
<path d="M44.071 40.9816L43.6668 44.1383L43.6331 45.1007L42.8391 45.1632L43.0532 43.5319H42.9642C42.6488 44.134 42.2592 44.6941 41.8045 45.1993H41.6722C41.191 44.9539 40.9504 44.4727 40.9504 43.7557C40.9518 43.3402 41.0259 42.9282 41.1693 42.5383C41.3099 42.1476 41.5359 41.7933 41.831 41.5013C42.1262 41.2121 42.4989 41.0148 42.9041 40.9335H42.945L43.4983 41.1476L43.9796 40.9238L44.071 40.9816ZM42.2183 44.03C42.4068 43.7793 42.5719 43.5119 42.7116 43.2312C42.9224 42.8215 43.1088 42.3997 43.2698 41.968V41.8333L42.7477 41.6192C42.5791 41.6233 42.4153 41.6762 42.2761 41.7714C42.1369 41.8666 42.0283 42.0001 41.9633 42.1557C41.7542 42.5791 41.6542 43.048 41.6722 43.5199C41.663 43.7219 41.6858 43.9241 41.7396 44.119C41.7829 44.2393 41.8358 44.2995 41.8959 44.2995C41.9561 44.2995 42.0764 44.208 42.2183 44.03Z" fill="black"/>
<path d="M47.3625 40.9817L47.2133 42.1125L47.1483 42.1558L47.0569 42.139C46.8725 42.1715 46.7009 42.2548 46.5613 42.3796C46.3698 42.5596 46.2117 42.7723 46.0945 43.0075C45.8844 43.4032 45.7027 43.8132 45.5507 44.2346L45.5194 45.1128L44.7255 45.1754L45.1634 41.9393L45.197 41.0346L45.9646 40.972L45.724 42.7549H45.8058C45.9685 42.4177 46.161 42.0956 46.3808 41.7925C46.6018 41.4943 46.8561 41.2223 47.1387 40.9817H47.3625Z" fill="black"/>
<path d="M14.4193 16.9985L13.9693 16.7579C13.6756 16.6077 13.4359 16.3697 13.2836 16.077C13.1166 15.7411 13.034 15.3694 13.043 14.9943V13.5267C13.034 13.1516 13.1166 12.7799 13.2836 12.444C13.4365 12.1511 13.676 11.9125 13.9693 11.7607C14.3051 11.593 14.6769 11.5103 15.052 11.5201C15.3763 11.5146 15.6969 11.589 15.9856 11.7366C16.2627 11.8852 16.4965 12.1033 16.6641 12.3694C16.8543 12.6744 16.9803 13.0149 17.0346 13.3703H15.9543C15.9197 13.2094 15.8562 13.0561 15.7666 12.9179C15.6868 12.7991 15.5805 12.7003 15.4563 12.6292C15.332 12.5629 15.1929 12.5289 15.052 12.5306C14.8781 12.5254 14.7057 12.5652 14.5516 12.6461C14.4138 12.7262 14.3044 12.8473 14.2388 12.9925C14.1625 13.1609 14.1255 13.3443 14.1305 13.5291V15.0016C14.1253 15.1855 14.1623 15.3683 14.2388 15.5357C14.3058 15.6776 14.4151 15.7952 14.5516 15.8725C14.7051 15.9554 14.8777 15.9961 15.052 15.9904C15.1954 15.9941 15.3372 15.9605 15.4637 15.893C15.5902 15.8256 15.697 15.7265 15.7739 15.6055C15.8635 15.4662 15.9256 15.311 15.9567 15.1483H17.0346C16.9781 15.5034 16.8513 15.8437 16.6617 16.1492C16.4935 16.4148 16.2599 16.6327 15.9832 16.782C15.6959 16.9315 15.3758 17.0068 15.052 17.001L14.4193 16.9985Z" fill="black"/>
<path d="M18.6827 16.7531C18.379 16.5984 18.1279 16.3573 17.9609 16.0602C17.7919 15.7405 17.709 15.3823 17.7203 15.0208V13.5002C17.7091 13.1395 17.792 12.7821 17.9609 12.4632C18.1279 12.1661 18.379 11.925 18.6827 11.7703C19.0129 11.608 19.3759 11.5237 19.7438 11.5237C20.1117 11.5237 20.4747 11.608 20.8048 11.7703C21.108 11.9257 21.359 12.1666 21.5266 12.4632C21.6946 12.7825 21.7774 13.1396 21.7672 13.5002V15.0208C21.7774 15.3822 21.6946 15.7401 21.5266 16.0602C21.359 16.3568 21.108 16.5977 20.8048 16.7531C20.4747 16.9154 20.1117 16.9997 19.7438 16.9997C19.3759 16.9997 19.0129 16.9154 18.6827 16.7531ZM20.2394 15.8798C20.3792 15.8053 20.4932 15.6904 20.5666 15.5501C20.652 15.3965 20.6951 15.223 20.6918 15.0473V13.4737C20.691 13.3054 20.648 13.1399 20.5666 12.9925C20.4926 12.8527 20.3787 12.738 20.2394 12.6629C20.0853 12.5869 19.9157 12.5474 19.7438 12.5474C19.5719 12.5474 19.4023 12.5869 19.2481 12.6629C19.1082 12.7379 18.9935 12.8526 18.9185 12.9925C18.8416 13.1412 18.8019 13.3063 18.803 13.4737V15.0449C18.7996 15.2164 18.8393 15.386 18.9185 15.5381C18.9909 15.683 19.1059 15.8023 19.2481 15.8798C19.4019 15.9572 19.5716 15.9975 19.7438 15.9975C19.9159 15.9975 20.0857 15.9572 20.2394 15.8798Z" fill="black"/>
<path d="M24.0602 16.9986L23.68 16.9216C23.4311 16.8689 23.189 16.7882 22.9582 16.681C22.7503 16.5905 22.5547 16.4741 22.376 16.3345L22.8572 15.4996C23.0776 15.6746 23.3279 15.8083 23.5958 15.8942C23.873 15.9853 24.163 16.0316 24.4548 16.0314C24.7289 16.0469 25.0023 15.9888 25.2464 15.863C25.3344 15.8179 25.4078 15.7487 25.4581 15.6635C25.5084 15.5783 25.5334 15.4806 25.5303 15.3817C25.5331 15.3195 25.5233 15.2573 25.5014 15.199C25.4794 15.1407 25.4459 15.0874 25.4027 15.0425C25.3112 14.9539 25.1986 14.8901 25.0755 14.8572C24.9056 14.8108 24.7328 14.7755 24.5582 14.7514H24.5366H24.5173H24.4331C24.1202 14.7088 23.8117 14.6379 23.5116 14.5396C23.2652 14.4547 23.0493 14.2991 22.8909 14.0921C22.7047 13.8287 22.6147 13.5093 22.6358 13.1875C22.6274 12.8744 22.7111 12.5657 22.8764 12.2996C23.0453 12.038 23.2906 11.8347 23.579 11.7174C23.9308 11.5811 24.3061 11.5157 24.6833 11.5249C24.8872 11.5255 25.0904 11.5472 25.2897 11.5899C25.4982 11.6346 25.702 11.6991 25.8984 11.7823C26.0965 11.8659 26.2866 11.9673 26.4662 12.0855L26.0259 12.9396C25.818 12.801 25.5932 12.6894 25.357 12.6076C25.1418 12.5328 24.916 12.493 24.6882 12.4897C24.4312 12.4765 24.1752 12.5295 23.9447 12.6437C23.8654 12.6842 23.7989 12.7459 23.7526 12.8219C23.7063 12.898 23.682 12.9854 23.6824 13.0744C23.6785 13.1423 23.6887 13.2102 23.7123 13.274C23.7359 13.3377 23.7724 13.3959 23.8196 13.4449C23.9157 13.5363 24.0319 13.6038 24.1588 13.6422C24.3457 13.6961 24.5352 13.7403 24.7267 13.7745H24.7579H24.7868H24.8301H24.8758C25.1749 13.8261 25.4682 13.9067 25.7516 14.0151C25.9875 14.1084 26.192 14.267 26.3411 14.4723C26.5128 14.7256 26.5973 15.028 26.5817 15.3336C26.5994 15.6461 26.5151 15.9558 26.3416 16.2161C26.168 16.4765 25.9145 16.6734 25.6193 16.7772C25.255 16.9138 24.8678 16.9792 24.4788 16.9697L24.0602 16.9986Z" fill="black"/>
<path d="M26.7573 11.5802H30.8187V12.5426H26.7573V11.5802ZM28.2659 12.0301H29.3101V16.9432H28.2659V12.0301Z" fill="black"/>
<path d="M32.1227 16.7532C31.8193 16.5981 31.5682 16.3571 31.4009 16.0602C31.233 15.7401 31.1502 15.3822 31.1603 15.0208V13.5002C31.1501 13.1396 31.233 12.7825 31.4009 12.4632C31.5682 12.1664 31.8193 11.9254 32.1227 11.7703C32.4526 11.6084 32.8151 11.5243 33.1826 11.5243C33.55 11.5243 33.9126 11.6084 34.2424 11.7703C34.5461 11.925 34.7973 12.1661 34.9642 12.4632C35.1332 12.7821 35.2161 13.1395 35.2048 13.5002V15.0208C35.2162 15.3823 35.1333 15.7405 34.9642 16.0602C34.7973 16.3573 34.5461 16.5984 34.2424 16.7532C33.9126 16.915 33.55 16.9992 33.1826 16.9992C32.8151 16.9992 32.4526 16.915 32.1227 16.7532ZM33.6842 15.8798C33.8247 15.8055 33.9396 15.6906 34.0139 15.5501C34.0931 15.398 34.1328 15.2284 34.1293 15.0569V13.4738C34.1328 13.3015 34.0931 13.1311 34.0139 12.9781C33.9385 12.8391 33.8238 12.7253 33.6842 12.6509C33.5305 12.575 33.3613 12.5354 33.1898 12.5354C33.0183 12.5354 32.8491 12.575 32.6954 12.6509C32.551 12.728 32.4335 12.8471 32.3585 12.9926C32.2807 13.141 32.2403 13.3062 32.2406 13.4738V15.0449C32.2371 15.2164 32.2769 15.386 32.3561 15.5381C32.4291 15.6834 32.545 15.8027 32.6881 15.8798C32.8423 15.9586 33.013 15.9996 33.1862 15.9996C33.3593 15.9996 33.53 15.9586 33.6842 15.8798Z" fill="black"/>
<path d="M39.7161 11.5802H41.0923V16.9432H40.1444V12.7784L40.1829 13.019L39.1242 16.3489H38.2027L37.1441 13.0936L37.1801 12.7832V16.9432H36.2322V11.5802H37.6084L38.6623 15.1892L39.7161 11.5802Z" fill="black"/>
<path d="M42.3098 11.5802H43.354V16.9432H42.3098V11.5802ZM42.6876 11.5802H46.0199V12.5426H42.6876V11.5802ZM42.6876 13.7937H45.6012V14.7561H42.6876V13.7937ZM42.6876 15.9591H46.0199V16.9216H42.6876V15.9591Z" fill="black"/>
<path d="M46.9727 11.5754H48.0145V16.9433H46.9727V11.5754ZM47.3985 13.8106H49.3233C49.4243 13.8156 49.5245 13.7898 49.6105 13.7365C49.6964 13.6832 49.7641 13.605 49.8045 13.5123C49.8501 13.4075 49.8738 13.2945 49.8743 13.1803C49.8769 13.0659 49.8539 12.9525 49.8069 12.8482C49.7676 12.7575 49.7023 12.6805 49.6193 12.6269C49.533 12.5748 49.4337 12.5481 49.333 12.5499H47.4081V11.5875H49.4196C49.7004 11.5817 49.9777 11.6506 50.2232 11.7872C50.453 11.9187 50.6394 12.1143 50.7597 12.3502C50.8848 12.6133 50.9498 12.9009 50.9498 13.1923C50.9498 13.4836 50.8848 13.7713 50.7597 14.0344C50.6392 14.2709 50.4518 14.4667 50.2208 14.5974C49.9759 14.7333 49.6996 14.8022 49.4196 14.7971H47.3985V13.8106ZM48.5654 14.619L49.6794 14.4482L51.1736 16.9433H49.908L48.5654 14.619Z" fill="black"/>
<path d="M17.4292 20.6437H18.4734V26.0067H17.4292V20.6437ZM17.8936 25.0347H21.1393V25.9971H17.8936V25.0347Z" fill="black"/>
<path d="M22.5949 25.8166C22.2912 25.6619 22.0401 25.4208 21.8731 25.1237C21.7052 24.8044 21.6223 24.4473 21.6325 24.0867V22.5661C21.6223 22.2055 21.7052 21.8484 21.8731 21.5291C22.0399 21.2313 22.291 20.9894 22.5949 20.8338C22.9251 20.6715 23.2881 20.5872 23.6559 20.5872C24.0238 20.5872 24.3868 20.6715 24.717 20.8338C25.0214 20.9886 25.2727 21.2307 25.4388 21.5291C25.6078 21.848 25.6907 22.2054 25.6794 22.5661V24.0867C25.6907 24.4474 25.6078 24.8048 25.4388 25.1237C25.2725 25.4213 25.0212 25.6626 24.717 25.8166C24.3868 25.9789 24.0238 26.0632 23.6559 26.0632C23.2881 26.0632 22.9251 25.9789 22.5949 25.8166ZM24.1516 24.936C24.2915 24.861 24.4062 24.7463 24.4812 24.6064C24.5608 24.4535 24.6005 24.283 24.5967 24.1107V22.5396C24.6002 22.3681 24.5605 22.1985 24.4812 22.0464C24.4062 21.9064 24.2915 21.7918 24.1516 21.7168C23.9978 21.6393 23.8281 21.599 23.6559 21.599C23.4838 21.599 23.3141 21.6393 23.1603 21.7168C23.0209 21.7925 22.9064 21.907 22.8307 22.0464C22.7514 22.1985 22.7117 22.3681 22.7152 22.5396V24.1107C22.7114 24.283 22.7511 24.4535 22.8307 24.6064C22.9064 24.7458 23.0209 24.8603 23.1603 24.936C23.3145 25.012 23.4841 25.0515 23.6559 25.0515C23.8278 25.0515 23.9974 25.012 24.1516 24.936Z" fill="black"/>
<path d="M28.6557 23.9375V26.0067H27.6139V23.9375L25.985 20.6437H27.0773L28.136 22.9535L29.197 20.6437H30.2893L28.6557 23.9375Z" fill="black"/>
<path d="M31.9471 20.6437H32.6087L34.726 26.0067H33.6024L32.2791 22.3447L30.9534 26.0067H29.8346L31.9471 20.6437ZM30.8451 24.1757H33.7588V25.1381H30.8451V24.1757Z" fill="black"/>
<path d="M35.4117 20.6437H36.456V26.0067H35.4117V20.6437ZM35.8761 25.0347H39.1218V25.9971H35.8761V25.0347Z" fill="black"/>
<path d="M38.8932 20.6437H42.9522V21.6061H38.8932V20.6437ZM40.4018 21.084H41.4436V26.0067H40.4018V21.084Z" fill="black"/>
<path d="M45.7408 23.9375V26.0067H44.6966V23.9375L43.0677 20.6437H44.16L45.2187 22.9535L46.2773 20.6437H47.3696L45.7408 23.9375Z" fill="black"/>
<path d="M14.8187 29.7095H15.8629V35.0725H14.8187V29.7095ZM15.2999 32.0193H17.0707C17.1862 32.0215 17.3001 31.9924 17.4003 31.9351C17.4971 31.8788 17.575 31.795 17.6241 31.6945C17.6784 31.5872 17.7057 31.4682 17.7035 31.348C17.7057 31.2254 17.6785 31.1041 17.6241 30.9943C17.5765 30.8942 17.5003 30.8105 17.4051 30.7537C17.3029 30.6972 17.1875 30.669 17.0707 30.6719H15.2951V29.7095H17.0394C17.3555 29.7022 17.6686 29.7724 17.9513 29.914C18.2062 30.0438 18.4184 30.2443 18.5624 30.4915C18.7046 30.7567 18.779 31.053 18.779 31.354C18.779 31.655 18.7046 31.9513 18.5624 32.2166C18.4181 32.4623 18.2059 32.6612 17.9513 32.7892C17.668 32.9288 17.3552 32.9982 17.0394 32.9913H15.2951L15.2999 32.0193Z" fill="black"/>
<path d="M19.5994 29.7047H20.6412V35.0725H19.5994V29.7047ZM20.0133 31.9399H21.9381C22.0375 31.9427 22.1355 31.9159 22.2196 31.8629C22.3032 31.8093 22.3693 31.7323 22.4097 31.6415C22.4552 31.5367 22.4789 31.4238 22.4794 31.3095C22.4821 31.1952 22.459 31.0817 22.4121 30.9775C22.3727 30.8868 22.3074 30.8097 22.2244 30.7561C22.1381 30.7041 22.0388 30.6774 21.9381 30.6791H20.0133V29.7047H22.0247C22.3055 29.6989 22.5828 29.7678 22.8283 29.9044C23.0581 30.0359 23.2445 30.2316 23.3648 30.4674C23.4896 30.7306 23.5544 31.0182 23.5544 31.3095C23.5544 31.6008 23.4896 31.8884 23.3648 32.1516C23.2451 32.3905 23.0577 32.5889 22.8259 32.7218C22.5816 32.8592 22.3049 32.9282 22.0247 32.9215H20.0133V31.9399ZM21.173 32.7483L22.2869 32.5799L23.7811 35.0725H22.5227L21.173 32.7483Z" fill="black"/>
<path d="M25.3787 34.8873C25.0753 34.7322 24.8242 34.4912 24.6569 34.1944C24.4887 33.8744 24.4058 33.5164 24.4163 33.155V31.6368C24.4058 31.2754 24.4887 30.9174 24.6569 30.5974C24.8242 30.3005 25.0753 30.0595 25.3787 29.9045C25.7086 29.7426 26.0711 29.6584 26.4385 29.6584C26.806 29.6584 27.1685 29.7426 27.4984 29.9045C27.7976 30.0611 28.0444 30.302 28.2082 30.5974C28.3816 30.9159 28.4687 31.2742 28.4608 31.6368V33.155C28.4687 33.5176 28.3816 33.8759 28.2082 34.1944C28.0444 34.4898 27.7976 34.7307 27.4984 34.8873C27.1685 35.0492 26.806 35.1333 26.4385 35.1333C26.0711 35.1333 25.7086 35.0492 25.3787 34.8873ZM26.933 34.0067C27.0731 33.9308 27.1877 33.8153 27.2626 33.6747C27.3422 33.5227 27.3819 33.353 27.3781 33.1814V31.6103C27.3819 31.4388 27.3422 31.2691 27.2626 31.1171C27.1885 30.9759 27.0736 30.8602 26.933 30.7851C26.7792 30.7091 26.61 30.6696 26.4385 30.6696C26.2671 30.6696 26.0979 30.7091 25.9441 30.7851C25.8035 30.8602 25.6886 30.9759 25.6145 31.1171C25.5342 31.2689 25.4936 31.4386 25.4966 31.6103V33.1814C25.4936 33.3532 25.5342 33.5229 25.6145 33.6747C25.6893 33.8153 25.804 33.9308 25.9441 34.0067C26.0979 34.0827 26.2671 34.1222 26.4385 34.1222C26.61 34.1222 26.7792 34.0827 26.933 34.0067Z" fill="black"/>
<path d="M33.3498 32.0746V33.1212C33.3611 33.4873 33.2783 33.8502 33.1092 34.1751C32.9478 34.4736 32.7028 34.7186 32.4042 34.88C32.0773 35.0483 31.7131 35.1311 31.3456 35.1206C30.9754 35.1265 30.6092 35.044 30.2773 34.88C29.9777 34.7341 29.7269 34.5042 29.5555 34.2184C29.3872 33.9149 29.3041 33.5716 29.3149 33.2247V31.6415C29.3045 31.2771 29.3873 30.916 29.5555 30.5925C29.7169 30.294 29.9619 30.049 30.2605 29.8876C30.5875 29.7196 30.9516 29.6368 31.3191 29.647C31.6348 29.6434 31.9473 29.7108 32.2334 29.8442C32.5074 29.9727 32.7473 30.1639 32.9336 30.4024C33.1222 30.6488 33.2515 30.9353 33.3113 31.2397H32.1853C32.1469 31.1278 32.0817 31.027 31.9952 30.9462C31.9064 30.8633 31.8016 30.7994 31.6872 30.7585C31.5694 30.7152 31.4447 30.6932 31.3191 30.6936C31.1514 30.6921 30.986 30.7327 30.8379 30.8115C30.6983 30.8893 30.5845 31.0065 30.5107 31.1483C30.4314 31.303 30.3917 31.475 30.3952 31.6488V33.2319C30.3915 33.3877 30.4324 33.5413 30.5131 33.6746C30.593 33.804 30.7094 33.907 30.8475 33.9706C31.0055 34.0416 31.1772 34.0769 31.3504 34.074C31.5175 34.0754 31.6826 34.0366 31.8316 33.9609C31.9706 33.8874 32.0839 33.7732 32.1564 33.6337C32.2368 33.4777 32.2765 33.3039 32.2719 33.1285V33.0394H31.4322V32.077L33.3498 32.0746Z" fill="black"/>
<path d="M34.3796 29.7048H35.4214V35.0726H34.3796V29.7048ZM34.7934 31.94H36.7182C36.8176 31.9425 36.9155 31.9158 36.9997 31.863C37.0836 31.8102 37.1491 31.7329 37.1874 31.6416C37.2334 31.537 37.2571 31.4239 37.2571 31.3096C37.2571 31.1953 37.2334 31.0822 37.1874 30.9775C37.1474 30.8873 37.0822 30.8105 36.9997 30.7562C36.9134 30.7041 36.8142 30.6775 36.7134 30.6792H34.7886V29.7048H36.8121C37.0929 29.6993 37.3701 29.7682 37.6157 29.9045C37.8454 30.036 38.0319 30.2316 38.1522 30.4675C38.277 30.7307 38.3417 31.0183 38.3417 31.3096C38.3417 31.6009 38.277 31.8885 38.1522 32.1517C38.0298 32.391 37.8399 32.5893 37.606 32.7219C37.3616 32.8587 37.0849 32.9277 36.8048 32.9216H34.7934V31.94ZM35.9579 32.7484L37.0743 32.58L38.5685 35.0726H37.2933L35.9579 32.7484Z" fill="black"/>
<path d="M40.8566 29.7095H41.5182L43.6355 35.0725H42.5119L41.1886 31.4105L39.8629 35.0725H38.7369L40.8566 29.7095ZM39.7546 33.2391H42.6683V34.2015H39.7546V33.2391Z" fill="black"/>
<path d="M47.8051 29.7095H49.1814V35.0725H48.2334V30.9077L48.2719 31.1483L47.2108 34.4806H46.2893L45.2331 31.218L45.2716 30.9077V35.0725H44.3236V29.7095H45.6998L46.7537 33.3185L47.8051 29.7095Z" fill="black"/>
</g>
<defs>
<clipPath id="clip0_708_5957">
<rect width="64" height="64" fill="white"/>
</clipPath>
</defs>
</svg>
