<svg width="53" height="21" viewBox="0 0 53 21" fill="none" xmlns="http://www.w3.org/2000/svg">
<g clip-path="url(#clip0_708_5865)">
<path d="M34.6253 2.26106C34.6253 2.26106 21.5697 -2.91008 7.90955 2.39034C-5.75056 7.69076 0.857067 16.4946 8.51398 18.938C15.4045 21.1357 21.3279 21.265 25.6798 20.7479C30.0317 20.2308 34.1418 19.0673 34.0209 19.0673C33.9 19.0673 17.3386 22.5578 7.18423 16.611C-4.11255 9.9945 6.63904 3.94168 11.657 2.51962C23.0203 -0.712342 34.6253 2.26106 34.6253 2.26106Z" fill="#FBFFFC"/>
<path d="M19.7564 1.61462C19.7564 1.61462 11.4152 2.26102 5.97536 6.13937C0.535499 10.0177 4.04119 14.0254 8.51397 16.3524C12.2119 18.276 19.2728 19.3258 19.2728 19.3258C19.2728 19.3258 17.4595 16.2231 17.4595 10.9227C17.4595 4.32947 19.7564 1.61462 19.7564 1.61462Z" fill="#3A448B"/>
<path d="M25.5589 4.71731H22.4159C22.4159 4.71731 18.7893 4.45875 18.7893 9.11278C18.7893 11.8276 19.1519 12.2155 19.5146 12.7326C20.038 13.4772 21.207 13.5082 21.207 13.5082H25.438V12.0862H22.295C22.295 12.0862 21.207 12.2155 20.8443 11.3105C20.4986 10.4443 20.6026 10.0177 20.6026 10.0177H25.5589V8.3371H20.7235C20.7235 8.3371 20.8443 6.78576 21.5697 6.39793C22.295 6.01009 25.5589 6.26865 25.5589 6.26865V4.71731Z" fill="#FBFFFC"/>
<path d="M34.1418 6.26875V4.71741H28.9437C28.9437 4.71741 26.7678 4.84669 26.7678 7.1737C26.7678 9.50071 27.9766 9.88855 28.581 9.88855H32.0867C32.3051 9.97884 32.4919 10.1391 32.6218 10.3474C32.7516 10.5557 32.8181 10.8018 32.8121 11.0521C32.8121 11.5692 32.5703 12.0863 31.9659 12.0863H27.1304V13.5083H32.4494C32.4494 13.5083 33.7791 13.6376 34.2627 12.4741C34.7462 11.3106 34.7462 10.1471 34.2627 9.37143C33.7791 8.59576 33.0538 8.46648 32.4494 8.46648H29.4273C29.4273 8.46648 28.581 8.46648 28.581 7.43226C28.581 6.01019 30.5152 6.26875 30.5152 6.26875H34.1418Z" fill="#FBFFFC"/>
<path d="M43.2082 6.26875V4.71741H38.0101C38.0101 4.71741 35.8342 4.84669 35.8342 7.1737C35.8342 9.50071 37.0431 9.88855 37.6475 9.88855H41.1532C41.3715 9.97884 41.5584 10.1391 41.6882 10.3474C41.8181 10.5557 41.8845 10.8018 41.8785 11.0521C41.8785 11.5692 41.6367 12.0863 41.0323 12.0863H36.1969V13.5083H41.5158C41.5158 13.5083 42.8456 13.6376 43.3291 12.4741C43.8127 11.3106 43.8127 10.1471 43.3291 9.37143C42.8456 8.59576 42.1203 8.46648 41.5158 8.46648H38.4937C38.4937 8.46648 37.6475 8.46648 37.6475 7.43226C37.6475 6.01019 39.5817 6.26875 39.5817 6.26875H43.2082Z" fill="#FBFFFC"/>
<path d="M49.3734 4.71741H47.5601L43.8127 13.6376H45.8677L46.593 11.4399H50.2196L51.0658 13.6376H53L49.3734 4.71741ZM47.0766 10.0178L48.4063 6.52731L49.7361 10.0178H47.0766Z" fill="#FBFFFC"/>
<path d="M21.595 15.8766H21.4258V15.7138C21.3934 15.7741 21.3459 15.8235 21.2887 15.8566C21.2315 15.8898 21.1668 15.9052 21.1018 15.9012C20.852 15.9012 20.7267 15.7551 20.7259 15.4629V14.8489H20.8927V15.4371C20.8927 15.6543 20.9773 15.7629 21.1478 15.7629C21.1856 15.7642 21.2232 15.7569 21.2582 15.7415C21.2932 15.7261 21.3248 15.703 21.3508 15.6737C21.4045 15.6101 21.4327 15.5266 21.4294 15.441V14.8489H21.5987L21.595 15.8766Z" fill="white"/>
<path d="M22.4847 15.0156C22.4346 14.9859 22.3761 14.9762 22.3199 14.9882C22.2636 15.0003 22.2132 15.0334 22.1777 15.0816C22.1258 15.1608 22.1002 15.2564 22.1052 15.353V15.8702H21.9371V14.8359H22.1052V15.048C22.1252 14.9814 22.1631 14.9225 22.214 14.8786C22.2613 14.8392 22.3196 14.8178 22.3796 14.8178C22.4135 14.8165 22.4474 14.8213 22.4799 14.8321L22.4847 15.0156Z" fill="white"/>
<path d="M23.1049 15.9013C23.037 15.9047 22.9691 15.8937 22.9052 15.8688C22.8412 15.844 22.7826 15.8058 22.7326 15.7565C22.6857 15.7069 22.6491 15.6473 22.6251 15.5816C22.6012 15.5159 22.5904 15.4456 22.5936 15.3751C22.5896 15.3005 22.6005 15.2259 22.6255 15.1562C22.6505 15.0864 22.6891 15.0231 22.7386 14.9705C22.846 14.8694 22.9862 14.8174 23.1291 14.8257C23.1963 14.8187 23.2641 14.8276 23.3276 14.852C23.3912 14.8763 23.4489 14.9154 23.4967 14.9665C23.5444 15.0175 23.581 15.0793 23.6037 15.1473C23.6265 15.2152 23.6349 15.2877 23.6283 15.3596C23.631 15.4313 23.6197 15.5028 23.5952 15.5696C23.5706 15.6363 23.5333 15.6969 23.4857 15.7474C23.435 15.799 23.3753 15.8391 23.3099 15.8656C23.2444 15.892 23.1748 15.9041 23.1049 15.9013ZM23.117 14.964C23.0696 14.9616 23.0223 14.9699 22.9781 14.9884C22.934 15.0069 22.894 15.0352 22.8607 15.0713C22.7945 15.1537 22.7607 15.2602 22.7664 15.3687C22.7636 15.4211 22.7706 15.4736 22.787 15.5231C22.8034 15.5726 22.8288 15.6181 22.8619 15.6569C22.8952 15.6926 22.9351 15.7204 22.979 15.7386C23.0229 15.7569 23.0699 15.7652 23.117 15.763C23.1634 15.7659 23.2098 15.7582 23.2532 15.7404C23.2966 15.7226 23.3359 15.695 23.3684 15.6595C23.4249 15.5728 23.4551 15.4698 23.4551 15.3641C23.4551 15.2585 23.4249 15.1554 23.3684 15.0687C23.3361 15.0328 23.2969 15.0049 23.2535 14.9868C23.2101 14.9687 23.1635 14.9609 23.117 14.964Z" fill="white"/>
<path d="M24.0696 15.728V16.3485H23.9016V14.8489H24.0696V15.0299C24.1079 14.9647 24.1615 14.9115 24.2252 14.8756C24.2889 14.8398 24.3603 14.8225 24.4322 14.8256C24.4912 14.8221 24.5502 14.8325 24.605 14.8562C24.6597 14.8799 24.7089 14.9162 24.749 14.9627C24.8285 15.0665 24.869 15.1983 24.8626 15.3324C24.8698 15.4826 24.824 15.6302 24.7345 15.7461C24.6904 15.7981 24.6361 15.8391 24.5755 15.8659C24.5149 15.8927 24.4494 15.9048 24.3839 15.9012C24.322 15.9034 24.2607 15.8887 24.2057 15.8584C24.1506 15.828 24.1038 15.7832 24.0696 15.728ZM24.0696 15.3143V15.4578C24.0689 15.4981 24.0761 15.5381 24.0907 15.5753C24.1053 15.6124 24.1269 15.6459 24.1542 15.6737C24.1855 15.7043 24.2221 15.7279 24.262 15.7432C24.3019 15.7584 24.3442 15.7651 24.3865 15.7627C24.4288 15.7603 24.4703 15.7489 24.5084 15.7292C24.5466 15.7094 24.5807 15.6818 24.6087 15.6478C24.6713 15.5558 24.7021 15.4434 24.6958 15.3298C24.7006 15.2326 24.6718 15.1368 24.6148 15.0609C24.5869 15.0286 24.5528 15.0031 24.5148 14.9864C24.4768 14.9696 24.4358 14.962 24.3948 14.964C24.3501 14.9611 24.3055 14.9684 24.2638 14.9856C24.222 15.0028 24.1843 15.0294 24.153 15.0635C24.1236 15.097 24.1008 15.1365 24.0858 15.1795C24.0709 15.2226 24.0641 15.2684 24.066 15.3143H24.0696Z" fill="white"/>
<path d="M25.9784 15.4048H25.2361C25.2351 15.4524 25.2429 15.4998 25.2591 15.5442C25.2753 15.5886 25.2995 15.6291 25.3304 15.6634C25.3641 15.6959 25.4034 15.7209 25.4461 15.7371C25.4889 15.7533 25.5342 15.7603 25.5795 15.7577C25.697 15.7578 25.8114 15.7175 25.9058 15.6427V15.7978C25.7963 15.8672 25.6704 15.9013 25.5432 15.8961C25.4788 15.9 25.4144 15.8895 25.354 15.8652C25.2936 15.841 25.2386 15.8035 25.1926 15.7552C25.1041 15.6489 25.0585 15.5095 25.0657 15.3673C25.0632 15.296 25.0742 15.2249 25.0981 15.1582C25.122 15.0915 25.1583 15.0308 25.2047 14.9795C25.2492 14.9301 25.3028 14.8912 25.3621 14.8652C25.4214 14.8391 25.4851 14.8266 25.5492 14.8282C25.6082 14.8241 25.6672 14.8334 25.7225 14.8557C25.7778 14.878 25.8279 14.9127 25.8696 14.9575C25.9488 15.0584 25.989 15.1879 25.982 15.3195L25.9784 15.4048ZM25.8055 15.2652C25.8099 15.1842 25.7847 15.1045 25.7354 15.0428C25.7105 15.0158 25.6804 14.9948 25.6473 14.9812C25.6141 14.9676 25.5786 14.9617 25.5432 14.964C25.4683 14.9619 25.3957 14.9916 25.3413 15.0467C25.2841 15.1044 25.2478 15.1817 25.2386 15.2652H25.8055Z" fill="white"/>
<path d="M26.9853 15.8767H26.8173V15.7164C26.7837 15.775 26.7361 15.8231 26.6793 15.8556C26.6226 15.8881 26.5588 15.9038 26.4945 15.9012C26.4074 15.9061 26.3216 15.8772 26.2528 15.8198C26.2234 15.7935 26.2001 15.7604 26.1846 15.723C26.1691 15.6855 26.1618 15.6448 26.1633 15.6039C26.1633 15.4113 26.2842 15.3001 26.5103 15.2691L26.8258 15.2251C26.8258 15.0506 26.7532 14.9666 26.6094 14.9666C26.4844 14.966 26.3631 15.0117 26.2661 15.0958V14.9265C26.3749 14.8614 26.498 14.8283 26.6227 14.8308C26.8709 14.8308 26.9946 14.9601 26.9938 15.2187L26.9853 15.8767ZM26.8173 15.3596L26.5634 15.3932C26.5016 15.3989 26.4415 15.4182 26.387 15.4501C26.366 15.4665 26.3496 15.4885 26.3392 15.514C26.3288 15.5394 26.3248 15.5673 26.3277 15.5949C26.3264 15.6195 26.3307 15.6441 26.3402 15.6666C26.3496 15.6891 26.364 15.7088 26.3821 15.7241C26.4243 15.7575 26.476 15.7744 26.5284 15.772C26.5665 15.7731 26.6045 15.766 26.64 15.7511C26.6755 15.7363 26.7079 15.7139 26.7351 15.6853C26.7621 15.6572 26.7834 15.6234 26.7976 15.586C26.8117 15.5486 26.8184 15.5085 26.8173 15.4682V15.3596Z" fill="#FBFFFC"/>
<path d="M28.1749 15.8766H28.0068V15.291C28.0068 15.0725 27.9258 14.9639 27.765 14.9639C27.726 14.9628 27.6872 14.9705 27.6512 14.9866C27.6151 15.0026 27.5827 15.0266 27.5559 15.057C27.5283 15.0881 27.5067 15.1249 27.4926 15.1651C27.4785 15.2053 27.4721 15.2481 27.4737 15.291V15.8766H27.3045V14.8424H27.4737V15.0131C27.5101 14.9511 27.5611 14.9006 27.6216 14.8666C27.6821 14.8325 27.7499 14.8161 27.8182 14.8191C27.8671 14.8157 27.916 14.8236 27.9618 14.8424C28.0075 14.8611 28.0488 14.8902 28.083 14.9277C28.1486 15.0168 28.181 15.1288 28.1736 15.2419L28.1749 15.8766Z" fill="#FBFFFC"/>
<path d="M29.0042 15.8392V15.6633C29.0935 15.7286 29.1993 15.7633 29.3076 15.7629C29.4551 15.7629 29.5288 15.7138 29.5288 15.6181C29.5291 15.5935 29.5228 15.5692 29.5107 15.5483C29.4966 15.528 29.479 15.5108 29.4587 15.4979C29.4348 15.4815 29.4093 15.468 29.3825 15.4578L29.2894 15.4216C29.2481 15.4059 29.2077 15.3873 29.1686 15.366C29.1365 15.3499 29.1068 15.329 29.0803 15.304C29.0577 15.2818 29.0396 15.255 29.0271 15.2251C29.0143 15.1924 29.0081 15.1571 29.009 15.1217C29.0075 15.0759 29.0193 15.0307 29.0428 14.9924C29.0665 14.9544 29.0974 14.9223 29.1335 14.898C29.1731 14.8722 29.2164 14.8535 29.2616 14.8424C29.3107 14.8295 29.361 14.8229 29.4115 14.823C29.494 14.8221 29.576 14.8374 29.6533 14.8683V15.0351C29.5723 14.9848 29.4798 14.9593 29.3862 14.9614C29.3577 14.9612 29.3293 14.9647 29.3015 14.9717C29.2783 14.9774 29.2562 14.9875 29.2363 15.0014C29.2193 15.0131 29.2049 15.0286 29.1939 15.0467C29.1842 15.0648 29.1792 15.0853 29.1794 15.1062C29.1788 15.1295 29.1838 15.1527 29.1939 15.1734C29.2049 15.1926 29.2198 15.209 29.2375 15.2212C29.2591 15.237 29.2827 15.2496 29.3076 15.2587L29.4007 15.2962C29.442 15.3116 29.4824 15.3297 29.5215 15.3505C29.5554 15.3666 29.5871 15.3875 29.6158 15.4125C29.6409 15.4341 29.6615 15.4609 29.6763 15.4914C29.6902 15.5252 29.6972 15.5618 29.6968 15.5987C29.6975 15.6444 29.6857 15.6893 29.663 15.728C29.6392 15.7659 29.6078 15.7977 29.5711 15.8211C29.5296 15.8465 29.4848 15.8653 29.4381 15.8767C29.3865 15.8887 29.3338 15.8948 29.281 15.8948C29.186 15.8984 29.0914 15.8794 29.0042 15.8392Z" fill="#FBFFFC"/>
<path d="M30.1332 15.728V16.3485H29.9652V14.8489H30.1332V15.0299C30.1706 14.973 30.2191 14.9255 30.2753 14.8906C30.3316 14.8557 30.3942 14.8344 30.459 14.828C30.5237 14.8216 30.589 14.8303 30.6502 14.8536C30.7115 14.8768 30.7673 14.914 30.8138 14.9627C30.8933 15.0665 30.9338 15.1983 30.9274 15.3324C30.9346 15.4826 30.8889 15.6302 30.7993 15.7461C30.7552 15.798 30.7009 15.8388 30.6402 15.8656C30.5796 15.8924 30.5142 15.9046 30.4487 15.9012C30.3867 15.9036 30.3251 15.889 30.2698 15.8587C30.2146 15.8283 30.1675 15.7833 30.1332 15.728ZM30.1332 15.3143V15.4578C30.1329 15.498 30.1402 15.5379 30.1547 15.5751C30.1693 15.6122 30.1907 15.6457 30.2178 15.6737C30.2493 15.7041 30.286 15.7276 30.326 15.7428C30.366 15.758 30.4084 15.7646 30.4507 15.7622C30.4931 15.7598 30.5346 15.7485 30.5728 15.7288C30.6111 15.7092 30.6453 15.6817 30.6736 15.6478C30.7353 15.5554 30.7656 15.4432 30.7594 15.3298C30.765 15.2325 30.7361 15.1365 30.6784 15.0609C30.6509 15.0285 30.617 15.003 30.5791 14.9863C30.5413 14.9695 30.5005 14.9619 30.4596 14.9639C30.415 14.9614 30.3704 14.9689 30.3288 14.9861C30.2871 15.0032 30.2493 15.0296 30.2178 15.0635C30.1882 15.097 30.1651 15.1363 30.1498 15.1794C30.1344 15.2224 30.1271 15.2683 30.1284 15.3143H30.1332Z" fill="#FBFFFC"/>
<path d="M31.6358 15.9013C31.5679 15.9047 31.5 15.8937 31.4361 15.8688C31.3722 15.844 31.3135 15.8058 31.2635 15.7565C31.2166 15.7069 31.18 15.6473 31.1561 15.5816C31.1321 15.5159 31.1213 15.4456 31.1245 15.3751C31.1205 15.3005 31.1315 15.2259 31.1565 15.1562C31.1815 15.0864 31.22 15.0231 31.2695 14.9705C31.3769 14.8694 31.5171 14.8174 31.66 14.8257C31.7272 14.8187 31.795 14.8276 31.8586 14.852C31.9221 14.8763 31.9798 14.9154 32.0276 14.9665C32.0753 15.0175 32.1119 15.0793 32.1347 15.1473C32.1574 15.2152 32.1658 15.2877 32.1592 15.3596C32.1619 15.4313 32.1506 15.5028 32.1261 15.5696C32.1015 15.6363 32.0642 15.6969 32.0166 15.7474C31.966 15.799 31.9062 15.8391 31.8408 15.8656C31.7754 15.892 31.7057 15.9041 31.6358 15.9013ZM31.6479 14.964C31.6005 14.9616 31.5532 14.9699 31.5091 14.9884C31.4649 15.0069 31.4249 15.0352 31.3916 15.0713C31.3254 15.1537 31.2917 15.2602 31.2973 15.3687C31.2945 15.4211 31.3015 15.4736 31.3179 15.5231C31.3343 15.5726 31.3598 15.6181 31.3928 15.6569C31.4262 15.6926 31.466 15.7204 31.5099 15.7386C31.5539 15.7569 31.6008 15.7652 31.6479 15.763C31.6943 15.7659 31.7407 15.7582 31.7841 15.7404C31.8275 15.7226 31.8668 15.695 31.8993 15.6595C31.9558 15.5728 31.986 15.4698 31.986 15.3641C31.986 15.2585 31.9558 15.1554 31.8993 15.0687C31.867 15.0328 31.8278 15.0049 31.7844 14.9868C31.741 14.9687 31.6944 14.9609 31.6479 14.964Z" fill="#FBFFFC"/>
<path d="M32.9764 15.0156C32.9263 14.9859 32.8678 14.9762 32.8116 14.9882C32.7553 15.0003 32.7049 15.0334 32.6694 15.0816C32.6175 15.1608 32.5919 15.2564 32.5969 15.353V15.8702H32.4288V14.8359H32.5969V15.048C32.6174 14.9813 32.6556 14.9224 32.7069 14.8786C32.7542 14.8392 32.8125 14.8178 32.8725 14.8178C32.9064 14.8165 32.9404 14.8213 32.9728 14.8321L32.9764 15.0156Z" fill="#FBFFFC"/>
<path d="M33.6474 15.8663C33.5981 15.8901 33.5442 15.9012 33.4902 15.8986C33.452 15.9053 33.4129 15.902 33.3761 15.8892C33.3393 15.8763 33.306 15.8542 33.2789 15.8246C33.2517 15.7951 33.2316 15.7591 33.2202 15.7195C33.2088 15.68 33.2065 15.6381 33.2134 15.5974V14.9962H33.0333V14.8553H33.2134V14.6045L33.3826 14.5515V14.8553H33.6474V14.9962H33.3826V15.5754C33.3784 15.6273 33.3908 15.6793 33.4177 15.7228C33.4336 15.7391 33.4527 15.7515 33.4736 15.7591C33.4945 15.7667 33.5166 15.7693 33.5386 15.7667C33.5775 15.7675 33.6159 15.7558 33.6486 15.7331L33.6474 15.8663Z" fill="#FBFFFC"/>
<path d="M33.8081 15.8392V15.6633C33.8974 15.7288 34.0033 15.7635 34.1116 15.7629C34.259 15.7629 34.3328 15.7138 34.3328 15.6181C34.3336 15.5932 34.3268 15.5687 34.3134 15.5483C34.3002 15.5277 34.2828 15.5105 34.2627 15.4979C34.2388 15.4814 34.2132 15.468 34.1865 15.4578L34.0922 15.4216C34.0509 15.4057 34.0105 15.3871 33.9713 15.366C33.9391 15.3502 33.9094 15.3293 33.8831 15.3039C33.8598 15.2825 33.8416 15.2555 33.8299 15.2251C33.8171 15.1924 33.8109 15.1571 33.8118 15.1217C33.8102 15.0759 33.8221 15.0307 33.8456 14.9924C33.8685 14.9542 33.899 14.9219 33.9351 14.898C33.9751 14.8722 34.0188 14.8535 34.0644 14.8424C34.1134 14.8294 34.1638 14.8229 34.2143 14.823C34.2968 14.8222 34.3788 14.8375 34.4561 14.8683V15.035C34.375 14.9849 34.2826 14.9594 34.1889 14.9614C34.16 14.9612 34.1312 14.9647 34.1031 14.9717C34.0802 14.9774 34.0585 14.9874 34.039 15.0014C34.0221 15.0131 34.0076 15.0285 33.9967 15.0467C33.9861 15.0644 33.9806 15.0851 33.981 15.1061C33.9804 15.1297 33.9859 15.1529 33.9967 15.1734C34.0076 15.1926 34.0225 15.209 34.0402 15.2212C34.0619 15.237 34.0855 15.2496 34.1104 15.2587L34.2034 15.2962C34.2448 15.3115 34.2851 15.3296 34.3243 15.3505C34.3586 15.3666 34.3907 15.3875 34.4198 15.4125C34.4445 15.4341 34.4647 15.461 34.4791 15.4914C34.4942 15.5248 34.5016 15.5616 34.5008 15.5987C34.5011 15.6445 34.4889 15.6894 34.4658 15.728C34.4423 15.7662 34.4108 15.7981 34.3739 15.8211C34.3329 15.8467 34.2884 15.8655 34.2421 15.8766C34.1905 15.8886 34.1378 15.8947 34.085 15.8947C33.99 15.8985 33.8954 15.8795 33.8081 15.8392Z" fill="#FBFFFC"/>
<path d="M35.2757 15.8392V15.6633C35.3651 15.7286 35.4709 15.7633 35.5791 15.7629C35.7266 15.7629 35.8003 15.7138 35.8003 15.6181C35.8006 15.5935 35.7944 15.5692 35.7822 15.5483C35.7682 15.528 35.7505 15.5108 35.7302 15.4979C35.7064 15.4815 35.6808 15.468 35.6541 15.4578L35.561 15.4216C35.5196 15.4059 35.4792 15.3873 35.4401 15.366C35.4081 15.3499 35.3784 15.329 35.3519 15.304C35.3293 15.2818 35.3112 15.255 35.2987 15.2251C35.2858 15.1924 35.2797 15.1571 35.2805 15.1217C35.279 15.0759 35.2908 15.0307 35.3144 14.9924C35.338 14.9544 35.3689 14.9223 35.405 14.898C35.4446 14.872 35.4879 14.8533 35.5332 14.8424C35.5822 14.8295 35.6326 14.8229 35.6831 14.823C35.7656 14.8221 35.8475 14.8374 35.9249 14.8683V15.0351C35.8438 14.9848 35.7514 14.9593 35.6577 14.9614C35.6292 14.9612 35.6008 14.9647 35.5731 14.9717C35.5498 14.9774 35.5277 14.9875 35.5078 15.0014C35.4908 15.0131 35.4764 15.0286 35.4655 15.0467C35.4558 15.0648 35.4507 15.0853 35.451 15.1062C35.4503 15.1295 35.4553 15.1527 35.4655 15.1734C35.4764 15.1926 35.4913 15.209 35.509 15.2212C35.5307 15.237 35.5543 15.2496 35.5791 15.2587L35.6722 15.2962C35.7135 15.3116 35.7539 15.3297 35.7931 15.3505C35.8268 15.3669 35.8585 15.3878 35.8874 15.4125C35.9121 15.4344 35.9326 15.4612 35.9478 15.4914C35.9618 15.5252 35.9688 15.5618 35.9684 15.5987C35.9685 15.6443 35.9568 15.6891 35.9345 15.728C35.9107 15.7659 35.8794 15.7977 35.8427 15.8211C35.8011 15.8465 35.7563 15.8653 35.7097 15.8767C35.6581 15.8887 35.6054 15.8948 35.5525 15.8948C35.4575 15.8984 35.363 15.8794 35.2757 15.8392Z" fill="#FBFFFC"/>
<path d="M38.0476 15.8288C37.9595 15.8789 37.8608 15.9038 37.7611 15.9012C37.6948 15.9042 37.6286 15.893 37.5663 15.8684C37.504 15.8438 37.447 15.8061 37.3985 15.7577C37.3526 15.7095 37.3167 15.6516 37.2929 15.5877C37.2692 15.5238 37.2582 15.4554 37.2606 15.3867C37.2575 15.3114 37.269 15.2363 37.2947 15.1662C37.3203 15.0961 37.3593 15.0324 37.4093 14.9794C37.4627 14.9268 37.5254 14.886 37.5937 14.8596C37.662 14.8332 37.7345 14.8216 37.8071 14.8256C37.89 14.8242 37.9724 14.8413 38.0488 14.876V15.0441C37.9744 14.9922 37.8875 14.9643 37.7986 14.9639C37.7496 14.9621 37.7008 14.9712 37.6552 14.9906C37.6097 15.0099 37.5683 15.0391 37.5338 15.0764C37.499 15.1159 37.472 15.1624 37.4544 15.2133C37.4367 15.2641 37.4288 15.3183 37.4311 15.3724C37.4284 15.4246 37.4356 15.4768 37.4522 15.5258C37.4688 15.5749 37.4945 15.6199 37.5278 15.6581C37.5622 15.6936 37.603 15.7212 37.6476 15.7392C37.6923 15.7572 37.74 15.7653 37.7877 15.7629C37.8806 15.7622 37.9711 15.7305 38.0464 15.6724L38.0476 15.8288Z" fill="#FBFFFC"/>
<path d="M39.1525 15.8766H38.9845V15.7138C38.9522 15.7742 38.9047 15.8237 38.8475 15.8568C38.7902 15.89 38.7255 15.9053 38.6605 15.9012C38.4099 15.9012 38.2845 15.7551 38.2845 15.4629V14.8489H38.4526V15.4371C38.4526 15.6543 38.5372 15.7629 38.7064 15.7629C38.7443 15.7642 38.7819 15.7569 38.8169 15.7415C38.8519 15.7261 38.8835 15.703 38.9095 15.6737C38.9365 15.6424 38.9574 15.6058 38.9711 15.5658C38.9848 15.5259 38.991 15.4835 38.9893 15.441V14.8489H39.1573L39.1525 15.8766Z" fill="#FBFFFC"/>
<path d="M40.041 15.0156C40.0022 14.9915 39.9576 14.9802 39.9129 14.9833C39.8777 14.9832 39.843 14.992 39.8117 15.0091C39.7804 15.0262 39.7533 15.051 39.7327 15.0816C39.6808 15.1608 39.6553 15.2564 39.6602 15.353V15.8702H39.4922V14.8359H39.6602V15.0479C39.6808 14.9813 39.719 14.9224 39.7702 14.8786C39.817 14.839 39.875 14.8176 39.9346 14.8178C39.969 14.8166 40.0033 14.8214 40.0362 14.832L40.041 15.0156Z" fill="#FBFFFC"/>
<path d="M40.3094 14.589C40.2954 14.5895 40.2815 14.587 40.2684 14.5816C40.2554 14.5763 40.2434 14.5683 40.2332 14.558C40.2227 14.5488 40.2143 14.5371 40.2087 14.5239C40.203 14.5107 40.2003 14.4963 40.2006 14.4817C40.2004 14.4672 40.2033 14.4529 40.2089 14.4397C40.2146 14.4265 40.2229 14.4148 40.2332 14.4055C40.2434 14.3952 40.2554 14.3872 40.2684 14.3818C40.2815 14.3765 40.2954 14.374 40.3094 14.3744C40.3383 14.3736 40.3665 14.3847 40.388 14.4055C40.3982 14.4149 40.4064 14.4266 40.412 14.4398C40.4177 14.453 40.4206 14.4673 40.4206 14.4817C40.4206 14.4962 40.4177 14.5105 40.412 14.5237C40.4064 14.5368 40.3982 14.5485 40.388 14.558C40.3665 14.5788 40.3383 14.5899 40.3094 14.589ZM40.3916 15.8818H40.2236V14.8476H40.3916V15.8818Z" fill="#FBFFFC"/>
<path d="M41.2221 15.8663C41.1729 15.8903 41.119 15.9014 41.0649 15.8986C41.0268 15.905 40.9878 15.9016 40.9512 15.8886C40.9146 15.8757 40.8814 15.8535 40.8545 15.824C40.8275 15.7945 40.8075 15.7586 40.7962 15.7192C40.7848 15.6797 40.7825 15.638 40.7893 15.5974V14.9962H40.6092V14.8553H40.7893V14.6045L40.9573 14.5515V14.8553H41.2221V14.9962H40.9573V15.5754C40.9529 15.6276 40.9658 15.6797 40.9936 15.7228C41.0095 15.7391 41.0286 15.7515 41.0495 15.7591C41.0704 15.7667 41.0926 15.7693 41.1145 15.7667C41.1531 15.7677 41.1911 15.756 41.2233 15.7331L41.2221 15.8663Z" fill="#FBFFFC"/>
<path d="M42.2811 14.8489L41.7975 16.0408C41.7105 16.2541 41.5896 16.3601 41.4348 16.3601C41.3978 16.3612 41.3608 16.3569 41.3248 16.3472V16.1998C41.3569 16.211 41.3903 16.2171 41.424 16.2179C41.4663 16.2176 41.5075 16.203 41.5418 16.1764C41.576 16.1497 41.6016 16.1123 41.615 16.0693L41.6996 15.8741L41.2886 14.8489H41.4759L41.76 15.6401C41.76 15.6504 41.7673 15.6763 41.7818 15.7176H41.7878C41.7878 15.7021 41.7987 15.6763 41.8084 15.6414L42.107 14.8489H42.2811Z" fill="#FBFFFC"/>
<path d="M43.7909 15.8767H43.6229V15.7164C43.5893 15.775 43.5416 15.8231 43.4849 15.8556C43.4282 15.8881 43.3644 15.9038 43.3001 15.9012C43.213 15.9061 43.1272 15.8772 43.0584 15.8198C43.0294 15.7933 43.0063 15.7601 42.9911 15.7227C42.9758 15.6853 42.9686 15.6447 42.9701 15.6039C42.9701 15.4113 43.0849 15.3001 43.317 15.2691L43.6326 15.2251C43.6326 15.0506 43.56 14.9666 43.415 14.9666C43.2904 14.9662 43.1696 15.0119 43.0729 15.0958V14.9265C43.1817 14.8614 43.3048 14.8283 43.4295 14.8308C43.6769 14.8308 43.8006 14.9601 43.8006 15.2187L43.7909 15.8767ZM43.6229 15.3596L43.369 15.3932C43.3071 15.3989 43.247 15.4182 43.1925 15.4501C43.1716 15.4665 43.1551 15.4885 43.1447 15.514C43.1343 15.5394 43.1304 15.5673 43.1333 15.5949C43.132 15.6195 43.1363 15.6441 43.1457 15.6666C43.1552 15.6891 43.1696 15.7088 43.1877 15.7241C43.2299 15.7575 43.2815 15.7744 43.334 15.772C43.3721 15.7731 43.4101 15.766 43.4456 15.7511C43.4811 15.7363 43.5134 15.7139 43.5407 15.6853C43.5677 15.6572 43.589 15.6234 43.6031 15.586C43.6173 15.5486 43.624 15.5085 43.6229 15.4682V15.3596Z" fill="#FBFFFC"/>
<path d="M44.0448 15.8392V15.6634C44.1336 15.7288 44.2391 15.7635 44.347 15.7629C44.4945 15.7629 44.5694 15.7138 44.5694 15.6181C44.5694 15.5933 44.5626 15.5691 44.5501 15.5483C44.536 15.528 44.5184 15.5109 44.4981 15.4979C44.4748 15.4812 44.4496 15.4677 44.4231 15.4578L44.3289 15.4216C44.2876 15.4056 44.2472 15.3871 44.208 15.366C44.1759 15.3499 44.1462 15.329 44.1197 15.304C44.0972 15.2818 44.0791 15.255 44.0665 15.2251C44.0537 15.1924 44.0475 15.1571 44.0484 15.1217C44.0475 15.076 44.0593 15.031 44.0822 14.9924C44.1059 14.9544 44.1368 14.9223 44.1729 14.898C44.2129 14.872 44.2566 14.8533 44.3023 14.8424C44.3509 14.8295 44.4008 14.823 44.4509 14.823C44.5335 14.822 44.6154 14.8374 44.6927 14.8683V15.0351C44.6117 14.9848 44.5192 14.9593 44.4256 14.9614C44.3971 14.9613 44.3687 14.9648 44.3409 14.9717C44.3177 14.9774 44.2956 14.9875 44.2757 15.0015C44.2587 15.0131 44.2443 15.0286 44.2334 15.0467C44.2236 15.0648 44.2186 15.0853 44.2188 15.1062C44.2182 15.1295 44.2232 15.1527 44.2334 15.1734C44.2443 15.1927 44.2592 15.209 44.2769 15.2212C44.2986 15.237 44.3221 15.2497 44.347 15.2587L44.4401 15.2962C44.4814 15.3116 44.5218 15.3297 44.561 15.3505C44.595 15.3663 44.6267 15.3872 44.6552 15.4126C44.6803 15.4341 44.7009 15.4609 44.7157 15.4914C44.7296 15.5252 44.7366 15.5618 44.7362 15.5987C44.7369 15.6444 44.7251 15.6893 44.7024 15.728C44.6789 15.7662 44.6475 15.7981 44.6105 15.8211C44.5691 15.8468 44.5243 15.8655 44.4775 15.8767C44.4259 15.8888 44.3732 15.8949 44.3204 15.8948C44.2258 15.8986 44.1316 15.8796 44.0448 15.8392Z" fill="#FBFFFC"/>
<path d="M44.9369 15.8392V15.6634C45.0258 15.7286 45.1312 15.7633 45.2391 15.7629C45.3866 15.7629 45.4615 15.7138 45.4615 15.6181C45.4615 15.5933 45.4548 15.5691 45.4422 15.5483C45.4281 15.528 45.4105 15.5109 45.3902 15.4979C45.3669 15.4812 45.3417 15.4677 45.3153 15.4578L45.221 15.4216C45.1797 15.4056 45.1393 15.3871 45.1001 15.366C45.0681 15.3499 45.0383 15.329 45.0118 15.304C44.9893 15.2818 44.9712 15.255 44.9586 15.2251C44.9458 15.1924 44.9397 15.1571 44.9405 15.1217C44.9396 15.076 44.9514 15.031 44.9744 14.9924C44.998 14.9544 45.0289 14.9223 45.065 14.898C45.105 14.872 45.1487 14.8533 45.1944 14.8424C45.243 14.8295 45.2929 14.823 45.3431 14.823C45.4256 14.822 45.5076 14.8374 45.5848 14.8683V15.0351C45.5042 14.985 45.4122 14.9595 45.3189 14.9614C45.29 14.9612 45.2612 14.9647 45.2331 14.9717C45.2098 14.9774 45.1877 14.9875 45.1678 15.0015C45.1508 15.0131 45.1364 15.0286 45.1255 15.0467C45.1157 15.0648 45.1107 15.0853 45.111 15.1062C45.1103 15.1295 45.1153 15.1527 45.1255 15.1734C45.1367 15.1924 45.1516 15.2087 45.169 15.2212C45.1907 15.237 45.2143 15.2497 45.2391 15.2587L45.3322 15.2962C45.3735 15.3116 45.4139 15.3297 45.4531 15.3505C45.4871 15.3663 45.5188 15.3872 45.5474 15.4126C45.5724 15.4341 45.593 15.4609 45.6078 15.4914C45.6217 15.5252 45.6288 15.5618 45.6284 15.5987C45.629 15.6444 45.6172 15.6893 45.5945 15.728C45.5711 15.7662 45.5396 15.7981 45.5026 15.8211C45.4612 15.8468 45.4164 15.8655 45.3697 15.8767C45.318 15.8888 45.2654 15.8949 45.2125 15.8948C45.1179 15.8986 45.0237 15.8796 44.9369 15.8392Z" fill="#FBFFFC"/>
<path d="M46.3319 15.9013C46.264 15.9047 46.1961 15.8937 46.1322 15.8688C46.0683 15.844 46.0096 15.8058 45.9596 15.7565C45.9127 15.7069 45.8761 15.6473 45.8522 15.5816C45.8282 15.5159 45.8174 15.4456 45.8206 15.3751C45.8167 15.3005 45.8276 15.2259 45.8526 15.1562C45.8776 15.0864 45.9161 15.0231 45.9656 14.9705C46.0729 14.8692 46.2132 14.8171 46.3561 14.8257C46.4233 14.8187 46.4911 14.8276 46.5547 14.852C46.6182 14.8763 46.6759 14.9154 46.7237 14.9665C46.7714 15.0175 46.808 15.0793 46.8308 15.1473C46.8535 15.2152 46.8619 15.2877 46.8554 15.3596C46.858 15.4313 46.8467 15.5028 46.8222 15.5696C46.7976 15.6363 46.7603 15.6969 46.7127 15.7474C46.6621 15.799 46.6023 15.8391 46.5369 15.8656C46.4715 15.892 46.4018 15.9041 46.3319 15.9013ZM46.344 14.964C46.2966 14.9615 46.2493 14.9697 46.2051 14.9882C46.1609 15.0067 46.1209 15.035 46.0877 15.0713C46.0212 15.1535 45.987 15.2601 45.9922 15.3687C45.9896 15.4212 45.9968 15.4737 46.0134 15.5232C46.03 15.5727 46.0557 15.6182 46.0889 15.6569C46.1223 15.6926 46.1621 15.7204 46.206 15.7386C46.25 15.7569 46.2969 15.7652 46.344 15.763C46.3904 15.7659 46.4368 15.7582 46.4802 15.7404C46.5236 15.7226 46.5629 15.695 46.5955 15.6595C46.6519 15.5728 46.6821 15.4698 46.6821 15.3641C46.6821 15.2585 46.6519 15.1554 46.5955 15.0687C46.5631 15.0328 46.5239 15.0049 46.4805 14.9868C46.4371 14.9687 46.3905 14.9609 46.344 14.964Z" fill="#FBFFFC"/>
<path d="M47.8406 15.8288C47.752 15.8789 47.653 15.9038 47.5529 15.9012C47.4865 15.9043 47.4203 15.8933 47.358 15.8686C47.2957 15.844 47.2387 15.8063 47.1902 15.7577C47.1443 15.7095 47.1084 15.6516 47.0847 15.5877C47.0609 15.5238 47.05 15.4554 47.0524 15.3867C47.0492 15.3114 47.0608 15.2363 47.0864 15.1662C47.112 15.0961 47.1511 15.0324 47.2011 14.9794C47.2545 14.9268 47.3171 14.886 47.3854 14.8596C47.4537 14.8332 47.5263 14.8216 47.5988 14.8256C47.6818 14.8245 47.7641 14.8416 47.8406 14.876V15.0441C47.7661 14.9922 47.6792 14.9643 47.5903 14.9639C47.5413 14.9621 47.4925 14.9712 47.447 14.9906C47.4014 15.0099 47.3601 15.0391 47.3256 15.0764C47.2908 15.1159 47.2638 15.1624 47.2461 15.2133C47.2284 15.2641 47.2205 15.3183 47.2228 15.3724C47.2202 15.4246 47.2273 15.4768 47.2439 15.5258C47.2606 15.5749 47.2863 15.6199 47.3196 15.6581C47.3538 15.6937 47.3946 15.7214 47.4393 15.7394C47.484 15.7574 47.5317 15.7654 47.5795 15.7629C47.6724 15.762 47.7627 15.7304 47.8382 15.6724L47.8406 15.8288Z" fill="#FBFFFC"/>
<path d="M48.1815 14.589C48.1529 14.5895 48.1253 14.5785 48.1041 14.558C48.094 14.5485 48.0859 14.5368 48.0805 14.5236C48.075 14.5104 48.0724 14.4961 48.0727 14.4817C48.0726 14.4673 48.0754 14.4531 48.0808 14.44C48.0862 14.4268 48.0942 14.4151 48.1041 14.4054C48.1253 14.385 48.1529 14.3739 48.1815 14.3744C48.2103 14.3744 48.2382 14.3854 48.2601 14.4054C48.2703 14.4149 48.2785 14.4266 48.2841 14.4398C48.2898 14.4529 48.2927 14.4672 48.2927 14.4817C48.2927 14.4962 48.2898 14.5105 48.2841 14.5236C48.2785 14.5368 48.2703 14.5485 48.2601 14.558C48.2382 14.578 48.2103 14.589 48.1815 14.589ZM48.2637 15.8818H48.0957V14.8476H48.2637V15.8818Z" fill="#FBFFFC"/>
<path d="M49.3565 15.8767H49.1884V15.7164C49.1547 15.7752 49.1069 15.8234 49.05 15.8559C48.993 15.8884 48.929 15.904 48.8645 15.9012C48.7773 15.9061 48.6915 15.8771 48.6227 15.8198C48.5936 15.7933 48.5704 15.7602 48.5549 15.7228C48.5394 15.6854 48.532 15.6448 48.5332 15.6039C48.5332 15.4113 48.6541 15.3001 48.8802 15.2691L49.1957 15.2251C49.1957 15.0506 49.1232 14.9665 48.9793 14.9665C48.8544 14.9661 48.7331 15.0118 48.636 15.0958V14.9265C48.7467 14.8605 48.8719 14.8274 48.9987 14.8308C49.2453 14.8308 49.3686 14.9601 49.3686 15.2186L49.3565 15.8767ZM49.1884 15.3596L48.9346 15.3932C48.8727 15.3991 48.8127 15.4184 48.7581 15.45C48.7372 15.4665 48.7207 15.4885 48.7103 15.5139C48.6999 15.5394 48.696 15.5673 48.6989 15.5948C48.6976 15.6195 48.7018 15.6441 48.7113 15.6666C48.7208 15.6891 48.7352 15.7088 48.7533 15.7241C48.7956 15.7573 48.8471 15.7741 48.8995 15.7719C48.9378 15.773 48.976 15.766 49.0117 15.7511C49.0474 15.7362 49.0799 15.7139 49.1075 15.6853C49.1343 15.6571 49.1553 15.6232 49.1693 15.5858C49.1832 15.5484 49.1897 15.5084 49.1884 15.4681V15.3596Z" fill="#FBFFFC"/>
<path d="M50.1676 15.8663C50.1184 15.8901 50.0645 15.9012 50.0105 15.8986C49.9724 15.905 49.9334 15.9016 49.8968 15.8886C49.8602 15.8757 49.827 15.8535 49.8 15.824C49.773 15.7945 49.753 15.7586 49.7417 15.7192C49.7304 15.6797 49.728 15.638 49.7349 15.5974V14.9962H49.5535V14.8553H49.7349V14.6045L49.9029 14.5515V14.8553H50.1676V14.9962H49.9029V15.5754C49.8985 15.6276 49.9113 15.6797 49.9392 15.7228C49.955 15.7392 49.9741 15.7516 49.995 15.7592C50.0159 15.7668 50.0381 15.7694 50.06 15.7667C50.099 15.7676 50.1374 15.7559 50.17 15.7331L50.1676 15.8663Z" fill="#FBFFFC"/>
<path d="M50.4735 14.589C50.4449 14.5898 50.4171 14.5787 50.3961 14.558C50.3856 14.5488 50.3772 14.5371 50.3715 14.5239C50.3659 14.5107 50.3631 14.4963 50.3635 14.4817C50.3633 14.4672 50.3661 14.4529 50.3718 14.4397C50.3774 14.4265 50.3857 14.4148 50.3961 14.4055C50.4171 14.3848 50.4449 14.3736 50.4735 14.3744C50.5023 14.3744 50.5301 14.3854 50.552 14.4055C50.5619 14.4151 50.5698 14.4269 50.5752 14.4401C50.5806 14.4532 50.5834 14.4674 50.5834 14.4817C50.5834 14.4961 50.5806 14.5103 50.5752 14.5234C50.5698 14.5365 50.5619 14.5483 50.552 14.558C50.5301 14.578 50.5023 14.589 50.4735 14.589ZM50.5545 15.8818H50.3864V14.8476H50.5545V15.8818Z" fill="#FBFFFC"/>
<path d="M51.3354 15.9013C51.2675 15.9047 51.1996 15.8937 51.1357 15.8688C51.0717 15.844 51.0131 15.8058 50.9631 15.7565C50.9162 15.7069 50.8796 15.6473 50.8556 15.5816C50.8317 15.5159 50.8209 15.4456 50.8241 15.3751C50.8201 15.3005 50.831 15.2259 50.856 15.1562C50.881 15.0864 50.9196 15.0231 50.9691 14.9705C51.0764 14.8692 51.2167 14.8171 51.3596 14.8257C51.4268 14.8187 51.4946 14.8276 51.5581 14.852C51.6217 14.8763 51.6794 14.9154 51.7272 14.9665C51.7749 15.0175 51.8115 15.0793 51.8342 15.1473C51.857 15.2152 51.8654 15.2877 51.8588 15.3596C51.8615 15.4313 51.8502 15.5028 51.8257 15.5696C51.8011 15.6363 51.7638 15.6969 51.7162 15.7474C51.6655 15.799 51.6058 15.8391 51.5404 15.8656C51.4749 15.892 51.4053 15.9041 51.3354 15.9013ZM51.3475 14.964C51.3001 14.9616 51.2528 14.9699 51.2086 14.9884C51.1645 15.0069 51.1245 15.0352 51.0912 15.0713C51.025 15.1537 50.9912 15.2602 50.9969 15.3687C50.9941 15.4211 51.0011 15.4736 51.0175 15.5231C51.0339 15.5726 51.0593 15.6181 51.0924 15.6569C51.1257 15.6926 51.1656 15.7204 51.2095 15.7386C51.2534 15.7569 51.3004 15.7652 51.3475 15.763C51.3939 15.7659 51.4403 15.7582 51.4837 15.7404C51.5271 15.7226 51.5664 15.695 51.5989 15.6595C51.6553 15.5728 51.6856 15.4698 51.6856 15.3641C51.6856 15.2585 51.6553 15.1554 51.5989 15.0687C51.5666 15.0328 51.5274 15.0049 51.484 14.9868C51.4406 14.9687 51.394 14.9609 51.3475 14.964Z" fill="#FBFFFC"/>
<path d="M53 15.8767H52.8271V15.2911C52.8271 15.0726 52.7461 14.964 52.5854 14.964C52.5463 14.9629 52.5075 14.9706 52.4715 14.9866C52.4354 15.0027 52.403 15.0267 52.3762 15.0571C52.3488 15.0884 52.3274 15.1252 52.3133 15.1653C52.2992 15.2055 52.2926 15.2482 52.294 15.2911V15.8767H52.1248V14.8425H52.294V15.0131C52.3305 14.951 52.3817 14.9004 52.4424 14.8663C52.5032 14.8322 52.5713 14.816 52.6398 14.8192C52.6884 14.8159 52.7372 14.8239 52.7827 14.8426C52.8282 14.8614 52.8693 14.8904 52.9033 14.9278C52.969 15.0169 53.0013 15.1288 52.994 15.242L53 15.8767Z" fill="#FBFFFC"/>
<path d="M19.8422 15.6685C19.8113 15.6342 19.7871 15.5937 19.7709 15.5493C19.7547 15.5049 19.7469 15.4575 19.7479 15.4099H20.3681V15.2962H19.7479C19.7449 15.2475 19.7518 15.1988 19.7682 15.1533C19.7845 15.1078 19.8098 15.0666 19.8425 15.0326C19.8751 14.9985 19.9142 14.9725 19.9572 14.9561C20.0001 14.9398 20.0458 14.9337 20.0912 14.9381C20.2088 14.938 20.3232 14.9783 20.4176 15.0531V14.898C20.3081 14.8286 20.1822 14.7945 20.055 14.7997C19.9907 14.7959 19.9264 14.8063 19.866 14.8303C19.8057 14.8544 19.7507 14.8915 19.7044 14.9394C19.6164 15.046 19.5709 15.1852 19.5775 15.3272C19.5791 15.3401 19.5791 15.3531 19.5775 15.366C19.5702 15.5081 19.6159 15.6475 19.7044 15.7538C19.7504 15.8021 19.8054 15.8396 19.8658 15.8639C19.9261 15.8881 19.9906 15.8986 20.055 15.8947C20.1822 15.8999 20.3081 15.8658 20.4176 15.7965V15.6426C20.3232 15.7174 20.2088 15.7578 20.0912 15.7577C20.0005 15.7643 19.9109 15.7322 19.8422 15.6685Z" fill="white"/>
<path d="M36.4144 15.6686C36.3529 15.5987 36.3191 15.506 36.3202 15.41H36.9403V15.2962H36.3202C36.3191 15.2003 36.3529 15.1076 36.4144 15.0377C36.448 15.005 36.4873 14.9799 36.5301 14.9636C36.5728 14.9474 36.6182 14.9405 36.6635 14.9433C36.781 14.9432 36.8954 14.9836 36.9899 15.0584V14.9032C36.8804 14.8338 36.7544 14.7996 36.6272 14.805C36.5629 14.8011 36.4986 14.8115 36.4383 14.8356C36.3779 14.8596 36.3229 14.8967 36.2766 14.9446C36.1887 15.0512 36.1431 15.1904 36.1497 15.3324C36.1497 15.3389 36.1497 15.3454 36.1497 15.3518C36.1497 15.3583 36.1497 15.3648 36.1497 15.3712C36.1425 15.5133 36.1881 15.6528 36.2766 15.7591C36.3227 15.8078 36.3778 15.8456 36.4384 15.8701C36.499 15.8946 36.5637 15.9052 36.6284 15.9013C36.7556 15.9066 36.8816 15.8725 36.9911 15.803V15.6427C36.8966 15.7175 36.7822 15.7579 36.6647 15.7578C36.5735 15.7646 36.4836 15.7325 36.4144 15.6686Z" fill="#FBFFFC"/>
<path d="M16.2724 2.5481L16.6484 3.78529H17.8645L16.8805 4.54933L17.2565 5.78781L16.2724 5.02249L15.2884 5.78781L15.6644 4.54933L14.6792 3.78529H15.8965L16.2724 2.5481Z" fill="#F2DA20"/>
<path d="M12.7667 3.60815L13.1427 4.84535H14.3588L13.3748 5.61068L13.7507 6.84787L12.7667 6.08384L11.7827 6.84787L12.1587 5.61068L11.1735 4.84535H12.3908L12.7667 3.60815Z" fill="#F2DA20"/>
<path d="M9.26106 5.28882L9.63702 6.52601H10.8531L9.86912 7.29134L10.2451 8.52854L9.26106 7.7645L8.27705 8.52854L8.65301 7.29134L7.66779 6.52601H8.88511L9.26106 5.28882Z" fill="#F2DA20"/>
<path d="M7.20601 8.65002L7.58196 9.88722H8.79808L7.81406 10.6525L8.19002 11.8897L7.20601 11.1257L6.222 11.8897L6.59795 10.6525L5.61273 9.88722H6.83005L7.20601 8.65002Z" fill="#F2DA20"/>
<path d="M9.14018 12.0112L9.51614 13.2484H10.7322L9.74824 14.0138L10.1242 15.2509L9.14018 14.4869L8.15617 15.2509L8.53213 14.0138L7.54691 13.2484H8.76423L9.14018 12.0112Z" fill="#F2DA20"/>
<path d="M12.1623 13.8212L12.5383 15.0584H13.7544L12.7704 15.8237L13.1463 17.0609L12.1623 16.2968L11.1783 17.0609L11.5543 15.8237L10.569 15.0584H11.7864L12.1623 13.8212Z" fill="#F2DA20"/>
<path d="M15.668 14.7261L16.044 15.9633H17.2601L16.2761 16.7286L16.652 17.9658L15.668 17.2018L14.684 17.9658L15.06 16.7286L14.0747 15.9633H15.2921L15.668 14.7261Z" fill="#F2DA20"/>
</g>
<defs>
<clipPath id="clip0_708_5865">
<rect width="53" height="21" fill="white"/>
</clipPath>
</defs>
</svg>
