<svg width="22" height="27" viewBox="0 0 22 27" fill="none" xmlns="http://www.w3.org/2000/svg">
<g clip-path="url(#clip0_708_5938)">
<path fill-rule="evenodd" clip-rule="evenodd" d="M10.1945 0H20.4516C20.6508 0.00435674 20.8472 0.0521663 21.0297 0.140688C21.2121 0.22921 21.377 0.356704 21.5149 0.515861C21.6527 0.675018 21.7608 0.86271 21.8329 1.06818C21.9051 1.27364 21.9399 1.49285 21.9353 1.71322V19.6305C21.9383 19.847 21.902 20.0619 21.8285 20.2626C21.755 20.4633 21.6458 20.6456 21.5074 20.7987C21.369 20.9518 21.2043 21.0726 21.0229 21.1539C20.8415 21.2352 20.6472 21.2754 20.4516 21.2721H10.1945V0Z" fill="black"/>
<path fill-rule="evenodd" clip-rule="evenodd" d="M10.1945 18.1298V15.9894C10.5571 16.0488 10.9237 16.0728 11.2901 16.0609C13.4834 16.0609 15.42 15.419 16.8391 14.3477L14.0636 14.4908C13.9337 14.5035 13.8028 14.4845 13.6802 14.4351C13.5576 14.3858 13.4463 14.3072 13.3542 14.205C13.262 14.1029 13.1913 13.9796 13.1469 13.8439C13.1025 13.7081 13.0856 13.5633 13.0973 13.4195C13.0973 12.8492 13.4834 12.4913 14.0009 12.4913H20.6456C20.8117 12.4918 20.9752 12.5376 21.1215 12.6245C21.2678 12.7115 21.3925 12.8371 21.4845 12.9901C21.5835 13.1296 21.6474 13.2955 21.6697 13.471C21.6921 13.6466 21.6721 13.8256 21.6119 13.9898L20.5809 18.2729C20.4893 18.5929 20.2944 18.8644 20.0334 19.0356C19.7724 19.2067 19.4636 19.2657 19.1659 19.2011L18.8424 19.1295C18.679 19.091 18.5252 19.0137 18.3915 18.9028C18.2578 18.792 18.1475 18.6503 18.0682 18.4876C17.9681 18.3349 17.9039 18.157 17.8813 17.97C17.8587 17.783 17.8785 17.5927 17.9388 17.4163L18.3957 16.1325C16.5763 17.3447 14.0636 18.1298 11.3548 18.1298H10.1945ZM10.1945 4.93393V3.43542H11.3548C13.7422 3.43542 16.0043 4.00575 17.7427 5.07708C17.8576 5.12927 17.9558 5.21827 18.0246 5.33266C18.0934 5.44704 18.1297 5.58158 18.1289 5.71897C18.1629 5.84667 18.1619 5.9827 18.1259 6.10975C18.0899 6.2368 18.0206 6.34913 17.9267 6.43244L17.7973 6.50401C17.6751 6.64607 17.5127 6.73769 17.337 6.76372C17.1612 6.78975 16.9828 6.74862 16.831 6.64715C15.1836 5.4529 13.2514 4.82989 11.282 4.85789C10.904 4.85342 10.5806 4.92051 10.1945 4.92051V4.93393Z" fill="white"/>
<path fill-rule="evenodd" clip-rule="evenodd" d="M1.54847 0H10.1944V21.2721H1.54847C1.34936 21.2769 1.15135 21.2382 0.96576 21.1582C0.78017 21.0783 0.610633 20.9587 0.466835 20.8062C0.323037 20.6538 0.207796 20.4715 0.127695 20.2697C0.0475936 20.068 0.00420244 19.8508 0 19.6305L0 1.71322C0.00574883 1.26083 0.170736 0.828748 0.459894 0.508825C0.749052 0.188902 1.13958 0.00636048 1.54847 0Z" fill="white"/>
<path fill-rule="evenodd" clip-rule="evenodd" d="M10.1944 3.42639V4.92043C6.45061 5.27828 3.54773 7.6334 3.54773 10.4873C3.54773 13.2718 6.45061 15.6314 10.1944 15.9848V18.1252C5.0962 17.698 1.16034 14.5467 1.16034 10.7736C1.16034 7.00045 5.0962 3.85358 10.1944 3.42639Z" fill="black"/>
<path fill-rule="evenodd" clip-rule="evenodd" d="M3.54773 24.9826H1.48378V25.5529H2.96756C2.87586 25.8108 2.71945 26.0342 2.51677 26.197C2.40827 26.2907 2.28364 26.3588 2.15051 26.3972C2.01738 26.4357 1.87855 26.4437 1.74253 26.4207C0.515482 26.2798 0.258752 24.4234 1.28972 23.7815C1.48148 23.6715 1.69632 23.6201 1.91204 23.6327C2.12776 23.6453 2.33653 23.7214 2.51677 23.8531C2.96756 24.1371 2.38739 24.1371 3.35569 24.1371C3.29198 23.9314 3.19023 23.7426 3.05693 23.5828C2.92363 23.423 2.7617 23.2957 2.58146 23.209C2.11849 23.0671 1.62937 23.0671 1.16641 23.209C0.785288 23.4158 0.480833 23.7625 0.304985 24.1899C0.129137 24.6174 0.0927916 25.0991 0.20215 25.5529C0.309278 26.0127 0.565819 26.4126 0.922721 26.6763C1.27962 26.94 1.71184 27.0488 2.13673 26.9821C2.42775 26.9189 2.69921 26.774 2.92505 26.5613C3.1509 26.3487 3.32355 26.0754 3.42644 25.7676C3.48305 25.6245 3.61242 25.1973 3.54773 24.9826Z" fill="white"/>
<path fill-rule="evenodd" clip-rule="evenodd" d="M18.1288 24.911V23.9828C18.517 23.9828 18.9031 23.9828 18.9031 24.4122C18.9031 24.911 18.517 24.911 18.1288 24.911ZM17.2899 26.9105H18.1288V25.696C18.1935 25.7676 18.709 26.7673 18.7737 26.9105H19.8107C19.746 26.8389 19.1012 25.8391 18.9718 25.6244C19.1402 25.5705 19.2947 25.4731 19.4226 25.3404C19.5384 25.222 19.6271 25.0748 19.6814 24.911C19.8835 24.1975 19.6167 23.1977 18.6484 23.1977C18.1992 23.1364 17.7464 23.1125 17.294 23.1262L17.2899 26.9105Z" fill="white"/>
<path fill-rule="evenodd" clip-rule="evenodd" d="M14.0635 25.4836C12.9032 25.4836 13.2893 25.412 13.0326 25.7676C12.9148 25.8927 12.7683 25.9796 12.609 26.0191C12.4497 26.0585 12.2837 26.0489 12.129 25.9913C11.29 25.705 11.29 24.2781 12.1937 24.0633C12.3438 24.0215 12.5014 24.026 12.6494 24.0765C12.7973 24.127 12.9299 24.2215 13.0326 24.3496C13.2893 24.6359 12.9032 24.5733 14.0635 24.5733C14.0466 24.3325 13.9561 24.1053 13.8068 23.9291C13.4834 23.3588 12.9032 23.0725 12.1896 23.1441C11.7683 23.1828 11.3754 23.3949 11.0887 23.7387C10.8019 24.0824 10.6422 24.5327 10.6411 25.0005C10.629 25.4744 10.7734 25.937 11.0473 26.3017C11.3211 26.6665 11.7056 26.9083 12.129 26.9821C12.4534 27.0312 12.7837 26.9767 13.081 26.8249C13.3783 26.6732 13.6301 26.4305 13.8068 26.1255C13.8715 25.9823 14.0635 25.696 14.0635 25.4836Z" fill="white"/>
<path fill-rule="evenodd" clip-rule="evenodd" d="M6.83875 26.9105H7.28954V23.7077C7.58828 24.5 7.84677 25.3102 8.06377 26.1344C8.15927 26.4021 8.26723 26.6641 8.38722 26.9195H8.70863C8.83801 26.5616 9.09676 25.705 9.22614 25.2778C9.34587 25.0227 9.45316 24.7606 9.54756 24.4928L9.80631 23.7077L9.74162 26.9195H10.2571V23.1262H9.48287C9.4202 23.4841 8.9027 24.9155 8.77332 25.3404C8.71605 25.5896 8.62975 25.8294 8.51659 26.0539L7.54829 23.1978L6.83875 23.1262V26.9105Z" fill="white"/>
<path fill-rule="evenodd" clip-rule="evenodd" d="M15.5474 24.4123C15.5474 24.4838 15.8708 25.5529 15.8708 25.5529H15.226L15.5474 24.4123ZM13.9302 26.9105H14.7671L14.9692 26.3402H16.0669L16.2691 26.9105H17.1706C17.1706 26.8389 16.5905 25.1973 16.5258 25.0542C16.3964 24.6985 16.3236 24.4123 16.2044 24.126C16.1397 23.9023 15.9456 23.2694 15.8809 23.1262H15.226L14.5811 25.0497C14.3207 25.6495 14.105 26.2718 13.9362 26.9105H13.9302Z" fill="white"/>
<path fill-rule="evenodd" clip-rule="evenodd" d="M21.9353 24.5554L20.967 24.6269V23.9828H21.9353V23.1978H20.1281V26.9105H21.9353V26.0539H20.967V25.412H21.9353V24.5554Z" fill="white"/>
<path fill-rule="evenodd" clip-rule="evenodd" d="M5.03151 23.9113C5.03151 23.9828 5.48432 25.1973 5.48432 25.2689H4.51603C4.66015 24.8041 4.83236 24.3505 5.03151 23.9113ZM3.41431 26.9105H3.93181L4.31792 25.8392H5.67435C5.73701 25.9823 5.8017 26.197 5.86639 26.3402C5.89396 26.5448 5.96307 26.7397 6.06854 26.9105H6.58402C6.58402 26.7674 6.00385 25.2689 5.93916 25.0542C5.80979 24.8305 5.2943 23.2649 5.22962 23.1262H4.77478L3.41431 26.9105Z" fill="white"/>
<path fill-rule="evenodd" clip-rule="evenodd" d="M21.9353 24.5553V25.412H20.967V26.0539H21.9353V26.9105H20.1281V23.1977H21.9353V23.9828C22 23.9828 22 23.9828 22 23.7591C22.0105 23.5419 21.9886 23.3243 21.9353 23.115H20.1281C20.1281 23.1866 20.0634 26.7561 20.1281 26.8993H21.9353L22 26.0427H20.967V25.4008H21.9353C22 25.3292 22 25.1145 22 24.9714C22 24.911 22 24.6269 21.9353 24.5553Z" fill="white"/>
</g>
<defs>
<clipPath id="clip0_708_5938">
<rect width="22" height="27" fill="white"/>
</clipPath>
</defs>
</svg>
