<svg width="30" height="30" viewBox="0 0 30 30" fill="none" xmlns="http://www.w3.org/2000/svg">
<g clip-path="url(#clip0_708_5817)">
<path fill-rule="evenodd" clip-rule="evenodd" d="M15 0C23.3 0 30 6.7 30 15C30 23.3 23.3 30 15 30C6.7 30 0 23.3 0 15C0 6.7 6.7 0 15 0ZM15 1.4C22.5 1.4 28.6 7.5 28.6 15C28.6 22.5 22.5 28.6 15 28.6C7.5 28.6 1.4 22.5 1.4 15C1.4 7.5 7.5 1.4 15 1.4ZM15 2.8C21.75 2.8 27.2 8.25 27.2 15C27.2 21.75 21.75 27.2 15 27.2C8.25 27.2 2.8 21.75 2.8 15C2.8 8.25 8.25 2.8 15 2.8ZM9.25 19.8H7.45V13C6.8 13.65 6.05 14.1 5.15 14.4V12.75C5.65 12.6 6.15 12.3 6.7 11.9C7.25 11.45 7.6 10.95 7.8 10.4H9.25V19.8ZM13.5 14.75C13.05 14.55 12.7 14.25 12.5 13.95C12.25 13.6 12.15 13.2 12.15 12.8C12.15 12.1 12.4 11.55 12.9 11.05C13.4 10.6 14.05 10.4 14.95 10.4C15.85 10.4 16.55 10.6 17.05 11.05C17.55 11.55 17.75 12.1 17.75 12.8C17.75 13.25 17.65 13.6 17.45 13.95C17.2 14.3 16.9 14.55 16.5 14.75C17 14.95 17.4 15.25 17.65 15.65C17.95 16.05 18.05 16.5 18.05 17.05C18.05 17.9 17.8 18.6 17.25 19.15C16.7 19.7 15.95 19.95 15.05 19.95C14.2 19.95 13.5 19.75 12.95 19.3C12.25 18.75 11.95 18.05 11.95 17.1C11.95 16.6 12.05 16.15 12.3 15.7C12.55 15.3 12.95 14.95 13.5 14.75ZM13.85 12.95C13.85 13.3 13.95 13.55 14.15 13.75C14.35 13.95 14.65 14.05 14.95 14.05C15.3 14.05 15.6 13.95 15.8 13.75C16 13.55 16.1 13.3 16.1 12.95C16.1 12.6 16 12.3 15.8 12.1C15.6 11.9 15.3 11.8 15 11.8C14.65 11.8 14.35 11.9 14.15 12.1C13.95 12.3 13.85 12.6 13.85 12.95ZM13.7 16.95C13.7 17.45 13.8 17.85 14.05 18.1C14.35 18.4 14.65 18.55 15 18.55C15.4 18.55 15.7 18.4 15.95 18.1C16.15 17.85 16.3 17.45 16.3 16.95C16.3 16.5 16.15 16.15 15.95 15.9C15.7 15.65 15.35 15.5 15 15.5C14.55 15.5 14.25 15.65 14 15.95C13.8 16.25 13.7 16.6 13.7 16.95ZM21.65 18.45V16H19.2V14.35H21.65V11.9H23.3V14.35H25.75V16H23.3V18.45H21.65Z" fill="#B8B8B8"/>
</g>
<defs>
<clipPath id="clip0_708_5817">
<rect width="30" height="30" fill="white"/>
</clipPath>
</defs>
</svg>
