<svg width="75" height="64" viewBox="0 0 75 64" fill="none" xmlns="http://www.w3.org/2000/svg">
<g clip-path="url(#clip0_708_6163)">
<path d="M1.11027 21.6982C1.11027 21.6982 0.555151 26.9014 2.49806 28.9064C3.69729 30.1391 5.11269 31.1204 6.66736 31.797C6.80283 29.9444 6.61475 28.0815 6.11224 26.2987C5.27956 23.4326 1.11027 21.6982 1.11027 21.6982Z" fill="#CBB179"/>
<path d="M7.49999 27.7748C7.20756 25.8964 7.49932 23.9699 8.33266 22.2764C9.72046 19.6749 12.7795 17.6453 12.7795 17.6453C12.7795 17.6453 13.3346 22.2764 11.3917 24.878C9.44881 27.4796 7.49999 27.7748 7.49999 27.7748Z" fill="#CBB179"/>
<path d="M9.16533 37.0309C9.16533 37.0309 7.77754 33.8451 8.88778 30.9544C9.77927 28.9184 11.002 27.0583 12.5019 25.4561C12.5019 25.4561 13.6122 29.5091 13.0571 32.3997C12.5019 35.2904 9.16533 37.0309 9.16533 37.0309Z" fill="#CBB179"/>
<path d="M8.61024 38.4763C6.99135 38.5878 5.37054 38.2903 3.88583 37.6091C1.11024 36.4528 0 31.2435 0 31.2435C0 31.2435 3.33071 31.2435 5.83465 32.9779C8.33858 34.7123 8.61024 38.4763 8.61024 38.4763Z" fill="#CBB179"/>
<path d="M14.1733 33.8267C14.1733 33.8267 10.5591 37.0125 10.5591 40.7703C10.5591 44.5282 11.9528 45.4015 11.9528 45.4015C11.9528 45.4015 14.1733 44.5528 15 41.0779C15.8268 37.6029 14.1733 33.8267 14.1733 33.8267Z" fill="#CBB179"/>
<path d="M10.5532 44.8418C10.5532 44.8418 10.2756 41.6559 7.77758 40.2106C5.27955 38.7653 1.38782 39.0544 1.38782 39.0544C1.38782 39.0544 3.60829 44.5527 6.9449 44.8418C10.2815 45.1309 10.5532 44.8418 10.5532 44.8418Z" fill="#CBB179"/>
<path d="M5.27954 46.5761C5.27954 46.5761 9.16537 45.4199 11.6693 46.5761C13.2407 47.3748 14.5107 48.6975 15.2776 50.334C15.2776 50.334 13.0571 51.7854 10.8307 51.2073C8.60434 50.6292 5.27954 46.5761 5.27954 46.5761Z" fill="#CBB179"/>
<path d="M17.498 39.0544C17.498 39.0544 15.5551 42.2341 15.2776 45.1309C15 48.0277 17.2205 50.6232 17.2205 50.6232C18.2781 49.4298 18.9584 47.927 19.1693 46.3179C19.4468 43.6672 17.498 39.0544 17.498 39.0544Z" fill="#CBB179"/>
<path d="M21.3897 54.6761C21.3897 54.6761 20.2795 52.3636 16.9429 52.0745C14.8452 51.9308 12.7458 52.3279 10.8307 53.2308C10.8307 53.2308 14.4449 56.9886 17.2205 56.6995C18.8007 56.5772 20.2835 55.8576 21.3897 54.6761Z" fill="#CBB179"/>
<path d="M24.1653 54.9652C23.2847 54.6232 22.5098 54.0387 21.9232 53.274C21.3366 52.5093 20.9604 51.5931 20.8346 50.6231C20.5118 48.3228 20.5118 45.9858 20.8346 43.6855C20.8346 43.6855 24.4429 46.5762 24.9685 49.7559C25.3425 51.5356 25.0556 53.3969 24.1653 54.9652Z" fill="#CBB179"/>
<path d="M27.756 57.8558C27.1882 57.1546 26.4509 56.6241 25.6203 56.3192C24.7897 56.0142 23.896 55.946 23.0315 56.1214C19.9784 56.6996 17.1969 59.5963 17.1969 59.5963C17.1969 59.5963 20.8111 61.6198 23.5867 60.7526C25.228 60.2533 26.683 59.2424 27.756 57.8558Z" fill="#CBB179"/>
<path d="M35.002 60.1746C34.3207 59.4754 33.4597 58.9964 32.5229 58.7956C31.586 58.5948 30.6134 58.6807 29.7224 59.0429C27.7276 59.7379 25.983 61.0485 24.7205 62.8007C25.6652 63.4098 26.7238 63.8022 27.8256 63.9517C28.9274 64.1013 30.0471 64.0045 31.1102 63.6679C34.7244 62.4871 35.002 60.1746 35.002 60.1746Z" fill="#CBB179"/>
<path d="M33.8917 57.5667C33.8917 57.5667 31.1102 57.8558 29.4449 56.1214C27.7795 54.387 26.1083 49.7559 26.1083 49.7559C26.1083 49.7559 28.8898 50.6231 30.8327 51.4964C32.7756 52.3697 33.3307 54.6761 33.6083 55.5433C33.7913 56.2011 33.8867 56.8819 33.8917 57.5667Z" fill="#CBB179"/>
<path d="M28.6122 31.8216C27.2244 32.9779 25.2756 34.7123 25.2756 34.7123C24.7101 34.7256 24.1493 34.823 23.6102 35.0013C22.7775 35.2965 22.5 36.4528 23.0551 36.4528H23.622C23.622 36.4528 21.1122 38.1872 21.1122 38.7469C21.1122 39.3065 21.9449 39.325 22.7775 38.4578C23.371 37.8186 23.9272 37.1429 24.4429 36.4343H26.6693C26.6693 36.4343 25.5531 38.7469 26.6693 38.7469C27.0514 38.7012 27.4207 38.5751 27.7547 38.3764C28.0886 38.1776 28.3804 37.9103 28.6122 37.5906V37.3015C28.6122 37.3015 26.9468 38.4578 27.5019 37.5906C27.8087 37.1317 28.0907 36.6554 28.3464 36.1637H29.1791L30.0118 34.7123H28.8897C28.8897 34.7123 29.7224 32.3997 30.2775 31.8216C30.8327 31.2435 30 30.6654 28.6122 31.8216ZM28.0571 34.4416C27.5019 35.0198 26.3917 34.7307 26.3917 34.7307C26.3917 34.7307 26.1082 34.4416 27.2244 33.5745C28.3405 32.7073 28.8897 32.1291 28.8897 32.4182C28.8075 33.1628 28.5181 33.8661 28.0571 34.4416Z" fill="#CBB179"/>
<path d="M54.4429 37.0309C54.1654 37.32 52.5 38.4762 53.0551 37.609C53.6103 36.7418 53.6103 36.7418 53.6103 36.1637V35.5856C53.6103 35.5856 54.1654 33.845 53.3327 34.1341C52.5 34.4232 51.6673 36.1637 50.8347 36.4528C50.002 36.7418 50.002 37.609 49.4469 37.609C48.8918 37.609 48.3307 37.0309 49.4469 35.5856C50.563 34.1403 51.6673 32.3997 51.1122 32.1107C50.5571 31.8216 48.8917 34.7122 48.8917 34.7122C48.2302 34.5539 47.5357 34.6569 46.9429 35.0013C46.1103 35.6163 45.2776 37.609 44.1673 37.609C43.6122 37.609 43.3347 37.0309 44.1673 36.4528C45 35.8746 45.2776 34.7122 44.4449 34.7122C43.6122 34.7122 42.502 35.3273 43.0571 34.7122C43.6122 34.0972 43.0571 34.1341 42.2244 34.7122C41.3917 35.2904 42.2244 35.5856 41.6693 36.4528C41.1142 37.32 40.2756 38.1871 39.7205 37.8981C39.1654 37.609 39.9331 36.6988 40.2756 36.1637C40.8307 35.2965 40.8307 35.0013 40.5532 34.7122C40.2756 34.4232 39.0709 34.5708 37.7776 35.5856C36.6673 36.4528 36.3898 37.0309 35.8347 37.0309C35.2795 37.0309 35.2795 36.4528 35.8347 35.8746C36.3898 35.2965 35.8347 34.7122 35.2795 35.0013C34.7244 35.2904 34.7244 36.1637 34.1693 37.0309C33.6142 37.8981 32.4803 38.1871 33.0709 37.0309C33.6614 35.8746 34.187 35.5856 34.187 35.0013C34.187 34.417 33.5965 34.7122 33.0709 35.2965C32.5453 35.8808 31.4055 37.8981 30.8504 37.609C30.7746 37.5746 30.7065 37.5239 30.6507 37.4603C30.5948 37.3967 30.5524 37.3215 30.5263 37.2398C30.5001 37.158 30.4907 37.0714 30.4987 36.9856C30.5068 36.8999 30.532 36.8168 30.5729 36.7418C30.849 36.2696 31.2297 35.8732 31.6831 35.5856C32.5158 34.9705 32.2382 34.1341 31.4055 34.4232C30.5729 34.7122 29.1851 37.0309 29.4626 37.8981C29.7402 38.7653 30.2953 38.7653 30.8504 38.4762C31.4055 38.1871 32.2382 37.609 32.2382 37.609C32.2382 37.609 32.2205 38.7468 33.0709 38.7468C34.0748 38.7468 34.7421 37.5906 34.7421 37.5906C34.7421 37.5906 34.7421 37.8796 35.5748 37.8796C35.7255 37.8976 35.8781 37.8811 36.0219 37.8311C36.1657 37.7812 36.2974 37.6991 36.4075 37.5906C36.3667 37.6655 36.3414 37.7486 36.3334 37.8344C36.3254 37.9202 36.3347 38.0067 36.3609 38.0885C36.3871 38.1703 36.4295 38.2454 36.4853 38.309C36.5411 38.3726 36.6092 38.4233 36.6851 38.4578C37.2402 38.7468 38.9055 37.3015 38.9055 37.3015C38.9055 37.3015 38.0729 38.4578 39.1831 38.7468C40.2933 39.0359 42.2421 36.1452 42.7973 36.1452C43.3524 36.1452 43.3524 36.1452 42.7973 37.0124C42.2421 37.8796 42.5197 38.7468 43.6122 38.7468C44.7047 38.7468 45.5551 37.3015 45.5551 37.3015C45.5551 37.3015 45.2776 38.1687 45.8327 38.4578C46.3878 38.7468 47.7756 37.5906 47.7756 37.5906C47.7756 37.5906 47.498 38.4578 48.6083 38.4578C49.2151 38.4885 49.811 38.2824 50.2795 37.8796C50.2795 37.8796 50.5571 39.0359 52.2225 38.7468C53.8878 38.4578 54.7205 36.7418 54.4429 37.0309ZM38.3327 37.0309C35.8347 39.3434 36.9449 35.5856 39.4429 35.2965C40.2579 35.1981 39.3721 36.0714 38.3327 37.0309ZM47.7815 36.7418C46.1162 38.4762 45.8386 37.609 46.1162 37.0309C46.466 36.3388 47.0648 35.8191 47.7815 35.5856C48.7264 35.2535 48.6083 35.8746 47.7756 36.7418H47.7815ZM52.2284 37.32C51.6732 37.8981 50.8406 37.609 51.1181 37.0309C51.5048 36.4761 51.9732 35.9883 52.5059 35.5856C52.5059 35.5856 52.7776 36.7418 52.2225 37.32H52.2284Z" fill="#CBB179"/>
<path d="M6.38981 23.4327C5.72887 23.1505 5.13644 22.7188 4.65538 22.1689C4.17432 21.6189 3.81667 20.9645 3.60831 20.2529C3.05319 17.9343 4.16934 11.5687 4.16934 11.5687C5.10498 12.3439 5.88183 13.3067 6.45393 14.4001C7.02602 15.4935 7.38174 16.6952 7.50004 17.9343C7.7776 21.9873 6.38981 23.4327 6.38981 23.4327Z" fill="#CBB179"/>
<path d="M9.44887 17.6452C9.44887 17.6452 8.89375 14.1765 11.3977 11.864C12.966 10.4522 14.8947 9.54617 16.9489 9.25623C16.5203 11.2121 15.7668 13.075 14.7225 14.7607C13.0571 17.3562 9.44887 17.6452 9.44887 17.6452Z" fill="#CBB179"/>
<path d="M11.6693 9.54526C11.6693 9.54526 10.5532 7.52181 12.502 4.62502C14.4508 1.72823 18.3071 0 18.3071 0C18.3071 0 18.0296 5.2093 15.8091 7.52181C13.5886 9.83433 11.6693 9.54526 11.6693 9.54526Z" fill="#CBB179"/>
<path d="M8.33273 14.4655C8.33273 14.4655 9.99808 13.0202 10.5532 9.54525C11.1083 6.07033 8.61029 2.3125 8.61029 2.3125C8.61029 2.3125 6.11226 6.07648 6.38981 9.25619C6.54895 11.1496 7.22291 12.9566 8.33273 14.4655Z" fill="#CBB179"/>
<path d="M28.2343 22.7561V25.5791C28.2343 26.2249 28.2343 26.6677 28.2697 26.926C28.2665 27.0501 28.2995 27.1723 28.3642 27.2766C28.4783 27.3408 28.6066 27.3727 28.7363 27.3688H28.9902V27.6271C28.7067 27.6271 28.4469 27.6271 28.2166 27.6271H27.1182V27.3688H27.4016C27.5166 27.3819 27.6326 27.3561 27.7323 27.295C27.7993 27.2151 27.8351 27.112 27.8327 27.006C27.8327 26.7046 27.8741 26.2987 27.8741 25.7759V23.7463C27.8741 23.365 27.8741 22.9898 27.8741 22.6146C27.8786 22.5027 27.8584 22.3912 27.815 22.2887C27.7744 22.2271 27.7222 22.1747 27.6615 22.1349C27.5741 22.0811 27.4734 22.0554 27.3721 22.0611H27.13V21.809C27.4607 21.809 27.7205 21.809 27.8918 21.809C28.063 21.809 28.2816 21.809 28.4823 21.809C28.7363 22.1349 28.9843 22.4547 29.2087 22.7684C29.4331 23.0821 29.6753 23.3834 29.9233 23.7094L31.2993 25.4315C31.7835 26.0465 32.1319 26.4709 32.3445 26.7107V24.0907C32.3696 23.4914 32.3498 22.891 32.2855 22.2948C32.2501 22.1903 32.0965 22.1226 31.8367 22.098H31.5414V21.8459C31.9607 21.8459 32.2855 21.8459 32.5217 21.8459C32.7579 21.8459 33.0768 21.8459 33.4607 21.8459V22.098H33.1595C32.9174 22.098 32.7756 22.1841 32.7402 22.3563C32.7048 22.5285 32.7048 23.0636 32.7048 24.1399V25.985C32.7048 26.477 32.7048 27.0675 32.7697 27.7563C32.5604 27.7314 32.3531 27.6903 32.1497 27.6333C32.0856 27.6042 32.029 27.56 31.9843 27.5041C31.6949 27.172 31.3938 26.7969 31.069 26.3909L28.2343 22.7561Z" fill="#185472"/>
<path d="M38.6516 23.285V22.5592C38.4264 22.4021 38.1795 22.2818 37.9193 22.2025C37.6609 22.1208 37.3922 22.0794 37.1221 22.0795C36.8054 22.0622 36.4887 22.1134 36.1919 22.2298C35.8951 22.3463 35.6247 22.5254 35.3977 22.7561C35.1815 22.9958 35.0137 23.2783 34.9041 23.5867C34.7946 23.8952 34.7455 24.2234 34.7599 24.5519C34.7508 25.0406 34.8627 25.5236 35.0847 25.9542C35.3024 26.3647 35.6281 26.7019 36.0237 26.926C36.4056 27.1579 36.8394 27.2809 37.2815 27.2827C37.6297 27.2826 37.9767 27.2392 38.315 27.1535C38.5956 27.0808 38.8589 26.9489 39.0886 26.766L39.1713 26.846C39.1182 26.969 39.065 27.0982 39.0178 27.2273C38.723 27.3783 38.4144 27.4979 38.0965 27.584C37.7845 27.6559 37.4651 27.6869 37.1457 27.6763C36.5551 27.7006 35.9676 27.5761 35.4331 27.3134C34.9669 27.076 34.5755 26.7047 34.3052 26.2433C34.0424 25.7754 33.9077 25.2415 33.9154 24.6995C33.9057 24.1565 34.0428 23.6216 34.3111 23.1558C34.5817 22.7015 34.9708 22.3367 35.4331 22.1041C35.9885 21.84 36.5945 21.7117 37.2048 21.729C37.6414 21.741 38.0753 21.805 38.4981 21.9196C38.7402 21.9811 38.941 22.0242 39.0886 22.0549C38.9532 22.4496 38.8852 22.8659 38.8878 23.285H38.6516Z" fill="#185472"/>
<path d="M41.0493 22.2579C41.0493 22.6515 41.0198 23.0697 41.0198 23.4879V25.8312C40.9937 26.2897 41.0174 26.7498 41.0906 27.2027C41.1379 27.3011 41.2914 27.3503 41.5513 27.3503H41.8229V27.6086C41.3623 27.6086 40.9962 27.6086 40.7304 27.6086H39.4784V27.3503H39.8328C39.9426 27.3641 40.0539 27.3426 40.1517 27.2888C40.21 27.2166 40.2414 27.1249 40.2403 27.0305C40.2403 26.9013 40.2403 26.5077 40.2816 25.8435V23.6786V22.836C40.2974 22.613 40.2545 22.3897 40.1576 22.1902C40.0926 22.1103 39.9273 22.0672 39.6674 22.0672H39.4725V21.815C39.7973 21.815 40.2166 21.815 40.7186 21.815C41.0139 21.815 41.3387 21.815 41.6989 21.815H42.2422C42.7269 21.7732 43.2111 21.9009 43.6182 22.1779C43.7592 22.2924 43.8719 22.4403 43.9469 22.6094C44.0219 22.7784 44.057 22.9636 44.0493 23.1497C44.045 23.4465 43.9612 23.7362 43.8072 23.9861C43.6353 24.2646 43.3946 24.4898 43.1103 24.638C42.8141 24.802 42.4832 24.8866 42.1477 24.884C41.9491 24.8793 41.7513 24.8545 41.5572 24.8102L41.4804 24.5027C41.6727 24.5594 41.8712 24.5904 42.071 24.595C42.2288 24.6025 42.3865 24.5758 42.5339 24.5165C42.6813 24.4572 42.8153 24.3667 42.9273 24.2506C43.0375 24.1247 43.1225 23.9772 43.1773 23.8167C43.232 23.6561 43.2555 23.4858 43.2462 23.3157C43.255 23.1501 43.2289 22.9844 43.1697 22.8303C43.1105 22.6763 43.0197 22.5376 42.9036 22.4239C42.6164 22.1914 42.2568 22.0775 41.8938 22.1041C41.6064 22.1096 41.3215 22.1615 41.0493 22.2579Z" fill="#185472"/>
<path d="M49.7599 25.6897C49.7192 25.921 49.6994 26.1557 49.7008 26.3908C49.7022 26.6728 49.7219 26.9543 49.7599 27.2334C49.377 27.3839 48.9816 27.4972 48.5788 27.5717C48.1643 27.6555 47.7431 27.6988 47.3209 27.7009C46.7584 27.7142 46.2012 27.5855 45.6969 27.3257C45.2478 27.0918 44.8742 26.7262 44.6221 26.274C44.3644 25.8112 44.2336 25.2836 44.2441 24.7487C44.2365 24.1974 44.3755 23.6546 44.6457 23.1804C44.9248 22.732 45.3171 22.3724 45.7795 22.141C46.3509 21.8672 46.9758 21.7367 47.6044 21.7597C47.8829 21.76 48.1612 21.7806 48.437 21.8212C48.7721 21.883 49.1033 21.9651 49.4292 22.0672L49.7599 22.1594C49.6786 22.5585 49.6272 22.9636 49.6063 23.371H49.3583V23.1004C49.3773 22.9419 49.3569 22.781 49.2992 22.633C49.1114 22.4856 48.8992 22.3751 48.6732 22.307C48.2942 22.1676 47.894 22.1009 47.4921 22.1102C47.1701 22.0861 46.8468 22.1309 46.5421 22.242C46.2374 22.3531 45.9578 22.528 45.7205 22.756C45.4965 23.0015 45.3221 23.2913 45.2075 23.6082C45.0928 23.9251 45.0404 24.2627 45.0532 24.6011C45.0345 25.2695 45.2437 25.9232 45.6437 26.4462C45.8753 26.7401 46.1691 26.9742 46.5021 27.13C46.8351 27.2858 47.1982 27.3591 47.563 27.3441C48.0461 27.3402 48.5245 27.2443 48.9744 27.0612C48.9744 26.8337 48.9744 26.5877 48.9744 26.3293C48.9744 26.071 48.9744 25.8004 48.9744 25.7512C48.9744 25.702 48.9744 25.6651 48.9154 25.6528C48.7821 25.618 48.6453 25.5994 48.5079 25.5975L48.0414 25.5544V25.2961C48.6319 25.2961 49.0866 25.3391 49.376 25.3391C49.5933 25.3426 49.8105 25.3282 50.0256 25.2961V25.5052L49.7599 25.6897Z" fill="#185472"/>
<path d="M38.3327 6.07647C38.3327 6.07647 41.6693 6.36553 42.7795 8.96711C43.8898 11.5687 43.8898 14.4655 42.2244 16.4889C40.5591 18.5124 37.5 19.0905 37.5 19.0905C38.7542 19.3118 40.0381 19.2725 41.2776 18.9748C42.5172 18.6771 43.6879 18.127 44.7224 17.3561C48.0532 14.7545 48.2067 11.8208 47.7756 9.8343C47.5712 8.8582 47.1332 7.95174 46.5024 7.19908C45.8716 6.44642 45.0683 5.87197 44.1673 5.52909C43.2135 5.18187 42.1995 5.05108 41.1931 5.14549C40.1868 5.23989 39.2115 5.55732 38.3327 6.07647Z" fill="#185472"/>
<path d="M36.4017 13.3707C36.4017 13.3707 34.6714 10.3879 36.0415 7.92158C37.4115 5.45531 39.6615 3.75783 42.2127 3.97309C44.7639 4.18835 47.008 6.43321 47.008 6.43321C46.4433 5.24683 45.659 4.18837 44.7003 3.31866C43.7416 2.44895 42.6272 1.78513 41.4214 1.36537C37.4411 0.0738039 35.0789 1.66673 33.7796 3.19816C33.1349 3.94427 32.682 4.8482 32.4631 5.82573C32.2442 6.80326 32.2664 7.8226 32.5277 8.78878C32.8222 9.79613 33.3202 10.7262 33.9884 11.5165C34.6566 12.3068 35.4795 12.939 36.4017 13.3707Z" fill="#0F75B5"/>
<path d="M42.7737 11.9132C42.7737 11.9132 40.8367 14.7608 38.1142 14.4225C35.3918 14.0842 33.0119 12.6143 32.2087 10.1173C31.4056 7.62028 32.4686 4.58203 32.4686 4.58203C31.643 5.59577 31.0189 6.7702 30.6327 8.03715C30.2464 9.30409 30.1057 10.6383 30.2186 11.9624C30.6497 16.1999 32.9823 17.8359 34.8426 18.451C35.7562 18.7736 36.7335 18.8492 37.6828 18.6706C38.6321 18.492 39.5223 18.0651 40.2697 17.43C41.0407 16.7495 41.663 15.9052 42.0948 14.9537C42.5267 14.0022 42.7581 12.9655 42.7737 11.9132Z" fill="#09AAED"/>
<path d="M37.2225 60.7527C38.1422 60.7527 38.8878 59.9762 38.8878 59.0183C38.8878 58.0604 38.1422 57.2839 37.2225 57.2839C36.3027 57.2839 35.5571 58.0604 35.5571 59.0183C35.5571 59.9762 36.3027 60.7527 37.2225 60.7527Z" fill="#CBB179"/>
<path d="M73.8898 21.6982C73.8898 21.6982 74.4449 26.9014 72.502 28.931C71.3027 30.1637 69.8873 31.145 68.3327 31.8216C68.1972 29.969 68.3853 28.1061 68.8878 26.3233C69.7205 23.4326 73.8898 21.6982 73.8898 21.6982Z" fill="#CBB179"/>
<path d="M67.5 27.7748C67.7924 25.8964 67.5007 23.9699 66.6673 22.2764C65.2796 19.6749 62.2205 17.6453 62.2205 17.6453C62.2205 17.6453 61.6654 22.2764 63.6083 24.878C65.5512 27.4796 67.5 27.7748 67.5 27.7748Z" fill="#CBB179"/>
<path d="M65.8346 37.0309C65.8346 37.0309 67.2224 33.8451 66.1122 30.9544C65.2207 28.9184 63.9979 27.0583 62.498 25.4561C62.498 25.4561 61.4173 29.5214 61.9429 32.3997C62.4685 35.2781 65.8346 37.0309 65.8346 37.0309Z" fill="#CBB179"/>
<path d="M66.3898 38.4763C68.0087 38.5878 69.6295 38.2903 71.1142 37.6091C73.8898 36.4528 75 31.2435 75 31.2435C75 31.2435 71.6693 31.2435 69.1654 32.9779C66.6614 34.7123 66.3898 38.4763 66.3898 38.4763Z" fill="#CBB179"/>
<path d="M60.8268 33.8267C60.8268 33.8267 64.441 37.0125 64.441 40.7703C64.441 44.5282 63.0473 45.4015 63.0473 45.4015C63.0473 45.4015 60.8268 44.5343 59.9941 41.0594C59.1615 37.5845 60.8268 33.8267 60.8268 33.8267Z" fill="#CBB179"/>
<path d="M64.4469 44.8418C64.4469 44.8418 64.7245 41.6559 67.2225 40.2106C69.7205 38.7653 73.6123 39.0544 73.6123 39.0544C73.6123 39.0544 71.3918 44.5527 68.0552 44.8418C64.7186 45.1309 64.4469 44.8418 64.4469 44.8418Z" fill="#CBB179"/>
<path d="M69.7204 46.5761C69.7204 46.5761 65.8346 45.4199 63.3307 46.5761C61.7593 47.3748 60.4893 48.6975 59.7224 50.334C59.7224 50.334 61.9429 51.7854 64.1693 51.2073C66.3956 50.6292 69.7204 46.5761 69.7204 46.5761Z" fill="#CBB179"/>
<path d="M57.5019 39.0544C57.5019 39.0544 59.4448 42.2341 59.7224 45.1309C59.9999 48.0277 57.7795 50.6232 57.7795 50.6232C56.7218 49.4298 56.0415 47.927 55.8307 46.3179C55.5531 43.6672 57.5019 39.0544 57.5019 39.0544Z" fill="#CBB179"/>
<path d="M53.6102 54.6761C53.6102 54.6761 54.7205 52.3636 58.0571 52.0745C60.1548 51.9308 62.2541 52.3279 64.1693 53.2308C64.1693 53.2308 60.5551 56.9886 57.7795 56.6995C56.1993 56.5772 54.7165 55.8576 53.6102 54.6761Z" fill="#CBB179"/>
<path d="M50.8347 54.9652C51.7153 54.6232 52.4902 54.0387 53.0768 53.274C53.6634 52.5093 54.0396 51.5931 54.1654 50.6231C54.4882 48.3228 54.4882 45.9858 54.1654 43.6855C54.1654 43.6855 50.5571 46.5762 50.0315 49.7559C49.6575 51.5356 49.9445 53.3969 50.8347 54.9652Z" fill="#CBB179"/>
<path d="M47.2441 57.8558C47.8119 57.1546 48.5492 56.6241 49.3798 56.3192C50.2104 56.0142 51.1041 55.946 51.9686 56.1214C55.0217 56.6996 57.8032 59.5963 57.8032 59.5963C57.8032 59.5963 54.1654 61.6198 51.378 60.7526C49.7496 60.2465 48.3077 59.2362 47.2441 57.8558Z" fill="#CBB179"/>
<path d="M39.998 60.1746C40.6793 59.4754 41.5403 58.9964 42.4771 58.7956C43.414 58.5948 44.3866 58.6807 45.2776 59.0429C47.2724 59.7379 49.017 61.0485 50.2795 62.8007C49.3348 63.4098 48.2762 63.8022 47.1744 63.9517C46.0726 64.1013 44.9529 64.0045 43.8898 63.6679C40.2756 62.4871 39.998 60.1746 39.998 60.1746Z" fill="#CBB179"/>
<path d="M41.1083 57.5667C41.1083 57.5667 43.8898 57.8558 45.5551 56.1214C47.2205 54.387 48.8917 49.7559 48.8917 49.7559C48.8917 49.7559 46.1102 50.6231 44.1673 51.4964C42.2244 52.3697 41.6693 54.6761 41.3917 55.5433C41.2087 56.2011 41.1134 56.8819 41.1083 57.5667Z" fill="#CBB179"/>
<path d="M68.6102 23.4327C69.2712 23.1505 69.8636 22.7188 70.3447 22.1689C70.8257 21.6189 71.1834 20.9645 71.3917 20.2529C71.9469 17.9343 70.8012 11.5687 70.8012 11.5687C69.8655 12.3439 69.0887 13.3067 68.5166 14.4001C67.9445 15.4935 67.5888 16.6952 67.4705 17.9343C67.2224 21.9873 68.6102 23.4327 68.6102 23.4327Z" fill="#CBB179"/>
<path d="M65.5511 17.6452C65.5511 17.6452 66.1063 14.1765 63.6023 11.864C62.034 10.4522 60.1053 9.54617 58.0511 9.25623C58.4797 11.2121 59.2332 13.075 60.2775 14.7607C61.9429 17.3562 65.5511 17.6452 65.5511 17.6452Z" fill="#CBB179"/>
<path d="M63.3307 9.54526C63.3307 9.54526 64.4468 7.52181 62.498 4.62502C60.5492 1.72823 56.6929 0 56.6929 0C56.6929 0 56.9704 5.2093 59.1909 7.52181C61.4114 9.83433 63.3307 9.54526 63.3307 9.54526Z" fill="#CBB179"/>
<path d="M66.6673 14.4655C66.6673 14.4655 65.0019 13.0202 64.4468 9.54525C63.8917 6.07033 66.3897 2.3125 66.3897 2.3125C66.3897 2.3125 68.8878 6.07648 68.6102 9.25619C68.4511 11.1496 67.7771 12.9566 66.6673 14.4655Z" fill="#CBB179"/>
</g>
<defs>
<clipPath id="clip0_708_6163">
<rect width="75" height="64" fill="white"/>
</clipPath>
</defs>
</svg>
