<svg width="150" height="64" viewBox="0 0 150 64" fill="none" xmlns="http://www.w3.org/2000/svg">
<g clip-path="url(#clip0_708_6052)">
<path d="M26.1242 27.7853C25.9717 27.7863 25.822 27.7155 25.6916 27.5806C25.6291 27.5222 25.5774 27.4354 25.5422 27.3299C25.507 27.2243 25.4897 27.1042 25.4922 26.9829V14.2918C25.4875 14.1704 25.5039 14.0493 25.5393 13.9437C25.5748 13.8381 25.6278 13.7527 25.6916 13.6981C25.8251 13.5745 25.9746 13.5098 26.1266 13.5098C26.2785 13.5098 26.428 13.5745 26.5615 13.6981C26.624 13.7547 26.6757 13.8407 26.7102 13.946C26.7447 14.0513 26.7607 14.1714 26.7561 14.2918V26.9829C26.7586 27.1032 26.7418 27.2224 26.7075 27.3277C26.6732 27.433 26.6227 27.5204 26.5615 27.5806C26.4298 27.7171 26.2783 27.7881 26.1242 27.7853Z" fill="white"/>
<path d="M28.5679 27.7853C28.4147 27.7858 28.2643 27.7151 28.133 27.5806C28.0709 27.5215 28.0194 27.4346 27.9843 27.3292C27.9491 27.2238 27.9316 27.1041 27.9335 26.9829V14.3286C27.9301 14.2059 27.947 14.0841 27.9822 13.9769C28.0175 13.8698 28.0697 13.7817 28.133 13.7227C28.2652 13.5927 28.4153 13.5248 28.5679 13.5262C28.6977 13.5194 28.8271 13.5527 28.95 13.6245C29.0631 13.705 29.1611 13.8367 29.2335 14.0052C29.3466 14.2736 29.4395 14.5652 29.5098 14.8731L31.3889 22.1562V14.2959C31.3848 14.1747 31.4014 14.054 31.4369 13.9486C31.4723 13.8432 31.5249 13.7576 31.5883 13.7023C31.7222 13.5787 31.8721 13.5139 32.0245 13.5139C32.1768 13.5139 32.3267 13.5787 32.4606 13.7023C32.5231 13.7588 32.5748 13.8449 32.6093 13.9502C32.6438 14.0555 32.6598 14.1755 32.6552 14.2959V26.987C32.6577 27.1073 32.6409 27.2266 32.6066 27.3319C32.5723 27.4372 32.5218 27.5246 32.4606 27.5847C32.3282 27.7218 32.1758 27.7927 32.0208 27.7894C31.8767 27.7898 31.7347 27.7293 31.6076 27.6134C31.4681 27.4676 31.3608 27.2474 31.3024 26.987L29.1999 19.139V26.9829C29.2023 27.1032 29.1855 27.2225 29.1512 27.3278C29.1169 27.4331 29.0665 27.5205 29.0052 27.5806C28.8736 27.7172 28.722 27.7881 28.5679 27.7853Z" fill="white"/>
<path d="M34.4646 27.7853C34.3121 27.7864 34.1624 27.7155 34.0321 27.5806C33.9696 27.5223 33.9178 27.4355 33.8826 27.3299C33.8474 27.2244 33.8301 27.1042 33.8326 26.9829V14.3287C33.8286 14.2058 33.8452 14.0835 33.8805 13.9762C33.9159 13.8689 33.9684 13.781 34.0321 13.7228C34.1633 13.5923 34.3127 13.5244 34.4646 13.5263C34.5952 13.5194 34.7254 13.5527 34.849 13.6245C34.9615 13.7051 35.0587 13.8368 35.1302 14.0052C35.2442 14.2733 35.3379 14.565 35.4089 14.8731L37.2856 22.1562V14.2959C37.2814 14.1741 37.2982 14.053 37.3341 13.9474C37.37 13.8419 37.4233 13.7566 37.4874 13.7023C37.6209 13.5787 37.7704 13.5139 37.9223 13.5139C38.0743 13.5139 38.2238 13.5787 38.3573 13.7023C38.4198 13.7588 38.4714 13.8449 38.506 13.9502C38.5405 14.0555 38.5564 14.1755 38.5519 14.2959V26.987C38.5543 27.1074 38.5375 27.2266 38.5032 27.3319C38.469 27.4372 38.4185 27.5246 38.3573 27.5847C38.2256 27.7213 38.0741 27.7922 37.9199 27.7894C37.7757 27.7904 37.6336 27.7298 37.5066 27.6134C37.3659 27.469 37.2576 27.2485 37.1991 26.987L35.0965 19.139V26.9829C35.099 27.1033 35.0822 27.2225 35.0479 27.3278C35.0136 27.4331 34.9631 27.5205 34.9019 27.5806C34.7702 27.7172 34.6187 27.7881 34.4646 27.7853Z" fill="white"/>
<path d="M41.9375 27.8999C41.5367 27.9093 41.1401 27.7593 40.7793 27.4619C40.4248 27.1475 40.1385 26.6484 39.9623 26.0372C39.7419 25.221 39.639 24.327 39.662 23.4294V17.9845C39.6387 17.0882 39.7417 16.1954 39.9623 15.3808C40.1367 14.7702 40.4214 14.2709 40.7745 13.9561C41.1384 13.665 41.5355 13.5142 41.9375 13.5142C42.3395 13.5142 42.7366 13.665 43.1005 13.9561C43.4592 14.265 43.7486 14.7653 43.9247 15.3808C44.1443 16.196 44.2472 17.0883 44.2251 17.9845V23.4294C44.2469 24.3268 44.144 25.2204 43.9247 26.0372C43.7473 26.6511 43.4582 27.1508 43.1005 27.4619C42.738 27.7597 42.3399 27.9097 41.9375 27.8999ZM41.9375 25.6769C42.0787 25.6889 42.2197 25.6457 42.3497 25.5506C42.4796 25.4556 42.5951 25.3111 42.6872 25.1284C42.8929 24.6345 42.9899 24.033 42.9611 23.4294V17.9845C42.9895 17.381 42.8926 16.7797 42.6872 16.2855C42.5905 16.1133 42.4743 15.9762 42.3457 15.8825C42.2171 15.7888 42.0786 15.7405 41.9387 15.7405C41.7988 15.7405 41.6604 15.7888 41.5317 15.8825C41.4031 15.9762 41.2869 16.1133 41.1902 16.2855C40.9849 16.7797 40.8879 17.381 40.9163 17.9845V23.4294C40.8875 24.033 40.9845 24.6345 41.1902 25.1284C41.2821 25.3106 41.3972 25.4547 41.5267 25.5497C41.6562 25.6448 41.7967 25.6883 41.9375 25.6769Z" fill="white"/>
<path d="M47.5242 27.8999C47.3467 27.902 47.1717 27.8288 47.0148 27.6871C46.9396 27.6249 46.8736 27.5343 46.822 27.4223C46.7704 27.3102 46.7344 27.1795 46.7169 27.0402L44.8282 14.7585C44.8184 14.6955 44.812 14.6311 44.809 14.5661C44.808 14.362 44.8537 14.1653 44.9363 14.0175C45.0249 13.8566 45.1332 13.7308 45.2535 13.6491C45.3678 13.5619 45.4912 13.5146 45.6163 13.5099C45.7117 13.5062 45.806 13.5442 45.8903 13.6204C45.9319 13.6641 45.9669 13.724 45.9924 13.7951C46.0179 13.8663 46.0331 13.9467 46.0368 14.0298L47.5242 24.6084L49.0044 14.0298C49.0132 13.9463 49.032 13.8668 49.0597 13.7964C49.0875 13.7259 49.1234 13.666 49.1654 13.6204C49.2469 13.5436 49.339 13.5055 49.4321 13.5099C49.5566 13.5138 49.6793 13.5612 49.7926 13.6491C49.9104 13.734 50.0168 13.8595 50.1049 14.0175C50.1869 14.1657 50.2317 14.3625 50.2299 14.5661C50.232 14.5946 50.232 14.6235 50.2299 14.6521C50.2286 14.6875 50.2286 14.7231 50.2299 14.7585L48.3532 27.0402C48.335 27.1785 48.299 27.3081 48.2479 27.4199C48.1968 27.5318 48.1319 27.623 48.0577 27.6871C47.8933 27.8337 47.7097 27.9069 47.5242 27.8999Z" fill="white"/>
<path d="M50.8426 27.7853C50.719 27.7809 50.5971 27.7336 50.4846 27.6461C50.3661 27.5632 50.2595 27.4375 50.1722 27.2777C50.09 27.1294 50.0444 26.933 50.0449 26.7291C50.0449 26.6922 50.0449 26.6267 50.0449 26.5326L51.9239 14.2509C51.9447 14.1116 51.983 13.9817 52.0361 13.87C52.0892 13.7583 52.1558 13.6676 52.2315 13.604C52.39 13.4641 52.566 13.391 52.7445 13.391C52.9231 13.391 53.099 13.4641 53.2575 13.604C53.3316 13.6694 53.3967 13.7609 53.4485 13.8724C53.5003 13.9839 53.5376 14.1129 53.5579 14.2509L55.4369 26.5326C55.4478 26.5966 55.4543 26.6625 55.4562 26.7291C55.4554 26.9298 55.4088 27.122 55.3264 27.2654C55.2376 27.429 55.1295 27.5587 55.0092 27.6461C54.8959 27.734 54.7733 27.7814 54.6488 27.7853C54.5557 27.7897 54.4636 27.7515 54.3821 27.6748C54.3408 27.6295 54.3059 27.5693 54.2798 27.4986C54.2536 27.4279 54.2369 27.3483 54.2307 27.2654L53.8606 24.6658H51.6212L51.2631 27.2654C51.2566 27.3491 51.2391 27.4293 51.2121 27.5001C51.1851 27.5709 51.1492 27.6306 51.1069 27.6748C51.0255 27.7483 50.9347 27.7862 50.8426 27.7853ZM51.9023 22.6884H53.5963L52.7481 16.699L51.9023 22.6884Z" fill="white"/>
<path d="M57.501 27.7853C57.3461 27.7886 57.1937 27.7177 57.0613 27.5806C57.0001 27.5205 56.9496 27.4331 56.9153 27.3278C56.881 27.2225 56.8642 27.1032 56.8667 26.9829V15.7984H55.437C55.3734 15.7956 55.3118 15.7606 55.2601 15.6979C55.2083 15.6351 55.1686 15.5476 55.1462 15.4463C55.0722 15.1994 55.0351 14.9252 55.0381 14.648C55.0361 14.382 55.0698 14.1187 55.1366 13.8783C55.1578 13.7715 55.1983 13.6788 55.2522 13.6134C55.3061 13.548 55.3708 13.5132 55.437 13.514H59.5531C59.6204 13.5112 59.6865 13.545 59.7418 13.6105C59.7971 13.676 59.8387 13.7698 59.8607 13.8783C59.9228 14.1209 59.954 14.3833 59.952 14.648C59.9549 14.9238 59.9204 15.197 59.851 15.4463C59.8279 15.5492 59.7871 15.6378 59.7339 15.7006C59.6808 15.7634 59.6178 15.7974 59.5531 15.7984H58.133V26.9829C58.135 27.1041 58.1174 27.2238 58.0823 27.3292C58.0471 27.4346 57.9957 27.5215 57.9335 27.5806C57.8032 27.7155 57.6535 27.7864 57.501 27.7853Z" fill="white"/>
<path d="M61.2567 27.7853C61.1042 27.7863 60.9545 27.7155 60.8242 27.5806C60.7621 27.5215 60.7106 27.4346 60.6755 27.3292C60.6403 27.2238 60.6228 27.104 60.6248 26.9829V14.2918C60.6206 14.1705 60.6373 14.0499 60.6727 13.9445C60.7081 13.8391 60.7608 13.7535 60.8242 13.6981C60.9577 13.5745 61.1072 13.5098 61.2591 13.5098C61.411 13.5098 61.5606 13.5745 61.694 13.6981C61.7566 13.7547 61.8082 13.8407 61.8427 13.946C61.8773 14.0513 61.8932 14.1714 61.8887 14.2918V26.9829C61.8911 27.1032 61.8743 27.2224 61.84 27.3277C61.8057 27.433 61.7553 27.5204 61.694 27.5806C61.5625 27.7175 61.4109 27.7885 61.2567 27.7853Z" fill="white"/>
<path d="M65.2767 27.8999C64.8759 27.9097 64.4793 27.7597 64.1185 27.4619C63.7634 27.1489 63.4769 26.6493 63.3015 26.0372C63.0802 25.2214 62.9764 24.3273 62.9988 23.4294V17.9845C62.9761 17.0878 63.08 16.195 63.3015 15.3807C63.4745 14.7685 63.7595 14.2685 64.1137 13.9561C64.475 13.6518 64.8737 13.4988 65.2767 13.5098C65.6793 13.5003 66.0776 13.6518 66.4397 13.952C66.7971 14.2623 67.0856 14.7624 67.2615 15.3767C67.4831 16.1909 67.5869 17.0837 67.5642 17.9804V23.4253C67.5866 24.3232 67.4828 25.2173 67.2615 26.0331C67.0843 26.6458 66.7962 27.1453 66.4397 27.4578C66.0773 27.7561 65.6792 27.9075 65.2767 27.8999ZM65.2767 25.6769C65.4179 25.688 65.5587 25.6444 65.6885 25.5494C65.8184 25.4543 65.9339 25.3104 66.0264 25.1283C66.2302 24.6331 66.3262 24.0323 66.2979 23.4294V17.9845C66.3258 17.3816 66.2298 16.7811 66.0264 16.2855C65.9295 16.1131 65.8131 15.9759 65.6843 15.8822C65.5554 15.7885 65.4168 15.7402 65.2767 15.7402C65.1366 15.7402 64.998 15.7885 64.8691 15.8822C64.7403 15.9759 64.6239 16.1131 64.527 16.2855C64.3217 16.7796 64.2247 17.381 64.2531 17.9845V23.4294C64.2243 24.0329 64.3213 24.6345 64.527 25.1283C64.6192 25.3111 64.7346 25.4555 64.8645 25.5506C64.9945 25.6457 65.1355 25.6889 65.2767 25.6769Z" fill="white"/>
<path d="M69.2871 27.7853C69.1339 27.7858 68.9836 27.7151 68.8522 27.5806C68.7901 27.5215 68.7387 27.4346 68.7035 27.3292C68.6683 27.2238 68.6508 27.1041 68.6528 26.9829V14.3286C68.6493 14.2059 68.6662 14.0841 68.7015 13.9769C68.7367 13.8698 68.789 13.7817 68.8522 13.7227C68.9844 13.5927 69.1345 13.5248 69.2871 13.5262C69.4169 13.5194 69.5464 13.5527 69.6692 13.6245C69.7819 13.7061 69.8798 13.8375 69.9527 14.0052C70.0659 14.2736 70.1587 14.5652 70.2291 14.8731L72.1081 22.1562V14.2959C72.104 14.1747 72.1207 14.054 72.1561 13.9486C72.1915 13.8432 72.2441 13.7576 72.3076 13.7023C72.4415 13.5787 72.5914 13.5139 72.7437 13.5139C72.896 13.5139 73.0459 13.5787 73.1798 13.7023C73.2424 13.7588 73.294 13.8449 73.3285 13.9502C73.3631 14.0555 73.379 14.1755 73.3744 14.2959V26.987C73.3769 27.1073 73.3601 27.2266 73.3258 27.3319C73.2915 27.4372 73.241 27.5246 73.1798 27.5847C73.0472 27.7212 72.895 27.7921 72.7401 27.7894C72.5959 27.7898 72.4539 27.7293 72.3268 27.6134C72.1862 27.4697 72.0786 27.2488 72.0216 26.987L69.9239 19.1349V26.9829C69.9264 27.1032 69.9096 27.2225 69.8753 27.3278C69.841 27.4331 69.7905 27.5205 69.7293 27.5806C69.5962 27.7187 69.4429 27.7896 69.2871 27.7853Z" fill="white"/>
<path d="M27.3376 49.1842C26.9479 49.1906 26.5667 48.9903 26.2467 48.6111C25.8843 48.1384 25.6152 47.4886 25.4754 46.7484C25.2646 45.65 25.1687 44.4971 25.1919 43.3422V36.227C25.1671 35.074 25.2614 33.9224 25.4706 32.825C25.609 32.0857 25.8764 31.4359 26.2371 30.9623C26.5575 30.5784 26.9412 30.3778 27.3328 30.3891C27.7242 30.3814 28.1072 30.5817 28.4285 30.9623C28.7937 31.4321 29.0648 32.0827 29.2047 32.825C29.4154 33.9219 29.5114 35.0735 29.4882 36.227V43.3422C29.5114 44.4971 29.4154 45.65 29.2047 46.7484C29.0641 47.4901 28.7932 48.1404 28.4285 48.6111C28.108 48.9883 27.7272 49.1884 27.3376 49.1842ZM27.3376 46.2776C27.4827 46.2805 27.6254 46.2151 27.75 46.0887C27.8747 45.9623 27.9764 45.7797 28.0441 45.5611C28.2427 44.8728 28.3314 44.1075 28.3012 43.3422V36.227C28.3309 35.4618 28.2422 34.6967 28.0441 34.0081C27.9748 33.792 27.8726 33.6117 27.7483 33.4861C27.624 33.3604 27.4822 33.2941 27.3376 33.2941C27.1931 33.2941 27.0512 33.3604 26.9269 33.4861C26.8026 33.6117 26.7005 33.792 26.6312 34.0081C26.4331 34.6967 26.3444 35.4618 26.3741 36.227V43.3422C26.3438 44.1075 26.4325 44.8728 26.6312 45.5611C26.7001 45.7767 26.8024 45.9559 26.927 46.0794C27.0515 46.2028 27.1936 46.2657 27.3376 46.2612V46.2776Z" fill="white"/>
<path d="M31.1173 49.0327C30.9664 49.0303 30.8212 48.9343 30.7089 48.7625C30.6448 48.6658 30.5946 48.5455 30.5621 48.4106C30.5296 48.2758 30.5157 48.1301 30.5214 47.9846V31.433C30.516 31.2912 30.5277 31.149 30.5558 31.0152C30.5839 30.8814 30.6278 30.7589 30.6848 30.6551C30.7313 30.5728 30.7868 30.507 30.8483 30.4613C30.9097 30.4156 30.9758 30.3911 31.0429 30.389H34.2459C34.3781 30.389 34.4862 30.5405 34.5342 30.8476C34.5927 31.1599 34.6219 31.4859 34.6207 31.8137C34.6261 32.1701 34.5935 32.5252 34.5246 32.8618C34.4597 33.1524 34.366 33.2957 34.2459 33.2957H31.7181V38.3967H33.1213C33.2439 38.3967 33.3376 38.5277 33.4001 38.8061C33.4687 39.1031 33.5022 39.4203 33.4986 39.7395C33.4975 40.0299 33.4675 40.3179 33.4097 40.591C33.352 40.8735 33.2559 41.0004 33.1213 41.0004H31.7181V47.9887C31.7235 48.1334 31.7099 48.2782 31.6783 48.4128C31.6467 48.5474 31.5979 48.6682 31.5354 48.7666C31.4203 48.9406 31.2713 49.0355 31.1173 49.0327Z" fill="white"/>
<path d="M38.8763 49.0327C38.7243 49.0333 38.5777 48.9369 38.4654 48.7625C38.4022 48.6649 38.3527 48.5442 38.3207 48.4096C38.2887 48.2749 38.2749 48.1296 38.2803 47.9846V33.3694H36.9323C36.817 33.3694 36.7233 33.2179 36.656 32.9109C36.5856 32.5762 36.5514 32.2225 36.5551 31.8669C36.5538 31.5248 36.5854 31.1845 36.6488 30.8598C36.7089 30.5446 36.805 30.389 36.9323 30.389H40.813C40.9476 30.389 41.0533 30.5446 41.1013 30.8598C41.16 31.1861 41.1891 31.5257 41.1878 31.8669C41.1918 32.2218 41.1593 32.5751 41.0917 32.9109C41.0292 33.2179 40.9355 33.3694 40.813 33.3694H39.4722V47.9846C39.4779 48.1301 39.464 48.2758 39.4315 48.4106C39.399 48.5455 39.3488 48.6658 39.2848 48.7625C39.1724 48.9343 39.0272 49.0303 38.8763 49.0327Z" fill="white"/>
<path d="M42.4181 49.0328C42.2672 49.0304 42.1219 48.9344 42.0096 48.7626C41.9456 48.6659 41.8954 48.5456 41.8629 48.4107C41.8304 48.2759 41.8165 48.1302 41.8222 47.9847V31.4085C41.8146 31.2628 41.8276 31.116 41.8602 30.9806C41.8928 30.8453 41.9441 30.7252 42.0096 30.6307C42.1268 30.474 42.2715 30.3888 42.4205 30.3888C42.5695 30.3888 42.7142 30.474 42.8314 30.6307C42.8958 30.7265 42.9459 30.847 42.9776 30.9822C43.0094 31.1174 43.0218 31.2635 43.014 31.4085V38.0734H45.0781V31.4085C45.0705 31.2628 45.0835 31.116 45.1161 30.9806C45.1487 30.8453 45.2 30.7252 45.2655 30.6307C45.3827 30.474 45.5274 30.3888 45.6764 30.3888C45.8254 30.3888 45.9701 30.474 46.0873 30.6307C46.1517 30.7265 46.2018 30.847 46.2335 30.9822C46.2653 31.1174 46.2777 31.2635 46.2699 31.4085V47.9847C46.2759 48.1295 46.2625 48.2746 46.2309 48.4093C46.1993 48.544 46.1502 48.6648 46.0873 48.7626C45.9747 48.936 45.8282 49.0321 45.6764 49.0321C45.5246 49.0321 45.3782 48.936 45.2655 48.7626C45.2015 48.6659 45.1513 48.5456 45.1188 48.4107C45.0863 48.2759 45.0724 48.1302 45.0781 47.9847V40.6648H43.0116V47.9847C43.0176 48.1295 43.0042 48.2746 42.9726 48.4093C42.941 48.544 42.8919 48.6648 42.829 48.7626C42.7163 48.936 42.5699 49.0322 42.4181 49.0328Z" fill="white"/>
<path d="M47.9039 49.0327C47.8367 49.0303 47.7704 49.0052 47.7089 48.9588C47.6475 48.9125 47.592 48.8457 47.5459 48.7625C47.4878 48.6598 47.4431 48.5375 47.4145 48.4035C47.386 48.2695 47.3742 48.1268 47.3801 47.9846V31.433C47.3744 31.2908 47.3862 31.1482 47.4148 31.0142C47.4433 30.8803 47.488 30.758 47.5459 30.6551C47.5922 30.5725 47.6477 30.5064 47.7091 30.4607C47.7706 30.415 47.8368 30.3906 47.9039 30.389H51.1814C51.316 30.389 51.4217 30.5405 51.4698 30.8476C51.5282 31.1599 51.5574 31.4859 51.5563 31.8137C51.5616 32.1701 51.5291 32.5252 51.4601 32.8618C51.3953 33.1524 51.304 33.2957 51.1814 33.2957H48.5719V38.3967H49.98C50.1025 38.3967 50.1938 38.5277 50.2587 38.8061C50.3265 39.1034 50.3591 39.4206 50.3548 39.7395C50.3546 40.0297 50.3253 40.3176 50.2683 40.591C50.2106 40.8735 50.1145 41.0004 49.98 41.0004H48.5839V46.1301H51.1814C51.304 46.1301 51.3953 46.2734 51.4601 46.5395C51.5291 46.8761 51.5616 47.2312 51.5563 47.5875C51.5572 47.9166 51.528 48.244 51.4698 48.5578C51.4121 48.8607 51.316 49.0163 51.1814 49.0163L47.9039 49.0327Z" fill="white"/>
<path d="M56.1506 49.0328C55.9996 49.0304 55.8544 48.9344 55.7421 48.7626C55.678 48.6659 55.6278 48.5456 55.5954 48.4107C55.5629 48.2759 55.5489 48.1302 55.5547 47.9847V41.5573C55.5552 41.4449 55.5455 41.333 55.5258 41.2257L53.6275 32.0963C53.6166 32.0333 53.6086 31.969 53.6035 31.9039C53.6035 31.8466 53.6035 31.7974 53.6035 31.7647C53.5995 31.51 53.6442 31.26 53.7309 31.0524C53.813 30.8532 53.9196 30.687 54.0432 30.5652C54.1483 30.4556 54.2685 30.3949 54.3917 30.3891C54.4332 30.3839 54.4748 30.3961 54.513 30.4246C54.5511 30.4532 54.5845 30.4972 54.6103 30.5529C54.6723 30.7055 54.7193 30.8742 54.7497 31.0524L56.153 38.4214L57.5467 31.0524C57.5821 30.8754 57.6314 30.7074 57.6932 30.5529C57.7194 30.4969 57.7533 30.4527 57.7918 30.4241C57.8303 30.3956 57.8724 30.3836 57.9143 30.3891C58.036 30.3944 58.1547 30.4551 58.2579 30.5652C58.3806 30.6892 58.487 30.855 58.5703 31.0524C58.6595 31.2583 58.7059 31.5089 58.7024 31.7647C58.7024 31.7974 58.7024 31.8466 58.7024 31.9039C58.6995 31.9692 58.6922 32.0337 58.6808 32.0963L56.7801 41.2257C56.7625 41.3337 56.7536 41.4452 56.7537 41.5573V47.9847C56.7594 48.1302 56.7455 48.2759 56.713 48.4107C56.6805 48.5456 56.6303 48.6659 56.5663 48.7626C56.4519 48.9365 56.3039 49.0327 56.1506 49.0328Z" fill="white"/>
<path d="M59.8462 49.0327C59.7106 49.027 59.5818 48.9298 59.4882 48.7625C59.4305 48.6596 59.3861 48.5372 59.358 48.4032C59.3298 48.2691 59.3185 48.1266 59.3248 47.9846V31.433C59.3188 31.2911 59.3303 31.1487 59.3584 31.0147C59.3865 30.8808 59.4307 30.7583 59.4882 30.6551C59.5347 30.5728 59.5902 30.507 59.6517 30.4613C59.7131 30.4156 59.7792 30.3911 59.8462 30.389H63.1118C63.2463 30.389 63.352 30.5405 63.4001 30.8476C63.4605 31.1592 63.4905 31.4856 63.489 31.8137C63.4932 32.17 63.4607 32.5247 63.3929 32.8618C63.328 33.1524 63.2343 33.2957 63.1118 33.2957H60.5166V38.3967H61.9103C62.0337 38.3967 62.1274 38.5332 62.1915 38.8061C62.2581 39.104 62.2907 39.4208 62.2876 39.7395C62.2877 40.0301 62.2576 40.3184 62.1987 40.591C62.141 40.8735 62.0449 41.0004 61.9103 41.0004H60.5166V46.1301H63.1118C63.2351 46.1301 63.3288 46.2666 63.3929 46.5395C63.5163 47.1958 63.5163 47.9014 63.3929 48.5578C63.3352 48.8607 63.2391 49.0163 63.1045 49.0163L59.8462 49.0327Z" fill="white"/>
<path d="M64.4694 49.0327C64.3489 49.0269 64.2317 48.9645 64.1306 48.8526C64.0128 48.7312 63.9126 48.5661 63.8375 48.3695C63.7562 48.1566 63.7144 47.907 63.7173 47.6531C63.7173 47.604 63.7173 47.518 63.7173 47.3993L65.4882 31.3553C65.52 31.03 65.6231 30.7373 65.7766 30.5365C65.9145 30.3565 66.0834 30.259 66.2571 30.259C66.4309 30.259 66.5998 30.3565 66.7377 30.5365C66.8891 30.7393 66.9903 31.0315 67.0213 31.3553L68.7922 47.3993C68.8021 47.483 68.8085 47.5678 68.8114 47.6531C68.8118 47.9037 68.7683 48.1489 68.6865 48.3572C68.6105 48.5587 68.5086 48.7281 68.3885 48.8526C68.2874 48.9645 68.1702 49.0269 68.0497 49.0327C67.9625 49.0316 67.878 48.9812 67.8094 48.8894C67.7249 48.7529 67.6735 48.5674 67.6652 48.3695L67.3168 44.9757H65.2071L64.8779 48.3695C64.8709 48.5689 64.8183 48.7556 64.7313 48.8894C64.6562 48.9868 64.5637 49.0373 64.4694 49.0327ZM65.469 42.376H67.0669L66.2668 34.5444L65.469 42.376Z" fill="white"/>
<path d="M73.1294 49.1596C73.0831 49.1565 73.0378 49.1366 72.9963 49.1013C72.9549 49.066 72.9183 49.0161 72.8891 48.9549C72.8021 48.7875 72.7403 48.5866 72.7089 48.3695L71.4137 41.3485H70.6448V48.0052C70.6508 48.1499 70.6374 48.295 70.6058 48.4297C70.5742 48.5644 70.5251 48.6852 70.4622 48.783C70.3495 48.9565 70.2031 49.0525 70.0513 49.0525C69.8995 49.0525 69.753 48.9565 69.6404 48.783C69.5764 48.6864 69.5262 48.566 69.4937 48.4312C69.4612 48.2963 69.4473 48.1506 69.453 48.0052V31.4085C69.4499 31.1578 69.4864 30.9104 69.5587 30.692C69.5843 30.6028 69.6239 30.5272 69.6731 30.4738C69.7222 30.4203 69.7791 30.391 69.8374 30.3891H71.654C72.0388 30.3808 72.4178 30.5476 72.7521 30.8722C73.11 31.26 73.3847 31.8343 73.5355 32.5097C73.7555 33.5338 73.8551 34.6216 73.8286 35.7112C73.8375 36.5555 73.7851 37.3984 73.6724 38.2207C73.5947 38.8149 73.4503 39.3779 73.2471 39.8788C73.086 40.2679 72.8737 40.5875 72.6272 40.8122L73.8286 47.0103C73.8413 47.0797 73.8502 47.151 73.8551 47.2232C73.8579 47.2873 73.8579 47.3516 73.8551 47.4156C73.8541 47.6991 73.8163 47.9787 73.7445 48.2344C73.6798 48.4862 73.5848 48.7121 73.4658 48.8976C73.3756 49.0505 73.2563 49.1435 73.1294 49.1596ZM70.6448 38.7284H71.654C71.7947 38.7363 71.9343 38.6842 72.0601 38.577C72.186 38.4698 72.2942 38.3107 72.3749 38.1143C72.5527 37.7049 72.6416 37.0089 72.6416 36.0223C72.6416 35.0357 72.5527 34.2947 72.3749 33.8935C72.2925 33.7011 72.1838 33.546 72.0581 33.4418C71.9324 33.3376 71.7937 33.2875 71.654 33.2958H70.6448V38.7284Z" fill="white"/>
<path d="M83.5194 13.2847H85.6244L88.2843 37.1357L90.0745 13.2847H92.7729L89.5675 49.0408H87.0973L84.6296 24.068L82.0441 49.0408H79.5763L76.3708 13.2847H79.0693L80.857 37.1357L83.5194 13.2847Z" fill="#BE682F"/>
<path d="M97.0212 49.0408H94.3036V13.2847H97.0212V49.0408Z" fill="#BE682F"/>
<path d="M99.8927 13.2847H103.098L108.274 40.677L108.034 41.3197V13.2847H110.54V49.0163H107.327L102.171 22.0374L102.399 21.3988V49.0163H99.8927V13.2847Z" fill="#BE682F"/>
<path d="M113.616 13.2847H116.821L121.997 40.677L121.769 41.3197V13.2847H124.275V49.0163H121.05L115.893 22.0374L116.122 21.3988V49.0163H113.616V13.2847Z" fill="#BE682F"/>
<path d="M127.338 13.2847H129.96V49.0408H127.338V13.2847ZM128.285 13.2847H136.659V19.7776H128.285V13.2847ZM128.285 28.0227H135.607V34.532H128.285V28.0227ZM128.285 42.5315H136.659V49.0244H128.285V42.5315Z" fill="#BE682F"/>
<path d="M139.05 13.2601H141.674V49.0408H139.05V13.2601ZM140.088 28.1619H144.93C145.062 28.1619 145.193 28.1162 145.314 28.0275C145.436 27.9389 145.545 27.8091 145.636 27.6461C145.866 27.2293 146.031 26.7213 146.117 26.1682C146.235 25.4486 146.294 24.7046 146.292 23.9575C146.3 23.2092 146.243 22.4631 146.124 21.7427C146.04 21.19 145.874 20.6829 145.644 20.2689C145.551 20.1031 145.439 19.9714 145.315 19.882C145.191 19.7926 145.057 19.7473 144.923 19.7489H140.088V13.2601H145.134C145.882 13.2483 146.605 13.7226 147.155 14.5865C147.788 15.6163 148.252 16.9086 148.503 18.3365C148.841 20.1535 149.003 22.0519 148.984 23.9575C149.003 25.8617 148.841 27.7587 148.503 29.5743C148.253 31.0046 147.786 32.2977 147.15 33.3243C146.602 34.1882 145.881 34.6639 145.134 34.6548H140.088V28.1619ZM143.015 33.5454L145.819 32.4155L149.57 49.0408H146.4L143.015 33.5454Z" fill="#BE682F"/>
<path d="M12.7545 5.55133C13.6543 5.55133 14.3837 4.30863 14.3837 2.77567C14.3837 1.24271 13.6543 0 12.7545 0C11.8548 0 11.1254 1.24271 11.1254 2.77567C11.1254 4.30863 11.8548 5.55133 12.7545 5.55133Z" fill="white"/>
<path d="M18.1778 5.55133C19.0776 5.55133 19.807 4.30863 19.807 2.77567C19.807 1.24271 19.0776 0 18.1778 0C17.278 0 16.5486 1.24271 16.5486 2.77567C16.5486 4.30863 17.278 5.55133 18.1778 5.55133Z" fill="white"/>
<path d="M23.6035 5.55133C24.5033 5.55133 25.2327 4.30863 25.2327 2.77567C25.2327 1.24271 24.5033 0 23.6035 0C22.7038 0 21.9744 1.24271 21.9744 2.77567C21.9744 4.30863 22.7038 5.55133 23.6035 5.55133Z" fill="white"/>
<path d="M29.0269 5.55133C29.9266 5.55133 30.656 4.30863 30.656 2.77567C30.656 1.24271 29.9266 0 29.0269 0C28.1271 0 27.3977 1.24271 27.3977 2.77567C27.3977 4.30863 28.1271 5.55133 29.0269 5.55133Z" fill="white"/>
<path d="M1.90546 5.55133C2.80522 5.55133 3.53462 4.30863 3.53462 2.77567C3.53462 1.24271 2.80522 0 1.90546 0C1.0057 0 0.276306 1.24271 0.276306 2.77567C0.276306 4.30863 1.0057 5.55133 1.90546 5.55133Z" fill="white"/>
<path d="M7.3288 5.55133C8.22856 5.55133 8.95796 4.30863 8.95796 2.77567C8.95796 1.24271 8.22856 0 7.3288 0C6.42904 0 5.69965 1.24271 5.69965 2.77567C5.69965 4.30863 6.42904 5.55133 7.3288 5.55133Z" fill="white"/>
<path d="M45.3016 5.87885C46.2013 5.87885 46.9307 4.63614 46.9307 3.10318C46.9307 1.57022 46.2013 0.327515 45.3016 0.327515C44.4018 0.327515 43.6724 1.57022 43.6724 3.10318C43.6724 4.63614 44.4018 5.87885 45.3016 5.87885Z" fill="white"/>
<path d="M50.7273 5.87885C51.6271 5.87885 52.3565 4.63614 52.3565 3.10318C52.3565 1.57022 51.6271 0.327515 50.7273 0.327515C49.8275 0.327515 49.0981 1.57022 49.0981 3.10318C49.0981 4.63614 49.8275 5.87885 50.7273 5.87885Z" fill="white"/>
<path d="M56.1506 5.87885C57.0503 5.87885 57.7797 4.63614 57.7797 3.10318C57.7797 1.57022 57.0503 0.327515 56.1506 0.327515C55.2508 0.327515 54.5214 1.57022 54.5214 3.10318C54.5214 4.63614 55.2508 5.87885 56.1506 5.87885Z" fill="white"/>
<path d="M61.5763 5.87885C62.4761 5.87885 63.2055 4.63614 63.2055 3.10318C63.2055 1.57022 62.4761 0.327515 61.5763 0.327515C60.6765 0.327515 59.9471 1.57022 59.9471 3.10318C59.9471 4.63614 60.6765 5.87885 61.5763 5.87885Z" fill="white"/>
<path d="M34.4525 5.87885C35.3523 5.87885 36.0817 4.63614 36.0817 3.10318C36.0817 1.57022 35.3523 0.327515 34.4525 0.327515C33.5528 0.327515 32.8234 1.57022 32.8234 3.10318C32.8234 4.63614 33.5528 5.87885 34.4525 5.87885Z" fill="white"/>
<path d="M39.8782 5.87885C40.778 5.87885 41.5074 4.63614 41.5074 3.10318C41.5074 1.57022 40.778 0.327515 39.8782 0.327515C38.9785 0.327515 38.2491 1.57022 38.2491 3.10318C38.2491 4.63614 38.9785 5.87885 39.8782 5.87885Z" fill="white"/>
<path d="M77.8486 5.87885C78.7484 5.87885 79.4778 4.63614 79.4778 3.10318C79.4778 1.57022 78.7484 0.327515 77.8486 0.327515C76.9489 0.327515 76.2195 1.57022 76.2195 3.10318C76.2195 4.63614 76.9489 5.87885 77.8486 5.87885Z" fill="white"/>
<path d="M83.2743 5.87885C84.1741 5.87885 84.9035 4.63614 84.9035 3.10318C84.9035 1.57022 84.1741 0.327515 83.2743 0.327515C82.3745 0.327515 81.6451 1.57022 81.6451 3.10318C81.6451 4.63614 82.3745 5.87885 83.2743 5.87885Z" fill="white"/>
<path d="M88.7 5.87885C89.5998 5.87885 90.3292 4.63614 90.3292 3.10318C90.3292 1.57022 89.5998 0.327515 88.7 0.327515C87.8003 0.327515 87.0709 1.57022 87.0709 3.10318C87.0709 4.63614 87.8003 5.87885 88.7 5.87885Z" fill="white"/>
<path d="M94.1234 5.87885C95.0231 5.87885 95.7525 4.63614 95.7525 3.10318C95.7525 1.57022 95.0231 0.327515 94.1234 0.327515C93.2236 0.327515 92.4942 1.57022 92.4942 3.10318C92.4942 4.63614 93.2236 5.87885 94.1234 5.87885Z" fill="white"/>
<path d="M66.9996 5.87885C67.8993 5.87885 68.6287 4.63614 68.6287 3.10318C68.6287 1.57022 67.8993 0.327515 66.9996 0.327515C66.0998 0.327515 65.3704 1.57022 65.3704 3.10318C65.3704 4.63614 66.0998 5.87885 66.9996 5.87885Z" fill="white"/>
<path d="M72.4253 5.87885C73.3251 5.87885 74.0545 4.63614 74.0545 3.10318C74.0545 1.57022 73.3251 0.327515 72.4253 0.327515C71.5255 0.327515 70.7961 1.57022 70.7961 3.10318C70.7961 4.63614 71.5255 5.87885 72.4253 5.87885Z" fill="white"/>
<path d="M110.398 6.20636C111.298 6.20636 112.027 4.96365 112.027 3.4307C112.027 1.89774 111.298 0.655029 110.398 0.655029C109.498 0.655029 108.769 1.89774 108.769 3.4307C108.769 4.96365 109.498 6.20636 110.398 6.20636Z" fill="white"/>
<path d="M115.821 6.20636C116.721 6.20636 117.451 4.96365 117.451 3.4307C117.451 1.89774 116.721 0.655029 115.821 0.655029C114.922 0.655029 114.192 1.89774 114.192 3.4307C114.192 4.96365 114.922 6.20636 115.821 6.20636Z" fill="white"/>
<path d="M121.247 6.20636C122.147 6.20636 122.876 4.96365 122.876 3.4307C122.876 1.89774 122.147 0.655029 121.247 0.655029C120.347 0.655029 119.618 1.89774 119.618 3.4307C119.618 4.96365 120.347 6.20636 121.247 6.20636Z" fill="white"/>
<path d="M126.67 6.20636C127.57 6.20636 128.3 4.96365 128.3 3.4307C128.3 1.89774 127.57 0.655029 126.67 0.655029C125.771 0.655029 125.041 1.89774 125.041 3.4307C125.041 4.96365 125.771 6.20636 126.67 6.20636Z" fill="white"/>
<path d="M99.5491 6.20636C100.449 6.20636 101.178 4.96365 101.178 3.4307C101.178 1.89774 100.449 0.655029 99.5491 0.655029C98.6493 0.655029 97.9199 1.89774 97.9199 3.4307C97.9199 4.96365 98.6493 6.20636 99.5491 6.20636Z" fill="white"/>
<path d="M104.972 6.20636C105.872 6.20636 106.602 4.96365 106.602 3.4307C106.602 1.89774 105.872 0.655029 104.972 0.655029C104.073 0.655029 103.343 1.89774 103.343 3.4307C103.343 4.96365 104.073 6.20636 104.972 6.20636Z" fill="white"/>
<path d="M142.945 6.20636C143.845 6.20636 144.574 4.96365 144.574 3.4307C144.574 1.89774 143.845 0.655029 142.945 0.655029C142.045 0.655029 141.316 1.89774 141.316 3.4307C141.316 4.96365 142.045 6.20636 142.945 6.20636Z" fill="white"/>
<path d="M148.371 6.20636C149.271 6.20636 150 4.96365 150 3.4307C150 1.89774 149.271 0.655029 148.371 0.655029C147.471 0.655029 146.742 1.89774 146.742 3.4307C146.742 4.96365 147.471 6.20636 148.371 6.20636Z" fill="white"/>
<path d="M132.096 6.20636C132.996 6.20636 133.725 4.96365 133.725 3.4307C133.725 1.89774 132.996 0.655029 132.096 0.655029C131.196 0.655029 130.467 1.89774 130.467 3.4307C130.467 4.96365 131.196 6.20636 132.096 6.20636Z" fill="white"/>
<path d="M137.522 6.20636C138.422 6.20636 139.151 4.96365 139.151 3.4307C139.151 1.89774 138.422 0.655029 137.522 0.655029C136.622 0.655029 135.893 1.89774 135.893 3.4307C135.893 4.96365 136.622 6.20636 137.522 6.20636Z" fill="white"/>
<path d="M12.7545 63.3491C13.6543 63.3491 14.3837 62.1064 14.3837 60.5734C14.3837 59.0404 13.6543 57.7977 12.7545 57.7977C11.8548 57.7977 11.1254 59.0404 11.1254 60.5734C11.1254 62.1064 11.8548 63.3491 12.7545 63.3491Z" fill="white"/>
<path d="M18.1778 63.3491C19.0776 63.3491 19.807 62.1064 19.807 60.5734C19.807 59.0404 19.0776 57.7977 18.1778 57.7977C17.278 57.7977 16.5486 59.0404 16.5486 60.5734C16.5486 62.1064 17.278 63.3491 18.1778 63.3491Z" fill="white"/>
<path d="M23.6035 63.3491C24.5033 63.3491 25.2327 62.1064 25.2327 60.5734C25.2327 59.0404 24.5033 57.7977 23.6035 57.7977C22.7038 57.7977 21.9744 59.0404 21.9744 60.5734C21.9744 62.1064 22.7038 63.3491 23.6035 63.3491Z" fill="white"/>
<path d="M29.0269 63.3491C29.9266 63.3491 30.656 62.1064 30.656 60.5734C30.656 59.0404 29.9266 57.7977 29.0269 57.7977C28.1271 57.7977 27.3977 59.0404 27.3977 60.5734C27.3977 62.1064 28.1271 63.3491 29.0269 63.3491Z" fill="white"/>
<path d="M1.90546 63.3491C2.80522 63.3491 3.53462 62.1064 3.53462 60.5734C3.53462 59.0404 2.80522 57.7977 1.90546 57.7977C1.0057 57.7977 0.276306 59.0404 0.276306 60.5734C0.276306 62.1064 1.0057 63.3491 1.90546 63.3491Z" fill="white"/>
<path d="M7.3288 63.3491C8.22856 63.3491 8.95796 62.1064 8.95796 60.5734C8.95796 59.0404 8.22856 57.7977 7.3288 57.7977C6.42904 57.7977 5.69965 59.0404 5.69965 60.5734C5.69965 62.1064 6.42904 63.3491 7.3288 63.3491Z" fill="white"/>
<path d="M45.3016 63.6766C46.2013 63.6766 46.9307 62.4339 46.9307 60.9009C46.9307 59.368 46.2013 58.1252 45.3016 58.1252C44.4018 58.1252 43.6724 59.368 43.6724 60.9009C43.6724 62.4339 44.4018 63.6766 45.3016 63.6766Z" fill="white"/>
<path d="M50.7273 63.6766C51.6271 63.6766 52.3565 62.4339 52.3565 60.9009C52.3565 59.368 51.6271 58.1252 50.7273 58.1252C49.8275 58.1252 49.0981 59.368 49.0981 60.9009C49.0981 62.4339 49.8275 63.6766 50.7273 63.6766Z" fill="white"/>
<path d="M56.1506 63.6766C57.0503 63.6766 57.7797 62.4339 57.7797 60.9009C57.7797 59.368 57.0503 58.1252 56.1506 58.1252C55.2508 58.1252 54.5214 59.368 54.5214 60.9009C54.5214 62.4339 55.2508 63.6766 56.1506 63.6766Z" fill="white"/>
<path d="M61.5763 63.6766C62.4761 63.6766 63.2055 62.4339 63.2055 60.9009C63.2055 59.368 62.4761 58.1252 61.5763 58.1252C60.6765 58.1252 59.9471 59.368 59.9471 60.9009C59.9471 62.4339 60.6765 63.6766 61.5763 63.6766Z" fill="white"/>
<path d="M34.4525 63.6766C35.3523 63.6766 36.0817 62.4339 36.0817 60.9009C36.0817 59.368 35.3523 58.1252 34.4525 58.1252C33.5528 58.1252 32.8234 59.368 32.8234 60.9009C32.8234 62.4339 33.5528 63.6766 34.4525 63.6766Z" fill="white"/>
<path d="M39.8782 63.6766C40.778 63.6766 41.5074 62.4339 41.5074 60.9009C41.5074 59.368 40.778 58.1252 39.8782 58.1252C38.9785 58.1252 38.2491 59.368 38.2491 60.9009C38.2491 62.4339 38.9785 63.6766 39.8782 63.6766Z" fill="white"/>
<path d="M77.8486 63.6766C78.7484 63.6766 79.4778 62.4339 79.4778 60.9009C79.4778 59.368 78.7484 58.1252 77.8486 58.1252C76.9489 58.1252 76.2195 59.368 76.2195 60.9009C76.2195 62.4339 76.9489 63.6766 77.8486 63.6766Z" fill="white"/>
<path d="M83.2743 63.6766C84.1741 63.6766 84.9035 62.4339 84.9035 60.9009C84.9035 59.368 84.1741 58.1252 83.2743 58.1252C82.3745 58.1252 81.6451 59.368 81.6451 60.9009C81.6451 62.4339 82.3745 63.6766 83.2743 63.6766Z" fill="white"/>
<path d="M88.7 63.6766C89.5998 63.6766 90.3292 62.4339 90.3292 60.9009C90.3292 59.368 89.5998 58.1252 88.7 58.1252C87.8003 58.1252 87.0709 59.368 87.0709 60.9009C87.0709 62.4339 87.8003 63.6766 88.7 63.6766Z" fill="white"/>
<path d="M94.1234 63.6766C95.0231 63.6766 95.7525 62.4339 95.7525 60.9009C95.7525 59.368 95.0231 58.1252 94.1234 58.1252C93.2236 58.1252 92.4942 59.368 92.4942 60.9009C92.4942 62.4339 93.2236 63.6766 94.1234 63.6766Z" fill="white"/>
<path d="M66.9996 63.6766C67.8993 63.6766 68.6287 62.4339 68.6287 60.9009C68.6287 59.368 67.8993 58.1252 66.9996 58.1252C66.0998 58.1252 65.3704 59.368 65.3704 60.9009C65.3704 62.4339 66.0998 63.6766 66.9996 63.6766Z" fill="white"/>
<path d="M72.4253 63.6766C73.3251 63.6766 74.0545 62.4339 74.0545 60.9009C74.0545 59.368 73.3251 58.1252 72.4253 58.1252C71.5255 58.1252 70.7961 59.368 70.7961 60.9009C70.7961 62.4339 71.5255 63.6766 72.4253 63.6766Z" fill="white"/>
<path d="M110.398 63.9999C111.298 63.9999 112.027 62.7572 112.027 61.2243C112.027 59.6913 111.298 58.4486 110.398 58.4486C109.498 58.4486 108.769 59.6913 108.769 61.2243C108.769 62.7572 109.498 63.9999 110.398 63.9999Z" fill="white"/>
<path d="M115.821 63.9999C116.721 63.9999 117.451 62.7572 117.451 61.2243C117.451 59.6913 116.721 58.4486 115.821 58.4486C114.922 58.4486 114.192 59.6913 114.192 61.2243C114.192 62.7572 114.922 63.9999 115.821 63.9999Z" fill="white"/>
<path d="M121.247 63.9999C122.147 63.9999 122.876 62.7572 122.876 61.2243C122.876 59.6913 122.147 58.4486 121.247 58.4486C120.347 58.4486 119.618 59.6913 119.618 61.2243C119.618 62.7572 120.347 63.9999 121.247 63.9999Z" fill="white"/>
<path d="M126.67 63.9999C127.57 63.9999 128.3 62.7572 128.3 61.2243C128.3 59.6913 127.57 58.4486 126.67 58.4486C125.771 58.4486 125.041 59.6913 125.041 61.2243C125.041 62.7572 125.771 63.9999 126.67 63.9999Z" fill="white"/>
<path d="M99.5491 63.9999C100.449 63.9999 101.178 62.7572 101.178 61.2243C101.178 59.6913 100.449 58.4486 99.5491 58.4486C98.6493 58.4486 97.9199 59.6913 97.9199 61.2243C97.9199 62.7572 98.6493 63.9999 99.5491 63.9999Z" fill="white"/>
<path d="M104.972 63.9999C105.872 63.9999 106.602 62.7572 106.602 61.2243C106.602 59.6913 105.872 58.4486 104.972 58.4486C104.073 58.4486 103.343 59.6913 103.343 61.2243C103.343 62.7572 104.073 63.9999 104.972 63.9999Z" fill="white"/>
<path d="M142.945 63.9999C143.845 63.9999 144.574 62.7572 144.574 61.2243C144.574 59.6913 143.845 58.4486 142.945 58.4486C142.045 58.4486 141.316 59.6913 141.316 61.2243C141.316 62.7572 142.045 63.9999 142.945 63.9999Z" fill="white"/>
<path d="M148.371 63.9999C149.271 63.9999 150 62.7572 150 61.2243C150 59.6913 149.271 58.4486 148.371 58.4486C147.471 58.4486 146.742 59.6913 146.742 61.2243C146.742 62.7572 147.471 63.9999 148.371 63.9999Z" fill="white"/>
<path d="M132.096 63.9999C132.996 63.9999 133.725 62.7572 133.725 61.2243C133.725 59.6913 132.996 58.4486 132.096 58.4486C131.196 58.4486 130.467 59.6913 130.467 61.2243C130.467 62.7572 131.196 63.9999 132.096 63.9999Z" fill="white"/>
<path d="M137.522 63.9999C138.422 63.9999 139.151 62.7572 139.151 61.2243C139.151 59.6913 138.422 58.4486 137.522 58.4486C136.622 58.4486 135.893 59.6913 135.893 61.2243C135.893 62.7572 136.622 63.9999 137.522 63.9999Z" fill="white"/>
<path d="M10.9115 13.8129L13.4874 27.3187H21.8254L15.0805 35.6702L17.6564 49.176L10.9115 40.8285L4.169 49.176L6.74489 35.6702L0 27.3187H8.3356L10.9115 13.8129Z" fill="#BE682F"/>
</g>
<defs>
<clipPath id="clip0_708_6052">
<rect width="150" height="64" fill="white"/>
</clipPath>
</defs>
</svg>
