<?xml version="1.0" encoding="utf-8"?>
<!-- Generator: Adobe Illustrator 24.1.2, SVG Export Plug-In . SVG Version: 6.00 Build 0)  -->
<svg version="1.1" id="Слой_1" xmlns="http://www.w3.org/2000/svg" xmlns:xlink="http://www.w3.org/1999/xlink" x="0px" y="0px"
	 viewBox="0 0 60 60" style="enable-background:new 0 0 60 60;" xml:space="preserve">
<style type="text/css">
	.st0{fill:#3E68B0;}
</style>
<path class="st0" d="M17.7,34.6h0.7c1.4,0,1.7-0.4,2.1-2.1l2.9-12.7c0.1-0.5,0.2-0.9,0.2-1.2c0-0.7-0.3-0.9-1.1-0.9h-0.9l0.1-0.5
	h9.8l-0.1,0.5h-0.6c-1.4,0-1.7,0.4-2.1,2.1l-2.9,12.7c-0.1,0.5-0.2,0.9-0.2,1.2c0,0.7,0.4,0.9,1.1,0.9h0.8L27.4,35h-9.8L17.7,34.6z"
	/>
<path class="st0" d="M40.1,34.3c-0.6,2.3-1,3.8-1.8,4.9c-1,1.4-2.7,2.2-4.6,2.2c-2.4,0-3.7-1.1-3.7-3c0-1.2,0.6-2,1.6-2
	c1,0,1.6,0.8,1.6,1.9c0,1.1-0.6,1.8-1.4,1.8c-0.2,0-0.4,0-0.5-0.1c0.2,0.5,0.9,0.9,1.6,0.9c2,0,2.2-2,3.5-7.5l0.4-1.5
	c-1.1,2.4-2.2,3.5-3.7,3.5c-1.7,0-2.9-1.8-2.9-4.4c0-2.4,0.8-4.7,2.3-6.3c1.1-1.2,2.4-1.8,3.6-1.8c1.4,0,2.1,1,2.2,2.9l0.7-2.6h3.9
	L40.1,34.3z M34.1,32.8c-0.1,0.4-0.2,0.7-0.2,0.9c0,0.4,0.2,0.6,0.5,0.6c0.4,0,1-0.6,1.6-1.8c1.2-2.3,1.8-4.6,1.8-6.6
	c0-1.3-0.4-2.1-0.9-2.1s-0.9,0.6-1.2,1.8L34.1,32.8z"/>
<path class="st0" d="M30.3,15.6c11.4,0,20.8,3.3,26,8.2c1,0.9,1.9,2.3,2.2,3.2c0.4,1.1,0.7,2,0.8,3.4c0-0.1,0.3-1.5,0-3
	c-0.2-1-0.6-2.1-1.2-2.9C53.6,18.2,43,14.3,30.3,14.3c-12.5,0-23.1,3.6-27.6,9.2c-0.3,0.3-0.8,1-1.1,1.6C1.2,26,1,26.7,1,26.7
	c-0.1,0.1,1.1-1.8,2-2.8c0.8-0.9,1.9-1.6,3.1-2.5C11.7,17.6,20.6,15.6,30.3,15.6z"/>
<path class="st0" d="M30.6,41.8c-7.8,0-15.3-1.6-20.5-4.2c-3.2-1.6-5.8-3.7-7.2-5.9c-1-1.6-1.3-3.1-1.5-4.8c0,0.2-0.2,1.5-0.2,1.7
	C1.2,36.5,14.4,43,30.6,43c12.9,0,23.8-4,27.8-9.7c0.5-0.7,0.7-1.2,1-1.9c0-0.1,0.1-0.2,0.1-0.3c0-0.1,0-0.3,0-0.3s-0.1,0.3-0.4,0.8
	c-1.1,1.6-1.9,2.5-3.5,3.7C50.6,39.3,41.2,41.8,30.6,41.8z"/>
</svg>
