<svg width="40" height="30" viewBox="0 0 40 30" fill="none" xmlns="http://www.w3.org/2000/svg">
<path d="M11.5254 5.58154C10.688 6.39562 10.7113 8.04702 11.5486 8.83783L12.1301 9.39606L11.758 11.9081C11.5486 13.2803 11.2928 14.4898 11.1997 14.5829C11.13 14.6759 9.33901 14.5363 7.26894 14.2572C3.73354 13.7688 3.50095 13.7223 3.50095 13.2571C3.50095 12.3035 2.26821 11.6289 1.22154 12.0011C0.0818428 12.3965 -0.383341 14.327 0.360953 15.3969C0.779619 16.0017 1.89606 16.2808 2.52406 15.9552C2.91947 15.7458 3.36139 16.211 6.52464 20.4209C8.50168 23.0027 10.1298 25.1658 10.1763 25.2356C10.2229 25.2821 10.9206 25.096 11.7114 24.7937C17.0378 22.7934 23.3411 22.7701 28.3418 24.7471C29.0163 25.0262 29.6908 25.2356 29.8536 25.2356C30.0164 25.2356 31.6911 23.1422 33.6216 20.607L37.0872 15.9784L37.9478 16.0947C38.6689 16.211 38.9247 16.118 39.4132 15.6295C40.0877 14.955 40.1807 14.1875 39.6923 13.0245C39.4597 12.4895 39.1341 12.1639 38.7154 12.0709C37.5989 11.7918 36.7616 12.3035 36.2499 13.6525C36.1569 13.8851 29.2489 14.7922 29.0861 14.5829C28.993 14.4898 28.7372 13.2803 28.5279 11.9081L28.1325 9.3728L28.7139 8.83783C29.4582 8.14006 29.5513 6.51191 28.9233 5.7211C27.737 4.32555 25.8298 5.2094 25.8298 7.16317C25.8298 8.18658 25.7833 8.2331 23.2248 10.6055C21.7827 11.9313 20.5732 13.0943 20.5267 13.1873C20.3406 13.5827 19.8987 13.2571 17.2239 10.7916C14.4793 8.23309 14.4328 8.18658 14.4328 7.16317C14.4328 5.95369 13.6652 5.00006 12.6883 5.00006C12.3627 5.00006 11.8277 5.25592 11.5254 5.58154Z" fill="white"/>
</svg>
