<?xml version="1.0" encoding="utf-8"?>
<!-- Generator: Adobe Illustrator 24.1.2, SVG Export Plug-In . SVG Version: 6.00 Build 0)  -->
<svg version="1.1" id="Слой_1" xmlns="http://www.w3.org/2000/svg" xmlns:xlink="http://www.w3.org/1999/xlink" x="0px" y="0px"
	 viewBox="0 0 60 60" style="enable-background:new 0 0 60 60;" xml:space="preserve">
<style type="text/css">
	.st0{fill:#F4F3F4;}
</style>
<g id="mascot">
	<path class="st0" d="M31,20.1c0,1.2,0.2,2.5,0.6,3.6c0.8-1.4,1.9-2.6,3.2-3.6c0-3.5,2.2-6.6,5.5-8c0.6,1.3,2.2,2,3.6,1.6
		c1-0.3,1.8-1.1,2-2.2c1.6-0.5,2.4-2.2,1.9-3.7c-0.5-1.5-2.2-2.4-3.7-1.9c-0.8-0.7-1.9-1-2.9-0.6c-1.4,0.4-2.3,1.9-2,3.3
		C34.3,10.4,31,15,31,20.1z"/>
	<path class="st0" d="M8.3,20.1V3.8h43.4v16.3c0,4.6-3.8,8.5-8.5,8.5c-2,0-4-0.7-5.5-2.1c-0.8,1.1-1.3,2.3-1.4,3.6
		c5.5,3.8,13.2,2.5,17-3c1.4-2,2.2-4.5,2.2-6.9V0h-51v20c0,1.2,0.2,2.5,0.6,3.6C5.9,22.4,7,21.1,8.3,20.1z"/>
	<path class="st0" d="M41.2,45.8c1,0.3,2.1,0.1,2.9-0.6c1.6,0.5,3.2-0.4,3.7-1.9c0.5-1.6-0.4-3.2-1.9-3.7l0,0c-0.2-1-1-1.9-2-2.2
		c-1.4-0.4-2.9,0.2-3.6,1.6c-4.4-1.6-6.6-6.4-5-10.9c1.6-4.4,6.4-6.6,10.9-5c1,0.4,1.8,0.9,2.6,1.6c0.8-1.1,1.3-2.3,1.4-3.6
		c-5.5-3.8-13.2-2.5-17,3c-1.4,2-2.2,4.5-2.2,6.9c0,5.2,3.2,9.8,8.2,11.6C38.9,44,39.8,45.4,41.2,45.8z"/>
	<path class="st0" d="M29,30.9c0-1.2-0.2-2.5-0.6-3.6c-0.8,1.4-1.9,2.6-3.2,3.6c0,3.5-2.2,6.6-5.5,8c-0.6-1.3-2.2-2-3.6-1.6
		c-1,0.3-1.8,1.1-2,2.2c-1.6,0.5-2.4,2.2-1.9,3.7c0.5,1.5,2.2,2.4,3.7,1.9c0.8,0.7,1.9,1,2.9,0.6c1.4-0.4,2.3-1.9,2-3.3
		C25.7,40.7,28.9,36,29,30.9z"/>
	<path class="st0" d="M20.8,8.7c0.3-1.5-0.6-2.9-2-3.3c-1-0.3-2.1-0.1-2.9,0.6c-1.6-0.5-3.2,0.4-3.7,1.9c-0.5,1.6,0.4,3.2,1.9,3.7
		l0,0c0.4,1.6,2,2.6,3.6,2.2c0.9-0.2,1.6-0.8,2-1.6c4.4,1.6,6.6,6.4,5,10.9c-1.6,4.4-6.4,6.6-10.9,5c-1-0.4-1.8-0.9-2.6-1.5
		c-0.8,1-1.3,2.3-1.4,3.6c5.5,3.8,13.2,2.5,17-3s2.5-13.2-3-17C22.8,9.5,21.9,9,20.8,8.7L20.8,8.7z"/>
	<path class="st0" d="M54.9,27.3c-0.8,1.4-1.9,2.6-3.2,3.6v16.3H8.3V30.9c0-4.6,3.8-8.5,8.5-8.5c2,0,4,0.7,5.5,2.1
		c0.8-1.1,1.3-2.3,1.4-3.6c-5.5-3.8-13.2-2.5-17,3c-1.4,2-2.2,4.5-2.2,6.9V60h50.9V30.9C55.5,29.7,55.3,28.5,54.9,27.3z M13.8,56.8
		v-3.6l-1.9,3.7h-0.4l-2-3.6v3.6H8.3l0.2-6.4H9l2.6,4.6l2.6-4.6h0.5l0.2,6.4h-1.1V56.8z M22.7,56.8h-1.1v-1.5h-3v1.5h-1.1v-3.6
		c0-1.9,1-2.8,2.6-2.8s2.6,0.9,2.6,2.8V56.8z M26.9,56.9c-0.7,0-1.5-0.2-2.1-0.6l0.4-1c0.5,0.3,1.1,0.5,1.7,0.6
		c0.7,0,1.1-0.4,1.1-0.8s-0.3-0.7-1.4-1.1c-1.2-0.5-1.7-1.1-1.7-1.8c0-1,0.8-1.8,2.1-1.8c0.6,0,1.2,0.1,1.8,0.4l-0.4,1
		c-0.4-0.3-0.9-0.4-1.4-0.4c-0.7,0-1,0.4-1,0.8c0,0.4,0.4,0.7,1.2,1c1.4,0.6,1.8,1.1,1.8,1.9C29.2,56.2,28.3,56.9,26.9,56.9z
		 M34.6,56.9c-2.2,0-3.6-1.4-3.6-3.3c0-1.8,1.6-3.3,3.4-3.3c0.8,0,1.5,0.2,2.2,0.5l-0.4,1c-0.5-0.2-1.1-0.4-1.7-0.4
		c-1.5,0-2.4,0.9-2.4,2.2c0,1.2,1,2.2,2.2,2.2h0.1c0.6,0,1.3-0.1,1.8-0.4l0.4,1C36.1,56.7,35.3,56.9,34.6,56.9z M41.6,56.9
		c-1.9,0-3.4-1.4-3.4-3.3c0-1.8,1.5-3.3,3.3-3.3h0.1c2,0,3.4,1.4,3.4,3.3C45.1,55.5,43.6,56.9,41.6,56.9z M51.7,51.4h-2.1v5.3h-1.1
		v-5.3h-2.1v-1h5.3V51.4z"/>
	<path class="st0" d="M20.1,51.3c-0.9,0-1.5,0.5-1.5,1.8v1.2h3v-1.2C21.6,51.8,21,51.3,20.1,51.3z"/>
	<path class="st0" d="M41.6,51.2c-1.2,0-2.2,1-2.2,2.3l0,0c0,1.2,0.9,2.2,2.1,2.3c1.2,0,2.2-0.9,2.3-2.1v-0.1
		C43.8,52.2,42.9,51.2,41.6,51.2z"/>
</g>
</svg>
