<svg width="79" height="24" viewBox="0 0 79 24" fill="none" xmlns="http://www.w3.org/2000/svg">
<g clip-path="url(#clip0_708_5717)">
<path d="M32.1543 10.4239L32.4719 8.58067C32.2987 8.58067 32.0437 8.64805 31.8175 8.64805C30.9369 8.64805 30.8551 8.2438 30.8984 7.95023L31.6106 4.19647H32.9483L33.2707 2.16078H32.01L32.265 0.899902H29.7339C29.6761 0.943215 28.2373 8.0128 28.2373 8.87424C28.2373 10.1496 29.0746 10.7126 30.2584 10.7078C30.8996 10.6906 31.5362 10.5952 32.1543 10.4239Z" fill="#513074"/>
<path d="M32.9579 6.91555C32.9579 9.9715 35.3207 10.6982 37.3321 10.6982C38.238 10.7457 39.1448 10.6266 40.0077 10.3469L40.4552 8.25825C39.5903 8.56998 38.6836 8.75006 37.7652 8.79243C35.0464 8.79243 35.5228 7.05993 35.5228 7.05993H40.6669C40.8301 6.41214 40.9411 5.75232 40.9989 5.0868C40.9989 3.64305 40.1713 1.92017 37.3899 1.92017C36.142 2.00073 34.9764 2.57069 34.1465 3.50613C33.3165 4.44158 32.8894 5.66685 32.9579 6.91555ZM37.3995 3.84998C38.8431 3.84998 38.564 5.22155 38.564 5.33224H35.7538C35.7976 4.92592 35.9897 4.55004 36.2934 4.27655C36.597 4.00306 36.9909 3.85118 37.3995 3.84998Z" fill="#513074"/>
<path d="M53.4382 10.4191L53.8905 8.06096C53.224 8.34932 52.5157 8.52964 51.7925 8.59515C51.1889 8.65567 50.5861 8.47432 50.1161 8.09089C49.6461 7.70746 49.3473 7.15325 49.2854 6.54983C49.2758 6.42167 49.2758 6.29298 49.2854 6.16483C49.2854 3.60938 50.8348 2.20413 52.5528 2.20413C53.3599 2.22248 54.1506 2.43545 54.8577 2.82494L55.2716 0.529376C54.3603 0.224533 53.4115 0.0464066 52.4517 4.51221e-10C51.691 -9.50988e-06 50.9377 0.150317 50.2352 0.442343C49.5327 0.734368 48.8949 1.16234 48.3583 1.70166C47.8217 2.24098 47.3969 2.88103 47.1084 3.58502C46.82 4.28901 46.6734 5.04308 46.6772 5.80389C46.6772 5.94827 46.6772 6.09264 46.6772 6.23702C46.6269 6.77618 46.6833 7.31998 46.8433 7.83731C47.0033 8.35464 47.2637 8.83534 47.6096 9.25193C47.9556 9.66851 48.3802 10.0128 48.8593 10.2651C49.3384 10.5174 49.8626 10.6728 50.4018 10.7223C50.6785 10.7512 50.9575 10.7512 51.2343 10.7223C51.9808 10.6854 52.7229 10.5856 53.4526 10.4239L53.4382 10.4191Z" fill="#513074"/>
<path d="M18.2233 1.95386C17.1828 1.95457 16.1487 2.11693 15.158 2.43511L14.7875 4.30236C15.6836 4.03558 16.6148 3.90578 17.5497 3.91736C18.5121 3.91736 19.181 4.0088 19.181 4.6633C19.1955 4.84844 19.1675 5.03446 19.0991 5.20712C19.0991 5.20712 18.3533 5.15418 18.0116 5.15418C15.8173 5.15418 13.5171 5.95306 13.5171 8.36412C13.491 8.95746 13.7013 9.53692 14.1018 9.9754C14.5024 10.4139 15.0605 10.6755 15.6537 10.703C15.7562 10.7102 15.8591 10.7102 15.9617 10.703C16.4396 10.7245 16.9168 10.6476 17.3638 10.4771C17.8108 10.3065 18.218 10.046 18.5602 9.71163L18.4784 10.5394H20.6919L21.7025 4.56224C21.7025 2.03567 19.1232 1.95386 18.2233 1.95386ZM18.7671 6.80487C18.8152 7.17062 18.5024 8.87906 16.977 8.87906C16.1878 8.87906 15.9857 8.36412 15.9857 8.06094C15.9857 7.469 16.3611 6.75674 18.2185 6.75674C18.4028 6.74641 18.5875 6.76262 18.7671 6.80487Z" fill="#513074"/>
<path d="M24.0604 10.6452C24.6282 10.6452 27.9101 10.7703 27.9101 7.89727C27.9101 5.20708 24.8929 5.73646 24.8929 4.65845C24.8929 4.11945 25.3741 3.95101 26.2836 3.95101C26.6397 3.95101 28.0111 4.04726 28.0111 4.04726L28.3336 2.12226C27.5565 2.00552 26.7709 1.95401 25.9853 1.96826C24.1134 1.96826 22.2126 2.60832 22.2126 4.7932C22.2126 7.27165 25.3837 7.0214 25.3837 8.06571C25.3837 8.76353 24.4983 8.82128 23.815 8.82128C23.0541 8.79749 22.2984 8.68606 21.563 8.48921L21.2261 10.3805C22.1551 10.6127 23.1141 10.702 24.07 10.6452H24.0604Z" fill="#513074"/>
<path d="M74.4141 0.240667L73.8703 3.12817C73.5586 2.78688 73.1817 2.51142 72.7618 2.31802C72.342 2.12462 71.8877 2.01719 71.4258 2.00205C69.1015 2.00205 67.1671 4.4083 67.1671 7.137C67.0866 7.98374 67.3455 8.82778 67.8869 9.48377C68.4282 10.1398 69.2078 10.5541 70.0543 10.6357H70.3142C71.1877 10.6513 72.0332 10.3269 72.6721 9.73094L72.5614 10.5009H75.0252L76.95 0.211792L74.4141 0.240667ZM73.2399 5.88574C73.2399 7.03112 72.5759 8.55669 71.2044 8.55669C70.2949 8.55669 69.8667 7.90219 69.8667 6.87712C69.8667 5.19756 70.7473 4.09068 71.8589 4.09068C72.7732 4.09068 73.2399 4.62968 73.2399 5.88574Z" fill="#513074"/>
<path d="M4.51372 10.5345L6.05359 2.76715L6.27976 10.5345H8.02654L11.2795 2.76715L9.83589 10.5345H12.4248L14.4362 0.230957H10.4182L7.92068 6.5546L7.79075 0.230957H4.09507L2.06918 10.5345H4.51372Z" fill="#513074"/>
<path d="M43.5349 10.549C44.2712 6.96854 44.4059 4.06178 46.1671 4.59116C46.3358 3.70467 46.6618 2.85552 47.1295 2.08384C46.9703 2.05998 46.8093 2.05032 46.6483 2.05496C45.5127 2.05496 44.6754 3.3784 44.6754 3.3784L44.9015 2.16084H42.5436L40.9316 10.549H43.5349Z" fill="#513074"/>
<path d="M59.28 1.95386C58.2395 1.95457 57.2054 2.11693 56.2147 2.43511L55.8442 4.30236C56.7402 4.03522 57.6715 3.90541 58.6064 3.91736C59.5688 3.91736 60.2377 4.0088 60.2377 4.6633C60.2522 4.84844 60.2242 5.03446 60.1558 5.20712C60.1558 5.20712 59.41 5.15418 59.0635 5.15418C56.874 5.15418 54.5738 5.95306 54.5738 8.36412C54.5477 8.95746 54.758 9.53692 55.1585 9.9754C55.5591 10.4139 56.1172 10.6755 56.7104 10.703C56.8129 10.7102 56.9158 10.7102 57.0184 10.703C57.4962 10.7239 57.9733 10.6468 58.4202 10.4763C58.8671 10.3058 59.2744 10.0455 59.6169 9.71163L59.5351 10.5394H61.7631L62.7592 4.57668C62.7592 2.05011 60.1799 1.9683 59.28 1.9683V1.95386ZM59.8238 6.80487C59.8719 7.17062 59.5543 8.87906 58.0289 8.87906C57.2445 8.87906 57.0665 8.36412 57.0665 8.06094C57.0665 7.469 57.4418 6.75674 59.2993 6.75674C59.4835 6.74641 59.6683 6.76262 59.8479 6.80487H59.8238Z" fill="#513074"/>
<path d="M64.7947 10.549C65.5358 6.96854 65.6705 4.06178 67.4317 4.59116C67.5983 3.70406 67.9244 2.85454 68.3941 2.08384C68.2349 2.05998 68.0739 2.05032 67.9129 2.05496C66.7484 2.05496 65.9255 3.36878 65.9255 3.36878L66.1517 2.15121H63.7938L62.2154 10.5394L64.7947 10.549Z" fill="#513074"/>
<path d="M0 22.0125L1.56393 20.7661C1.81231 21.1594 2.15204 21.4869 2.5542 21.7207C2.95636 21.9545 3.40905 22.0876 3.87373 22.1088C4.75915 22.1088 5.37029 21.6275 5.37029 20.8816C5.37029 20.3233 4.88908 20.0394 4.15764 19.5774L3.19522 18.9614C2.71736 18.708 2.31937 18.3267 2.04573 17.8602C1.7721 17.3936 1.63361 16.8601 1.64573 16.3193C1.64573 14.505 3.25778 13.042 5.29329 13.042C5.90425 13.057 6.50409 13.2088 7.0487 13.4861C7.59331 13.7634 8.06886 14.1593 8.4404 14.6446L7.06414 15.9487C6.84088 15.6622 6.55953 15.4262 6.23857 15.2562C5.9176 15.0861 5.5643 14.9859 5.20186 14.9622C5.03675 14.9376 4.8683 14.9484 4.70766 14.9938C4.54701 15.0391 4.39784 15.1181 4.27001 15.2255C4.14218 15.3329 4.03861 15.4662 3.96614 15.6166C3.89368 15.767 3.85398 15.931 3.84967 16.0979C3.84967 16.6418 4.33088 16.9016 5.14893 17.4166L6.1739 18.0566C6.63552 18.2849 7.01906 18.645 7.27603 19.0913C7.533 19.5376 7.65184 20.0501 7.61753 20.5639C7.61753 22.489 6.07285 24.0001 3.69087 24.0001C2.95936 23.9995 2.23938 23.8177 1.5953 23.4709C0.951228 23.124 0.403127 22.623 0 22.0125Z" fill="#A182C3"/>
<path d="M12.6702 15.5637C14.5566 15.5637 15.2447 16.916 15.2447 18.5812C15.2279 19.212 15.0924 19.8341 14.8453 20.4147H10.346C10.2931 21.7526 11.0822 22.3397 12.1265 22.3397C12.6525 22.2977 13.1545 22.1019 13.5701 21.7767L14.3448 23.1771C13.5091 23.7425 12.5194 24.0366 11.5105 24.0193C9.58568 24.0193 8.27679 22.7296 8.27679 20.5735C8.28161 17.5754 10.5866 15.5637 12.6702 15.5637ZM13.392 19.0576C13.4418 18.8624 13.4692 18.6622 13.4738 18.4609C13.4738 17.8112 13.2044 17.2722 12.4152 17.2722C11.626 17.2722 10.8898 17.8785 10.5288 19.0576H13.392Z" fill="#A182C3"/>
<path d="M15.6056 20.6939C15.6056 17.9123 17.6507 15.5734 20.2541 15.5734C20.6592 15.5692 21.0601 15.6567 21.4267 15.8292C21.7933 16.0017 22.1163 16.2548 22.3714 16.5696L21.1732 17.8738C21.0501 17.7118 20.8916 17.5803 20.7097 17.4894C20.5278 17.3985 20.3275 17.3505 20.1241 17.3492C18.8682 17.3492 17.8432 18.8411 17.8432 20.641C17.8432 21.6035 18.2907 22.2147 19.181 22.2147C19.6489 22.1956 20.0944 22.0095 20.4369 21.6901L21.3464 23.0665C20.5994 23.6722 19.6663 24.002 18.7046 24.0001C16.9385 24.0001 15.6056 22.7873 15.6056 20.6939Z" fill="#A182C3"/>
<path d="M28.425 23.8027H26.6493L26.683 22.7199H26.6205C25.9035 23.4033 24.9892 24 24.0412 24C22.7323 24 22.1741 23.2733 22.1741 21.9306C22.1773 21.5456 22.2192 21.1619 22.2992 20.7852L23.2616 15.761H25.4415L24.4791 20.5061C24.4131 20.7582 24.3712 21.0161 24.354 21.2761C24.3379 21.3867 24.3473 21.4995 24.3816 21.6058C24.4158 21.7121 24.4739 21.8092 24.5515 21.8896C24.6291 21.97 24.7241 22.0315 24.8291 22.0695C24.9342 22.1075 25.0466 22.1209 25.1576 22.1087C25.6388 22.1087 26.12 21.7766 26.736 21.0548L27.7513 15.761H29.9793L28.425 23.8027Z" fill="#A182C3"/>
<path d="M31.3796 15.761H33.1505L33.0542 17.3251H33.1168C33.7279 16.3096 34.623 15.5637 35.5228 15.5637C35.8061 15.546 36.0893 15.6007 36.3457 15.7225L35.6335 17.6475C35.3862 17.542 35.1172 17.4975 34.8491 17.5176C34.1514 17.5176 33.5017 17.9988 32.881 19.1442L32.0004 23.8027H29.8349L31.3796 15.761Z" fill="#A182C3"/>
<path d="M39.9403 15.5637C41.8266 15.5637 42.5148 16.916 42.5148 18.5812C42.4993 19.2127 42.362 19.8352 42.1106 20.4147H37.5968C37.5439 21.7526 38.3379 22.3397 39.3773 22.3397C39.9033 22.2977 40.4054 22.1019 40.8209 21.7767L41.5957 23.1771C40.7603 23.7434 39.7704 24.0375 38.7614 24.0193C36.8365 24.0193 35.5324 22.7296 35.5324 20.5735C35.5373 17.5754 37.823 15.5637 39.9403 15.5637ZM40.6621 19.0576C40.7045 18.8614 40.727 18.6615 40.7295 18.4609C40.7295 17.8112 40.46 17.2722 39.6708 17.2722C38.8817 17.2722 38.1502 17.8785 37.7893 19.0576H40.6621Z" fill="#A182C3"/>
<path d="M43.227 19.5774C43.227 15.9295 45.633 13.042 48.7464 13.042C49.3137 13.0431 49.8698 13.2004 50.3536 13.4967C50.8375 13.7929 51.2304 14.2167 51.4893 14.7216L50.0457 15.8814C49.9193 15.6155 49.7232 15.3887 49.4784 15.2252C49.2336 15.0617 48.949 14.9675 48.655 14.9526C46.8841 14.9526 45.4838 17.0604 45.4838 19.4138C45.4838 21.0548 46.1142 22.0703 47.6445 22.0703C48.3102 22.0218 48.9366 21.7367 49.4105 21.2666L50.3296 22.6863C49.477 23.5099 48.3437 23.9794 47.1584 24.0001C44.7524 24.0001 43.227 22.3446 43.227 19.5774Z" fill="#A182C3"/>
<path d="M51.0947 20.6939C51.0947 17.5946 53.3468 15.5734 55.517 15.5734C57.3601 15.5734 58.5871 16.892 58.5871 18.8892C58.5871 21.9884 56.3351 24.0097 54.16 24.0097C52.317 24.0001 51.0947 22.6814 51.0947 20.6939ZM56.388 18.9325C56.388 17.97 56.0175 17.3588 55.2812 17.3588C54.2178 17.3588 53.3035 18.7737 53.3035 20.6506C53.3035 21.6131 53.674 22.2243 54.4054 22.2243C55.4641 22.2146 56.3832 20.7998 56.3832 18.9229L56.388 18.9325Z" fill="#A182C3"/>
<path d="M65.1027 15.0103L65.5839 12.4452H67.759L65.5117 23.8027H63.7409L63.7746 22.7536H63.7361C63.1094 23.4778 62.2223 23.9257 61.2675 24C59.8768 24 59.0395 22.9461 59.0395 21.05C59.0395 17.9844 61.075 15.5637 63.2549 15.5637C63.5863 15.5591 63.9126 15.6467 64.1972 15.8166C64.4818 15.9866 64.7137 16.2322 64.8669 16.5262H64.9054L65.1027 15.0103ZM63.9141 20.997L64.482 18.148C64.3967 17.9325 64.2518 17.7457 64.0644 17.6093C63.8769 17.473 63.6546 17.3928 63.4233 17.378C62.3261 17.378 61.306 18.8218 61.306 20.7468C61.306 21.7333 61.6669 22.1905 62.2299 22.1905C62.7929 22.1905 63.3752 21.9114 63.9141 20.997Z" fill="#A182C3"/>
<path d="M71.4595 15.5637C73.3458 15.5637 74.0339 16.916 74.0339 18.5812C74.0171 19.212 73.8816 19.8341 73.6345 20.4147H69.1304C69.0775 21.7526 69.8715 22.3397 70.9109 22.3397C71.4369 22.2977 71.939 22.1019 72.3545 21.7767L73.1437 23.1579C72.3098 23.7235 71.3216 24.0176 70.3142 24.0001C68.3894 24.0001 67.0805 22.7103 67.0805 20.5543C67.0709 17.5754 69.3566 15.5637 71.4595 15.5637ZM72.1813 19.0576C72.226 18.8618 72.2486 18.6617 72.2487 18.4609C72.2487 17.8112 71.984 17.2722 71.19 17.2722C70.396 17.2722 69.6694 17.8785 69.3085 19.0576H72.1813Z" fill="#A182C3"/>
<path d="M77.975 10.3421C78.5384 10.3421 78.9952 9.88536 78.9952 9.32189C78.9952 8.75842 78.5384 8.30164 77.975 8.30164C77.4116 8.30164 76.9549 8.75842 76.9549 9.32189C76.9549 9.88536 77.4116 10.3421 77.975 10.3421Z" fill="#503074"/>
<path d="M75.9299 23.8412C76.4933 23.8412 76.9501 23.3844 76.9501 22.8209C76.9501 22.2574 76.4933 21.8007 75.9299 21.8007C75.3665 21.8007 74.9097 22.2574 74.9097 22.8209C74.9097 23.3844 75.3665 23.8412 75.9299 23.8412Z" fill="#A182C3"/>
</g>
<defs>
<clipPath id="clip0_708_5717">
<rect width="79" height="24" fill="white"/>
</clipPath>
</defs>
</svg>
