<svg width="40" height="24" viewBox="0 0 40 24" fill="none" xmlns="http://www.w3.org/2000/svg">
<g clip-path="url(#clip0_708_5765)">
<path fill-rule="evenodd" clip-rule="evenodd" d="M11.9316 3.23754e-06C9.99225 0.00659982 8.08352 0.483459 6.36932 1.38962C4.65513 2.29578 3.18671 3.60416 2.0902 5.20237C0.993692 6.80058 0.301868 8.64084 0.0741539 10.5651C-0.15356 12.4894 0.089642 14.4401 0.782871 16.2497C1.4761 18.0594 2.59863 19.6738 4.05405 20.9544C5.50947 22.235 7.25427 23.1435 9.13857 23.6018C11.0229 24.0601 12.9904 24.0545 14.8721 23.5856C16.7537 23.1166 18.4933 22.1983 19.9415 20.9095C20.1081 20.7565 20.2747 20.6036 20.4323 20.4596L20.5943 20.2977H19.2886C19.059 20.0637 18.8384 19.8163 18.6268 19.5644H21.2517C21.4363 19.3395 21.6164 19.1145 21.783 18.8671H18.0955C17.8884 18.5747 17.6947 18.2778 17.5146 17.9674C17.2805 17.5646 17.07 17.1485 16.8843 16.7213L16.7357 16.3659L16.6006 16.006C16.5151 15.7631 16.4341 15.5202 16.362 15.2682H23.521C23.5885 15.0343 23.647 14.8184 23.701 14.553H16.1819C16.1069 14.1991 16.0438 13.8392 15.9928 13.4733C15.9928 13.5903 16.0243 13.7027 16.0423 13.8197H23.8631C23.8947 13.5903 23.9262 13.3698 23.9487 13.1224H15.9568C15.9568 12.8795 15.9163 12.6366 15.9073 12.3891H23.9712C23.9712 12.3307 23.9712 12.2677 23.9712 12.2092V12.1462C23.9712 12.0787 23.9712 12.0157 23.9712 11.9483C23.9712 11.8808 23.9712 11.7278 23.9712 11.6154C23.9712 11.215 23.9262 10.8101 23.8766 10.4097H16.0018C15.9703 10.6617 15.9433 10.9181 15.9298 11.1745C15.9787 10.4394 16.0962 9.71044 16.281 8.99719C16.3485 8.74527 16.4205 8.50235 16.4971 8.25942C16.4971 8.20094 16.5376 8.14696 16.5556 8.08848C16.5736 8.02999 16.5961 7.97601 16.6142 7.92203C16.6142 7.97601 16.5736 8.02999 16.5556 8.08848C16.5376 8.14696 16.5151 8.20094 16.4971 8.25942H23.3814C23.3093 8.02849 23.2283 7.80356 23.1382 7.58463H16.7447C16.8438 7.33271 16.9518 7.08979 17.0644 6.84686L17.1635 6.65342C17.195 6.58595 17.2265 6.52297 17.2625 6.45549C17.231 6.52297 17.195 6.58595 17.1635 6.65342C17.1319 6.7209 17.0959 6.78388 17.0644 6.84686H22.8141C22.7735 6.75689 22.7285 6.67142 22.6835 6.58145C22.6385 6.49147 22.643 6.50047 22.6205 6.45549V6.424V6.38801C22.5889 6.32953 22.5574 6.26655 22.5214 6.20806C22.4854 6.14958 22.4719 6.11809 22.4449 6.07311H17.4921C17.6362 5.82118 17.7893 5.57826 17.9424 5.33534L18.0549 5.16889L18.172 5.00694L18.4151 4.68304C18.6133 4.42662 18.8159 4.1837 19.032 3.94527H20.8645C20.7925 3.86879 20.7204 3.78782 20.6439 3.71134C20.4232 3.48192 20.1936 3.26148 19.9505 3.04555C17.742 1.08178 14.888 -0.00216197 11.9316 3.23754e-06ZM18.4061 4.66505L18.163 4.98894L18.0459 5.15089C18.0099 5.20938 17.9694 5.26336 17.9334 5.31734H21.9496C21.7965 5.09691 21.6389 4.86748 21.4993 4.66505H18.4061ZM16.281 8.99719C16.2239 9.23712 16.1699 9.47554 16.1189 9.71247H23.7731C23.7281 9.47404 23.674 9.23562 23.6155 8.99719H16.281ZM16.6006 16.015L16.7357 16.3749L16.8843 16.7303H22.9987C23.0977 16.4963 23.1923 16.2579 23.2823 16.015H16.6006ZM17.5011 17.9764C17.5327 18.0304 17.5687 18.0844 17.6002 18.1428H22.2693C22.3998 17.9224 22.5259 17.693 22.6475 17.4635H17.2445C17.3255 17.6165 17.4201 17.7829 17.5146 17.9539L17.5011 17.9764ZM22.0621 5.47479L22.1297 5.58276L22.0621 5.48379V5.47479ZM22.8906 6.97732C22.9143 7.02408 22.9354 7.07214 22.9536 7.12128C22.9536 7.07179 22.9131 7.02231 22.8906 6.97732ZM22.1252 18.3408L22.0621 18.4442L22.1252 18.3453V18.3408ZM20.9275 19.9063C20.896 19.9468 20.86 19.9828 20.824 20.0232C20.86 20.0008 20.896 19.9648 20.9275 19.9243V19.9063Z" fill="#543477"/>
<path fill-rule="evenodd" clip-rule="evenodd" d="M27.9514 -5.02572e-05C25.0002 -0.00664651 22.1494 1.07086 19.9415 3.0275C20.257 3.3117 20.5576 3.612 20.842 3.92722H19.023C18.8069 4.16565 18.6043 4.40857 18.4062 4.66499H21.4769C21.6389 4.87643 21.7965 5.11485 21.9271 5.31729H17.9334C17.7713 5.56021 17.6182 5.80314 17.4832 6.05506H22.4359C22.58 6.30698 22.715 6.5679 22.8411 6.82882H17.0644C16.9519 7.07174 16.8438 7.31466 16.7447 7.56659H23.1383C23.2283 7.78552 23.3094 8.01045 23.3814 8.24137H16.4971C16.3442 8.71683 16.2179 9.20043 16.1189 9.68992C16.1669 9.453 16.221 9.21457 16.281 8.97465H23.602C23.6606 9.21307 23.7146 9.4515 23.7596 9.68992H16.1054C16.0469 9.99583 16.0018 10.3062 15.9658 10.6166C15.9658 10.5537 15.9658 10.4907 15.9658 10.4277H23.8632C23.9299 10.9378 23.963 11.4518 23.9622 11.9662C23.9622 12.1057 23.9622 12.2406 23.9622 12.3756H15.9073C15.9073 12.623 15.9343 12.8659 15.9568 13.1089H23.9262C23.9262 13.3428 23.8722 13.5587 23.8407 13.8061H16.0424C16.0829 14.0536 16.1279 14.301 16.1819 14.5439H23.7011C23.647 14.7823 23.5885 15.0208 23.521 15.2547H16.362C16.4341 15.5066 16.5151 15.7495 16.6007 15.9925H23.2823C23.1923 16.2354 23.0977 16.4738 22.9987 16.7077H16.8843C17.0959 17.1942 17.3395 17.6661 17.6137 18.1203C17.4832 17.8954 17.3571 17.6704 17.2355 17.441H22.6385C22.5169 17.6704 22.3909 17.8909 22.2603 18.1203H17.6137C17.7668 18.3677 17.9289 18.6151 18.0955 18.8536H21.783C21.6164 19.092 21.4363 19.3259 21.2517 19.5508H18.6268C18.8384 19.8028 19.077 20.0457 19.2886 20.2841H20.5944C20.3827 20.5 20.1441 20.707 19.9415 20.9094C21.3897 22.2162 23.1348 23.1508 25.0257 23.6325C26.9166 24.1141 28.8965 24.1282 30.7941 23.6735C32.6918 23.2189 34.4499 22.3092 35.9166 21.0231C37.3833 19.737 38.5143 18.1133 39.2119 16.2924C39.9094 14.4715 40.1525 12.5082 39.92 10.5724C39.6876 8.63655 38.9866 6.78643 37.8778 5.18206C36.7689 3.5777 35.2856 2.26739 33.556 1.36447C31.8265 0.461548 29.9028 -0.0067942 27.9514 -5.02572e-05ZM15.9838 10.6166C15.9838 10.7426 15.9568 10.8686 15.9478 10.999C15.9478 10.8686 15.9703 10.7426 15.9838 10.6166ZM16.5016 8.24137C16.5016 8.18289 16.5421 8.12891 16.5601 8.07043C16.5601 8.12891 16.5241 8.18289 16.5016 8.24137ZM17.9379 5.31729L18.0505 5.15084C18.0144 5.20932 17.9739 5.2633 17.9379 5.31729ZM15.9163 11.3814C15.9163 11.4444 15.9163 11.5074 15.9163 11.5658C15.9118 11.5074 15.9118 11.4444 15.9163 11.3814ZM15.9928 13.4597C15.9928 13.4957 15.9928 13.5317 15.9928 13.5722C16.0063 13.5317 15.9973 13.4957 15.9928 13.4597ZM16.2675 14.8993C16.2675 14.9578 16.2945 15.0163 16.3125 15.0702C16.3125 15.0163 16.281 14.9578 16.2675 14.8993Z" fill="#AA8ACD"/>
</g>
<defs>
<clipPath id="clip0_708_5765">
<rect width="40" height="24" fill="white"/>
</clipPath>
</defs>
</svg>
