<svg width="32" height="30" viewBox="0 0 32 30" fill="none" xmlns="http://www.w3.org/2000/svg">
<path d="M18.4343 0.205741C18.4343 0.337414 18.3849 0.411481 18.3109 0.411481C18.2368 0.411481 18.1874 0.485547 18.1874 0.584303C18.1874 0.683058 18.0969 0.84765 17.9817 0.954635C17.8665 1.06162 17.776 1.21798 17.776 1.31674C17.776 1.40726 17.743 1.48133 17.6937 1.48133C17.6525 1.48133 17.5949 1.57186 17.562 1.68707C17.5373 1.80228 17.4797 1.89281 17.4385 1.89281C17.3974 1.89281 17.3645 1.95042 17.3645 2.01625C17.3645 2.08209 17.3316 2.1397 17.2822 2.1397C17.241 2.1397 17.1834 2.23022 17.1505 2.34544C17.1258 2.46065 17.0682 2.55118 17.0271 2.55118C16.9859 2.55118 16.953 2.6417 16.953 2.75692C16.953 2.88859 16.9036 2.96266 16.8295 2.96266C16.7637 2.96266 16.7061 3.02027 16.7061 3.0861C16.7061 3.15194 16.6732 3.20955 16.6238 3.20955C16.5827 3.20955 16.5415 3.30007 16.5415 3.41529C16.5415 3.54696 16.4921 3.62103 16.4181 3.62103C16.344 3.62103 16.2946 3.69509 16.2946 3.82677C16.2946 3.94198 16.2617 4.03251 16.2123 4.03251C16.1712 4.03251 16.13 4.09012 16.13 4.15595C16.13 4.22179 16.0971 4.2794 16.0477 4.2794C16.0066 4.2794 15.949 4.36992 15.9161 4.48514C15.8914 4.60035 15.8338 4.69088 15.8008 4.69088C15.7679 4.69088 15.7103 4.7814 15.6856 4.89662C15.6527 5.01183 15.5951 5.10236 15.554 5.10236C15.5046 5.10236 15.4717 5.15997 15.4717 5.2258C15.4717 5.29164 15.4387 5.34925 15.3894 5.34925C15.3482 5.34925 15.3071 5.42331 15.3071 5.51384C15.3071 5.60436 15.2495 5.70312 15.1836 5.72781C15.1178 5.76073 15.0602 5.86771 15.0602 5.9747C15.0602 6.08168 15.0437 6.17221 15.019 6.17221C14.9614 6.17221 14.6487 5.85125 14.6487 5.79364C14.6487 5.76896 14.5993 5.69489 14.5499 5.63728C14.3031 5.36571 14.2372 5.26695 14.2372 5.18465C14.2372 5.14351 14.1796 5.10236 14.1138 5.10236C14.0479 5.10236 13.9903 5.04475 13.9903 4.97891C13.9903 4.91308 13.9574 4.85547 13.908 4.85547C13.8669 4.85547 13.8257 4.7814 13.8257 4.69088C13.8257 4.60035 13.7681 4.5016 13.7023 4.47691C13.6365 4.44399 13.5789 4.39461 13.5789 4.34523C13.5789 4.30409 13.5295 4.21356 13.4801 4.15595C13.2332 3.88438 13.1674 3.78562 13.1674 3.70332C13.1674 3.66218 13.1345 3.62103 13.0851 3.62103C13.0439 3.62103 13.0028 3.56342 13.0028 3.49758C13.0028 3.43175 12.9452 3.37414 12.8793 3.37414C12.8053 3.37414 12.7559 3.30007 12.7559 3.1684C12.7559 3.03673 12.7065 2.96266 12.6324 2.96266C12.5666 2.96266 12.509 2.92151 12.509 2.87213C12.509 2.81453 12.4432 2.71577 12.3526 2.6417C12.2703 2.56764 12.1798 2.42773 12.1469 2.32075C12.114 2.22199 12.0481 2.1397 12.007 2.1397C11.9659 2.1397 11.9329 2.08209 11.9329 2.01625C11.9329 1.95042 11.9 1.89281 11.8506 1.89281C11.8095 1.89281 11.7519 1.80228 11.719 1.68707C11.6943 1.57186 11.6367 1.48133 11.5955 1.48133C11.5544 1.48133 11.5215 1.42372 11.5215 1.35789C11.5215 1.29205 11.4638 1.23444 11.398 1.23444C11.3322 1.23444 11.2746 1.18506 11.2746 1.11923C11.2746 1.06162 11.2087 0.987553 11.1264 0.971094C10.9865 0.929946 10.9783 0.962865 11.0359 1.26736C11.0771 1.44841 11.1017 2.09855 11.11 2.69108C11.11 3.36591 11.1429 3.78562 11.1923 3.78562C11.2416 3.78562 11.2746 4.21356 11.2746 4.91308C11.2746 5.66197 11.3157 6.21335 11.4062 6.55077C11.5626 7.20091 11.5379 7.45603 11.3157 7.42311C11.2252 7.40665 11.1429 7.35727 11.1264 7.31612C11.11 7.27497 11.0441 7.24206 10.9783 7.24206C10.9125 7.24206 10.8631 7.20914 10.8631 7.16799C10.8631 7.12684 10.7808 7.061 10.682 7.02809C10.5833 7.0034 10.3858 6.85526 10.2541 6.70713C10.1142 6.559 9.91668 6.4191 9.81792 6.38618C9.71094 6.35326 9.62864 6.28742 9.62864 6.24627C9.62864 6.20513 9.58749 6.17221 9.53812 6.17221C9.48874 6.17221 9.39821 6.12283 9.34061 6.06522C9.06903 5.82656 8.97027 5.76073 8.89621 5.76073C8.85506 5.76073 8.80568 5.70312 8.77276 5.63728C8.74807 5.57145 8.64932 5.51384 8.55879 5.51384C8.46827 5.51384 8.3942 5.47269 8.3942 5.43154C8.3942 5.38216 8.33659 5.34925 8.27076 5.34925C8.20492 5.34925 8.14731 5.29164 8.14731 5.2258C8.14731 5.15997 8.07325 5.10236 7.98272 5.10236C7.89219 5.10236 7.81813 5.06121 7.81813 5.02006C7.81813 4.97068 7.75229 4.90485 7.67822 4.88016C7.59593 4.84724 7.4478 4.74026 7.34081 4.63327C7.23383 4.52629 7.11038 4.44399 7.061 4.44399C7.01163 4.44399 6.88818 4.35346 6.7812 4.23825C6.67421 4.12303 6.55077 4.03251 6.50139 4.03251C6.45201 4.03251 6.32857 3.94198 6.22158 3.82677C6.1146 3.71155 5.95001 3.62103 5.85125 3.62103C5.7525 3.62103 5.67843 3.57165 5.67843 3.49758C5.67843 3.43175 5.62082 3.37414 5.55499 3.37414C5.48915 3.37414 5.43154 3.33299 5.43154 3.29184C5.43154 3.24247 5.39862 3.20955 5.34925 3.20955C5.3081 3.20955 5.26695 3.28361 5.26695 3.37414C5.26695 3.46467 5.3081 3.53873 5.34925 3.53873C5.39862 3.53873 5.43154 3.64572 5.43154 3.78562C5.43154 3.95021 5.47269 4.03251 5.55499 4.03251C5.62905 4.03251 5.67843 4.10658 5.67843 4.23825C5.67843 4.35346 5.71135 4.44399 5.7525 4.44399C5.79364 4.44399 5.84302 4.59212 5.87594 4.77317C5.90063 4.95422 5.96647 5.10236 6.00761 5.10236C6.05699 5.10236 6.08991 5.19288 6.08991 5.3081C6.08991 5.42331 6.12283 5.51384 6.16398 5.51384C6.20512 5.51384 6.26273 5.62082 6.29565 5.76073C6.32857 5.8924 6.38618 6.00761 6.42732 6.00761C6.46847 6.00761 6.50139 6.13929 6.50139 6.29565C6.50139 6.45201 6.53431 6.58369 6.57546 6.58369C6.61661 6.58369 6.67421 6.67421 6.6989 6.78943C6.73182 6.90464 6.78943 6.99517 6.83058 6.99517C6.87995 6.99517 6.91287 7.09392 6.91287 7.20914C6.91287 7.32435 6.97048 7.47249 7.03632 7.53832C7.10215 7.61239 7.15976 7.75229 7.15976 7.86751C7.15976 7.97449 7.20091 8.06502 7.24206 8.06502C7.29143 8.06502 7.32435 8.15554 7.32435 8.27076C7.32435 8.38597 7.35727 8.4765 7.39842 8.4765C7.43957 8.4765 7.49717 8.58348 7.53009 8.72339C7.56301 8.85506 7.62062 8.97027 7.66177 8.97027C7.70291 8.97027 7.73583 9.0608 7.73583 9.17601C7.73583 9.37352 7.71937 9.38175 7.20914 9.38175C6.9211 9.38175 6.66598 9.34061 6.64952 9.29946C6.63306 9.25008 6.37795 9.19247 6.06522 9.15955C5.76073 9.13487 5.51384 9.07726 5.51384 9.04434C5.51384 9.00319 5.31633 8.97027 5.07767 8.97027C4.82255 8.97027 4.57566 8.9209 4.47691 8.84683C4.38638 8.77276 4.13126 8.73162 3.85146 8.72339C3.58811 8.72339 3.37414 8.69047 3.37414 8.64932C3.37414 8.60817 3.14371 8.55056 2.8639 8.51765C2.57587 8.48473 2.32075 8.41889 2.28783 8.36951C2.25491 8.32013 2.19731 8.30368 2.16439 8.34482C2.13147 8.38597 2.14793 8.43535 2.20554 8.45181C2.25491 8.4765 2.30429 8.52587 2.30429 8.56702C2.30429 8.6164 2.91328 9.25008 3.66218 9.98252C5.18465 11.4803 5.2258 11.5215 5.34925 11.5215C5.39039 11.5215 5.43154 11.5626 5.43154 11.612C5.43154 11.7272 5.63728 11.9329 5.7525 11.9329C5.80187 11.9329 5.84302 11.9905 5.84302 12.0564C5.84302 12.1222 5.88417 12.1798 5.93355 12.1798C6.04876 12.1798 6.2545 12.3856 6.2545 12.5008C6.2545 12.5502 6.31211 12.5913 6.37795 12.5913C6.44378 12.5913 6.50139 12.6324 6.50139 12.6818C6.50139 12.797 6.70713 13.0028 6.82235 13.0028C6.87172 13.0028 6.91287 13.0604 6.91287 13.1262C6.91287 13.1921 6.97048 13.2497 7.03632 13.2497C7.25851 13.2497 7.16799 13.3978 6.91287 13.4554C6.77297 13.4883 6.66598 13.5459 6.66598 13.5871C6.66598 13.6282 6.42732 13.6611 6.13106 13.6611C5.83479 13.6611 5.59613 13.6941 5.59613 13.7352C5.59613 13.7681 5.34925 13.8257 5.04475 13.8504C4.74025 13.8751 4.47691 13.9327 4.46045 13.9821C4.44399 14.0315 4.21356 14.0726 3.90906 14.0726C3.62103 14.0726 3.37414 14.1055 3.35768 14.1549C3.34122 14.1961 3.10256 14.2619 2.81453 14.2866C2.53472 14.3195 2.30429 14.3771 2.30429 14.41C2.30429 14.4512 2.09855 14.4841 1.85166 14.4841C1.59654 14.4841 1.25913 14.5417 1.09454 14.6076C0.938175 14.6734 0.62545 14.731 0.403251 14.731C0.181051 14.731 0 14.7639 0 14.8133C0 14.8544 0.041148 14.8956 0.0822961 14.8956C0.131674 14.8956 0.164592 14.9532 0.164592 15.019C0.164592 15.1096 0.255118 15.1425 0.493777 15.1425C0.674828 15.1425 0.822961 15.1754 0.822961 15.2248C0.822961 15.2659 0.971094 15.3318 1.15215 15.3564C1.3332 15.3894 1.48133 15.4387 1.48133 15.4799C1.48133 15.521 1.56363 15.554 1.67061 15.554C1.7776 15.554 1.93396 15.6116 2.02448 15.6774C2.10678 15.7432 2.30429 15.8008 2.45242 15.8008C2.59233 15.8008 2.71577 15.8338 2.71577 15.8749C2.71577 15.9161 2.8639 15.9654 3.04496 15.9984C3.22601 16.023 3.37414 16.0889 3.37414 16.13C3.37414 16.1794 3.50581 16.2123 3.66218 16.2123C3.81854 16.2123 3.95021 16.2452 3.95021 16.2946C3.95021 16.3358 4.09835 16.4016 4.2794 16.4263C4.46045 16.4592 4.60858 16.5086 4.60858 16.5497C4.60858 16.5909 4.73202 16.6238 4.88016 16.6238C5.02006 16.6238 5.21757 16.6814 5.29987 16.7473C5.39039 16.8131 5.54676 16.8707 5.65374 16.8707C5.76073 16.8707 5.84302 16.9036 5.84302 16.953C5.84302 16.9941 5.90063 17.0353 5.96647 17.0353C6.0323 17.0353 6.08991 17.0929 6.08991 17.1587C6.08991 17.2246 6.0323 17.2822 5.96647 17.2822C5.90063 17.2822 5.84302 17.3151 5.84302 17.3562C5.84302 17.3974 5.7525 17.455 5.63728 17.4797C5.52207 17.5126 5.43154 17.5702 5.43154 17.6114C5.43154 17.6607 5.34102 17.6937 5.2258 17.6937C5.09413 17.6937 5.02006 17.743 5.02006 17.8171C5.02006 17.8912 4.94599 17.9405 4.84724 17.9405C4.74848 17.9405 4.58389 18.0311 4.47691 18.1463C4.36992 18.2615 4.21356 18.352 4.1148 18.352C4.02428 18.352 3.95021 18.3849 3.95021 18.4343C3.95021 18.4755 3.85969 18.5331 3.74447 18.566C3.62926 18.5907 3.53873 18.6483 3.53873 18.6812C3.53873 18.7141 3.47289 18.7635 3.39883 18.7964C3.19309 18.8623 2.96266 19.0104 2.60056 19.3149C2.53472 19.3725 2.40305 19.4219 2.30429 19.4219C2.21376 19.4219 2.1397 19.4548 2.1397 19.5042C2.1397 19.5453 2.08209 19.5865 2.01625 19.5865C1.95042 19.5865 1.89281 19.6441 1.89281 19.7099C1.89281 19.784 1.81874 19.8334 1.6953 19.8334C1.58831 19.8334 1.48133 19.891 1.44841 19.9568C1.42372 20.0226 1.32497 20.0802 1.23444 20.0802C1.14392 20.0802 1.06985 20.1132 1.06985 20.1625C1.06985 20.2119 1.30028 20.2448 1.60477 20.2448C1.90104 20.2448 2.1397 20.2119 2.1397 20.1708C2.1397 20.1296 2.57587 20.0885 3.11079 20.0638C3.63749 20.0473 4.15595 19.9815 4.25471 19.9321C4.36169 19.8745 4.79786 19.8334 5.34102 19.8334C5.83479 19.8334 6.2545 19.8004 6.27096 19.7593C6.31211 19.6358 7.91688 19.6112 7.95803 19.7264C7.98272 19.784 7.94157 19.8334 7.86751 19.8334C7.79344 19.8334 7.73583 19.891 7.73583 19.9568C7.73583 20.0226 7.70291 20.0802 7.66177 20.0802C7.62062 20.0802 7.55478 20.1625 7.52186 20.2613C7.48894 20.3683 7.39842 20.5082 7.31612 20.5823C7.2256 20.6563 7.15976 20.7551 7.15976 20.8127C7.15976 20.8621 7.10215 20.9032 7.03632 20.9032C6.97048 20.9032 6.91287 20.9608 6.91287 21.0266C6.91287 21.0925 6.87995 21.1501 6.8388 21.1501C6.79766 21.1501 6.73182 21.2324 6.6989 21.3311C6.67421 21.4299 6.51785 21.6274 6.36972 21.7755C6.21335 21.9154 6.08991 22.0718 6.08991 22.1294C6.08991 22.1788 6.05699 22.2199 6.01584 22.2199C5.9747 22.2199 5.90886 22.3022 5.87594 22.401C5.8101 22.615 5.64551 22.796 5.52207 22.796C5.47269 22.796 5.43154 22.8536 5.43154 22.9195C5.43154 22.9853 5.39862 23.0429 5.34925 23.0429C5.3081 23.0429 5.26695 23.1005 5.26695 23.1663C5.26695 23.2322 5.20934 23.2898 5.14351 23.2898C5.07767 23.2898 5.02006 23.3474 5.02006 23.4132C5.02006 23.4873 4.92954 23.6272 4.81432 23.7342C4.69911 23.8412 4.60858 23.9564 4.60858 23.9893C4.60858 24.0222 4.51806 24.1374 4.40284 24.2444C4.28763 24.3514 4.1971 24.4666 4.1971 24.4995C4.1971 24.5407 4.10657 24.6641 3.99136 24.7876C3.72801 25.0674 3.72801 25.1826 3.99136 25.1826C4.10657 25.1826 4.1971 25.1497 4.1971 25.1003C4.1971 25.0592 4.28763 25.0016 4.40284 24.9686C4.51806 24.9439 4.60858 24.8863 4.60858 24.8452C4.60858 24.804 4.69911 24.7711 4.80609 24.7711C4.91308 24.7711 5.04475 24.7135 5.10236 24.6477C5.15996 24.5818 5.29164 24.5242 5.39862 24.5242C5.50561 24.5242 5.59613 24.4913 5.59613 24.4502C5.59613 24.409 5.70312 24.3514 5.84302 24.3185C5.9747 24.2856 6.08991 24.228 6.08991 24.1868C6.08991 24.1457 6.18044 24.1128 6.29565 24.1128C6.41087 24.1128 6.50139 24.0798 6.50139 24.0305C6.50139 23.9893 6.59192 23.9317 6.70713 23.8988C6.82235 23.8741 6.91287 23.8165 6.91287 23.7753C6.91287 23.7342 6.99517 23.7013 7.10215 23.7013C7.20914 23.7013 7.3655 23.6437 7.45603 23.5778C7.53832 23.512 7.67822 23.4544 7.76052 23.4544C7.83459 23.4544 7.90042 23.4132 7.90042 23.3721C7.90042 23.3227 7.97449 23.2898 8.05679 23.2898C8.14731 23.2898 8.27076 23.2322 8.34482 23.1663C8.41066 23.1005 8.54233 23.0429 8.63286 23.0429C8.73161 23.0429 8.80568 23.01 8.80568 22.9606C8.80568 22.9195 8.93735 22.8619 9.09372 22.8289C9.25008 22.8042 9.38175 22.7466 9.38175 22.7055C9.38175 22.6643 9.47228 22.6314 9.57926 22.6314C9.68625 22.6314 9.79323 22.5738 9.82615 22.508C9.85084 22.4421 9.96606 22.3845 10.0813 22.3845C10.1965 22.3845 10.287 22.3434 10.287 22.3022C10.287 22.2529 10.3611 22.2199 10.4598 22.2199C10.5997 22.2199 10.6162 22.2529 10.5668 22.3598C10.5339 22.4421 10.4845 22.7796 10.4681 23.1005C10.4516 23.4297 10.4105 23.7013 10.3775 23.7013C10.3364 23.7013 10.287 24.0222 10.2623 24.4172C10.2376 24.8287 10.18 25.1497 10.1306 25.1661C10.073 25.1826 10.0401 25.4377 10.0401 25.8081C10.0401 26.1455 10.0072 26.417 9.96606 26.417C9.92491 26.417 9.8673 26.7133 9.83438 27.0754C9.80146 27.4375 9.74386 27.7338 9.70271 27.7338C9.66156 27.7338 9.62864 28.03 9.62864 28.3921C9.62864 28.7789 9.59572 29.0505 9.54635 29.0505C9.5052 29.0505 9.46405 29.1822 9.46405 29.3386C9.46405 29.4949 9.48051 29.6266 9.5052 29.6266C9.58749 29.6266 10.0401 29.1328 10.0401 29.0423C10.0401 29.0011 10.1306 28.8777 10.2459 28.7707C10.3611 28.6637 10.4516 28.5403 10.4516 28.4827C10.4516 28.4333 10.5092 28.3921 10.575 28.3921C10.6409 28.3921 10.6985 28.351 10.6985 28.3016C10.6985 28.2522 10.8302 28.0959 10.9865 27.9478C11.1429 27.7914 11.2746 27.635 11.2746 27.5856C11.2746 27.5363 11.4227 27.347 11.6037 27.1659C11.7848 26.9849 11.9329 26.8121 11.9329 26.7791C11.9329 26.7545 12.0646 26.6063 12.221 26.45C12.3773 26.3018 12.509 26.1455 12.509 26.0961C12.509 26.0467 12.6571 25.8574 12.8382 25.6764C13.0192 25.4953 13.1674 25.3143 13.1674 25.2649C13.1674 25.2238 13.225 25.1826 13.2908 25.1826C13.3567 25.1826 13.4143 25.1415 13.4143 25.0921C13.4143 24.9769 13.62 24.7711 13.7352 24.7711C13.7846 24.7711 13.8257 24.8616 13.8257 24.9769C13.8257 25.0921 13.8587 25.1826 13.8998 25.1826C13.941 25.1826 13.9986 25.2896 14.0315 25.4295C14.0644 25.5612 14.122 25.6928 14.1632 25.7175C14.2043 25.7504 14.2372 25.8739 14.2372 26.0138C14.2372 26.1455 14.2701 26.2525 14.3113 26.2525C14.3524 26.2525 14.4018 26.4006 14.4347 26.5816C14.4594 26.7627 14.5253 26.9108 14.5664 26.9108C14.6158 26.9108 14.6487 27.0425 14.6487 27.1989C14.6487 27.3552 14.6816 27.4869 14.7228 27.4869C14.7639 27.4869 14.8215 27.5939 14.8544 27.7338C14.8874 27.8655 14.945 27.9807 14.9861 27.9807C15.0273 27.9807 15.0602 28.1123 15.0602 28.2769C15.0602 28.4333 15.1178 28.6226 15.1836 28.6884C15.2495 28.7625 15.3071 28.9024 15.3071 29.0176C15.3071 29.1246 15.3482 29.2151 15.3894 29.2151C15.4387 29.2151 15.4717 29.3139 15.4717 29.4373C15.4717 29.569 15.5046 29.7253 15.5457 29.783C15.6116 29.8817 15.6363 29.857 15.6774 29.6842C15.7103 29.5608 15.7679 29.462 15.8091 29.462C15.8502 29.462 15.8831 29.355 15.8831 29.2233C15.8831 29.0917 15.9408 28.9271 16.0066 28.853C16.0724 28.7872 16.13 28.6226 16.13 28.4827C16.13 28.3428 16.1712 28.2276 16.2123 28.2276C16.2617 28.2276 16.2946 28.1288 16.2946 28.0136C16.2946 27.8984 16.3522 27.7502 16.4181 27.6844C16.4839 27.6103 16.5415 27.4457 16.5415 27.3141C16.5415 27.1824 16.5827 27.0754 16.6238 27.0754C16.6732 27.0754 16.7061 26.9931 16.7061 26.8861C16.7061 26.7791 16.7637 26.6228 16.8295 26.5323C16.8954 26.45 16.953 26.2525 16.953 26.1043C16.953 25.9644 16.9859 25.841 17.0353 25.841C17.0764 25.841 17.1423 25.6928 17.167 25.5118C17.1999 25.3307 17.2493 25.1826 17.2904 25.1826C17.3316 25.1826 17.3645 25.0921 17.3645 24.9769C17.3645 24.8616 17.4056 24.7711 17.455 24.7711C17.5702 24.7711 17.776 24.9769 17.776 25.0921C17.776 25.1415 17.8336 25.1826 17.8994 25.1826C17.9652 25.1826 18.0228 25.2402 18.0228 25.306C18.0228 25.3719 18.064 25.4295 18.1051 25.4295C18.1545 25.4295 18.1874 25.4789 18.1874 25.5447C18.1874 25.6105 18.245 25.6764 18.3109 25.7093C18.3767 25.734 18.4343 25.8081 18.4343 25.8821C18.4343 25.948 18.4755 26.0056 18.5166 26.0056C18.566 26.0056 18.5989 26.0632 18.5989 26.129C18.5989 26.1948 18.6565 26.2525 18.7224 26.2525C18.7882 26.2525 18.8458 26.2936 18.8458 26.343C18.8458 26.4582 19.0515 26.6639 19.1668 26.6639C19.2161 26.6639 19.2573 26.7215 19.2573 26.7874C19.2573 26.8532 19.2902 26.9108 19.3314 26.9108C19.3725 26.9108 19.4383 26.9931 19.4713 27.0919C19.4959 27.1906 19.6523 27.3881 19.8004 27.5363C19.9568 27.6762 20.0802 27.8325 20.0802 27.8901C20.0802 27.9395 20.1379 27.9807 20.2037 27.9807C20.2695 27.9807 20.3271 28.0218 20.3271 28.063C20.3271 28.1123 20.4177 28.244 20.5329 28.3592C20.6481 28.4744 20.7386 28.6061 20.7386 28.6555C20.7386 28.7049 20.8703 28.8612 21.0267 29.0176C21.183 29.1657 21.3147 29.3221 21.3147 29.3715C21.3147 29.4209 21.3723 29.462 21.4381 29.462C21.504 29.462 21.5616 29.5196 21.5616 29.5854C21.5616 29.6513 21.5945 29.7089 21.6356 29.7089C21.6768 29.7089 21.7426 29.783 21.7673 29.8817C21.8085 29.9969 21.8496 30.0298 21.9072 29.9722C21.9977 29.8817 21.9484 28.7872 21.8167 28.063C21.7755 27.8161 21.7344 27.2153 21.7344 26.7215C21.7262 26.1948 21.6932 25.841 21.6439 25.841C21.5945 25.841 21.5616 25.3966 21.5616 24.6806C21.5616 24.0469 21.5204 23.4544 21.4793 23.3721C21.4299 23.2816 21.3723 22.9935 21.3394 22.7137C21.29 22.2199 21.29 22.2199 21.5122 22.2199C21.6274 22.2199 21.7262 22.2529 21.7262 22.3022C21.7262 22.3434 21.7838 22.3845 21.8496 22.3845C21.9154 22.3845 21.9731 22.4421 21.9731 22.508C21.9731 22.582 22.0471 22.6314 22.1788 22.6314C22.294 22.6314 22.3845 22.6643 22.3845 22.7137C22.3845 22.7549 22.4751 22.8125 22.5903 22.8454C22.7055 22.8701 22.796 22.9277 22.796 22.9688C22.796 23.01 22.8536 23.0429 22.9195 23.0429C22.9853 23.0429 23.0429 23.0758 23.0429 23.117C23.0429 23.1581 23.1252 23.224 23.224 23.2569C23.3227 23.2816 23.4955 23.3968 23.6107 23.5038C23.726 23.6107 23.8659 23.7013 23.9235 23.7013C23.9811 23.7013 24.0305 23.7342 24.0305 23.7753C24.0305 23.8165 24.121 23.8741 24.2362 23.8988C24.3514 23.9317 24.4419 23.9893 24.4419 24.0305C24.4419 24.0798 24.4995 24.1128 24.5654 24.1128C24.6312 24.1128 24.6888 24.1457 24.6888 24.195C24.6888 24.2362 24.7794 24.2938 24.8946 24.3267C25.0098 24.3514 25.1003 24.409 25.1003 24.4419C25.1003 24.4749 25.1908 24.5325 25.306 24.5572C25.4213 24.5901 25.5118 24.6477 25.5118 24.6888C25.5118 24.7382 25.5694 24.7711 25.6352 24.7711C25.7011 24.7711 25.7587 24.804 25.7587 24.8534C25.7587 24.8946 25.8492 24.9522 25.9644 24.9851C26.0796 25.0098 26.1702 25.0674 26.1702 25.1085C26.1702 25.1497 26.2442 25.1826 26.3265 25.1826C26.4088 25.1826 26.4993 25.2402 26.5323 25.306C26.5569 25.3719 26.631 25.4295 26.7051 25.4295C26.7709 25.4295 26.8285 25.4624 26.8285 25.5118C26.8285 25.5529 26.9026 25.5941 26.9931 25.5941C27.0836 25.5941 27.1577 25.6517 27.1577 25.7175C27.1577 25.7834 27.2153 25.841 27.2812 25.841C27.347 25.841 27.4046 25.8739 27.4046 25.9233C27.4046 25.9644 27.4457 26.0056 27.4869 26.0056C27.5363 26.0056 27.5692 25.915 27.5692 25.7998C27.5692 25.6846 27.5363 25.5941 27.4869 25.5941C27.4457 25.5941 27.4046 25.5036 27.4046 25.3883C27.4046 25.2731 27.3717 25.1826 27.3223 25.1826C27.2812 25.1826 27.2153 25.0345 27.1906 24.8534C27.1577 24.6724 27.1083 24.5242 27.0672 24.5242C27.026 24.5242 26.9931 24.4337 26.9931 24.3185C26.9931 24.2033 26.9602 24.1128 26.9108 24.1128C26.8697 24.1128 26.8121 23.9811 26.7791 23.8247C26.7545 23.6684 26.6969 23.5367 26.6557 23.5367C26.6146 23.5367 26.5816 23.4379 26.5816 23.3227C26.5816 23.2075 26.524 23.0594 26.4582 22.9935C26.3924 22.9195 26.3347 22.7796 26.3347 22.6643C26.3347 22.5574 26.3018 22.4668 26.2525 22.4668C26.2113 22.4668 26.1702 22.3763 26.1702 22.2611C26.1702 22.1459 26.1125 22.0307 26.0467 22.006C25.9726 21.9731 25.9233 21.8496 25.9233 21.7179C25.9233 21.5863 25.8903 21.4793 25.8492 21.4793C25.8081 21.4793 25.7504 21.3476 25.7258 21.1912C25.6928 21.0349 25.6352 20.9032 25.5941 20.9032C25.5447 20.9032 25.5118 20.8127 25.5118 20.6975C25.5118 20.5823 25.4789 20.4917 25.4295 20.4917C25.3883 20.4917 25.3225 20.3436 25.2978 20.1625C25.2649 19.9815 25.2155 19.8334 25.1744 19.8334C25.1332 19.8334 25.1003 19.7428 25.1003 19.6358C25.1003 19.5289 25.0674 19.4219 25.0262 19.4054C24.9933 19.389 24.9357 19.3067 24.9028 19.2079C24.8534 19.0433 24.8781 19.0351 26.1866 18.9857C26.9273 18.9528 27.6597 18.8952 27.8161 18.8458C27.9724 18.8047 28.7954 18.7635 29.6431 18.7635C31.0915 18.7635 31.5523 18.6894 30.9433 18.5578C30.8117 18.5248 30.6964 18.4672 30.6964 18.4261C30.6964 18.3849 30.5648 18.352 30.4084 18.352C30.252 18.352 30.1204 18.3191 30.1204 18.2697C30.1204 18.2286 30.0298 18.171 29.9146 18.1381C29.7994 18.1134 29.7089 18.0558 29.7089 18.0146C29.7089 17.9735 29.6019 17.9405 29.4702 17.9405C29.3386 17.9405 29.174 17.8829 29.0999 17.8171C29.0341 17.7513 28.9024 17.6937 28.8119 17.6937C28.7131 17.6937 28.639 17.6607 28.639 17.6196C28.639 17.5784 28.5074 17.5208 28.351 17.4961C28.1946 17.4632 28.063 17.4056 28.063 17.3645C28.063 17.3151 27.9642 17.2822 27.849 17.2822C27.7338 17.2822 27.5856 17.2246 27.5198 17.1587C27.4457 17.0929 27.3058 17.0353 27.1906 17.0353C27.0836 17.0353 26.9931 16.9941 26.9931 16.953C26.9931 16.9036 26.9026 16.8707 26.7874 16.8707C26.6722 16.8707 26.5569 16.8131 26.5323 16.7473C26.4993 16.6732 26.3759 16.6238 26.2031 16.6238C26.0467 16.6238 25.9233 16.5827 25.9233 16.5415C25.9233 16.4921 25.8492 16.4592 25.7587 16.4592C25.6681 16.4592 25.5694 16.4016 25.5447 16.3358C25.5118 16.2699 25.4459 16.2123 25.3801 16.2123C25.2073 16.2123 25.2402 16.0395 25.4295 15.9901C25.52 15.9654 25.5941 15.9161 25.5941 15.8749C25.5941 15.8338 25.6681 15.8008 25.7504 15.8008C25.8327 15.8008 25.9233 15.7432 25.9562 15.6774C25.9809 15.6116 26.0796 15.554 26.1702 15.554C26.2607 15.554 26.3347 15.5128 26.3347 15.4717C26.3347 15.4223 26.3924 15.3894 26.4582 15.3894C26.524 15.3894 26.5816 15.3318 26.5816 15.2659C26.5816 15.1919 26.6557 15.1425 26.7874 15.1425C26.9026 15.1425 26.9931 15.1096 26.9931 15.0602C26.9931 15.019 27.0836 14.9614 27.1989 14.9285C27.3141 14.9038 27.4046 14.8544 27.4046 14.8133C27.4046 14.7804 27.5445 14.6899 27.7091 14.5993C28.0054 14.4512 28.063 14.41 28.3428 14.1714C28.4086 14.122 28.5074 14.0726 28.5567 14.0726C28.5979 14.0726 28.639 14.0397 28.639 13.9903C28.639 13.9492 28.7296 13.8916 28.8448 13.8587C28.96 13.834 29.0505 13.7764 29.0505 13.7352C29.0505 13.6941 29.1081 13.6611 29.174 13.6611C29.2398 13.6611 29.2974 13.6282 29.2974 13.5789C29.2974 13.5377 29.3879 13.4801 29.5031 13.4472C29.6184 13.4225 29.7089 13.3649 29.7089 13.332C29.7089 13.299 29.7994 13.2414 29.9146 13.2168C30.0298 13.1838 30.1204 13.1262 30.1204 13.0851C30.1204 13.0357 30.178 13.0028 30.2438 13.0028C30.3096 13.0028 30.3673 12.9699 30.3673 12.9205C30.3673 12.8793 30.4578 12.8217 30.573 12.7888C30.6882 12.7641 30.7787 12.7065 30.7787 12.6654C30.7787 12.6242 30.8528 12.5913 30.9351 12.5913C31.0174 12.5913 31.1079 12.5337 31.1408 12.4679C31.1655 12.402 31.2396 12.3444 31.3137 12.3444C31.3795 12.3444 31.4371 12.3115 31.4371 12.2703C31.4371 12.2292 31.5112 12.1634 31.6017 12.1387C31.6922 12.114 31.7663 12.0235 31.7663 11.9412C31.7663 11.8013 31.6346 11.7848 30.2027 11.7272C29.3468 11.6943 28.639 11.6367 28.639 11.6037C28.639 11.5626 27.9066 11.5132 27.0178 11.4885C26.1208 11.4721 25.232 11.4309 25.0427 11.398C24.6724 11.3404 24.5983 11.2005 24.7958 10.9865C25.018 10.7314 25.1003 10.6244 25.1003 10.5668C25.1003 10.5339 25.1908 10.4269 25.306 10.3199C25.4213 10.2129 25.5118 10.106 25.5118 10.0813C25.5118 10.0484 25.5612 9.97429 25.6188 9.91668C25.8574 9.6451 25.9233 9.54635 25.9233 9.46405C25.9233 9.4229 25.9809 9.38175 26.0467 9.38175C26.1125 9.38175 26.1702 9.32415 26.1702 9.25831C26.1702 9.19247 26.2031 9.13487 26.236 9.13487C26.2771 9.13487 26.3759 9.00319 26.4664 8.84683C26.5487 8.69047 26.6475 8.55879 26.6804 8.55879C26.7215 8.55879 26.7462 8.50119 26.7462 8.43535C26.7462 8.36951 26.8038 8.31191 26.8697 8.31191C26.9355 8.31191 26.9931 8.27076 26.9931 8.22138C26.9931 8.16377 27.0836 8.04033 27.1989 7.93334C27.3141 7.82636 27.4046 7.70291 27.4046 7.65354C27.4046 7.60416 27.4951 7.48071 27.6103 7.37373C27.7256 7.26674 27.8161 7.15153 27.8161 7.11861C27.8161 7.08569 27.9066 6.97048 28.0218 6.86349C28.137 6.75651 28.2276 6.63306 28.2276 6.58369C28.2276 6.53431 28.3181 6.41087 28.4333 6.30388C28.5485 6.1969 28.639 6.07345 28.639 6.01584C28.639 5.96647 28.6966 5.92532 28.7625 5.92532C28.8283 5.92532 28.8859 5.86771 28.8859 5.80187C28.8859 5.73604 28.9353 5.67843 28.9929 5.6702C29.0423 5.6702 29.0094 5.62905 28.9106 5.57968C28.7707 5.51384 28.7049 5.52207 28.5979 5.62905C28.5238 5.70312 28.3757 5.76073 28.2605 5.76073C28.1535 5.76073 28.063 5.79364 28.063 5.83479C28.063 5.87594 27.956 5.93355 27.8161 5.96647C27.6844 5.99939 27.5692 6.05699 27.5692 6.09814C27.5692 6.13929 27.4375 6.17221 27.2812 6.17221C27.0836 6.17221 26.9931 6.21335 26.9931 6.29565C26.9931 6.36972 26.919 6.4191 26.7874 6.4191C26.6722 6.4191 26.5816 6.45201 26.5816 6.50139C26.5816 6.54254 26.4829 6.58369 26.3677 6.58369C26.2525 6.58369 26.1043 6.64129 26.0385 6.70713C25.9644 6.77297 25.8245 6.83058 25.7093 6.83058C25.6023 6.83058 25.5118 6.86349 25.5118 6.90464C25.5118 6.94579 25.4213 7.0034 25.306 7.02809C25.1908 7.061 25.1003 7.11861 25.1003 7.15976C25.1003 7.20914 24.9686 7.24206 24.8123 7.24206C24.6559 7.24206 24.5242 7.27497 24.5242 7.31612C24.5242 7.35727 24.4172 7.41488 24.2773 7.4478C24.1457 7.48071 24.0305 7.53832 24.0305 7.57947C24.0305 7.62062 23.9564 7.65354 23.8576 7.65354C23.7671 7.65354 23.6354 7.71114 23.5696 7.77698C23.4955 7.84282 23.3556 7.90042 23.2404 7.90042C23.1334 7.90042 23.0429 7.93334 23.0429 7.98272C23.0429 8.02387 22.9524 8.06502 22.8372 8.06502C22.7219 8.06502 22.6067 8.12262 22.582 8.18846C22.5491 8.26253 22.4257 8.31191 22.2611 8.31191C22.113 8.31191 21.9731 8.36128 21.9484 8.41066C21.9319 8.46827 21.8825 8.49296 21.8496 8.45181C21.8085 8.41889 21.8249 8.34482 21.8743 8.29545C21.9319 8.23784 21.9731 8.01564 21.9731 7.80167C21.9731 7.5877 22.006 7.40665 22.0471 7.40665C22.0883 7.40665 22.1459 7.21737 22.1788 6.99517C22.2117 6.76474 22.2693 6.58369 22.3105 6.58369C22.3516 6.58369 22.3845 6.39441 22.3845 6.17221C22.3845 5.94178 22.4175 5.76073 22.4586 5.76073C22.4998 5.76073 22.5574 5.57145 22.5903 5.34925C22.6232 5.11882 22.6808 4.93777 22.7219 4.93777C22.7631 4.93777 22.796 4.7814 22.796 4.58389C22.8042 4.39461 22.8536 4.14772 22.9195 4.03251C22.9853 3.91729 23.0347 3.72801 23.0429 3.59634C23.0429 3.4729 23.0841 3.37414 23.1252 3.37414C23.1746 3.37414 23.2075 3.18486 23.2075 2.96266C23.2075 2.73223 23.2486 2.55118 23.2898 2.55118C23.3392 2.55118 23.3721 2.46065 23.3721 2.34544C23.3721 2.23022 23.3556 2.1397 23.3309 2.1397C23.3063 2.1397 23.1417 2.28783 22.9606 2.46888C22.7796 2.64993 22.5903 2.79807 22.5491 2.79807C22.4998 2.79807 22.2446 3.02027 21.9731 3.29184C21.7015 3.56342 21.4464 3.78562 21.397 3.78562C21.3558 3.78562 21.3147 3.84323 21.3147 3.90906C21.3147 3.9749 21.2571 4.03251 21.1912 4.03251C21.1172 4.03251 20.9773 4.12303 20.8703 4.23825C20.7633 4.35346 20.6399 4.44399 20.5823 4.44399C20.5329 4.44399 20.4917 4.48514 20.4917 4.53451C20.4917 4.64973 20.286 4.85547 20.1708 4.85547C20.1214 4.85547 20.0802 4.91308 20.0802 4.97891C20.0802 5.04475 20.0391 5.10236 19.9897 5.10236C19.9403 5.10236 19.8498 5.15174 19.7922 5.20111C19.5206 5.448 19.4219 5.51384 19.3478 5.51384C19.1914 5.51384 19.0845 4.93777 19.0351 3.76093C19.0104 3.09433 18.9528 2.55118 18.9116 2.55118C18.8787 2.55118 18.8458 2.11501 18.8458 1.58009C18.8458 0.329185 18.7882 4.22436e-07 18.5907 4.22436e-07C18.4755 4.22436e-07 18.4343 0.0576077 18.4343 0.205741Z" fill="#F7CE15"/>
<ellipse cx="16.13" cy="15.1425" rx="8.14731" ry="7.98272" fill="white"/>
<path d="M10.5997 11.0853C10.4269 11.1018 10.287 11.1512 10.287 11.2005C10.287 11.2417 10.2294 11.2746 10.1635 11.2746C10.0977 11.2746 10.0401 11.3322 10.0401 11.398C10.0401 11.4639 9.99893 11.5215 9.94955 11.5215C9.83434 11.5215 9.6286 11.7272 9.6286 11.8424C9.6286 11.8918 9.59568 11.933 9.55453 11.933C9.464 11.933 9.38171 12.2457 9.43931 12.3938C9.50515 12.5666 9.6286 12.5337 9.6286 12.3444C9.6286 12.1799 9.71089 12.04 9.94132 11.826C10.2294 11.5626 10.287 11.5215 10.4351 11.5215C10.5256 11.5215 10.6161 11.4639 10.6491 11.398C10.7643 11.0853 11.9329 11.4886 11.9329 11.8424C11.9329 11.8918 11.9658 11.933 12.0152 11.933C12.0563 11.933 12.1139 12.0235 12.1469 12.1387C12.1715 12.2539 12.2292 12.3444 12.2703 12.3444C12.3114 12.3444 12.3444 12.6736 12.3444 13.0851C12.3444 13.9328 12.4596 14.0727 12.5419 13.3238C12.5913 12.7806 12.5336 12.1799 12.4184 12.1799C12.3773 12.1799 12.3444 12.0811 12.3444 11.9659C12.3444 11.7519 12.1798 11.5215 12.0234 11.5215C11.974 11.5215 11.9329 11.4639 11.9329 11.398C11.9329 11.3322 11.8835 11.2746 11.8177 11.2746C11.7518 11.2746 11.686 11.2417 11.6695 11.2005C11.6366 11.1018 11.0029 11.0359 10.5997 11.0853Z" fill="black"/>
<path d="M15.9655 11.1923C15.9655 11.2334 15.8174 11.2746 15.6363 11.2746C15.3976 11.2746 15.3071 11.3075 15.3071 11.398C15.3071 11.4721 15.2331 11.5214 15.1014 11.5214C14.9039 11.5214 14.8298 11.5626 14.5253 11.8259C14.4677 11.8835 14.3772 11.9329 14.3278 11.9329C14.2784 11.9329 14.2373 11.9905 14.2373 12.0564C14.2373 12.1222 14.1961 12.1798 14.1467 12.1798C14.0315 12.1798 13.8258 12.3856 13.8258 12.5008C13.8258 12.5501 13.7929 12.5913 13.7435 12.5913C13.7023 12.5913 13.6447 12.6818 13.6118 12.797C13.5871 12.9123 13.5295 13.0028 13.4884 13.0028C13.4472 13.0028 13.4143 13.2826 13.4143 13.62C13.4143 13.9739 13.4472 14.2372 13.4966 14.2372C13.546 14.2372 13.5789 14.2866 13.5789 14.3442C13.5789 14.4676 14.0233 14.8956 14.155 14.8956C14.1961 14.8956 14.2373 14.9532 14.2373 15.019C14.2373 15.1178 14.3936 15.1425 15.1837 15.1425H16.1301V15.3482C16.1301 15.4634 16.163 15.554 16.2041 15.554C16.3194 15.554 16.3852 15.3153 16.3276 15.0931C16.2782 14.8956 16.2618 14.8956 15.3812 14.8956C14.8874 14.8956 14.4842 14.8627 14.4842 14.8215C14.4842 14.7804 14.3936 14.7228 14.2784 14.6981C14.1632 14.6652 14.0727 14.6158 14.0727 14.5746C14.0727 14.5335 14.0068 14.4347 13.9328 14.3524C13.76 14.1796 13.727 13.0768 13.8916 13.0192C13.9492 13.0028 13.9904 12.8958 13.9904 12.7888C13.9904 12.6654 14.0398 12.5913 14.1138 12.5913C14.1797 12.5913 14.2373 12.5501 14.2373 12.5008C14.2373 12.3856 14.443 12.1798 14.5582 12.1798C14.6076 12.1798 14.6487 12.1222 14.6487 12.0564C14.6487 11.9823 14.7228 11.9329 14.8545 11.9329C14.9697 11.9329 15.0602 11.9 15.0602 11.8506C15.0602 11.8095 15.1508 11.7519 15.266 11.719C15.3812 11.6943 15.4717 11.6367 15.4717 11.5955C15.4717 11.5544 15.554 11.5214 15.661 11.5214C15.7597 11.5214 15.9079 11.4474 15.9902 11.3569C16.1548 11.1676 16.163 11.11 16.0478 11.11C16.0066 11.11 15.9655 11.1429 15.9655 11.1923Z" fill="black"/>
<path d="M19.8333 11.5955C19.8333 11.6367 19.751 11.7025 19.6522 11.7354C19.4382 11.8013 19.2572 11.9659 19.2572 12.0893C19.2572 12.1387 19.1996 12.1798 19.1337 12.1798C19.0597 12.1798 19.0103 12.2539 19.0103 12.3856C19.0103 12.5008 18.9774 12.5913 18.928 12.5913C18.8869 12.5913 18.8457 12.723 18.8457 12.8794C18.8457 13.0357 18.8786 13.1674 18.9198 13.1674C18.9609 13.1674 19.0185 13.0357 19.0432 12.8794C19.0761 12.723 19.1337 12.5913 19.1749 12.5913C19.2243 12.5913 19.2572 12.5502 19.2572 12.5008C19.2572 12.3856 19.4629 12.1798 19.5781 12.1798C19.6275 12.1798 19.6687 12.1222 19.6687 12.0564C19.6687 11.9823 19.7427 11.933 19.8744 11.933C19.9896 11.933 20.0801 11.8918 20.0801 11.8507C20.0801 11.8013 20.2118 11.7684 20.3682 11.7684C20.5245 11.7684 20.6562 11.8013 20.6562 11.8507C20.6562 11.8918 20.755 11.933 20.8702 11.933C21.0842 11.933 21.5615 12.328 21.5615 12.5008C21.5615 12.5502 21.5944 12.5913 21.6355 12.5913C21.6767 12.5913 21.7261 12.7395 21.759 12.9205C21.7837 13.1016 21.8495 13.2497 21.8907 13.2497C21.94 13.2497 21.973 13.513 21.973 13.8669C21.973 14.2208 22.0059 14.4841 22.0553 14.4841C22.1046 14.4841 22.1375 14.1796 22.1375 13.7435C22.1375 13.3073 22.1046 13.0028 22.0553 13.0028C22.0141 13.0028 21.973 12.8547 21.973 12.6736C21.973 12.435 21.94 12.3444 21.8495 12.3444C21.7837 12.3444 21.7261 12.3033 21.7261 12.2539C21.7261 12.1387 21.5203 11.933 21.4051 11.933C21.3557 11.933 21.3146 11.9 21.3146 11.8507C21.3146 11.8095 21.2241 11.7519 21.1088 11.719C20.9936 11.6943 20.9031 11.6367 20.9031 11.5955C20.9031 11.5544 20.6644 11.5215 20.3682 11.5215C20.0719 11.5215 19.8333 11.5544 19.8333 11.5955Z" fill="black"/>
<path d="M10.6491 12.4678C10.6162 12.5336 10.5339 12.5912 10.4516 12.5912C10.3611 12.5912 10.287 12.6735 10.2541 12.797C10.2212 12.9122 10.1636 13.0027 10.1224 13.0027C9.99076 13.0027 10.0154 14.6404 10.1471 14.7639C10.394 15.019 11.11 15.019 11.11 14.7639C11.11 14.698 11.1511 14.6486 11.1923 14.6486C11.2417 14.6486 11.2746 14.5581 11.2746 14.4511C11.2746 14.3359 11.3322 14.196 11.398 14.122C11.4803 14.0397 11.5215 13.8339 11.5215 13.4636C11.5215 12.9698 11.4968 12.9122 11.2417 12.6406C10.9536 12.3279 10.7232 12.2621 10.6491 12.4678Z" fill="black"/>
<path d="M20.0801 12.9205C20.0801 12.9616 20.0225 13.0028 19.9567 13.0028C19.8908 13.0028 19.8332 13.0604 19.8332 13.1262C19.8332 13.1921 19.8003 13.2497 19.7509 13.2497C19.7098 13.2497 19.6686 13.3731 19.6686 13.5295C19.6686 13.6858 19.6193 13.8257 19.5699 13.8422C19.4958 13.8669 19.4629 14.0726 19.4629 14.4841C19.4629 14.8956 19.4958 15.1013 19.5699 15.1178C19.6193 15.1425 19.6686 15.2495 19.6686 15.3564C19.6686 15.5293 19.7098 15.554 19.9649 15.554C20.1789 15.554 20.3188 15.4881 20.4998 15.3153C20.6315 15.1836 20.7385 15.0355 20.7385 14.9861C20.7385 14.9367 20.7714 14.8956 20.8125 14.8956C20.9195 14.8956 20.9936 14.0726 20.936 13.5048C20.8948 13.1591 20.8455 13.0028 20.7714 13.0028C20.7056 13.0028 20.6562 12.9616 20.6562 12.9205C20.6562 12.8711 20.5245 12.8382 20.3681 12.8382C20.2118 12.8382 20.0801 12.8711 20.0801 12.9205Z" fill="black"/>
<path d="M10.8631 16.0477C10.8631 16.1053 10.7314 16.2699 10.5751 16.4263C10.4187 16.5744 10.287 16.7308 10.287 16.7802C10.287 16.8295 10.2459 16.8707 10.1965 16.8707C10.106 16.8707 9.62866 17.3151 9.62866 17.3974C9.62866 17.4221 9.71919 17.4468 9.8344 17.4468C9.94962 17.4468 10.0401 17.4056 10.0401 17.3645C10.0401 17.3151 10.0895 17.2822 10.1554 17.2822C10.2212 17.2822 10.287 17.2328 10.3117 17.1752C10.3529 17.0682 10.6985 17.4056 10.6985 17.5537C10.6985 17.5949 10.789 17.7183 10.9043 17.8253C11.0195 17.9323 11.11 18.0393 11.11 18.064C11.11 18.0887 11.2005 18.2039 11.3157 18.3191C11.4309 18.4343 11.5215 18.5742 11.5215 18.6401C11.5215 18.7059 11.5791 18.7635 11.6449 18.7635C11.7108 18.7635 11.7684 18.7964 11.7684 18.8458C11.7684 18.9692 12.3856 19.5618 12.5831 19.6276C12.6818 19.6523 12.7559 19.7181 12.7559 19.7593C12.7559 19.8004 12.8135 19.8333 12.8794 19.8333C12.9452 19.8333 13.0028 19.891 13.0028 19.9568C13.0028 20.0226 13.0769 20.0802 13.1674 20.0802C13.2579 20.0802 13.332 20.1132 13.332 20.1625C13.332 20.2037 13.3814 20.2448 13.4472 20.2448C13.5048 20.2448 13.6036 20.3024 13.6612 20.3683C13.7188 20.4341 13.8669 20.4917 13.9986 20.4917C14.1303 20.4917 14.2372 20.5246 14.2372 20.574C14.2372 20.6152 14.3854 20.681 14.5664 20.7057C14.7475 20.7386 14.8956 20.788 14.8956 20.8291C14.8956 20.8703 15.4552 20.9032 16.1301 20.9032C16.8131 20.9032 17.3645 20.8703 17.3645 20.8291C17.3645 20.788 17.5126 20.7386 17.6937 20.7057C17.8747 20.681 18.0229 20.6152 18.0229 20.574C18.0229 20.5246 18.1134 20.4917 18.2204 20.4917C18.3356 20.4917 18.4755 20.4341 18.5496 20.3683C18.6154 20.3024 18.7059 20.2448 18.7553 20.2448C18.8047 20.2448 18.8458 20.2037 18.8458 20.1625C18.8458 20.1132 18.9363 20.0802 19.0516 20.0802C19.1832 20.0802 19.2573 20.0309 19.2573 19.9568C19.2573 19.891 19.2985 19.8333 19.3478 19.8333C19.3972 19.8333 19.4877 19.784 19.5453 19.7264C19.8169 19.4877 19.9157 19.4219 19.998 19.4219C20.0391 19.4219 20.0803 19.3643 20.0803 19.2984C20.0803 19.2326 20.1214 19.175 20.1708 19.175C20.2695 19.175 20.4917 18.9692 20.4917 18.8787C20.4917 18.8458 20.574 18.747 20.681 18.6483C20.788 18.5495 20.9444 18.352 21.0267 18.2039C21.1172 18.0558 21.2077 17.9405 21.2406 17.9405C21.2736 17.9405 21.3229 17.85 21.3476 17.7348C21.3805 17.6196 21.4382 17.5291 21.4793 17.5291C21.5287 17.5291 21.5616 17.4715 21.5616 17.4056C21.5616 17.2328 21.6192 17.2493 21.8414 17.4879C21.9484 17.6031 22.0718 17.6937 22.1294 17.6937C22.1788 17.6937 22.22 17.7266 22.22 17.7759C22.22 17.8171 22.2611 17.8582 22.3023 17.8582C22.4586 17.8582 22.3846 17.6031 22.1788 17.4138C22.0636 17.3069 21.9731 17.1834 21.9731 17.1258C21.9731 17.0764 21.9155 17.0353 21.8496 17.0353C21.7756 17.0353 21.7262 16.9612 21.7262 16.8295C21.7262 16.7143 21.6933 16.6238 21.6439 16.6238C21.6027 16.6238 21.5616 16.5333 21.5616 16.4181C21.5616 16.2946 21.5122 16.2123 21.4464 16.2123C21.3805 16.2123 21.3147 16.1629 21.29 16.1053C21.2736 16.0477 21.2242 16.0395 21.183 16.0806C21.1419 16.1218 21.1501 16.1712 21.216 16.1876C21.2736 16.2123 21.3147 16.3769 21.3147 16.6156V17.0106L20.7222 17.06C20.393 17.0929 20.1132 17.1505 20.0967 17.1999C20.0803 17.2493 19.6359 17.2822 18.9199 17.2822C18.2121 17.2822 17.776 17.3151 17.776 17.3645C17.776 17.4138 17.2657 17.4468 16.4181 17.4468C15.5704 17.4468 15.0602 17.4138 15.0602 17.3645C15.0602 17.3151 14.624 17.2822 13.9163 17.2822C13.1674 17.2822 12.7559 17.2493 12.7395 17.1916C12.723 17.1423 12.402 17.0847 12.0317 17.06C11.6614 17.0353 11.3569 16.9777 11.3569 16.9448C11.3569 16.9036 11.2087 16.8707 11.0277 16.8707C10.789 16.8707 10.6985 16.8378 10.6985 16.7472C10.6985 16.6814 10.7397 16.6238 10.7808 16.6238C10.8302 16.6238 10.8631 16.5333 10.8631 16.4181C10.8631 16.2864 10.9125 16.2123 10.9948 16.2123C11.0688 16.2123 11.11 16.1712 11.0935 16.1136C11.0442 15.9819 10.8631 15.9325 10.8631 16.0477ZM12.0975 17.3562C12.0975 17.3974 12.435 17.4632 12.8382 17.4961C13.2497 17.5208 13.5789 17.5784 13.5789 17.6196C13.5789 17.6607 14.8051 17.6937 16.2946 17.6937C17.7924 17.6937 19.0104 17.6607 19.0104 17.6196C19.0104 17.5784 19.3478 17.5208 19.7511 17.4961C20.1626 17.4632 20.4917 17.3974 20.4917 17.3562C20.4917 17.3151 20.6399 17.2822 20.8209 17.2822C21.1748 17.2822 21.2489 17.4138 21.0267 17.6443C20.9608 17.7101 20.9032 17.8006 20.9032 17.85C20.9032 17.8994 20.8703 17.9405 20.8374 17.9405C20.8045 17.9405 20.7057 18.0558 20.6152 18.2039C20.5329 18.352 20.3765 18.5495 20.2695 18.6483C20.1626 18.747 20.0803 18.8623 20.0803 18.9199C20.0803 18.9692 20.0391 19.0104 19.998 19.0104C19.9486 19.0104 19.8169 19.1009 19.7017 19.2161C19.5865 19.3313 19.463 19.4219 19.4137 19.4219C19.3725 19.4219 19.2491 19.5124 19.1421 19.6276C19.0351 19.7428 18.8705 19.8333 18.7718 19.8333C18.673 19.8333 18.5989 19.8827 18.5989 19.9568C18.5989 20.0309 18.5249 20.0802 18.3932 20.0802C18.278 20.0802 18.1875 20.1132 18.1875 20.1625C18.1875 20.2037 18.1134 20.2448 18.0146 20.2448C17.9241 20.2448 17.7924 20.3024 17.7266 20.3683C17.6525 20.4423 17.4468 20.4917 17.2328 20.4917C17.0353 20.4917 16.8707 20.5246 16.8707 20.574C16.8707 20.6234 16.558 20.6563 16.0889 20.6563C15.6198 20.6563 15.3071 20.6234 15.3071 20.574C15.3071 20.5246 15.1178 20.4917 14.8956 20.4917C14.5993 20.4917 14.4677 20.4588 14.4348 20.3683C14.4018 20.3024 14.2949 20.2448 14.1879 20.2448C14.0809 20.2448 13.9904 20.2037 13.9904 20.1625C13.9904 20.1132 13.8998 20.0802 13.7846 20.0802C13.6529 20.0802 13.5789 20.0309 13.5789 19.9568C13.5789 19.8827 13.5048 19.8333 13.4061 19.8333C13.3073 19.8333 13.1427 19.7428 13.0357 19.6276C12.9287 19.5124 12.8053 19.4219 12.7641 19.4219C12.6407 19.4219 11.5462 18.3026 11.4803 18.1134C11.4556 18.0146 11.3898 17.9405 11.3487 17.9405C11.3075 17.9405 11.2746 17.8829 11.2746 17.8171C11.2746 17.7513 11.2417 17.6937 11.1923 17.6937C11.1511 17.6937 11.11 17.636 11.11 17.5702C11.11 17.5044 11.0771 17.4468 11.0277 17.4468C10.9865 17.4468 10.9454 17.4056 10.9454 17.3645C10.9454 17.3151 11.1923 17.2822 11.5215 17.2822C11.8424 17.2822 12.0975 17.3151 12.0975 17.3562Z" fill="black"/>
</svg>
