<?xml version="1.0" encoding="utf-8"?>
<!-- Generator: Adobe Illustrator 24.1.2, SVG Export Plug-In . SVG Version: 6.00 Build 0)  -->
<svg version="1.1" id="Слой_1" xmlns="http://www.w3.org/2000/svg" xmlns:xlink="http://www.w3.org/1999/xlink" x="0px" y="0px"
	 viewBox="0 0 60 60" style="enable-background:new 0 0 60 60;" xml:space="preserve">
<style type="text/css">
	.st0{fill-rule:evenodd;clip-rule:evenodd;fill:#4C4B4E;}
	.st1{fill-rule:evenodd;clip-rule:evenodd;fill:#373435;}
	.st2{fill-rule:evenodd;clip-rule:evenodd;fill:#386CB4;}
	.st3{fill-rule:evenodd;clip-rule:evenodd;fill:#2AADE4;}
</style>
<g id="mrslotty" transform="translate(0 -274.709)">
	<g id="Page-1_1_" transform="matrix(.34156 0 0 .34156 -.3416 270.2687)">
		<g id="mrsl-color">
			<g id="mrsl" transform="translate(1 13)">
				<path id="Shape_6_" class="st0" d="M0,143.5l169.8-28.2l5.8,4.2L0,143.5z"/>
				<path id="polygon1379" class="st1" d="M170.6,125.2l5-5.7L0,143.5L170.6,125.2z"/>
				<path id="path1381" class="st1" d="M48.6,99.7L35.9,30.4l51.4-2.7l53.4,2.9l-12.2,68.8l1.8-0.4c5.5,3,11.2,6.1,16.7,9.2
					c-18.4,14.2-38.1,27.3-58.7,39.8c-20.6-12.2-40-25.5-58.6-39.8l15.9-9.3L48.6,99.7z"/>
				<path id="polygon1383" class="st2" d="M100.7,97.6l9.6,19.8l14.3-8.3l-36,23.1V126l12.2-4.8L100.7,97.6z"/>
				<path id="path1385" class="st2" d="M118.4,40.6l19.2-7.3c-1,6.2-2.1,12.6-3.1,18.9C134.4,42.2,128.5,39.1,118.4,40.6L118.4,40.6
					z"/>
				<path id="path1387" class="st2" d="M114.7,89.5c8.9-3.7,14.4-7.9,15.6-14.3l-5.7,33.9L114.7,89.5z"/>
				<path id="path1389" class="st2" d="M117.1,64.7c1.2-8.2-7.7-4.4-16-0.9v15.4C108.4,77,115.7,74.6,117.1,64.7z"/>
				<path id="path1391" class="st0" d="M54.1,111.7l-7.9-9.9c-3.4,2.1-6.8,4.2-10.1,6.5c16,13.5,33.2,25.3,50.9,36.1L54.1,111.7z"/>
				<path id="polygon1393" class="st0" d="M39.5,33.3L53,110.4l8.6,3.7l26.8,15.9L88,52L39.5,33.3z"/>
				<path id="polygon1395" class="st3" d="M39.5,33.3l47.6-2.9l50.7,2.9L88.2,52.1l-11.1-4.2L66.1,65l-8.3-24.6L39.5,33.3z"/>
				<path id="path1397" class="st3" d="M61.7,114.2l-5.8-2.3c9.7,7,20.6,13.7,32.8,20.3V126l-11.8-4.5l-0.1-34.6l-9.1,14.4l-9.3-22
					L61.7,114.2z"/>
				<path id="polygon1399" class="st0" d="M129.6,102.5l-4.8,4.4l-0.3,2.1l17.5-0.8L129.6,102.5z"/>
				<path id="polygon1401" class="st3" d="M144.6,123.7l-4.5-3.5l29.7-4.9l5.8,4.2L144.6,123.7z"/>
				<path id="polygon1403" class="st2" d="M170.6,125.2l5-5.7l-31,4.2l-1.8,4.5L170.6,125.2z"/>
			</g>
		</g>
	</g>
</g>
</svg>
