<svg width="110" height="24" viewBox="0 0 110 24" fill="none" xmlns="http://www.w3.org/2000/svg">
<g clip-path="url(#clip0_708_5757)">
<mask id="mask0_708_5757" style="mask-type:luminance" maskUnits="userSpaceOnUse" x="0" y="0" width="113" height="28">
<path d="M112.219 0H0V27.2851H112.219V0Z" fill="white"/>
</mask>
<g mask="url(#mask0_708_5757)">
<path d="M102.702 2.77336C102.115 1.95078 101.395 1.32031 100.596 0.93095C99.7534 0.5239 98.8758 0.260255 97.9838 0.146223L97.1932 0.0389927C97.0839 0.0389927 96.9637 0.0779854 96.8544 0H89.05L88.6602 2.74898C88.3505 5.03006 88.0408 7.30138 87.7202 9.5727C87.4433 11.6198 87.1627 13.6328 86.8822 15.6653C86.7607 16.5297 86.6393 17.3972 86.5178 18.2681C86.4887 18.5313 86.4778 18.5313 86.2956 18.5313H77.7298C77.6595 18.5445 77.5879 18.5327 77.5221 18.4972C77.5585 18.1998 77.6023 17.9074 77.6423 17.6149C77.7808 16.6109 77.9192 15.6117 78.0613 14.6076C78.0905 14.3542 78.0978 14.3542 78.28 14.3542H83.2606C83.5302 14.3542 83.512 14.3932 83.5593 14.0471C83.7488 12.619 83.9237 11.2055 84.1277 9.78716C84.1605 9.60195 84.1605 9.60195 84.0075 9.60195H78.9686C78.739 9.60195 78.739 9.60195 78.7791 9.29488C78.9467 8.12835 79.1094 6.95857 79.2673 5.78554C79.3293 5.41024 79.2673 5.44923 79.5697 5.44923H84.769C84.8783 5.44923 84.9074 5.39561 84.9256 5.26401C85.0167 4.58164 85.1078 3.89927 85.2062 3.22177C85.3337 2.24695 85.4758 1.24289 85.6179 0.243704C85.6241 0.16274 85.6253 0.0812312 85.6215 0L74.2539 0C74.2289 0.367507 74.185 0.732291 74.1228 1.0918C73.9624 2.27132 73.8058 3.43136 73.6345 4.60601L73.0661 8.72949C72.8475 10.3721 72.618 12.0146 72.3957 13.6572C72.2172 14.9147 72.0569 16.143 71.8784 17.3859C71.8492 17.5808 71.8492 17.5808 71.6853 17.5808H67.8961C67.7248 17.5808 67.7175 17.5808 67.7467 17.3566C67.9835 15.6458 68.224 13.9448 68.4535 12.2437C68.6831 10.5426 68.9126 8.95857 69.1312 7.33063C69.3717 5.59058 69.6231 3.87002 69.8599 2.13485C69.9473 1.49147 70.0384 0.828595 70.1259 0.185215C70.1334 0.128793 70.1334 0.0710444 70.1259 0.0146223H64.187C63.9065 2.05686 63.6296 4.09911 63.3417 6.14135C63.0794 8.05199 62.8195 9.96101 62.562 11.8684C62.3033 13.7108 62.0519 15.5532 61.7933 17.4005C61.7641 17.5955 61.7641 17.5955 61.6147 17.5955H57.9312C57.7599 17.5955 57.7599 17.5955 57.7927 17.3712C58.1024 15.1535 58.4012 12.9846 58.7109 10.7474C59.0206 8.51015 59.3376 6.20959 59.6582 3.92364C59.8294 2.70999 59.997 1.4866 60.1573 0.282697C60.1825 0.192492 60.19 0.0951853 60.1792 0L54.244 0C54.2181 0.359004 54.1755 0.715501 54.1165 1.06742C53.9671 2.14947 53.8177 3.2169 53.6683 4.29407C53.4789 5.68806 53.2857 7.04793 53.0963 8.42242C52.8995 9.87815 52.7004 11.329 52.4988 12.775C52.2911 14.3103 52.0798 15.831 51.8721 17.3566C51.8211 17.7027 51.7628 18.039 51.73 18.3851C51.7295 18.4102 51.7248 18.4349 51.7162 18.4573C51.7075 18.4797 51.6952 18.4991 51.6801 18.5142C51.665 18.5292 51.6475 18.5394 51.629 18.5441C51.6105 18.5487 51.5915 18.5477 51.5733 18.541H42.9274C42.6796 18.541 42.6468 18.6239 42.7088 18.1998C42.8764 16.9959 43.0403 15.8213 43.197 14.632C43.2261 14.3786 43.2261 14.3786 43.4374 14.3786H48.3962C48.4496 14.3737 48.5031 14.3737 48.5565 14.3786C48.5724 14.3827 48.5887 14.3824 48.6045 14.3777C48.6203 14.373 48.6352 14.3639 48.6482 14.3511C48.6612 14.3382 48.6721 14.3219 48.6802 14.3032C48.6882 14.2844 48.6933 14.2636 48.695 14.2421C48.8954 12.7311 49.103 11.2396 49.3034 9.72868V9.70431C49.2297 9.67036 49.1511 9.66034 49.0739 9.67506H44.1333C43.8856 9.67506 43.8856 9.67506 43.9257 9.36799C44.0957 8.12998 44.2657 6.89846 44.4358 5.67344C44.4358 5.53696 44.4868 5.48335 44.5961 5.48335C44.8256 5.48335 45.0442 5.48335 45.2738 5.48335H49.9775C50.0758 5.48335 50.1123 5.42973 50.1341 5.29813C50.1961 4.81072 50.2653 4.32331 50.3345 3.83591C50.4948 2.64663 50.6515 1.4476 50.8155 0.243704C50.8155 0.175467 50.8155 0.0974817 50.8337 0.0194963H15.492C15.452 0.506905 15.3718 0.940699 15.3135 1.39399C15.0803 3.06093 14.8617 4.73274 14.6358 6.38505L14.0346 10.7717C13.878 11.961 13.7067 13.1357 13.5464 14.3201C13.5464 14.4029 13.5246 14.4809 13.5173 14.5638C13.459 14.5638 13.459 14.4955 13.4371 14.4565C12.7194 11.8148 11.9979 9.18278 11.2948 6.55565C10.7094 4.45979 10.1288 2.34931 9.55318 0.224208C9.53132 0.155971 9.52403 0.0779854 9.50217 0.0146223H3.33742C3.25362 0.623883 3.15524 1.24289 3.07509 1.85703C2.79818 3.8684 2.5225 5.87002 2.24802 7.8619C1.96747 9.87977 1.68693 11.883 1.41002 13.8863C1.14769 15.8067 0.889007 17.7417 0.61939 19.6669C0.44086 20.9878 0.255043 22.3087 0.0692259 23.6198C0.0690404 23.6592 0.0627995 23.6982 0.0508908 23.7342C0.0389822 23.7703 0.02166 23.8027 0 23.8294C0 23.9123 0 24.0341 0.102017 23.9903C0.102017 23.9903 0.153026 23.9903 0.17853 23.9903H5.93886C5.91704 23.8636 5.91704 23.7319 5.93886 23.6052C6.13925 22.1089 6.33599 20.6125 6.53639 19.1162C6.74771 17.5028 6.96631 15.8895 7.18492 14.2713C7.38896 12.7652 7.5857 11.2543 7.77516 9.72868C7.80796 9.51909 7.84439 9.30463 7.86625 9.08042C7.93548 9.08042 7.92455 9.14379 7.93548 9.18278C8.20509 10.2015 8.46378 11.2299 8.7334 12.2583C9.37465 14.7539 10.0208 17.2543 10.6717 19.7595C10.9996 21.0707 11.3385 22.3623 11.6773 23.6832C11.7084 23.7761 11.7293 23.8747 11.7393 23.9756H32.8568C32.8832 23.6164 32.927 23.2598 32.988 22.9082C33.1957 21.3582 33.4179 19.7985 33.6256 18.2486C33.8333 16.6986 34.0555 15.1779 34.2632 13.6426C34.4527 12.2827 34.6275 10.918 34.8243 9.5727C35.021 8.22746 35.1886 6.99431 35.3635 5.69781C35.3927 5.48335 35.3854 5.48335 35.5639 5.48335H38.5479C38.6281 5.48335 38.6572 5.52234 38.6463 5.61495C38.6062 5.87327 38.5771 6.10236 38.5479 6.36556C38.2674 8.39318 37.9868 10.4354 37.699 12.4679C37.4111 14.5004 37.1525 16.4744 36.8719 18.4777C36.6788 19.8375 36.5076 21.1974 36.3108 22.5719C36.2416 23.0593 36.1797 23.5467 36.1104 24H91.5349C91.5575 23.6372 91.6001 23.2772 91.6624 22.9228C91.8264 21.7335 91.983 20.5345 92.1433 19.3306L92.832 14.4029C92.9231 13.7595 92.9996 13.121 93.0943 12.4923C93.1526 12.4923 93.1526 12.5703 93.1599 12.6288C93.5607 14.4175 93.9578 16.221 94.3586 17.9903C94.7994 19.9399 95.2294 21.9188 95.6666 23.883C95.6666 23.9074 95.6666 23.9513 95.6666 23.9756H101.565C101.365 23.2396 101.157 22.4793 100.946 21.7433C100.287 19.394 99.627 17.0593 98.9676 14.7197C98.8911 14.4419 98.8911 14.4419 99.1097 14.3786C99.6642 14.2474 100.207 14.0366 100.727 13.7498C101.403 13.3699 102.005 12.7886 102.487 12.0504C102.97 11.3122 103.32 10.4364 103.511 9.48985C103.657 8.78452 103.737 8.05751 103.748 7.32575C103.776 6.61779 103.734 5.90788 103.62 5.21527C103.475 4.30828 103.155 3.46802 102.691 2.77823L102.702 2.77336ZM29.3154 6.84809C29.155 8.05199 28.9874 9.28513 28.8162 10.4647C28.6267 11.8294 28.4519 13.1893 28.2478 14.5638C28.0766 15.8067 27.909 17.0642 27.7377 18.3022C27.7086 18.5313 27.7086 18.541 27.5264 18.541H18.9023C18.8452 18.5541 18.7864 18.5421 18.7347 18.5069C18.8768 17.5321 19.0043 16.5963 19.1319 15.6458C19.1829 15.2998 19.2229 14.9683 19.274 14.6174C19.3031 14.3639 19.3031 14.3639 19.5035 14.3639H24.6845C24.9432 14.3639 24.9432 14.3639 24.9942 14.0179C25.1727 12.7067 25.3586 11.4054 25.5225 10.1186C25.5225 10.0065 25.5517 9.90414 25.5735 9.78229C25.5954 9.66044 25.5735 9.62145 25.4533 9.60682H20.254C20.0136 9.60682 20.0136 9.60682 20.0537 9.29976C20.203 8.11535 20.3524 6.9407 20.5091 5.75142C20.5419 5.48335 20.5419 5.48335 20.7496 5.48335H29.3263C29.483 5.48335 29.4939 5.48335 29.4647 5.69781C29.4247 6.09748 29.3627 6.48253 29.3154 6.87246V6.84809ZM97.8126 9.12916C97.5911 9.86341 97.1653 10.454 96.6248 10.7766C96.2166 11.0147 95.7823 11.1628 95.3387 11.2153C94.9755 11.264 94.6106 11.2851 94.2456 11.2786H93.4477C93.2473 11.2786 93.2473 11.2786 93.2874 11.0252C93.3566 10.5085 93.4259 9.987 93.4987 9.46548C93.6955 8.06174 93.8849 6.6775 94.0853 5.27376C94.1363 4.86921 94.1363 4.86921 94.4497 4.86921C94.8619 4.85922 95.2742 4.87875 95.6848 4.9277C96.0787 4.97103 96.4662 5.0875 96.8361 5.27376C97.1794 5.46163 97.4725 5.78341 97.6772 6.19721C97.8819 6.61101 97.9888 7.09767 97.9838 7.59383C98.0059 8.11589 97.9476 8.63845 97.8126 9.12916ZM106.921 16.9813C106.252 17.1404 105.655 17.6398 105.255 18.3749C104.855 19.1099 104.683 20.0236 104.775 20.9245C104.828 21.5859 105.024 22.2123 105.339 22.7267C105.654 23.2411 106.075 23.621 106.55 23.8197C106.674 23.8638 106.796 23.9209 106.914 23.9903H107.839C108.058 23.9126 108.272 23.8149 108.481 23.6978C108.848 23.4803 109.172 23.1533 109.43 22.7418C109.688 22.3303 109.871 21.8454 109.967 21.3241C109.968 21.188 109.985 21.053 110.018 20.9245V19.9838C109.977 19.8268 109.952 19.6627 109.945 19.4963C109.765 18.6454 109.353 17.9155 108.791 17.4502C108.228 16.9848 107.556 16.8175 106.907 16.9813H106.921ZM107.373 23.3956C106.793 23.3956 106.237 23.0875 105.827 22.5391C105.417 21.9906 105.187 21.2468 105.187 20.4712C105.187 19.8928 105.315 19.3273 105.555 18.8464C105.796 18.3655 106.137 17.9907 106.536 17.7693C106.936 17.548 107.375 17.4901 107.8 17.6029C108.224 17.7157 108.613 17.9943 108.919 18.4033C109.225 18.8123 109.433 19.3333 109.517 19.9006C109.601 20.4679 109.558 21.0559 109.393 21.5903C109.227 22.1247 108.947 22.5814 108.588 22.9028C108.228 23.2241 107.805 23.3956 107.373 23.3956ZM108.084 20.5686C108.178 20.52 108.265 20.4469 108.339 20.3535C108.412 20.2601 108.471 20.1481 108.513 20.0241C108.554 19.9001 108.577 19.7664 108.579 19.6307C108.582 19.495 108.564 19.3599 108.528 19.2331C108.491 19.097 108.431 18.9738 108.353 18.8725C108.281 18.7767 108.195 18.7021 108.1 18.6534C108.006 18.6047 107.904 18.583 107.803 18.5898C107.373 18.5898 106.943 18.6434 106.524 18.658C106.258 18.658 106.258 18.658 106.265 19.0431C106.265 19.0723 106.265 19.1113 106.265 19.1357C106.287 19.7108 106.313 20.2713 106.335 20.8318C106.335 21.2851 106.357 21.7287 106.375 22.1576C106.375 22.4793 106.397 22.4647 106.615 22.45C106.776 22.45 106.776 22.4208 106.776 22.2258C106.776 21.8603 106.743 21.5045 106.732 21.1389C106.732 21.0366 106.684 20.9001 106.732 20.8221C106.779 20.7441 106.885 20.7831 106.961 20.7539C107.111 20.7004 107.269 20.7117 107.413 20.7861C107.557 20.8606 107.679 20.9944 107.763 21.1682C107.952 21.5045 108.127 21.8359 108.309 22.143C108.339 22.2112 108.371 22.3038 108.43 22.3038C108.579 22.3441 108.734 22.3167 108.871 22.2258C108.601 21.626 108.264 21.0851 107.872 20.6223C107.934 20.5912 107.997 20.5651 108.062 20.5443L108.084 20.5686ZM107.632 20.2567C107.391 20.2859 107.154 20.2567 106.925 20.3152H106.863C106.717 20.3152 106.725 20.3152 106.706 20.1154C106.688 19.9155 106.706 19.6279 106.674 19.3404C106.641 19.0528 106.674 19.1015 106.856 19.0869C107.066 19.0798 107.275 19.0537 107.482 19.0089C107.605 18.9817 107.731 19.0002 107.847 19.0626C107.93 19.0907 108.005 19.1523 108.062 19.2391C108.119 19.326 108.154 19.4339 108.163 19.5484C108.173 19.6629 108.156 19.7785 108.115 19.8799C108.074 19.9812 108.011 20.0634 107.934 20.1154C107.839 20.1769 107.737 20.218 107.632 20.2372V20.2567Z" fill="#AA8ACD"/>
</g>
</g>
<defs>
<clipPath id="clip0_708_5757">
<rect width="110" height="24" fill="white"/>
</clipPath>
</defs>
</svg>
