<?xml version="1.0" encoding="utf-8"?>
<!-- Generator: Adobe Illustrator 24.1.2, SVG Export Plug-In . SVG Version: 6.00 Build 0)  -->
<svg version="1.1" id="Слой_1" xmlns="http://www.w3.org/2000/svg" xmlns:xlink="http://www.w3.org/1999/xlink" x="0px" y="0px"
	 viewBox="0 0 60 60" style="enable-background:new 0 0 60 60;" xml:space="preserve">
<style type="text/css">
	.st0{fill:#F4E70A;}
</style>
<g id="nolimit_city">
	<path class="st0" d="M18.6,0c3.2,0,6.5,0,9.7,0c2.1,0,4.3,0.3,6.4,0.8c3.8,1,7.4,2.6,10.5,5.1c4.5,3.5,7.2,8.1,8.3,13.7
		c0.2,1.2,0.3,2.5,0.5,3.7c0,0.3,0,0.6,0,0.9c0,0.7-0.1,0.8-0.7,0.8c-0.1,0-0.3,0-0.4,0h-9.4c-0.2,0-0.4,0-0.7,0s-0.5-0.2-0.5-0.4
		c0,0,0,0,0-0.1c0-0.9-0.1-1.8-0.3-2.7c-0.3-2-1.1-3.9-2.3-5.5c-1.9-2.5-4.5-3.9-7.6-4.5c-1.1-0.2-2.1-0.3-3.2-0.3
		c-3.3,0-6.6,0-9.9,0c-0.2,0-0.4,0-0.7,0c-0.2,0-0.4,0.2-0.4,0.4l0,0c0,0.4,0,0.7,0,1.1c0,3.6,0,7.2,0,10.8c0,1.2,0,1.2-1.2,1.2
		c-3.1,0-6.4,0-9.5,0c-0.3,0-0.5,0-0.8,0C6.1,25,6,24.8,6,24.7c0-0.3,0-0.6,0-0.9C6,16.3,6,8.9,6,1.4c0-1.5,0-1.3,1.4-1.3L18.6,0z"
		/>
	<path class="st0" d="M17.7,59.4c-0.3,0.2-0.6,0.2-0.9,0.2c-3.2,0-6.5,0-9.8,0c-0.2,0-0.4,0-0.5,0c-0.3,0-0.5-0.2-0.5-0.5
		s0-0.6,0-0.9c0-9.4,0-18.7,0-28c0-0.4,0-0.8,0-1.2c0-0.5,0.1-0.6,0.7-0.6c0.2,0,0.4,0,0.7,0h9.1c0.3,0,0.6,0,0.9,0
		c0.2,0,0.4,0.2,0.4,0.4l0,0c0,0.4,0,0.7,0,1.1c0,9.5,0,19,0,28.4C17.8,58.6,17.9,59,17.7,59.4z"/>
	<path class="st0" d="M54,44.4c0,4.6,0,9.3,0,13.9c0,0.3,0,0.6,0,0.9c0,0.7-0.1,0.8-0.8,0.8c-3.4,0-6.9,0-10.3,0c-0.1,0-0.3,0-0.4,0
		c-0.2,0-0.3-0.2-0.3-0.4c0-0.3,0-0.6,0-0.9V30.2c0-0.1,0-0.2,0-0.3c0-1.2,0-1.2,1.2-1.2c3.1,0,6.3,0,9.5,0c0.2,0,0.4,0,0.5,0
		c0.5,0,0.6,0.1,0.6,0.7c0,0.4,0,0.8,0,1.2V44.4z"/>
</g>
</svg>
