<?xml version="1.0" encoding="utf-8"?>
<!-- Generator: Adobe Illustrator 24.1.2, SVG Export Plug-In . SVG Version: 6.00 Build 0)  -->
<svg version="1.1" id="Слой_1" xmlns="http://www.w3.org/2000/svg" xmlns:xlink="http://www.w3.org/1999/xlink" x="0px" y="0px"
	 viewBox="0 0 60 60" style="enable-background:new 0 0 60 60;" xml:space="preserve">
<style type="text/css">
	.st0{fill:#3E68B0;}
</style>
<g>
	<path class="st0" d="M55.1,7.4c-1.6-2.6-5-4.4-10.3-5.5C40.7,1,35.6,0.5,30,0.5S19.3,1,15.2,1.9C9.9,3,6.5,4.8,4.9,7.4
		C2.1,11.7,2.7,18,3.5,25.2c0.1,1.3,0.3,2.7,0.4,4c0.2,2.7,0.8,7.9,1.7,13c1.4,7.4,3,10,4,11.3c4.4,5.5,16.7,6,20.4,6s16-0.4,20.4-6
		c1-1.3,2.6-3.9,4-11.3c1-5.1,1.5-10.3,1.7-13c0.1-1.3,0.2-2.7,0.4-4C57.3,18,57.9,11.7,55.1,7.4 M54.5,25c-0.1,1.3-0.3,2.7-0.4,4.1
		c-0.2,2.6-0.7,7.8-1.7,12.8c-1.3,7-2.7,9.3-3.6,10.4c-3.9,5-16.4,5.2-18.8,5.2s-14.9-0.2-18.8-5.2c-0.9-1.1-2.3-3.5-3.6-10.4
		c-1-5-1.5-10.2-1.7-12.8c-0.1-1.4-0.2-2.7-0.4-4.1c-0.7-6.9-1.3-12.8,1-16.5c1.4-2.1,4.4-3.7,9.1-4.7c4-0.8,8.9-1.3,14.4-1.3
		S40.4,3,44.3,3.8c4.7,1,7.7,2.6,9.1,4.7C55.8,12.2,55.2,18.1,54.5,25 M30,5.4c10.5,0,19.1,1.7,21,4.7c2.2,3.4,0.9,11.1,0.2,18.7
		S49,47.3,46.5,50.5c-2.1,2.7-9.8,4.1-16.5,4.1c-6.8,0-14.4-1.4-16.5-4.1c-2.5-3.1-4-14.1-4.7-21.7c-0.6-7.6-2-15.3,0.2-18.7
		C10.9,7.2,19.5,5.4,30,5.4 M14.4,15.9c-0.3,0.2-0.4,0.7-0.4,0.7l-0.3,1.3c0,0-0.1,0.3,0.1,0.7c0.2,0.4,1.5,0.7,1.5,0.7
		s2.3,0.4,3.3,1.5c0.9,1.2,0.6,2.7,0.6,2.7L16.7,36c0,0-0.2,1.2-0.9,1.8c-0.6,0.6-1.7,0.6-1.7,0.6s-0.6,0-1,0.2
		c-0.3,0.1-0.4,0.7-0.4,0.7l-0.2,0.8c0,0-0.1,0.3,0.1,0.6c0.2,0.3,0.7,0.4,0.7,0.4l12.9,0.1c0,0,0.4,0,0.6-0.2s0.3-0.7,0.3-0.7
		l0.2-1.2c0,0,0.1-0.4-0.1-0.6c-0.2-0.2-0.4-0.2-1-0.4c-0.6-0.1-1-0.3-1.5-0.8c-0.7-0.6-0.5-1.8-0.5-1.8l1.1-6.2
		c0,0,0.1-0.5,0.4-0.4c0.4,0,0.6,0.4,0.6,0.4l6.1,11c0,0,0.2,0.4,0.5,0.6c0.3,0.2,1,0.3,1,0.3l10.3-0.1c0,0,0.5,0,0.8-0.2
		c0.3-0.3,0.4-0.7,0.4-0.7l0.2-0.9c0,0,0.1-0.4-0.1-0.8c-0.2-0.5-1.1-0.6-2.1-0.9c-0.7-0.2-1.7-0.8-2.1-1.3c-0.2-0.4,0-1.1,0-1.1
		L44.7,21c0,0,0.1-0.6,0.7-1.2c0.5-0.6,2-0.9,2-0.9s0.4-0.1,0.6-0.3c0.2-0.2,0.2-0.5,0.2-0.5l0.4-1.5c0,0,0.1-0.4-0.1-0.7
		c-0.2-0.2-0.7-0.2-0.7-0.2H36.3c0,0-0.4,0-0.8,0.3c-0.3,0.3-0.4,0.6-0.4,0.6L34.8,18c0,0-0.1,0.3,0,0.6c0.1,0.3,0.5,0.3,0.5,0.3
		l0.5,0.1c0,0,0.9,0.2,1.4,0.7s0.2,1.7,0.2,1.7l-1.7,8.3l-6.3-11.9c0,0-0.2-0.6-0.9-1.2c-0.7-0.7-1.7-0.6-1.7-0.6H15.2
		C15.2,15.8,14.7,15.8,14.4,15.9"/>
</g>
</svg>
