<svg width="60" height="60" viewBox="0 0 60 60" fill="none" xmlns="http://www.w3.org/2000/svg">
<path d="M30 60C13.44 60 0 46.56 0 30C0 13.44 13.44 0 30 0C46.56 0 60 13.44 60 30C60 46.56 46.56 60 30 60ZM30 8C17.84 8 8 17.84 8 30C8 42.16 17.84 52 30 52C42.16 52 52 42.16 52 30C52 17.84 42.16 8 30 8Z" fill="url(#paint0_linear_1103_54)"/>
<path d="M29.9998 40C35.5227 40 39.9998 35.5228 39.9998 30C39.9998 24.4772 35.5227 20 29.9998 20C24.477 20 19.9998 24.4772 19.9998 30C19.9998 35.5228 24.477 40 29.9998 40Z" fill="url(#paint1_linear_1103_54)"/>
<defs>
<linearGradient id="paint0_linear_1103_54" x1="29.9958" y1="0.0256" x2="29.9958" y2="60.026" gradientUnits="userSpaceOnUse">
<stop stop-color="#F79F2D"/>
<stop offset="1" stop-color="#FF4D4D"/>
</linearGradient>
<linearGradient id="paint1_linear_1103_54" x1="29.9957" y1="20.0258" x2="29.9957" y2="40.0258" gradientUnits="userSpaceOnUse">
<stop stop-color="#F79F2D"/>
<stop offset="1" stop-color="#FF4D4D"/>
</linearGradient>
</defs>
</svg>
