<svg width="110" height="24" viewBox="0 0 110 24" fill="none" xmlns="http://www.w3.org/2000/svg">
<g clip-path="url(#clip0_708_5771)">
<path d="M14.3374 10.0889C14.3561 9.02903 14.5216 8.202 14.9057 7.61585C15.1134 7.36958 15.352 7.17007 15.6113 7.02569C15.8893 6.87105 16.1888 6.79047 16.4918 6.78882H19.9262C21.428 6.81291 22.1992 7.8487 22.2367 9.97249V16.4603C22.2324 16.8295 22.1685 17.1935 22.0492 17.5293C21.9299 17.8651 21.7577 18.1655 21.5436 18.4114C21.3419 18.6854 21.1003 18.9055 20.8324 19.0591C20.5645 19.2127 20.2757 19.2969 19.9824 19.3067H16.7571V23.9999H14.3374V10.0889ZM19.817 10.7032C19.817 10.2094 19.6359 9.97249 19.2674 9.9484H17.3941C17.3003 9.94488 17.207 9.96644 17.12 10.0117C17.0331 10.057 16.9544 10.125 16.8889 10.2114C16.8234 10.2979 16.7727 10.4008 16.7398 10.5138C16.7069 10.6268 16.6926 10.7473 16.6978 10.8678V15.1796C16.6911 15.3071 16.7064 15.435 16.7426 15.554C16.7787 15.6731 16.8349 15.7803 16.9071 15.8682C16.9793 15.9561 17.0658 16.0223 17.1602 16.0622C17.2546 16.1021 17.3548 16.1146 17.4534 16.099H19.1582C19.2422 16.1047 19.326 16.0843 19.4027 16.0396C19.4793 15.9949 19.5464 15.9271 19.5984 15.842C19.6591 15.7865 19.7078 15.712 19.74 15.6257C19.7723 15.5393 19.7869 15.4438 19.7826 15.3482L19.817 10.7032Z" fill="#AB8BCE"/>
<path d="M29.6614 10.6309C29.6801 10.1612 29.4584 9.92432 29.0182 9.9484H24.1818V6.78882H29.627C31.1882 6.837 32.0093 7.80454 32.0468 9.75971V16.3599C32.0577 17.1214 31.8486 17.861 31.4598 18.4355C31.2633 18.7161 31.0223 18.9392 30.7529 19.0895C30.4836 19.2398 30.1922 19.3139 29.8987 19.3067H26.6203C25.0248 19.2706 24.2006 18.3633 24.1818 16.4603V13.931C24.2006 11.9745 24.9707 10.9842 26.4923 10.9601H29.6832L29.6614 10.6309ZM26.5391 15.4887C26.5343 15.574 26.5489 15.6592 26.581 15.734C26.6132 15.8089 26.6615 15.8701 26.7202 15.9103C26.8422 16.0471 26.9986 16.1227 27.1605 16.123H28.9932C29.4147 16.123 29.6364 15.9103 29.6364 15.5128V14.6175C29.6364 14.1438 29.4147 13.8868 28.9776 13.8868H27.1636C26.9917 13.8642 26.8186 13.9134 26.6703 14.0274C26.5722 14.2316 26.5274 14.4706 26.5422 14.7099V15.4887H26.5391Z" fill="#AB8BCE"/>
<path d="M38.7565 20.8163C38.9347 20.8046 39.1039 20.7121 39.2342 20.5553C39.2938 20.4932 39.3412 20.414 39.3727 20.3241C39.4041 20.2341 39.4187 20.136 39.4153 20.0374V19.3068H36.3555C36.0351 19.321 35.716 19.2485 35.4188 19.094C35.1325 18.9439 34.8732 18.7198 34.657 18.4356C34.4306 18.1391 34.2551 17.7849 34.1418 17.3958C34.0224 16.9896 33.9672 16.557 33.9795 16.1231V6.82499H36.3805V15.1355C36.3805 15.818 36.5803 16.1472 37.0049 16.1472H38.7159C38.8138 16.1535 38.9117 16.1339 39.0035 16.0897C39.0954 16.0456 39.1792 15.9777 39.2498 15.8902C39.3149 15.8276 39.3671 15.7455 39.4019 15.6511C39.4368 15.5566 39.4531 15.4527 39.4496 15.3482V6.76477H41.835V20.5312C41.8492 21.4157 41.6302 22.2802 41.2137 22.9842C41.0161 23.292 40.766 23.5372 40.4828 23.7008C40.1996 23.8644 39.891 23.9421 39.5808 23.9277H33.9888V20.7681H38.7565V20.8163Z" fill="#AB8BCE"/>
<path d="M43.6896 16.123H47.9609C48.3449 16.0989 48.5479 15.8902 48.5666 15.5369V15.2559C48.5632 15.1646 48.544 15.0754 48.5104 14.9949C48.4198 14.762 48.3074 14.6416 48.1607 14.6416H46.0532C45.453 14.6434 44.8751 14.3488 44.439 13.8186C44.2251 13.5965 44.0519 13.3167 43.9316 12.9989C43.8112 12.6812 43.7468 12.3332 43.7427 11.9798V9.59509C43.7802 7.73226 44.5514 6.81289 46.0719 6.78479H51.0207V9.94438H46.8337C46.3373 9.94438 46.1 10.1331 46.1 10.5105V10.8397C46.1 11.2411 46.356 11.4298 46.8525 11.4298H48.96C49.2342 11.4322 49.5049 11.5089 49.7546 11.6548C50.0042 11.8008 50.2271 12.0128 50.4087 12.2769C50.7996 12.7973 51.0227 13.4887 51.0332 14.212V16.5004C50.995 17.2339 50.747 17.9233 50.3369 18.4355C50.1484 18.7207 49.9112 18.9461 49.6438 19.0939C49.3422 19.2231 49.0246 19.2789 48.7071 19.2585H43.7115V16.123H43.6896Z" fill="#AB8BCE"/>
<path d="M58.2081 10.6309C58.2268 10.1612 58.0083 9.92432 57.568 9.9484H52.7441V6.78882H58.1893C59.7505 6.837 60.5747 7.80454 60.6091 9.75971V16.3599C60.6216 17.1217 60.4122 17.862 60.0221 18.4355C59.8257 18.7161 59.5846 18.9392 59.3152 19.0895C59.0459 19.2398 58.7546 19.3139 58.461 19.3067H55.1826C53.5872 19.2706 52.766 18.3633 52.7441 16.4603V13.931C52.7629 11.9745 53.533 10.9842 55.0546 10.9601H58.2455L58.2081 10.6309ZM55.0858 15.4887C55.0817 15.5743 55.0969 15.6596 55.1296 15.7344C55.1623 15.8092 55.211 15.8702 55.27 15.9103C55.3917 16.0478 55.5483 16.1234 55.7103 16.123H57.543C57.9645 16.123 58.1675 15.9103 58.1831 15.5128V14.6175C58.1831 14.1438 57.9645 13.8868 57.5243 13.8868H55.7103C55.5374 13.8639 55.3633 13.9131 55.2138 14.0274C55.1174 14.2324 55.0727 14.4708 55.0858 14.7099V15.4887Z" fill="#AB8BCE"/>
<path d="M62.5355 4.97414C62.5308 4.58341 62.5942 4.19627 62.7212 3.84123C62.8482 3.4862 63.0355 3.17229 63.2693 2.92262C63.785 2.37982 64.4358 2.0947 65.102 2.11968H66.6226V5.18692H65.6859C65.1707 5.21101 64.9147 5.51613 64.9147 6.10629V6.7888H66.6007V9.94838H64.9147V19.2706H62.5137L62.5324 4.9621L62.5355 4.97414Z" fill="#AB8BCE"/>
<path d="M70.4567 15.015V15.2278C70.4516 15.3351 70.4634 15.4426 70.4913 15.544C70.5192 15.6454 70.5626 15.7385 70.619 15.8179C70.644 15.8989 70.6869 15.9686 70.7424 16.0186C70.7979 16.0685 70.8636 16.0965 70.9313 16.099H75.8457V19.2706H70.619C70.2424 19.279 69.8666 19.2237 69.5013 19.106C69.2139 18.9862 68.9514 18.7844 68.7332 18.5158C68.4956 18.228 68.3129 17.8735 68.1993 17.48C68.0937 17.0051 68.0443 16.5125 68.0526 16.0187L68.0338 9.6754C68.0713 7.76841 68.8425 6.80086 70.363 6.75269H73.5914C75.0745 6.80086 75.8457 7.7925 75.8644 9.77176V12.2689L70.4567 15.015ZM73.4447 10.5627V10.4904C73.4458 10.4109 73.4311 10.3324 73.4022 10.2622C73.3733 10.192 73.3309 10.1324 73.2792 10.0889C73.1522 9.99078 73.0058 9.94198 72.8577 9.9484H71.1873C70.9937 9.94067 70.8047 10.025 70.6565 10.1853C70.5791 10.2427 70.5148 10.3252 70.4699 10.4245C70.425 10.5238 70.401 10.6365 70.4005 10.7513V12.0441L73.4447 10.5627Z" fill="#AB8BCE"/>
<path d="M80.9412 19.2707C80.6092 19.27 80.278 19.2311 79.9514 19.1542C79.6056 19.0759 79.2823 18.8805 79.0148 18.5882C78.7094 18.2662 78.4702 17.8526 78.3185 17.3837C78.1851 16.8912 78.1227 16.3715 78.1343 15.8501V9.94847C78.1216 9.51964 78.1584 9.09075 78.2436 8.67581C78.3396 8.27375 78.5175 7.91199 78.7587 7.62796C79.0048 7.28927 79.3144 7.03765 79.6579 6.89728C79.9946 6.79656 80.3395 6.74804 80.6852 6.75275H84.3694V7.48343H80.7944C80.2703 7.43534 79.7481 7.60569 79.3051 7.96922C78.9367 8.3466 78.7369 8.95684 78.7369 9.85212V15.7457C78.7384 16.1544 78.7878 16.5605 78.8836 16.9501C78.9781 17.3419 79.1553 17.6922 79.3957 17.9619C79.6269 18.1816 79.8886 18.3425 80.1669 18.4356C80.4449 18.5012 80.7272 18.5321 81.0099 18.5279H84.4443V19.2707H80.9412Z" fill="#AB8BCE"/>
<path d="M94.3607 15.8662C94.3588 16.284 94.3348 16.7011 94.2889 17.1147C94.2003 17.5419 94.0369 17.9374 93.8111 18.271C93.5754 18.604 93.285 18.8654 92.961 19.0362C92.637 19.207 92.2875 19.283 91.9378 19.2586H89.0778C88.7456 19.276 88.414 19.2078 88.1025 19.0582C87.791 18.9086 87.5058 18.6806 87.2638 18.3874C87.0224 18.0874 86.834 17.7243 86.7111 17.3226C86.5883 16.9208 86.534 16.4899 86.5519 16.0589V14.1438C86.5894 12 87.4137 10.8919 89.0497 10.8437H93.8143V9.99663C93.8172 9.34399 93.6562 8.70755 93.3553 8.18198C93.1831 7.86719 92.9401 7.62764 92.659 7.49546C92.3646 7.41095 92.0645 7.36389 91.763 7.35495H86.5519V6.62427H91.482C91.8926 6.62579 92.3026 6.66469 92.709 6.74069C92.8985 6.79123 93.0786 6.88799 93.2398 7.02574C93.4253 7.17402 93.5874 7.36609 93.7175 7.59182C94.1535 8.31157 94.3858 9.20081 94.3763 10.1131L94.3575 15.8662H94.3607ZM93.7737 11.6427H88.9529C88.7031 11.6344 88.4545 11.6906 88.2217 11.8078C87.989 11.925 87.7769 12.1009 87.5979 12.3252C87.255 12.8344 87.0803 13.4955 87.1108 14.1679V16.0589C87.1108 16.3997 87.1423 16.7393 87.2045 17.0706C87.2731 17.4086 87.4268 17.7078 87.6416 17.9217C88.0246 18.3458 88.5131 18.5794 89.0185 18.5801H91.9316C93.143 18.556 93.7674 17.733 93.7674 16.0829V11.6427H93.7737Z" fill="#AB8BCE"/>
<path d="M99.734 7.45125C98.4133 7.49541 97.7358 8.41478 97.7733 10.2616V19.3067H97.205V10.2776C97.1675 7.92097 98.048 6.71655 99.8433 6.71655H100.486V7.45125H99.734Z" fill="#AB8BCE"/>
<path d="M110 15.7939C109.944 18.1746 108.954 19.355 107.049 19.2827H104.923C104.523 19.2874 104.123 19.2403 103.731 19.1422C103.318 18.9899 102.948 18.6874 102.666 18.271C102.429 17.9292 102.266 17.5141 102.191 17.0666C102.106 16.6201 102.069 16.161 102.079 15.7016V10.3018C102.116 7.87286 103.053 6.68852 104.923 6.68852H109.413V2.59351H109.981L110 15.7939ZM109.432 7.45132H104.886C104.589 7.44598 104.292 7.49327 104.005 7.59183C103.691 7.68821 103.409 7.91033 103.2 8.22616C102.99 8.48462 102.838 8.81033 102.76 9.16962C102.672 9.54416 102.634 9.93506 102.647 10.3259V16.079C102.647 17.0425 102.85 17.6848 103.309 18.0341C103.531 18.2054 103.772 18.3327 104.024 18.4115C104.313 18.4968 104.608 18.5439 104.904 18.552H106.884C107.527 18.5781 108.161 18.3481 108.698 17.8936C109.157 17.4921 109.394 16.7615 109.413 15.7257L109.432 7.45132Z" fill="#AB8BCE"/>
<path d="M1.02724 6.31911C1.21078 6.21852 1.40096 6.13924 1.59549 6.08224C1.76788 5.02721 2.21726 4.08054 2.86821 3.40111C3.51916 2.72168 4.33206 2.35085 5.17047 2.35085C6.00888 2.35085 6.82178 2.72168 7.47272 3.40111C8.12367 4.08054 8.57305 5.02721 8.74545 6.08224C9.2391 6.1703 9.69997 6.45049 10.0662 6.88519C10.0821 6.49244 10.0695 6.09864 10.0287 5.70887C9.91491 4.12416 9.3371 2.65423 8.41223 1.59667C7.48735 0.5391 6.28453 -0.0270928 5.04724 0.0127067C3.80995 0.0525061 2.63064 0.695324 1.74805 1.81103C0.865462 2.92674 0.345532 4.43197 0.293514 6.02202C0.27478 6.30707 0.27478 6.61219 0.27478 6.91731C0.495138 6.66058 0.750155 6.45785 1.02724 6.31911Z" fill="#57367B"/>
<path d="M7.99296 6.78882H2.16372C1.8608 6.79047 1.56128 6.87105 1.28324 7.02569C1.01748 7.16657 0.774868 7.3709 0.56825 7.6279C0.202946 8.18193 0.0187335 8.98086 0 10.0889V15.9584C0.0187335 17.0424 0.184213 17.8454 0.56825 18.4355C0.779638 18.6816 1.02123 18.881 1.28324 19.0257C1.56077 19.1833 1.86034 19.2666 2.16372 19.2706H8.01169C9.5135 19.2465 10.3034 18.1866 10.3222 16.0909V9.9484C10.2847 7.8487 9.5135 6.82495 7.99296 6.78882Z" fill="#57367B"/>
</g>
<defs>
<clipPath id="clip0_708_5771">
<rect width="110" height="24" fill="white"/>
</clipPath>
</defs>
</svg>
