<svg width="100" height="126" viewBox="0 0 100 126" fill="none" xmlns="http://www.w3.org/2000/svg"><g clip-path="url(#clip0)"><path d="M39.6433 77.7533L56.7943 70.1846L41.7416 59.124L39.6433 77.7533Z" fill="black"/><path d="M59.2254 65.896L44.1169 54.7946L73.8817 14.2871L88.9897 25.3886L59.2254 65.896Z" fill="black"/><path d="M95.1416 17.0162C97.5416 13.7496 96.1051 8.61616 91.9335 5.55065C87.7613 2.48499 82.4335 2.64818 80.0328 5.91479L76.9868 10.0608L92.0948 21.1624L95.1416 17.0163V17.0162Z" fill="black"/><path fill-rule="evenodd" clip-rule="evenodd" d="M59.1241 10.9487H10.219C4.57519 10.9487 0 15.5239 0 21.1677V115.328C0 120.972 4.57519 125.547 10.219 125.547H79.562C85.2058 125.547 89.781 120.972 89.781 115.328V48.175H78.1022V113.868H11.6788V22.6276H59.1241V10.9487Z" fill="black"/></g><defs><clipPath id="clip0"><rect width="100" height="125.547" fill="white"/></clipPath></defs></svg>