<svg width="60" height="60" viewBox="0 0 60 60" fill="none" xmlns="http://www.w3.org/2000/svg">
<g opacity="0.9" clip-path="url(#clip0)">
<path d="M53.4091 1.46619e-07H3.00024V35.7626C3.00596 36.6975 3.37866 37.5921 4.03694 38.2511C4.69522 38.91 5.58558 39.2797 6.51354 39.2795H56.8556V3.45003C56.85 2.5329 56.4844 1.65528 55.8387 1.00885C55.1929 0.362424 54.3195 -0.000266223 53.4091 1.46619e-07V1.46619e-07ZM49.3225 34.4445H10.5334C10.3213 34.4459 10.111 34.405 9.91461 34.3241C9.71823 34.2433 9.53965 34.1241 9.38916 33.9735C9.23867 33.8228 9.11925 33.6437 9.03775 33.4464C8.95626 33.249 8.91429 33.0374 8.91429 32.8237C8.91429 32.6099 8.95626 32.3983 9.03775 32.201C9.11925 32.0037 9.23867 31.8245 9.38916 31.6739C9.53965 31.5232 9.71823 31.4041 9.91461 31.3232C10.111 31.2424 10.3213 31.2015 10.5334 31.2028H49.3225C49.5346 31.2015 49.7449 31.2424 49.9413 31.3232C50.1377 31.4041 50.3162 31.5232 50.4667 31.6739C50.6172 31.8245 50.7366 32.0037 50.8181 32.201C50.8996 32.3983 50.9416 32.6099 50.9416 32.8237C50.9416 33.0374 50.8996 33.249 50.8181 33.4464C50.7366 33.6437 50.6172 33.8228 50.4667 33.9735C50.3162 34.1241 50.1377 34.2433 49.9413 34.3241C49.7449 34.405 49.5346 34.4459 49.3225 34.4445V34.4445ZM50.8624 23.654C50.8624 25.5594 49.2854 27.104 47.3401 27.104H12.4624C10.5171 27.104 8.94015 25.5594 8.94015 23.654V8.85038C8.94015 6.94498 10.5171 5.40034 12.4624 5.40034H47.3401C49.2854 5.40034 50.8624 6.94498 50.8624 8.85038V23.654Z" fill="#FB4400"/>
<path d="M10.3216 44.0339C10.5143 44.0326 10.7052 44.0698 10.8835 44.1435C11.0617 44.2171 11.2237 44.3257 11.3599 44.4629C11.4961 44.6002 11.6039 44.7633 11.6771 44.9429C11.7502 45.1225 11.7872 45.3149 11.7858 45.509V47.4806C11.7883 47.6738 11.7518 47.8656 11.6786 48.0442C11.6054 48.2229 11.497 48.3847 11.36 48.52C11.2261 48.6609 11.0648 48.7724 10.8861 48.8474C10.7074 48.9224 10.5152 48.9593 10.3216 48.9558H9.74917L11.7858 51.4102H9.24337L7.19339 48.9558H5.43622V51.4102H3.00024V44.0339H10.3216ZM9.34988 46.9845V46.0053H5.43622V46.9845H9.34988Z" fill="#FB4400"/>
<path d="M16.7011 46.0054V46.7431H21.9592V48.7012H16.7011V49.4386H23.0508V51.4102H15.7294C15.5368 51.4115 15.3458 51.3743 15.1675 51.3006C14.9893 51.2269 14.8274 51.1183 14.6911 50.9811C14.5549 50.8438 14.4471 50.6807 14.374 50.5011C14.3009 50.3215 14.2639 50.1291 14.2652 49.935V45.509C14.2639 45.3149 14.3008 45.1225 14.374 44.9429C14.4471 44.7633 14.5549 44.6002 14.6911 44.463C14.8273 44.3257 14.9893 44.2171 15.1675 44.1435C15.3458 44.0698 15.5368 44.0326 15.7294 44.0339H23.0508V46.0054H16.7011Z" fill="#FB4400"/>
<path d="M34.316 44.0339V46.0053H31.1345V51.4102H28.6984V46.0053H25.5303V44.0339H34.316Z" fill="#FB4400"/>
<path d="M44.1172 44.0338C44.3098 44.0325 44.5008 44.0698 44.679 44.1435C44.8572 44.2171 45.0192 44.3257 45.1554 44.463C45.2916 44.6002 45.3994 44.7633 45.4725 44.9429C45.5457 45.1224 45.5827 45.3148 45.5814 45.5089V47.4805C45.5838 47.6738 45.5473 47.8655 45.4741 48.0442C45.4008 48.2228 45.2924 48.3847 45.1554 48.5199C45.0216 48.6608 44.8602 48.7723 44.6815 48.8473C44.5029 48.9223 44.3107 48.9592 44.1172 48.9558H43.5447L45.5814 51.4101H43.0389L40.9888 48.9558H39.2318V51.4101H36.7957V44.0338H44.1172ZM43.1453 46.9845V46.0053H39.2318V46.9845H43.1453Z" fill="#FB4400"/>
<path d="M55.5359 44.0338C55.7286 44.0325 55.9196 44.0698 56.0978 44.1435C56.276 44.2171 56.4379 44.3257 56.5742 44.463C56.7104 44.6002 56.8182 44.7633 56.8913 44.9429C56.9645 45.1224 57.0015 45.3149 57.0002 45.5089V49.9349C57.0014 50.129 56.9644 50.3214 56.8913 50.501C56.8182 50.6806 56.7104 50.8437 56.5741 50.9809C56.4379 51.1182 56.276 51.2268 56.0978 51.3005C55.9195 51.3742 55.7286 51.4114 55.5359 51.4102H49.6786C49.486 51.4114 49.295 51.3742 49.1168 51.3005C48.9386 51.2268 48.7766 51.1182 48.6404 50.9809C48.5042 50.8437 48.3964 50.6806 48.3233 50.501C48.2501 50.3214 48.2131 50.129 48.2144 49.9349V45.5089C48.2131 45.3149 48.2501 45.1224 48.3232 44.9429C48.3964 44.7633 48.5042 44.6002 48.6404 44.463C48.7766 44.3257 48.9386 44.2171 49.1168 44.1435C49.295 44.0698 49.486 44.0325 49.6786 44.0338H55.5359ZM54.5641 49.4386V46.0053H50.6505V49.4386H54.5641Z" fill="#FB4400"/>
<path d="M10.3216 44.0339C10.5143 44.0326 10.7052 44.0698 10.8835 44.1435C11.0617 44.2171 11.2237 44.3257 11.3599 44.4629C11.4961 44.6002 11.6039 44.7633 11.6771 44.9429C11.7502 45.1225 11.7872 45.3149 11.7858 45.509V47.4806C11.7883 47.6738 11.7518 47.8656 11.6786 48.0442C11.6054 48.2229 11.497 48.3847 11.36 48.52C11.2261 48.6609 11.0648 48.7724 10.8861 48.8474C10.7074 48.9224 10.5152 48.9593 10.3216 48.9558H9.74917L11.7858 51.4102H9.24337L7.19339 48.9558H5.43622V51.4102H3.00024V44.0339H10.3216ZM9.34988 46.9845V46.0053H5.43622V46.9845H9.34988Z" fill="#FB4400"/>
<path d="M16.7011 46.0054V46.7431H21.9592V48.7012H16.7011V49.4386H23.0508V51.4102H15.7294C15.5368 51.4115 15.3458 51.3743 15.1675 51.3006C14.9893 51.2269 14.8274 51.1183 14.6911 50.9811C14.5549 50.8438 14.4471 50.6807 14.374 50.5011C14.3009 50.3215 14.2639 50.1291 14.2652 49.935V45.509C14.2639 45.3149 14.3008 45.1225 14.374 44.9429C14.4471 44.7633 14.5549 44.6002 14.6911 44.463C14.8273 44.3257 14.9893 44.2171 15.1675 44.1435C15.3458 44.0698 15.5368 44.0326 15.7294 44.0339H23.0508V46.0054H16.7011Z" fill="#FB4400"/>
<path d="M34.316 44.0339V46.0053H31.1345V51.4102H28.6984V46.0053H25.5303V44.0339H34.316Z" fill="#FB4400"/>
<path d="M44.1172 44.0338C44.3098 44.0325 44.5008 44.0698 44.679 44.1435C44.8572 44.2171 45.0192 44.3257 45.1554 44.463C45.2916 44.6002 45.3994 44.7633 45.4725 44.9429C45.5457 45.1224 45.5827 45.3148 45.5814 45.5089V47.4805C45.5838 47.6738 45.5473 47.8655 45.4741 48.0442C45.4008 48.2228 45.2924 48.3847 45.1554 48.5199C45.0216 48.6608 44.8602 48.7723 44.6815 48.8473C44.5029 48.9223 44.3107 48.9592 44.1172 48.9558H43.5447L45.5814 51.4101H43.0389L40.9888 48.9558H39.2318V51.4101H36.7957V44.0338H44.1172ZM43.1453 46.9845V46.0053H39.2318V46.9845H43.1453Z" fill="#FB4400"/>
<path d="M55.5359 44.0338C55.7286 44.0325 55.9196 44.0698 56.0978 44.1435C56.276 44.2171 56.4379 44.3257 56.5742 44.463C56.7104 44.6002 56.8182 44.7633 56.8913 44.9429C56.9645 45.1224 57.0015 45.3149 57.0002 45.5089V49.9349C57.0014 50.129 56.9644 50.3214 56.8913 50.501C56.8182 50.6806 56.7104 50.8437 56.5741 50.9809C56.4379 51.1182 56.276 51.2268 56.0978 51.3005C55.9195 51.3742 55.7286 51.4114 55.5359 51.4102H49.6786C49.486 51.4114 49.295 51.3742 49.1168 51.3005C48.9386 51.2268 48.7766 51.1182 48.6404 50.9809C48.5042 50.8437 48.3964 50.6806 48.3233 50.501C48.2501 50.3214 48.2131 50.129 48.2144 49.9349V45.5089C48.2131 45.3149 48.2501 45.1224 48.3232 44.9429C48.3964 44.7633 48.5042 44.6002 48.6404 44.463C48.7766 44.3257 48.9386 44.2171 49.1168 44.1435C49.295 44.0698 49.486 44.0325 49.6786 44.0338H55.5359ZM54.5641 49.4386V46.0053H50.6505V49.4386H54.5641Z" fill="#FB4400"/>
<path d="M10.3216 44.0339C10.5143 44.0326 10.7052 44.0698 10.8835 44.1435C11.0617 44.2171 11.2237 44.3257 11.3599 44.4629C11.4961 44.6002 11.6039 44.7633 11.6771 44.9429C11.7502 45.1225 11.7872 45.3149 11.7858 45.509V47.4806C11.7883 47.6738 11.7518 47.8656 11.6786 48.0442C11.6054 48.2229 11.497 48.3847 11.36 48.52C11.2261 48.6609 11.0648 48.7724 10.8861 48.8474C10.7074 48.9224 10.5152 48.9593 10.3216 48.9558H9.74917L11.7858 51.4102H9.24337L7.19339 48.9558H5.43622V51.4102H3.00024V44.0339H10.3216ZM9.34988 46.9845V46.0053H5.43622V46.9845H9.34988Z" fill="#FB4400"/>
<path d="M16.7011 46.0054V46.7431H21.9592V48.7012H16.7011V49.4386H23.0508V51.4102H15.7294C15.5368 51.4115 15.3458 51.3743 15.1675 51.3006C14.9893 51.2269 14.8274 51.1183 14.6911 50.9811C14.5549 50.8438 14.4471 50.6807 14.374 50.5011C14.3009 50.3215 14.2639 50.1291 14.2652 49.935V45.509C14.2639 45.3149 14.3008 45.1225 14.374 44.9429C14.4471 44.7633 14.5549 44.6002 14.6911 44.463C14.8273 44.3257 14.9893 44.2171 15.1675 44.1435C15.3458 44.0698 15.5368 44.0326 15.7294 44.0339H23.0508V46.0054H16.7011Z" fill="#FB4400"/>
<path d="M34.316 44.0339V46.0053H31.1345V51.4102H28.6984V46.0053H25.5303V44.0339H34.316Z" fill="#FB4400"/>
<path d="M44.1172 44.0338C44.3098 44.0325 44.5008 44.0698 44.679 44.1435C44.8572 44.2171 45.0192 44.3257 45.1554 44.463C45.2916 44.6002 45.3994 44.7633 45.4725 44.9429C45.5457 45.1224 45.5827 45.3148 45.5814 45.5089V47.4805C45.5838 47.6738 45.5473 47.8655 45.4741 48.0442C45.4008 48.2228 45.2924 48.3847 45.1554 48.5199C45.0216 48.6608 44.8602 48.7723 44.6815 48.8473C44.5029 48.9223 44.3107 48.9592 44.1172 48.9558H43.5447L45.5814 51.4101H43.0389L40.9888 48.9558H39.2318V51.4101H36.7957V44.0338H44.1172ZM43.1453 46.9845V46.0053H39.2318V46.9845H43.1453Z" fill="#FB4400"/>
<path d="M55.5359 44.0338C55.7286 44.0325 55.9196 44.0698 56.0978 44.1435C56.276 44.2171 56.4379 44.3257 56.5742 44.463C56.7104 44.6002 56.8182 44.7633 56.8913 44.9429C56.9645 45.1224 57.0015 45.3149 57.0002 45.5089V49.9349C57.0014 50.129 56.9644 50.3214 56.8913 50.501C56.8182 50.6806 56.7104 50.8437 56.5741 50.9809C56.4379 51.1182 56.276 51.2268 56.0978 51.3005C55.9195 51.3742 55.7286 51.4114 55.5359 51.4102H49.6786C49.486 51.4114 49.295 51.3742 49.1168 51.3005C48.9386 51.2268 48.7766 51.1182 48.6404 50.9809C48.5042 50.8437 48.3964 50.6806 48.3233 50.501C48.2501 50.3214 48.2131 50.129 48.2144 49.9349V45.5089C48.2131 45.3149 48.2501 45.1224 48.3232 44.9429C48.3964 44.7633 48.5042 44.6002 48.6404 44.463C48.7766 44.3257 48.9386 44.2171 49.1168 44.1435C49.295 44.0698 49.486 44.0325 49.6786 44.0338H55.5359ZM54.5641 49.4386V46.0053H50.6505V49.4386H54.5641Z" fill="#FB4400"/>
<path d="M5.42179 54.6267V58.0399H9.31261V57.3068H6.14964V55.3601H11.7344V60H4.45573C4.2642 60.0013 4.07433 59.9643 3.89713 59.891C3.71993 59.8178 3.55894 59.7098 3.42351 59.5734C3.28808 59.4369 3.1809 59.2747 3.1082 59.0962C3.03551 58.9177 2.99874 58.7264 3.00003 58.5334V54.1332C2.99874 53.9403 3.03551 53.749 3.1082 53.5704C3.1809 53.3919 3.28808 53.2297 3.42351 53.0933C3.55894 52.9568 3.71993 52.8488 3.89713 52.7756C4.07433 52.7023 4.2642 52.6653 4.45573 52.6666H11.7344V54.6267H5.42179Z" fill="#FF7800"/>
<path d="M20.4165 52.6666C20.6072 52.6642 20.7964 52.7008 20.9727 52.7741C21.149 52.8475 21.3086 52.956 21.4421 53.0933C21.5811 53.2274 21.6911 53.389 21.7651 53.5679C21.8391 53.7469 21.8756 53.9393 21.8722 54.1332V60H19.4372V57.5599H15.5596V60H13.1377V54.1332C13.1365 53.9402 13.1733 53.7489 13.246 53.5704C13.3187 53.3919 13.4259 53.2297 13.5613 53.0932C13.6968 52.9568 13.8578 52.8488 14.035 52.7756C14.2122 52.7023 14.402 52.6653 14.5936 52.6666H20.4165ZM19.4372 55.6001V54.6266H15.5596V55.6001H19.4372Z" fill="#FF7800"/>
<path d="M33.0111 54.1332V60H30.5761V56.16L28.1542 60L25.7326 56.16V60H23.2973V54.1332C23.2939 53.9393 23.3303 53.7468 23.4043 53.5679C23.4784 53.3889 23.5884 53.2273 23.7274 53.0933C23.8609 52.9561 24.0206 52.8475 24.1969 52.7741C24.3732 52.7008 24.5623 52.6642 24.753 52.6666H25.825L28.1542 56.3599L30.4835 52.6666H31.5554C31.7461 52.6642 31.9353 52.7008 32.1116 52.7741C32.2879 52.8475 32.4475 52.956 32.581 53.0933C32.72 53.2274 32.83 53.389 32.904 53.5679C32.978 53.7469 33.0145 53.9393 33.0111 54.1332Z" fill="#FF7800"/>
<path d="M34.3162 60V52.6666H36.7511V60H34.3162Z" fill="#FF7800"/>
<path d="M46.868 52.6666V58.5334C46.8693 58.7263 46.8325 58.9176 46.7598 59.0961C46.6871 59.2746 46.5799 59.4368 46.4445 59.5733C46.309 59.7097 46.1481 59.8177 45.9709 59.8909C45.7937 59.9642 45.6038 60.0013 45.4123 60H44.1681L40.5555 55.4532V60H38.1336V54.1332C38.1323 53.9403 38.1691 53.749 38.2418 53.5705C38.3145 53.392 38.4217 53.2298 38.5571 53.0933C38.6925 52.9569 38.8535 52.8489 39.0307 52.7756C39.2079 52.7024 39.3978 52.6653 39.5893 52.6666H40.8332L44.4461 57.2134V52.6666H46.868Z" fill="#FF7800"/>
<path d="M50.6846 54.6267V58.0399H54.5753V57.3067H51.4123V55.3601H56.9972V60H49.7184C49.5269 60.0013 49.3371 59.9642 49.1599 59.8909C48.9827 59.8177 48.8217 59.7097 48.6863 59.5733C48.5509 59.4368 48.4437 59.2746 48.371 59.0961C48.2983 58.9176 48.2615 58.7263 48.2627 58.5334V54.1332C48.2615 53.9403 48.2983 53.749 48.371 53.5705C48.4437 53.392 48.5509 53.2298 48.6863 53.0933C48.8217 52.9569 48.9827 52.8489 49.1599 52.7756C49.337 52.7024 49.5269 52.6653 49.7184 52.6666H56.9972V54.6267H50.6846Z" fill="#FF7800"/>
<path d="M24.8455 8.5238V23.7903H34.4422V8.5238H24.8455ZM29.5903 18.8767C29.5367 18.9717 29.4649 19.055 29.379 19.1217C29.2931 19.1884 29.1948 19.2372 29.09 19.2652C28.9851 19.2932 28.8758 19.2998 28.7684 19.2847C28.661 19.2697 28.5576 19.2332 28.4644 19.1774C28.3711 19.1216 28.2898 19.0476 28.2253 18.9598C28.1608 18.8719 28.1143 18.772 28.0885 18.6659C28.0628 18.5597 28.0583 18.4495 28.0753 18.3416C28.0923 18.2337 28.1306 18.1302 28.1877 18.0374L30.0666 14.986H28.0597C27.8531 14.9858 27.6551 14.903 27.5091 14.7557C27.3631 14.6084 27.2811 14.4088 27.2811 14.2006C27.2811 13.9925 27.3631 13.7928 27.5091 13.6456C27.6551 13.4983 27.8531 13.4155 28.0597 13.4152H30.8409C30.9944 13.4142 31.1466 13.4439 31.2886 13.5026C31.4306 13.5613 31.5596 13.6479 31.6681 13.7573C31.7767 13.8666 31.8625 13.9966 31.9208 14.1397C31.9791 14.2828 32.0085 14.4361 32.0075 14.5908L29.5903 18.8767Z" fill="#FB4400"/>
<path d="M12.2183 8.5238V23.7903H21.815V8.5238H12.2183ZM16.8875 18.8767C16.8339 18.9717 16.7621 19.055 16.6762 19.1217C16.5903 19.1884 16.492 19.2372 16.3872 19.2652C16.2824 19.2932 16.173 19.2998 16.0656 19.2848C15.9582 19.2697 15.8548 19.2332 15.7616 19.1774C15.6684 19.1216 15.5871 19.0476 15.5225 18.9598C15.458 18.8719 15.4115 18.772 15.3858 18.6659C15.36 18.5597 15.3555 18.4495 15.3726 18.3416C15.3896 18.2337 15.4278 18.1302 15.485 18.0374L17.3638 14.986H15.357C15.1504 14.9858 14.9523 14.903 14.8063 14.7557C14.6603 14.6084 14.5783 14.4088 14.5783 14.2006C14.5783 13.9925 14.6603 13.7928 14.8063 13.6456C14.9523 13.4983 15.1504 13.4155 15.357 13.4152H18.1381C18.2916 13.4142 18.4438 13.4439 18.5858 13.5026C18.7278 13.5613 18.8568 13.6479 18.9654 13.7573C19.0739 13.8666 19.1598 13.9966 19.218 14.1397C19.2763 14.2828 19.3058 14.4361 19.3047 14.5908L16.8875 18.8767Z" fill="#FB4400"/>
<path d="M37.561 8.5238V23.7903H47.1578V8.5238H37.561ZM42.3814 18.8767C42.3278 18.9717 42.256 19.055 42.1701 19.1217C42.0842 19.1884 41.9859 19.2372 41.8811 19.2652C41.7763 19.2932 41.6669 19.2998 41.5595 19.2847C41.4521 19.2696 41.3488 19.2331 41.2555 19.1773C41.1623 19.1215 41.081 19.0476 41.0165 18.9597C40.9519 18.8719 40.9054 18.772 40.8797 18.6659C40.8539 18.5597 40.8494 18.4495 40.8665 18.3416C40.8835 18.2337 40.9217 18.1302 40.9789 18.0374L42.8577 14.986H40.8509C40.7484 14.9862 40.647 14.9659 40.5523 14.9265C40.4576 14.8871 40.3716 14.8293 40.2991 14.7563C40.2266 14.6834 40.1691 14.5968 40.1299 14.5014C40.0907 14.4061 40.0705 14.3039 40.0705 14.2006C40.0705 14.0974 40.0907 13.9952 40.1299 13.8999C40.1691 13.8045 40.2266 13.7179 40.2991 13.645C40.3716 13.572 40.4576 13.5142 40.5523 13.4748C40.647 13.4353 40.7484 13.4151 40.8509 13.4152H43.632C43.7855 13.4142 43.9377 13.4439 44.0797 13.5026C44.2217 13.5613 44.3507 13.6479 44.4593 13.7573C44.5678 13.8666 44.6537 13.9966 44.7119 14.1397C44.7702 14.2828 44.7997 14.4361 44.7986 14.5908L42.3814 18.8767Z" fill="#FB4400"/>
</g>
<defs>
<clipPath id="clip0">
<rect width="60" height="60" fill="white"/>
</clipPath>
</defs>
</svg>
