<svg width="100" height="100" viewBox="0 0 100 100" fill="none" xmlns="http://www.w3.org/2000/svg"><g clip-path="url(#clip0)"><path d="M69.196 59.34C81.1999 42.3894 77.1852 18.9178 60.2346 6.91676C43.2841 -5.08429 19.8125 -1.07247 7.81142 15.881C-4.18963 32.8316 -0.177813 56.3003 16.7756 68.3014C28.8742 76.867 44.8699 77.5265 57.6308 69.9904L85.358 97.5512C88.3518 100.703 93.3329 100.829 96.4844 97.8351C99.636 94.8442 99.7621 89.8631 96.7712 86.7116C96.6766 86.6112 96.5848 86.5194 96.4844 86.4248L69.196 59.34ZM38.4808 61.9094C25.086 61.9123 14.2263 51.0611 14.2177 37.6664C14.2148 24.2717 25.066 13.412 38.4636 13.4062C51.8411 13.4005 62.6951 24.2344 62.7209 37.6119C62.7438 51.0095 51.8984 61.8865 38.498 61.9094C38.498 61.9094 38.4894 61.9094 38.4808 61.9094Z" fill="#755F91"/></g><defs><clipPath id="clip0"><rect width="100" height="100" fill="white"/></clipPath></defs></svg>