<svg width="41" height="24" viewBox="0 0 41 24" fill="none" xmlns="http://www.w3.org/2000/svg">
<g clip-path="url(#clip0_708_5788)">
<path d="M1.74468 0H37.1704C38.1861 0 39.1602 0.404878 39.8783 1.12556C40.5965 1.84625 41 2.82371 41 3.84292V22.2609C41 22.7252 40.8162 23.1706 40.489 23.4989C40.1618 23.8272 39.718 24.0117 39.2553 24.0117H1.74468C1.28196 24.0117 0.838196 23.8272 0.511005 23.4989C0.183814 23.1706 0 22.7252 0 22.2609L0 1.75076C0 1.28643 0.183814 0.841117 0.511005 0.512786C0.838196 0.184455 1.28196 0 1.74468 0Z" fill="#D6D6D6"/>
<path d="M31.1658 9.41905L34.2365 8.86756V20.6939H31.1658V9.41905ZM35.6497 9.41905V20.6939H38.7232V8.86756L35.6497 9.41905ZM26.7925 20.6939H29.866V12.0423H26.7925V20.6939ZM6.49313 13.2678C6.10348 13.2415 5.20497 13.1832 5.20497 12.372C5.20497 11.3799 6.49894 11.3799 6.97873 11.3799C7.91217 11.4215 8.83609 11.5863 9.7266 11.8701C9.7266 11.8701 10.1686 12.0248 10.5408 12.1853H10.5757V9.50075H10.5292C9.23949 9.03613 7.87443 8.81838 6.50476 8.85881C3.04448 8.85881 1.81738 10.8809 1.81738 12.6171C1.81738 13.615 2.24192 15.9669 6.20816 16.2383C6.54547 16.2616 7.43816 16.3112 7.43816 17.1516C7.43816 17.8431 6.7054 18.2516 5.47831 18.2516C4.2999 18.2449 3.13281 18.0203 2.03547 17.5893V20.3525C3.37443 20.6849 4.75048 20.8428 6.12965 20.8223C9.52015 20.8223 11.0497 18.9082 11.0497 17.0086C11.0497 14.8581 9.33987 13.4575 6.49313 13.2678ZM25.0623 11.9168C22.2214 12.0073 20.7821 13.2853 20.7821 15.8268V20.6939H23.8789V16.7256C23.8789 15.2053 24.0766 14.5517 25.8765 14.4904V11.9635C25.6073 11.9218 25.3346 11.9061 25.0623 11.9168ZM16.7286 12.0335C16.314 13.1258 15.7247 14.1429 14.9839 15.0448V8.86756L11.8144 9.49492V20.6939H14.9839V17.2333C15.617 18.3087 16.08 19.4761 16.3564 20.6939H20.1453C19.7731 19.127 18.1272 16.2383 18.1272 16.2383C19.1055 14.9759 19.859 13.5534 20.3546 12.0335H16.7286ZM28.3278 11.2136C28.6276 11.2142 28.9208 11.1255 29.1703 10.9588C29.4198 10.7921 29.6144 10.5549 29.7295 10.2771C29.8446 9.9994 29.8751 9.69364 29.8169 9.39854C29.7588 9.10345 29.6147 8.8323 29.403 8.6194C29.1912 8.4065 28.9213 8.26142 28.6273 8.20252C28.3334 8.14363 28.0286 8.17356 27.7516 8.28854C27.4746 8.40352 27.2379 8.59837 27.0713 8.84843C26.9047 9.0985 26.8158 9.39254 26.8158 9.69334C26.8154 9.89284 26.8542 10.0905 26.93 10.2749C27.0058 10.4593 27.1171 10.6269 27.2576 10.7681C27.398 10.9093 27.5649 11.0214 27.7485 11.0978C27.9321 11.1742 28.129 11.2136 28.3278 11.2136Z" fill="#543477"/>
<path d="M2.50946 3.13383C2.78046 3.08916 3.05486 3.06865 3.32946 3.07255C3.63995 3.04845 3.94893 3.13526 4.2018 3.31766C4.29613 3.40019 4.37112 3.50263 4.42139 3.61765C4.47166 3.73266 4.49597 3.8574 4.49258 3.98295C4.49864 4.10895 4.4788 4.23485 4.43427 4.35282C4.38975 4.47079 4.32151 4.5783 4.23379 4.66866C3.97846 4.89576 3.64392 5.01221 3.30329 4.99255C3.2156 4.99431 3.12795 4.98747 3.04159 4.97213V6.1072H2.50946V3.13383ZM3.04159 4.53444C3.12752 4.55309 3.21543 4.56094 3.30329 4.55778C3.70457 4.55778 3.94882 4.35644 3.94882 4.00337C3.94882 3.6503 3.72201 3.50149 3.34982 3.50149C3.24629 3.499 3.14283 3.50879 3.04159 3.53067V4.53444Z" fill="#543477"/>
<path d="M6.03079 6.10142L5.9959 5.85923H5.98136C5.90599 5.95297 5.81014 6.02804 5.70123 6.07864C5.59231 6.12923 5.47326 6.154 5.35327 6.15103C5.26649 6.15502 5.17982 6.14115 5.09858 6.11027C5.01734 6.0794 4.94325 6.03217 4.88088 5.97149C4.8185 5.91081 4.76916 5.83797 4.73588 5.75744C4.70261 5.67692 4.68611 5.59041 4.68739 5.50325C4.68739 4.95467 5.16136 4.67747 5.94646 4.68331V4.64537C5.94646 4.5024 5.89122 4.26604 5.51611 4.26604C5.31129 4.26529 5.11018 4.32079 4.93455 4.42653L4.83859 4.08513C5.07321 3.95448 5.33796 3.88806 5.60625 3.89255C6.28958 3.89255 6.47859 4.33607 6.47859 4.80878V5.5937C6.47568 5.76838 6.48637 5.94301 6.51058 6.11601L6.03079 6.10142ZM5.961 5.03929C5.58008 5.03929 5.21951 5.11516 5.21951 5.44489C5.21657 5.48615 5.2224 5.52757 5.23663 5.56639C5.25085 5.60522 5.27314 5.64057 5.30201 5.67009C5.33088 5.69961 5.36568 5.72264 5.4041 5.73764C5.44251 5.75265 5.48367 5.75928 5.52483 5.75711C5.61621 5.75824 5.70566 5.73074 5.78072 5.67843C5.85577 5.62613 5.9127 5.55163 5.94356 5.46531C5.95484 5.42543 5.9607 5.38421 5.961 5.34276V5.03929Z" fill="#543477"/>
<path d="M7.34512 3.92748L7.72895 5.09465C7.77257 5.22888 7.81619 5.38645 7.84817 5.52067C7.88307 5.3952 7.92378 5.22888 7.96158 5.09173L8.29307 3.92456H8.87463L8.3425 5.40687C8.05172 6.21806 7.85399 6.57404 7.60101 6.80164C7.44681 6.95406 7.25007 7.05583 7.0369 7.09344L6.92058 6.62365C7.03383 6.59331 7.14037 6.54183 7.23463 6.47192C7.35714 6.38164 7.45675 6.26368 7.52541 6.1276C7.54713 6.09801 7.55885 6.06222 7.55885 6.02547C7.55885 5.98872 7.54713 5.95293 7.52541 5.92334L6.74902 3.92748H7.34512Z" fill="#543477"/>
<path d="M10.0785 6.10137C10.0785 5.95256 10.0959 5.71329 10.0959 5.4886V2.9325H10.631V4.22806C10.704 4.11511 10.8053 4.02335 10.9246 3.96191C11.044 3.90048 11.1774 3.87151 11.3114 3.87791C11.8319 3.87791 12.2041 4.32143 12.1837 4.98088C12.1837 5.76289 11.701 6.14806 11.2183 6.14806C11.0826 6.15431 10.9477 6.12238 10.8291 6.05587C10.7104 5.98937 10.6126 5.89093 10.5466 5.77164L10.5205 6.09845L10.0785 6.10137ZM10.631 5.20265C10.6264 5.24629 10.6264 5.29031 10.631 5.33395C10.6562 5.44156 10.7166 5.53761 10.8025 5.60686C10.8883 5.67611 10.9948 5.7146 11.1049 5.7162C11.4422 5.7162 11.6487 5.44192 11.6487 5.00423C11.6487 4.61906 11.4684 4.30684 11.1108 4.30684C10.9979 4.31092 10.8896 4.35278 10.8032 4.42575C10.7168 4.49872 10.6572 4.59861 10.6339 4.70952C10.6229 4.75639 10.617 4.80434 10.6164 4.85249L10.631 5.20265Z" fill="#543477"/>
<path d="M12.9485 3.92748L13.3352 5.09465C13.3759 5.22888 13.4225 5.38645 13.4515 5.52067H13.4661C13.501 5.3952 13.5388 5.22888 13.5795 5.09173L13.911 3.92456H14.4925L13.9575 5.40979C13.6667 6.22097 13.469 6.57696 13.2131 6.80456C13.0596 6.95631 12.864 7.05801 12.6519 7.09635L12.5298 6.6324C12.6426 6.60089 12.7489 6.54951 12.8438 6.48067C12.9665 6.39055 13.0661 6.27256 13.1346 6.13635C13.1546 6.10691 13.1667 6.0727 13.1695 6.03714C13.1685 6.00026 13.1585 5.96419 13.1404 5.9321L12.364 3.93623L12.9485 3.92748Z" fill="#543477"/>
</g>
<defs>
<clipPath id="clip0_708_5788">
<rect width="41" height="24" fill="white"/>
</clipPath>
</defs>
</svg>
