<?xml version="1.0" encoding="utf-8"?>
<!-- Generator: Adobe Illustrator 24.1.2, SVG Export Plug-In . SVG Version: 6.00 Build 0)  -->
<svg version="1.1" id="Слой_1" xmlns="http://www.w3.org/2000/svg" xmlns:xlink="http://www.w3.org/1999/xlink" x="0px" y="0px"
	 viewBox="0 0 60 60" style="enable-background:new 0 0 60 60;" xml:space="preserve">
<style type="text/css">
	.st0{fill-rule:evenodd;clip-rule:evenodd;fill:url(#Shape_1_);}
</style>
<g id="spinomenal_1_" transform="translate(0 -270.5417)">
	<g id="Page-1_4_" transform="translate(-3.4867 266.9483) scale(.42272)">
		<g id="spinomenal-color">
			<g id="spinomenal" transform="translate(9.5 8)">
				
					<linearGradient id="Shape_1_" gradientUnits="userSpaceOnUse" x1="23236.1855" y1="-168150.9844" x2="23199.3848" y2="-168160.4531" gradientTransform="matrix(7.397600e-02 0 0 7.710413e-02 -1612.6637 13045.877)">
					<stop  offset="0" style="stop-color:#37BBD5"/>
					<stop  offset="1" style="stop-color:#A0519A"/>
				</linearGradient>
				<path id="Shape_8_" class="st0" d="M7.4,0.5h64.8c3.7,0,7.4,0.5,10.8,1.5h0.1c24.7,7.2,42.3,22.6,53.6,45.7
					c0.6,1.2,1.8,2.7,0.6,3.9c-1.4,1.2-2.6-0.4-3.8-1.1c-7.2-4.2-14.7-7.3-23.1-7.9c-21-1.6-42.1-0.4-63.2-0.8
					c-2.5,0-3.4,1.2-3.6,3.7c-0.3,4.2,2.2,4.5,5.4,4.5c21.5-0.1,43-0.1,64.4,0c2.7-0.1,5.3,0.2,8,0.6c9.6,1.7,16.5,10.2,16.4,19.9
					c0,22.1,0,44,0,66.1c0,5.8,0,5.9-6,5.9c-19.3,0-38.4,0-57.7,0c-29.2,0-60-20.8-71-48c-0.5-1.2-1.6-2.5-0.6-3.6
					c1.4-1.3,2.6,0.3,3.7,1c8.3,4.9,17.1,8.2,26.8,8.3c19.6,0.2,39.3,0.1,58.9,0.2c2.6,0,4.4-0.7,4.4-3.8c0-3.4-1.8-4-4.6-4.1
					c-17.8-0.7-35.6-0.2-53.4-0.3c-6.1,0-12.1,0.6-18.2-0.1c-10-1.1-18.5-9.5-18.6-19.5c-0.2-22.2,0-44.3,0.1-66.5
					C1.8,3,4.3,0.6,7.4,0.5z"/>
			</g>
		</g>
	</g>
</g>
</svg>
