<svg width="100" height="99" viewBox="0 0 100 99" fill="none" xmlns="http://www.w3.org/2000/svg"><g filter="url(#filter0_d)"><path d="M99.7384 36.2089C99.0799 34.184 97.284 32.7504 95.1675 32.5589L66.3005 29.9382L54.8921 3.22881C54.0498 1.2665 52.1333 0 50.0001 0C47.8668 0 45.9496 1.2665 45.1126 3.22881L33.7042 29.9382L4.83259 32.5589C2.71617 32.7543 0.923994 34.1878 0.261753 36.2089C-0.396674 38.2338 0.211398 40.4547 1.81207 41.8585L23.6332 60.9926L17.1993 89.3301C16.7285 91.4137 17.5373 93.5683 19.2661 94.818C20.1954 95.4932 21.2872 95.8305 22.3828 95.8305C23.3242 95.8305 24.2665 95.5802 25.108 95.0767L50.0001 80.193L74.8875 95.0767C76.7133 96.1677 79.009 96.0677 80.734 94.818C82.4629 93.5683 83.2716 91.4137 82.8009 89.3301L76.3669 60.9926L98.1881 41.8585C99.788 40.4547 100.397 38.2383 99.7384 36.2089V36.2089Z" fill="#000000"/></g><defs><filter id="filter0_d" x="0" y="0" width="100" height="98.8305" filterUnits="userSpaceOnUse" color-interpolation-filters="sRGB"><feFlood flood-opacity="0" result="BackgroundImageFix"/><feColorMatrix in="SourceAlpha" type="matrix" values="0 0 0 0 0 0 0 0 0 0 0 0 0 0 0 0 0 0 127 0"/><feOffset dy="3"/><feColorMatrix type="matrix" values="0 0 0 0 0 0 0 0 0 0 0 0 0 0 0 0 0 0 1 0"/><feBlend mode="normal" in="SourceGraphic" in2="effect1_dropShadow" result="shape"/></filter></defs></svg>