<svg width="60" height="60" viewBox="0 0 60 60" fill="none" xmlns="http://www.w3.org/2000/svg">
<path d="M30.295 59.9888C29.016 59.919 27.7396 59.8493 26.4657 59.7795C24.9658 59.702 23.4659 59.6245 21.966 59.5353C21.8567 59.5136 21.7559 59.4611 21.6753 59.3842C18.5708 56.8068 15.469 54.2281 12.3697 51.6482C11.0364 50.5359 9.70185 49.4222 8.36601 48.3073C8.25662 48.2087 8.17508 48.083 8.12959 47.943C7.20328 45.1563 6.26535 42.3735 5.37006 39.5636C5.03674 38.5172 4.81195 37.4087 4.5484 36.3196C4.0368 34.2035 3.5407 32.0834 3.02911 29.9673C2.98559 29.7935 2.99096 29.6111 3.04461 29.4402C3.3818 28.2968 3.71899 27.1535 4.04455 26.0024C5.3623 21.3709 6.67876 16.7406 7.99393 12.1117C8.04038 11.9705 8.07919 11.8269 8.11021 11.6815C8.13209 11.5454 8.18372 11.4157 8.26143 11.3019C8.33915 11.188 8.44102 11.0926 8.55979 11.0226C8.63444 10.9676 8.70563 10.9081 8.77296 10.8443C10.9356 8.89871 13.0828 6.91821 15.2648 5.00746C16.164 4.21681 17.1252 3.56956 18.0592 2.85642C19.2685 1.94175 20.4803 1.03353 21.6947 0.131775C21.7768 0.0679132 21.8775 0.0325386 21.9815 0.031006C27.4889 0.015503 32.9977 0.00516766 38.5077 0C38.5944 0.00142418 38.678 0.0329332 38.7441 0.0891422C41.0385 1.8061 43.3407 3.50755 45.6197 5.26326C46.3793 5.8485 47.0808 6.57714 47.8017 7.24765C49.2667 8.60416 50.7318 9.96454 52.1968 11.3288C52.2968 11.4293 52.3701 11.5532 52.41 11.6893C54.0688 17.4641 55.725 23.2428 57.3787 29.0255C57.3864 29.0487 57.3864 29.072 57.3942 29.0913C57.6577 29.5332 57.5376 29.9711 57.4213 30.444C56.6965 33.3624 56.0105 36.2964 55.2664 39.2109C54.999 40.2613 54.6191 41.2689 54.2858 42.2883C53.6618 44.1835 53.0301 46.0749 52.41 47.9701C52.3633 48.1315 52.2703 48.2757 52.1425 48.3848C47.8521 51.9544 43.5616 55.5291 39.2712 59.109C38.9548 59.4002 38.5458 59.5704 38.1162 59.5896C36.8605 59.6361 35.6086 59.7136 34.3529 59.7834C33.1398 59.8531 31.9267 59.9268 30.7097 59.9966C30.574 60.0043 30.4422 59.9966 30.3066 59.9966C30.295 59.9966 30.295 59.9927 30.295 59.9888ZM38.5232 42.2728C40.182 44.8889 41.8292 47.4818 43.4803 50.0824C43.5 50.0578 43.5181 50.0319 43.5345 50.0049C44.0539 49.0011 44.5706 47.9972 45.0848 46.9934C45.1181 46.9283 45.1379 46.8571 45.1429 46.7841C45.1701 46.3307 45.1895 45.8811 45.2127 45.4276C45.2863 44.0362 45.36 42.6371 45.4336 41.2418C45.4724 40.5636 45.5034 39.8814 45.5383 39.1799C45.4685 39.1993 45.4142 39.207 45.36 39.2225C43.6857 39.7535 42.0126 40.2845 40.3409 40.8155C40.2898 40.8261 40.242 40.8487 40.2014 40.8814C39.6433 41.3387 39.0968 41.7999 38.5232 42.2728H38.5232ZM15.0245 39.1722C15.0633 39.8814 15.0904 40.5481 15.1292 41.2108C15.2261 43.0324 15.3191 44.8618 15.4199 46.6834C15.4277 46.815 15.4606 46.9439 15.5168 47.0632C15.9973 48.0089 16.4818 48.952 16.9702 49.8925C17.005 49.9584 17.0399 50.0204 17.0826 50.094C18.7414 47.4818 20.3886 44.885 22.0435 42.2805C21.4699 41.8038 20.9157 41.3426 20.3614 40.8814C20.3175 40.8535 20.269 40.8338 20.218 40.8232C18.9778 40.4279 17.7337 40.0287 16.4934 39.6373C16.0051 39.4783 15.5245 39.3311 15.0245 39.1722V39.1722ZM13.1293 32.4904C13.1913 32.409 13.2339 32.347 13.2766 32.2888C14.2571 30.8781 15.2377 29.4595 16.226 28.0604C16.4714 27.7231 16.6491 27.3414 16.7492 26.9364C16.8888 26.3861 17.0515 25.8512 17.2105 25.2854C14.5246 24.2854 11.8542 23.2932 9.16441 22.2933C9.25743 23.4405 9.34657 24.549 9.44734 25.6536C9.46527 25.8326 9.51793 26.0063 9.60237 26.1652C10.4163 27.6418 11.2379 29.1069 12.0557 30.5796C12.4123 31.2075 12.7689 31.8393 13.1293 32.4904H13.1293ZM47.4064 32.5059C47.4305 32.4773 47.4513 32.4461 47.4684 32.4129C48.6544 30.2812 49.8416 28.1508 51.0302 26.0218C51.066 25.9516 51.0884 25.8754 51.0961 25.797C51.1387 25.3513 51.1775 24.8978 51.2124 24.4482C51.2744 23.7428 51.3286 23.0336 51.3906 22.2855C48.697 23.2855 46.0266 24.2777 43.3446 25.2776C43.5616 26.0334 43.7632 26.7659 43.9725 27.4907C43.9975 27.5629 44.0356 27.6299 44.0849 27.6883C45.1546 29.2309 46.2256 30.7721 47.2979 32.3121C47.3327 32.3702 47.3676 32.4322 47.4064 32.5059H47.4064ZM43.0423 50.4157C41.3835 47.7996 39.7479 45.2183 38.1007 42.6255C37.5077 43.1177 36.9225 43.6021 36.3411 44.0944C36.3001 44.1388 36.265 44.1883 36.2365 44.2416C35.2986 45.8656 34.3593 47.4921 33.4188 49.1212C33.3952 49.165 33.3745 49.2103 33.3568 49.2569C33.3982 49.2756 33.4409 49.2912 33.4847 49.3034C35.5892 49.9312 37.6951 50.5552 39.8022 51.1753C39.8831 51.1979 39.9686 51.1993 40.0502 51.1792C40.7595 51.0048 41.4687 50.8188 42.178 50.6405C42.4609 50.5669 42.74 50.4932 43.0423 50.4157V50.4157ZM27.2099 49.2569C27.1866 49.2065 27.175 49.1832 27.1634 49.16C26.2099 47.5089 25.2565 45.8591 24.3031 44.2106C24.2794 44.1642 24.248 44.1223 24.21 44.0866C23.6326 43.6021 23.0551 43.1216 22.466 42.6293C20.8226 45.2222 19.1832 47.8073 17.5321 50.4118C17.5903 50.4351 17.6174 50.4506 17.6445 50.4583C18.5088 50.6793 19.3731 50.9002 20.2374 51.1133C20.4158 51.1786 20.6079 51.1973 20.7955 51.1676C22.5822 50.656 24.3651 50.1211 26.1479 49.5902C26.489 49.4739 26.8417 49.3693 27.2099 49.2569H27.2099ZM37.7945 11.9334C37.7441 11.8598 37.7093 11.8055 37.6783 11.759C36.3218 9.87153 34.9639 7.98275 33.6049 6.09267C33.5541 6.02178 33.4878 5.96345 33.4111 5.92214C32.508 5.46868 31.6011 5.02297 30.698 4.5695C30.6524 4.54615 30.6043 4.52795 30.5546 4.51524V14.1155H30.7446C31.3414 14.1155 31.946 14.1193 32.5429 14.1116C32.6509 14.1107 32.7576 14.0883 32.8568 14.0457C33.6436 13.7124 34.4265 13.3752 35.2094 13.0419C36.0621 12.6737 36.9147 12.3094 37.7945 11.9334H37.7945ZM30.0082 14.1155V4.51137C29.9423 4.5385 29.888 4.56175 29.8376 4.58501C28.9617 5.01909 28.0935 5.45317 27.2215 5.89501C27.0958 5.96105 26.987 6.05522 26.9037 6.17019C25.5898 7.98791 24.2785 9.80822 22.9698 11.6311C22.8997 11.7136 22.8204 11.7877 22.7334 11.852C22.7857 11.9146 22.8521 11.9637 22.9272 11.9954C24.4271 12.6427 25.927 13.2822 27.4269 13.9294C27.5648 14.0147 27.7172 14.0738 27.8765 14.1038C28.5819 14.1232 29.2912 14.1155 30.0082 14.1155H30.0082ZM51.2162 21.6383C51.1348 21.5491 51.0845 21.5026 51.0418 21.4484C50.445 20.6771 49.8559 19.902 49.2551 19.1423C49.1701 19.0294 49.06 18.9378 48.9334 18.8749C47.3676 18.1656 45.8005 17.4577 44.2321 16.751C43.7438 16.5339 43.2555 16.313 42.7555 16.0921C42.7477 16.2045 42.74 16.2936 42.7361 16.3867C42.6663 18.2276 42.594 20.0686 42.5191 21.9096C42.5052 22.1885 42.5393 22.4677 42.6198 22.7351C42.7787 23.2622 42.9221 23.7932 43.0733 24.3203L43.1663 24.6342C45.8445 23.6421 48.4993 22.6499 51.2162 21.6383H51.2162ZM17.3965 24.6381C17.6135 23.8785 17.8228 23.1421 18.0282 22.4057C18.0459 22.3164 18.0498 22.2249 18.0399 22.1344C17.9779 20.526 17.9171 18.9149 17.8577 17.3013C17.8461 16.906 17.8228 16.5068 17.8073 16.1037C17.7676 16.1168 17.7288 16.1324 17.691 16.1502C15.6408 17.0727 13.5905 17.9964 11.5402 18.9214C11.4626 18.9615 11.3961 19.02 11.3465 19.0919C10.7302 19.8865 10.1153 20.6836 9.5016 21.4833C9.46284 21.5336 9.42796 21.5879 9.37758 21.6615C12.0635 22.6537 14.7222 23.6421 17.3965 24.6381V24.6381ZM30.5585 30.7502V40.9783H37.0465C34.88 37.5599 32.7289 34.1725 30.5585 30.7502H30.5585ZM23.5124 40.9821H29.9965V30.7579C27.8261 34.1763 25.679 37.5637 23.5124 40.9821V40.9821ZM30.5508 16.1386V28.8084C32.3181 26.0256 34.0583 23.2816 35.8102 20.5182C34.0506 19.057 32.3104 17.6036 30.5508 16.1386V16.1386ZM30.0159 28.8162V16.1347C28.2525 17.6036 26.5084 19.0493 24.7488 20.5182C26.5006 23.2816 28.2447 26.0256 30.0159 28.8162H30.0159ZM37.5194 40.676C38.1937 38.2962 38.8565 35.9514 39.527 33.5988C36.6938 32.5485 33.8839 31.4982 31.0236 30.4324C33.2018 33.874 35.3489 37.2537 37.5194 40.676V40.676ZM23.0396 40.676C25.21 37.2575 27.3533 33.8779 29.5004 30.4905C29.4936 30.4783 29.4884 30.4653 29.4849 30.4517C26.675 31.4982 23.8574 32.5472 21.0319 33.5988C21.7024 35.9592 22.3652 38.2962 23.0396 40.676H23.0396ZM19.0553 25.2544C22.5512 26.5566 26.0045 27.8395 29.4578 29.1262C29.4656 29.1069 29.4733 29.0952 29.4811 29.0758C27.7525 26.3512 26.0226 23.6253 24.2914 20.898C22.5512 22.3476 20.8188 23.7893 19.0553 25.2544V25.2544ZM36.2675 20.8941C34.535 23.6265 32.8065 26.3525 31.0817 29.072C31.0895 29.0914 31.0972 29.103 31.105 29.1224C34.5583 27.8356 38.0116 26.5527 41.5036 25.2505C39.7402 23.7893 38.0116 22.3476 36.2675 20.8941H36.2675ZM29.2408 29.8006C29.2408 29.7851 29.2446 29.7735 29.2446 29.7541C25.7875 28.4674 22.3342 27.1845 18.8421 25.8822C19.5165 28.2619 20.1754 30.5874 20.8382 32.9206C23.6558 31.8819 26.4502 30.8432 29.2408 29.8006H29.2408ZM31.3143 29.7541C31.3148 29.7697 31.3135 29.7853 31.3104 29.8006C34.1087 30.8432 36.9096 31.8858 39.713 32.9283C40.3797 30.5835 41.0385 28.2581 41.709 25.89C38.217 27.1845 34.7676 28.4712 31.3143 29.7541V29.7541ZM52.8324 23.9211C52.4255 24.6536 52.0301 25.359 51.6387 26.0721C51.6005 26.151 51.5781 26.2366 51.5728 26.3241C51.4875 27.3085 51.4061 28.2929 51.3286 29.2774C51.2124 30.6882 51.0922 32.0989 50.9759 33.5136C50.8946 34.4864 50.8132 35.4631 50.7318 36.4669C50.7783 36.4243 50.8132 36.401 50.8442 36.37C52.0379 35.0755 53.2316 33.7771 54.4254 32.4749C54.475 32.4018 54.5007 32.3151 54.499 32.2268C54.4835 31.6842 54.4525 31.1377 54.4292 30.5951C54.3556 29.0681 54.2794 27.5423 54.2006 26.0179C54.2014 25.9371 54.1828 25.8574 54.1463 25.7853C53.7161 25.1691 53.282 24.5606 52.8324 23.9211H52.8324ZM9.83104 36.4902C9.79228 36.0251 9.76127 35.6142 9.72639 35.2034C9.48997 32.3896 9.25743 29.5745 9.02876 26.7582C9.009 26.3778 8.90014 26.0074 8.71095 25.6768C8.39314 25.1613 8.11021 24.6071 7.8079 24.0723C7.78077 24.0258 7.75364 23.9831 7.71876 23.9327C7.27692 24.5606 6.84284 25.173 6.41651 25.7931C6.38262 25.8576 6.36531 25.9295 6.36612 26.0024C6.26148 28.0798 6.16071 30.1533 6.06769 32.2346C6.06901 32.3351 6.10455 32.4322 6.16846 32.5098C6.95911 33.3779 7.75751 34.2383 8.54817 35.1026C8.96675 35.5522 9.38145 36.0057 9.83104 36.4902H9.83104ZM45.5228 49.6716C46.2165 49.4545 46.8832 49.253 47.5537 49.0359C47.6199 49.0016 47.675 48.9492 47.7126 48.8848C48.8443 47.3035 49.9644 45.7144 51.1 44.137C51.1461 44.0743 51.1781 44.0023 51.1935 43.9259C51.2089 43.8496 51.2074 43.7709 51.1891 43.6952C50.9837 42.4782 50.7899 41.2534 50.5922 40.0326C50.4915 39.4163 50.3907 38.7962 50.2822 38.1451C50.257 38.1819 50.235 38.2208 50.2163 38.2614L45.7166 46.9934C45.6839 47.0508 45.6628 47.114 45.6545 47.1795C45.608 47.9934 45.5654 48.815 45.5228 49.6716H45.5228ZM10.2884 38.149C10.2729 38.2149 10.2612 38.2536 10.2535 38.2962C9.95894 40.1334 9.65663 41.9666 9.36595 43.8037C9.3603 43.9058 9.38599 44.0072 9.43959 44.0944C10.5713 45.695 11.7056 47.2906 12.8425 48.8809C12.9015 48.9662 12.9854 49.0312 13.0828 49.0669C13.4277 49.1871 13.7688 49.284 14.1137 49.3886C14.416 49.4817 14.7184 49.5747 15.0362 49.6638C14.9935 48.8615 14.9548 48.0941 14.9083 47.3345C14.9006 47.1895 14.8651 47.0474 14.8036 46.9159C13.3425 44.0634 11.8761 41.2134 10.4046 38.366C10.3736 38.3001 10.3349 38.2381 10.2884 38.149V38.149ZM43.4958 10.6467C43.4841 10.6738 43.4686 10.7009 43.457 10.7242C43.4962 10.7419 43.5317 10.7669 43.5616 10.7978C45.4685 13.2667 47.3754 15.7368 49.2822 18.2083C49.3426 18.2857 49.4211 18.3469 49.5109 18.3865C50.131 18.6733 50.7511 18.9485 51.3751 19.2315C51.4281 19.2544 51.4824 19.2738 51.5379 19.2896C51.5457 19.1888 51.5534 19.1152 51.5573 19.0377C51.5844 18.402 51.6154 17.7625 51.6309 17.1269C51.6341 16.9911 51.6035 16.8566 51.5418 16.7355C50.6155 15.0689 49.6737 13.4178 48.7474 11.7435C48.7005 11.6359 48.626 11.5426 48.5313 11.4732C48.4367 11.4038 48.3254 11.3606 48.2087 11.3482C46.9064 11.1621 45.6042 10.9606 44.3019 10.7668C44.0345 10.7203 43.7632 10.6854 43.4958 10.6467H43.4958ZM9.01713 19.2935C9.09465 19.2625 9.15666 19.2431 9.20704 19.216C9.81166 18.9446 10.4202 18.6772 11.0248 18.3943C11.1366 18.341 11.2338 18.2612 11.3077 18.1617C13.2029 15.7162 15.093 13.268 16.9779 10.8172C17.0128 10.7707 17.0399 10.7203 17.0864 10.6622C17.0167 10.6622 16.9663 10.6583 16.9159 10.6622C15.3191 10.9025 13.7223 11.1454 12.1255 11.3908C12.0854 11.401 12.0479 11.4194 12.0152 11.4447C11.9825 11.4701 11.9554 11.5018 11.9356 11.5381C10.9511 13.2822 9.96927 15.0276 8.99 16.7742C8.94728 16.8568 8.92596 16.9487 8.92799 17.0417C8.93962 17.4719 8.95899 17.8982 8.9745 18.3284C8.98225 18.6501 9.00163 18.9601 9.01713 19.2935V19.2935ZM32.4421 3.41841C32.4266 3.44941 32.4111 3.48817 32.3956 3.51918C32.8336 4.09279 33.2728 4.66381 33.7134 5.23226C33.7873 5.33171 33.881 5.41484 33.9886 5.47643C36.6434 6.80581 39.3022 8.13002 41.9648 9.44907C42.0152 9.47232 42.0656 9.4917 42.1392 9.52271C42.1121 9.44907 42.1005 9.40644 42.085 9.37155C41.399 7.72049 40.7104 6.06683 40.0192 4.4106C39.9975 4.36499 39.9667 4.32428 39.9287 4.29097C39.8907 4.25765 39.8463 4.23242 39.7983 4.21681C38.0387 3.67808 36.2804 3.14452 34.5234 2.61613C34.4613 2.58814 34.3914 2.58265 34.3257 2.60063C33.694 2.86418 33.07 3.13935 32.4421 3.41841H32.4421ZM18.4119 9.52271C18.4856 9.48395 18.5205 9.4762 18.5515 9.45682C21.2412 8.11969 23.931 6.77997 26.6208 5.43767C26.6962 5.39605 26.7612 5.33772 26.8107 5.26714C27.2176 4.70903 27.6207 4.14317 28.0277 3.57731C28.0625 3.5308 28.0897 3.48042 28.1323 3.41453C27.4851 3.1316 26.8572 2.85642 26.2293 2.58512C26.1693 2.56837 26.1055 2.57108 26.0472 2.59287C24.2798 3.12773 22.5112 3.66258 20.7413 4.19743C20.6868 4.21459 20.6377 4.24529 20.5984 4.28664C20.559 4.32799 20.5309 4.37864 20.5165 4.43385C19.8498 6.05004 19.1793 7.66493 18.505 9.27854C18.4817 9.34442 18.4584 9.41031 18.4119 9.52271H18.4119ZM31.1166 54.1558C31.1825 54.2023 31.2058 54.2217 31.229 54.2372C32.6398 55.1131 34.0506 55.9929 35.4613 56.8649C35.4994 56.8865 35.5418 56.8992 35.5855 56.9018C35.6292 56.9045 35.6729 56.8972 35.7133 56.8804C37.4225 56.1286 39.1304 55.3702 40.837 54.6054C40.9303 54.5562 41.0071 54.4807 41.0579 54.3883C41.368 53.8612 41.6664 53.3264 41.9687 52.7915C42.011 52.7225 42.0498 52.6513 42.085 52.5784C41.4842 52.4001 40.9029 52.2528 40.337 52.0513C40.0204 51.946 39.6786 51.9433 39.3603 52.0435C37.1628 52.6171 34.9614 53.1675 32.7599 53.7256C32.2328 53.8729 31.6941 54.0085 31.1166 54.1558H31.1166ZM29.4462 54.1674C29.357 54.1403 29.3144 54.1209 29.2718 54.1132C26.5626 53.4272 23.8561 52.7373 21.1521 52.0435C20.8485 51.9542 20.5245 51.9623 20.2258 52.0668C19.7917 52.2179 19.3499 52.3303 18.9158 52.4582C18.7724 52.5009 18.629 52.5512 18.4701 52.6016C18.8228 53.2256 19.16 53.8186 19.501 54.4116C19.5534 54.5032 19.6316 54.5773 19.7258 54.6248C21.4195 55.3844 23.121 56.1324 24.8147 56.8882C24.8646 56.9141 24.9207 56.9257 24.9769 56.9216C25.033 56.9175 25.0869 56.8979 25.1325 56.8649C26.0161 56.3068 26.9037 55.7565 27.7874 55.21C28.3261 54.8612 28.8687 54.5279 29.4462 54.1674H29.4462ZM20.6637 15.1813C20.6327 15.2821 20.6095 15.348 20.5901 15.4177C20.0087 17.4602 19.439 19.5105 18.846 21.5453C18.6356 22.1683 18.5538 22.8276 18.6057 23.4831C18.6445 23.8513 18.6367 24.235 18.6484 24.6071C18.6484 24.6497 18.6561 24.6963 18.6639 24.7738C20.4351 23.2971 22.1869 21.8398 23.9542 20.367C22.8613 18.6385 21.7683 16.9176 20.6637 15.1813H20.6637ZM41.9028 24.7815C41.93 24.0064 41.961 23.2816 41.9842 22.553C41.9811 22.4855 41.968 22.4189 41.9455 22.3553C41.2866 20.0299 40.6277 17.7083 39.9688 15.3906C39.9533 15.3325 39.9301 15.2704 39.8991 15.189C38.7945 16.9293 37.7054 18.6462 36.6086 20.3748C38.3681 21.836 40.1161 23.2932 41.9028 24.7815V24.7815ZM40.2091 33.1105C41.9881 33.7733 43.7554 34.4283 45.546 35.0988C45.515 34.9825 45.4995 34.905 45.4763 34.8275C44.9453 32.9555 44.3911 31.0951 43.8911 29.2037C43.6916 28.3038 43.2974 27.4584 42.7361 26.7271C42.5578 26.514 42.4067 26.2582 42.2284 26.0024C41.5501 28.386 40.8835 30.7347 40.2091 33.1105V33.1105ZM15.0052 35.0988C16.8035 34.4283 18.567 33.7694 20.3498 33.1105C19.6754 30.7347 19.0088 28.3821 18.3305 26.0024C17.9081 26.6109 17.505 27.1922 17.0981 27.7775C17.0632 27.8404 17.0384 27.9084 17.0244 27.979C16.6213 29.4014 16.2183 30.8238 15.8152 32.2462C15.5478 33.1841 15.2842 34.1221 15.0052 35.0988V35.0988ZM45.329 35.7538C43.5461 35.091 41.7904 34.4399 40.0231 33.781C39.3565 36.1336 38.6937 38.4668 38.0232 40.8349C38.0852 40.8246 38.1461 40.8091 38.2054 40.7884C38.6239 40.6605 39.0425 40.5132 39.465 40.3969C39.8067 40.2945 40.1226 40.12 40.3913 39.8853C41.9765 38.552 43.5655 37.2382 45.1584 35.9127C45.2011 35.8739 45.2515 35.8235 45.329 35.7538H45.329ZM15.2299 35.7615C15.3152 35.8351 15.3695 35.8817 15.4199 35.9282C17.0089 37.2537 18.598 38.5675 20.1832 39.9008C20.448 40.1402 20.7652 40.3141 21.1095 40.4085C21.3459 40.4667 21.5784 40.5558 21.811 40.6294C22.0435 40.7031 22.2761 40.7728 22.5357 40.8504C22.5086 40.7457 22.497 40.6798 22.4776 40.6139C21.8536 38.4048 21.2219 36.1995 20.6017 33.9864C20.5591 33.8353 20.5126 33.7926 20.3963 33.8391C19.2879 34.2577 18.1716 34.6685 17.0593 35.0833C16.4547 35.3042 15.8578 35.5251 15.2299 35.7615V35.7615ZM30.5585 41.6875V48.0476C30.6244 47.9972 30.6787 47.9585 30.7291 47.9158C32.2173 46.6795 33.694 45.416 35.1939 44.2106C35.817 43.7344 36.3211 43.1201 36.6667 42.4162C36.783 42.172 36.9341 41.9511 37.0853 41.6875H30.5585ZM23.4698 41.6875C23.807 42.2689 24.117 42.8115 24.431 43.3541C24.4779 43.4403 24.541 43.5167 24.617 43.5789C26.365 45.0362 28.1155 46.4935 29.8686 47.9507C29.9074 47.9817 29.9539 48.0089 29.9965 48.0437V41.6914C27.8261 41.6875 25.6673 41.6875 23.4698 41.6875V41.6875ZM36.1435 19.9911C37.2287 18.278 38.3061 16.5804 39.4146 14.8325H39.1743C37.1822 14.8325 35.1939 14.8364 33.2057 14.8286C32.8591 14.8211 32.5155 14.8941 32.2018 15.0418C31.7794 15.2433 31.3453 15.4138 30.8841 15.6154C32.6475 17.0804 34.3839 18.5261 36.1435 19.9911H36.1435ZM21.1443 14.8325C22.2567 16.5843 23.3341 18.2819 24.4155 19.9911C26.1673 18.5338 27.9075 17.0843 29.6671 15.6193C29.6051 15.5883 29.5625 15.565 29.5237 15.5456C29.0237 15.3286 28.5199 15.1115 28.016 14.9061C27.9168 14.8636 27.8101 14.8412 27.7021 14.8402C25.5898 14.8364 23.4762 14.8351 21.3614 14.8364C21.311 14.8325 21.249 14.8325 21.1443 14.8325V14.8325ZM50.2085 36.5018C50.4682 33.4167 50.7201 30.3858 50.9721 27.3589C50.9578 27.3556 50.9445 27.349 50.9333 27.3395C49.883 29.2231 48.8327 31.1029 47.7785 32.9981C48.5807 34.1608 49.3791 35.308 50.2086 36.5018H50.2085ZM10.3543 36.5018C11.1798 35.3158 11.9782 34.1686 12.7844 33.0059C11.7302 31.1106 10.6772 29.2205 9.62562 27.3356C9.61323 27.3442 9.60028 27.352 9.58687 27.3589C9.84267 30.3858 10.0946 33.4128 10.3543 36.5018V36.5018ZM10.7496 37.8157C12.11 40.4589 13.4471 43.0518 14.7842 45.6485C14.7959 45.6408 14.8114 45.633 14.823 45.6253C14.7067 43.4161 14.5905 41.2069 14.4742 38.9978C13.2339 38.6063 12.0131 38.2187 10.7496 37.8157H10.7496ZM45.7359 45.6292C45.7507 45.6326 45.765 45.6378 45.7786 45.6447C47.1118 43.0518 48.449 40.4589 49.8093 37.8195C48.5458 38.2226 47.3211 38.6102 46.0848 39.0016C45.9685 41.2108 45.8522 43.42 45.7359 45.6292H45.7359ZM17.6135 10.9606C15.8539 13.2434 14.1254 15.4875 12.3929 17.7277C12.4066 17.7379 12.4226 17.7446 12.4394 17.7473C12.4563 17.75 12.4736 17.7486 12.4898 17.7432C14.2106 16.968 15.9328 16.1929 17.6562 15.4177C17.7608 15.3712 17.7802 15.3014 17.7724 15.1697C17.7298 14.1077 17.691 13.0535 17.6523 11.9916C17.6445 11.6621 17.629 11.3366 17.6135 10.9606H17.6135ZM48.1389 17.7742L48.1622 17.7277C46.4336 15.4875 44.7011 13.2434 42.9493 10.9684C42.9376 11.0846 42.9338 11.1428 42.9299 11.2048C42.8795 12.5109 42.8369 13.817 42.7787 15.1154C42.771 15.3092 42.8175 15.379 42.9454 15.4332C44.2283 16.0068 45.5098 16.5817 46.7901 17.1579C47.2397 17.3633 47.6893 17.5688 48.1389 17.7742H48.1389ZM25.8417 6.6314C25.8356 6.61391 25.8278 6.59704 25.8185 6.58102C23.4349 7.767 21.0513 8.95297 18.629 10.1545C19.7995 10.6583 20.9195 11.1311 22.0396 11.6234C22.1637 11.6776 22.2373 11.6544 22.3303 11.5265C23.121 10.4141 23.9194 9.31342 24.71 8.20495C25.0898 7.6856 25.4658 7.1585 25.8417 6.6314H25.8417ZM41.8796 10.1777V10.1312C39.4999 8.94522 37.1176 7.76054 34.7327 6.57714C34.7211 6.6004 34.7056 6.62753 34.6939 6.65078C34.787 6.76705 34.8877 6.87557 34.9807 6.9996C36.0698 8.51114 37.1589 10.0343 38.2519 11.542C38.2945 11.6001 38.3914 11.6582 38.4457 11.635C39.5968 11.1621 40.7362 10.6699 41.8796 10.1777V10.1777ZM30.8841 53.5163C33.4653 52.8574 35.9962 52.2141 38.5232 51.5707C38.4959 51.5308 38.4542 51.503 38.4069 51.4932C36.6396 50.9661 34.8761 50.4467 33.1088 49.9157C33.0041 49.8847 32.946 49.9312 32.884 50.0359C32.3879 50.9002 31.8918 51.7619 31.3957 52.621C31.2368 52.9039 31.074 53.183 30.8841 53.5163V53.5163ZM22.0319 51.528V51.5707C24.5627 52.2179 27.0975 52.8613 29.6593 53.5124C29.6245 53.4427 29.6167 53.4155 29.6051 53.3923C28.9578 52.2722 28.3106 51.156 27.6672 50.0281C27.5858 49.8886 27.5122 49.8925 27.4075 49.9274C26.1828 50.2917 24.9581 50.6547 23.7333 51.0164C23.1675 51.187 22.6016 51.3575 22.0319 51.528H22.0319ZM19.9196 4.47261C19.8841 4.47179 19.8487 4.47703 19.815 4.48811C18.6406 4.84468 17.4624 5.18962 16.2958 5.56945C16.0276 5.6933 15.7741 5.8467 15.54 6.02679C16.3152 7.24377 17.0515 8.40262 17.8034 9.5886C18.5127 7.86776 19.2103 6.18569 19.9196 4.47261H19.9196ZM40.6316 4.46098C41.3525 6.18957 42.0501 7.87939 42.7594 9.59247C43.5151 8.39874 44.2515 7.23989 45.0189 6.03066C44.8023 5.85761 44.567 5.7094 44.3174 5.58883C43.488 5.3059 42.6508 5.06948 41.8137 4.81368C41.43 4.69353 41.0463 4.58501 40.6316 4.46098V4.46098ZM50.7473 37.773C51.0535 39.6411 51.3519 41.4782 51.6619 43.389C51.7317 43.2688 51.7666 43.1991 51.8092 43.1409C52.5417 42.1061 53.2743 41.0635 54.0184 40.0442C54.1879 39.7598 54.3097 39.4495 54.3789 39.1257C53.1657 38.6722 51.9681 38.2226 50.7473 37.773V37.773ZM8.84272 43.3657L8.91249 43.296C9.21092 41.4627 9.50935 39.6295 9.81553 37.7691C8.58305 38.2265 7.38932 38.6722 6.19171 39.1179C6.25943 39.4738 6.39781 39.8125 6.59867 40.114C7.32731 41.11 8.04044 42.1294 8.76133 43.1448C8.79373 43.2164 8.82093 43.2902 8.84273 43.3657H8.84272ZM54.5494 33.2074C53.3401 34.5213 52.1542 35.8041 50.9527 37.1103C52.1774 37.5676 53.3712 38.0094 54.5571 38.4513C54.7493 38.0349 54.8128 37.5707 54.7393 37.118C54.7199 36.7963 54.7083 36.4785 54.6928 36.153C54.6463 35.1918 54.5998 34.2267 54.5494 33.2074V33.2074ZM6.01343 33.2151C6.00568 33.2965 6.0018 33.3353 6.0018 33.3702C5.93979 34.6879 5.88165 36.0057 5.80414 37.3234C5.79654 37.7111 5.86365 38.0967 6.0018 38.459C7.19941 38.0133 8.38926 37.5676 9.61012 37.1103C8.40089 35.8003 7.22266 34.5251 6.01343 33.2151V33.2151ZM48.1234 10.6389C47.4413 9.42581 46.7901 8.27859 46.1468 7.11975C45.9569 6.77868 45.6778 6.65078 45.4375 6.41824C44.6972 7.58483 43.9725 8.72818 43.2245 9.91028C44.86 10.1583 46.4684 10.3948 48.1234 10.6389H48.1234ZM17.3422 9.91028C16.5903 8.72043 15.8578 7.57321 15.1137 6.39498C14.873 6.58321 14.658 6.8021 14.4742 7.04611C13.8114 8.1662 13.1797 9.32117 12.5363 10.4645C12.5131 10.511 12.4937 10.5575 12.4549 10.6389C14.0905 10.3948 15.695 10.1583 17.3422 9.91028V9.91028ZM34.8761 57.2603C33.4149 56.3456 31.9925 55.4619 30.5585 54.5666V58.8493C30.8053 58.8911 31.0578 58.8858 31.3027 58.8338C32.4848 58.3416 33.6552 57.8068 34.8761 57.2603H34.8761ZM30.0043 54.5666C28.5625 55.4658 27.1401 56.3534 25.6906 57.2603C25.772 57.299 25.8185 57.3184 25.865 57.3417C26.9386 57.8184 28.0122 58.2873 29.0857 58.7757C29.3823 58.8694 29.6947 58.9023 30.0043 58.8726C30.0043 57.4386 30.0043 56.0162 30.0043 54.5666V54.5666ZM56.9368 29.7502C56.2121 28.7232 55.4989 27.7116 54.7625 26.6651C54.8478 28.4208 54.9292 30.1068 55.0145 31.8393C55.6733 31.1222 56.2935 30.444 56.9368 29.7502V29.7502ZM5.79251 26.731C5.78088 26.7271 5.76926 26.7155 5.75763 26.7116C5.04837 27.7155 4.33652 28.727 3.62209 29.7464C4.26934 30.4479 4.89334 31.1261 5.54446 31.8315C5.62973 30.099 5.71112 28.417 5.79252 26.731H5.79251ZM8.8621 15.813C9.67988 14.3596 10.4667 12.9605 11.2844 11.5071C10.3853 11.6427 9.54423 11.7706 8.68769 11.8985C8.7497 13.2047 8.80396 14.4759 8.8621 15.813H8.8621ZM51.8674 11.8985C51.0069 11.7706 50.1659 11.6466 49.2706 11.511C50.0923 12.9644 50.879 14.3674 51.693 15.8169C51.755 14.4682 51.8131 13.2008 51.8674 11.8985H51.8674ZM11.9472 48.7181C11.9541 48.7033 11.9593 48.6877 11.9627 48.6716C11.048 47.3849 10.1333 46.102 9.19929 44.7881C9.03651 45.7881 8.88148 46.7454 8.72257 47.7221C9.80391 48.0554 10.8775 48.3848 11.9472 48.7181V48.7181ZM48.5885 48.6755C48.5962 48.691 48.6001 48.7026 48.6079 48.7181C49.6814 48.3848 50.755 48.0554 51.8325 47.7182C51.6697 46.7337 51.5147 45.7803 51.3558 44.7842C50.4178 46.1136 49.5032 47.3926 48.5885 48.6755V48.6755ZM36.2791 57.3882C37.0233 57.8533 37.7209 58.2835 38.4185 58.7253C38.527 58.7951 38.5813 58.7757 38.6549 58.6478C39.2014 57.6789 39.7479 56.7177 40.2944 55.7565C40.3215 55.71 40.3409 55.6596 40.3874 55.5666C39.0115 56.1712 37.6666 56.7681 36.2791 57.3882H36.2791ZM24.2798 57.3804C22.8923 56.7642 21.5474 56.1673 20.2025 55.5704C20.7761 56.6402 21.3614 57.6789 21.9544 58.7059C21.9685 58.7245 21.988 58.7382 22.0102 58.7451C22.0324 58.752 22.0563 58.7519 22.0784 58.7447C22.8032 58.3106 23.5202 57.8571 24.2798 57.3804H24.2798ZM25.1596 2.14716C25.1347 2.12257 25.1075 2.1005 25.0782 2.08128C24.1015 1.65494 23.1287 1.23249 22.1559 0.802279C22.0629 0.759646 22.0241 0.806155 21.9854 0.903049C21.7877 1.39139 21.5823 1.87586 21.3808 2.36421C21.2412 2.7014 21.1017 3.04246 20.9428 3.42228C22.3574 2.99595 23.745 2.57737 25.1596 2.14716V2.14716ZM35.3838 2.14329C36.814 2.57737 38.1976 2.99595 39.6123 3.42616C39.5735 3.32539 39.5502 3.26338 39.527 3.20524C39.2169 2.45722 38.903 1.71696 38.6007 0.965061C38.5387 0.810031 38.4844 0.771274 38.3565 0.825534C37.4302 1.23636 36.5039 1.63556 35.5776 2.04252C35.5112 2.07243 35.4465 2.10608 35.3838 2.14329H35.3838ZM13.4394 33.0485C13.7843 33.6725 14.1254 34.281 14.4819 34.9166C15.0207 33.0252 15.54 31.1843 16.0632 29.3433C16.0516 29.3355 16.0439 29.3239 16.0322 29.3161C15.1718 30.5564 14.3075 31.7966 13.4394 33.0485H13.4394ZM47.1196 33.0485C46.2475 31.7927 45.3871 30.5564 44.5267 29.3161C44.5151 29.3239 44.5073 29.3355 44.4957 29.3433C45.0189 31.1881 45.5421 33.0291 46.077 34.9127C46.4336 34.2693 46.7708 33.6686 47.1196 33.0485H47.1196ZM20.1056 15.0922C20.084 15.0875 20.0618 15.0862 20.0397 15.0883C19.4971 15.3325 18.9584 15.5766 18.4158 15.8169C18.3189 15.8596 18.3267 15.9448 18.3305 16.0495C18.3693 17.123 18.4119 18.1928 18.4507 19.2702C18.4662 19.7159 18.4895 20.1655 18.5088 20.6112C18.5205 20.6112 18.5321 20.6151 18.5437 20.6151C19.0592 18.7819 19.5785 16.9486 20.1056 15.0922H20.1056ZM42.0191 20.6151C42.0307 20.6151 42.0423 20.6112 42.054 20.6112C42.0617 20.5376 42.0656 20.4601 42.0695 20.3864C42.1276 18.9291 42.1819 17.4757 42.2361 16.0185C42.2439 15.8828 42.1974 15.8479 42.1199 15.8169C41.6044 15.5921 41.0889 15.3557 40.5773 15.1232C40.5371 15.1087 40.4956 15.0983 40.4533 15.0922C40.9804 16.9486 41.4998 18.778 42.0191 20.6151H42.0191ZM25.4968 45.1524C25.5036 45.1845 25.514 45.2157 25.5278 45.2455C26.2448 46.4857 26.9605 47.7272 27.675 48.9701C27.6822 48.9911 27.6937 49.0104 27.7088 49.0268C27.724 49.0431 27.7423 49.056 27.7628 49.0648C27.7833 49.0736 27.8053 49.078 27.8276 49.0777C27.8498 49.0774 27.8718 49.0724 27.892 49.0631C28.2757 48.9429 28.6555 48.8344 29.0392 48.7181C29.2059 48.6677 29.3764 48.6174 29.5857 48.5553C28.2021 47.4043 26.8611 46.2919 25.4968 45.1524H25.4968ZM35.0583 45.2067C35.0509 45.1969 35.0444 45.1866 35.0389 45.1757C33.6979 46.2919 32.3543 47.4094 31.0081 48.5282C31.0275 48.5515 31.0352 48.567 31.0469 48.5709C31.605 48.7375 32.1592 48.9119 32.7173 49.0631C32.7716 49.0786 32.8607 49.0049 32.9033 48.9352C33.5506 47.8345 34.1862 46.7221 34.8257 45.6137C34.8994 45.478 34.9807 45.3424 35.0583 45.2067H35.0583ZM14.9819 38.4552C16.2803 38.866 17.5631 39.2729 18.846 39.6838C18.8517 39.6674 18.8556 39.6505 18.8576 39.6334C17.536 38.5365 16.2144 37.432 14.8656 36.3119C14.9083 37.056 14.947 37.742 14.9819 38.4552V38.4552ZM45.6894 36.308C44.3329 37.432 43.019 38.5327 41.7013 39.6295C41.7082 39.6457 41.7134 39.6626 41.7168 39.6799C42.9997 39.2729 44.2864 38.8621 45.5732 38.459C45.6158 37.7498 45.6468 37.0599 45.6894 36.308H45.6894ZM26.1402 14.1116C26.0743 14.0728 26.051 14.0612 26.0278 14.0457C24.8457 13.538 23.6558 13.0264 22.4698 12.5264C22.4156 12.5032 22.3187 12.5535 22.2761 12.6156C21.9427 13.0613 21.6211 13.5186 21.2955 13.9759C21.2682 14.0196 21.2436 14.0649 21.2219 14.1116H26.1402ZM39.3216 14.1116C39.3332 14.0845 39.3526 14.0573 39.3642 14.0341C38.9883 13.5419 38.6162 13.0419 38.2325 12.5574C38.2071 12.5386 38.177 12.5272 38.1455 12.5244C38.1141 12.5217 38.0824 12.5278 38.0542 12.5419C37.1628 12.9217 36.2701 13.3029 35.3761 13.6853C35.0699 13.8132 34.7637 13.9488 34.4575 14.0767C34.4614 14.0845 34.4614 14.1 34.4653 14.1077C36.0853 14.1116 37.7041 14.1129 39.3216 14.1116H39.3216ZM42.4183 11.2435C42.405 11.2394 42.392 11.2342 42.3795 11.228C41.7362 12.2435 41.0928 13.2628 40.4339 14.3015C41.0579 14.5844 41.6509 14.8519 42.2671 15.127C42.3175 13.8093 42.3679 12.5264 42.4183 11.2435H42.4183ZM18.1755 11.228L18.1406 11.2513C18.191 12.5342 18.2375 13.817 18.2879 15.1309C18.9119 14.848 19.5049 14.5806 20.1211 14.3054C19.4623 13.2551 18.8189 12.2435 18.1755 11.228H18.1755ZM30.5546 53.0047C31.2019 51.8885 31.8143 50.8188 32.4499 49.7219C31.8026 49.5282 31.1864 49.3499 30.5546 49.16V53.0047ZM30.0043 52.9931V49.1561C29.3725 49.346 28.7563 49.5282 28.1129 49.7181C28.7447 50.8227 29.3609 51.8885 30.0043 52.9931V52.9931ZM21.8148 12.2435C20.7451 11.7861 19.7026 11.3404 18.6639 10.8908C18.6572 10.9003 18.6519 10.9108 18.6484 10.9219C19.2879 11.9334 19.9312 12.9372 20.5436 13.9062C20.9661 13.3481 21.3808 12.8093 21.8148 12.2435H21.8148ZM38.7518 12.2357C39.1821 12.8016 39.5968 13.3519 40.0153 13.9101C40.6355 12.9372 41.275 11.9295 41.9106 10.9257C41.9039 10.9162 41.8987 10.9058 41.8951 10.8947C40.8564 11.3366 39.8138 11.7861 38.7518 12.2357H38.7518ZM47.4684 33.5562C47.1196 34.1841 46.7785 34.7926 46.4258 35.4282C47.4761 35.8196 48.5032 36.2033 49.5303 36.587C49.5365 36.5745 49.5416 36.5616 49.5458 36.5483C48.8637 35.5522 48.1738 34.56 47.4684 33.5562H47.4684ZM14.1331 35.4282C13.7765 34.7887 13.4355 34.1763 13.0867 33.5562C12.3813 34.5717 11.6953 35.5638 11.0093 36.5483C11.0161 36.5618 11.0213 36.5761 11.0248 36.5909C12.0557 36.2033 13.0789 35.8196 14.1331 35.4282V35.4282ZM49.2977 37.273V37.2304C48.2862 36.8506 47.2707 36.4785 46.2398 36.0948C46.201 36.8428 46.1623 37.5482 46.1274 38.2807C47.1971 37.9358 48.2474 37.6064 49.2977 37.273H49.2977ZM14.4354 38.2769C14.3967 37.5289 14.3579 36.8235 14.3191 36.0909C13.2843 36.4746 12.2728 36.8506 11.2651 37.2265V37.273C12.3154 37.6064 13.3618 37.9436 14.4354 38.2769V38.2769ZM56.6965 30.944C56.6888 30.9285 56.681 30.9207 56.6733 30.9052C56.1501 31.4711 55.6268 32.0369 55.1114 32.6067C55.0723 32.6817 55.0561 32.7666 55.0649 32.8508C55.0997 33.6531 55.1424 34.4593 55.1811 35.2654C55.1928 35.5135 55.2044 35.7693 55.2199 36.0173C55.2315 36.0212 55.2431 36.0212 55.2586 36.0251C55.7354 34.3352 56.216 32.6377 56.6965 30.944V30.944ZM5.31967 36.0716C5.33132 36.0256 5.34038 35.979 5.3468 35.932C5.39719 34.8856 5.45145 33.8314 5.49408 32.7849C5.4904 32.6979 5.45765 32.6147 5.40106 32.5485C4.9166 32.0137 4.42825 31.4866 3.93991 30.9556C3.91306 30.9321 3.88305 30.9126 3.85077 30.8974C4.34299 32.6415 4.82358 34.3352 5.31967 36.0716ZM53.6773 41.5906C53.6657 41.5868 53.658 41.5751 53.6463 41.5713C53.1502 42.2689 52.6696 42.9937 52.1542 43.6525C52.0106 43.8187 51.9118 44.0187 51.8671 44.2337C51.8223 44.4487 51.8331 44.6715 51.8984 44.8811C52.034 45.4703 52.1077 46.0865 52.2162 46.757C52.7123 44.9897 53.1929 43.2882 53.6773 41.5906H53.6773ZM8.34275 46.7337C8.36601 46.633 8.38151 46.571 8.38926 46.5167C8.50554 45.7958 8.61793 45.0788 8.74196 44.3618C8.75547 44.3064 8.75621 44.2486 8.74412 44.1929C8.73204 44.1372 8.70744 44.0849 8.67219 44.0401C8.12571 43.2727 7.57536 42.5053 7.02888 41.734C6.994 41.6875 6.96299 41.6526 6.92423 41.6061C6.91261 41.6139 6.90485 41.6255 6.89323 41.6333C7.37382 43.3192 7.85054 45.0052 8.34275 46.7337H8.34275ZM21.1831 1.4224C21.1753 1.41465 21.1676 1.40302 21.1598 1.39527C19.9506 2.40684 18.7336 3.41066 17.5244 4.42223C18.4119 4.19743 19.2879 3.93388 20.156 3.66258C20.2347 3.62485 20.2958 3.55821 20.3266 3.47654C20.5669 2.92231 20.7955 2.36033 21.0242 1.79835C21.0823 1.66657 21.1327 1.54255 21.1831 1.4224H21.1831ZM39.403 1.39527L39.3797 1.41852C39.403 1.47666 39.4224 1.53867 39.4456 1.59293C39.7014 2.2053 39.9572 2.82154 40.2053 3.43779C40.2219 3.49481 40.2526 3.54673 40.2946 3.58873C40.3366 3.63073 40.3885 3.66146 40.4455 3.67808C40.899 3.81373 41.3525 3.94939 41.8059 4.08891C42.209 4.20906 42.6121 4.32921 43.019 4.44936C43.0229 4.43385 43.0268 4.4261 43.0307 4.4106C41.8214 3.41066 40.6083 2.40684 39.403 1.39527V1.39527ZM50.9527 11.0653C50.9572 11.0501 50.9598 11.0345 50.9604 11.0187C49.7551 10.0188 48.551 9.01628 47.3482 8.01117C47.8172 8.91809 48.3017 9.79013 48.7939 10.6544C48.8095 10.6791 48.8298 10.7004 48.8538 10.7171C48.8778 10.7337 48.9049 10.7454 48.9334 10.7513C49.6078 10.8637 50.2822 10.9645 50.9527 11.0653H50.9527ZM13.2301 8.05768C13.2184 8.04217 13.2107 8.03055 13.2029 8.01892C11.9976 9.01886 10.7961 10.0266 9.58687 11.0265C10.2729 10.9684 10.9473 10.8637 11.6178 10.7591C11.6465 10.7536 11.6738 10.7422 11.6979 10.7255C11.7219 10.7088 11.7421 10.6872 11.7573 10.6622C12.2573 9.79013 12.7417 8.92584 13.2301 8.05768H13.2301ZM6.76145 21.0608C7.10639 21.6848 7.43583 22.2739 7.73426 22.8049C8.01332 22.4599 8.28849 22.1111 8.56367 21.7662C8.58372 21.7364 8.59451 21.7013 8.59468 21.6654C8.57918 21.2081 8.5598 20.7507 8.54042 20.2624C7.9358 20.5298 7.35832 20.7895 6.76145 21.0608V21.0608ZM52.8286 22.8049C53.127 22.27 53.4564 21.6732 53.8014 21.0608C53.2006 20.7895 52.6193 20.5298 52.0224 20.2624C52.003 20.7507 51.9798 21.1926 51.9681 21.6422C51.9667 21.6861 51.9788 21.7295 52.003 21.7662C52.2743 22.115 52.5495 22.4561 52.8286 22.8049V22.8049ZM31.4771 3.1161C31.0585 2.56187 30.6554 2.03477 30.2911 1.55805C29.9074 2.05802 29.5082 2.57737 29.0896 3.12385C29.4888 3.29826 29.8648 3.46492 30.2446 3.6277C30.2768 3.63675 30.3111 3.634 30.3415 3.61995C30.7058 3.44941 31.074 3.29051 31.4771 3.1161H31.4771ZM44.9414 50.563C44.5228 50.6909 44.1236 50.811 43.7283 50.9351C43.6818 50.9532 43.6424 50.9858 43.6159 51.0281C43.4105 51.3846 43.209 51.7373 42.9919 52.1249C43.6159 52.3109 44.2205 52.4892 44.8329 52.6753C44.8678 51.9621 44.9027 51.2839 44.9414 50.563H44.9414ZM17.5709 52.1288C17.35 51.7373 17.1523 51.3846 16.9469 51.0397C16.9264 51.0007 16.8938 50.9694 16.8539 50.9506C16.4469 50.8227 16.04 50.6986 15.6175 50.5669C15.6563 51.28 15.6912 51.9699 15.7299 52.6753C16.3462 52.4931 16.943 52.3109 17.5709 52.1288V52.1288ZM23.1907 58.8183C23.1907 58.8338 23.1946 58.8493 23.1946 58.8648H27.5432C27.5083 58.8338 27.5006 58.8144 27.4851 58.8106C26.6789 58.4501 25.8689 58.0897 25.0588 57.737C25.0388 57.7271 25.0167 57.7223 24.9944 57.723C24.9721 57.7236 24.9503 57.7298 24.9309 57.7409C24.3457 58.0974 23.7682 58.4579 23.1907 58.8183V58.8183ZM37.3682 58.861C37.3682 58.8493 37.3721 58.8338 37.3721 58.8144C36.7946 58.454 36.2171 58.0897 35.6319 57.7331C35.6008 57.7221 35.5676 57.7181 35.5347 57.7215C35.5019 57.7248 35.4702 57.7354 35.442 57.7525C34.8567 58.0044 34.2715 58.268 33.6862 58.5315C33.4692 58.6284 33.256 58.7253 33.039 58.8222C33.0407 58.834 33.0433 58.8457 33.0468 58.8571C34.4846 58.861 35.9251 58.8622 37.3682 58.861V58.861ZM4.17633 27.9558C4.19993 27.9398 4.22199 27.9216 4.24222 27.9015C4.75769 27.1729 5.27317 26.4442 5.78089 25.7117C5.82884 25.6223 5.85412 25.5225 5.85453 25.421C5.88553 24.9559 5.90491 24.4831 5.92429 24.018C5.93979 23.6459 5.9553 23.2661 5.9708 22.894C5.95917 22.8902 5.94754 22.8902 5.93204 22.8863C5.35456 24.5606 4.77319 26.2349 4.17633 27.9558H4.17633ZM56.34 27.9325C56.3498 27.9257 56.3589 27.9179 56.3671 27.9092C55.7819 26.2311 55.1979 24.5516 54.6153 22.8708C54.6191 23.7622 54.6579 24.6381 54.7044 25.5102C54.7084 25.576 54.7283 25.6398 54.7626 25.6962C55.2896 26.4403 55.8168 27.1884 56.34 27.9325V27.9325ZM52.348 13.7163C52.3362 13.7156 52.3244 13.7169 52.3131 13.7201C52.2704 14.6658 52.2239 15.6154 52.1891 16.5611C52.1931 16.6468 52.2169 16.7304 52.2588 16.8052C52.6464 17.5029 53.034 18.1928 53.4254 18.8865C53.4448 18.9253 53.4642 18.9602 53.4874 18.9989C53.4991 18.9912 53.5029 18.9795 53.5146 18.9679C53.127 17.2199 52.7381 15.4694 52.348 13.7163V13.7163ZM8.24586 13.7279C8.23357 13.7244 8.22183 13.7192 8.21098 13.7124C7.81953 15.4642 7.43196 17.2199 7.03663 18.9912C7.06376 18.9757 7.07539 18.9718 7.07926 18.964C7.49784 18.2276 7.91642 17.4835 8.33113 16.7393C8.35806 16.6797 8.3713 16.6148 8.36989 16.5494C8.335 15.6154 8.29237 14.6697 8.24586 13.7279H8.24586ZM43.4376 54.2411C43.3872 54.2449 43.3717 54.2411 43.3524 54.2449C42.678 54.5434 41.9997 54.8418 41.3292 55.148C41.2639 55.1879 41.2114 55.2458 41.1781 55.3146C40.7827 56.0084 40.3835 56.7022 39.9882 57.4037C39.9611 57.4541 39.9378 57.5044 39.9107 57.5548C39.9184 57.5626 39.9223 57.5703 39.9301 57.5781C41.0928 56.4696 42.2555 55.365 43.4376 54.2411H43.4376ZM20.6289 57.5742C20.6366 57.5665 20.6405 57.551 20.6521 57.5432C20.3769 57.0549 20.0746 56.5936 19.8266 56.0782C19.5088 55.4038 19.0979 54.9658 18.5166 54.8341C18.4272 54.8051 18.3414 54.7661 18.2608 54.7178C17.9003 54.5628 17.5399 54.4 17.1795 54.2411C17.172 54.2557 17.1668 54.2714 17.1639 54.2876C18.3189 55.3805 19.4739 56.4761 20.6289 57.5742V57.5742ZM50.2279 48.9817C50.2279 48.9662 50.2241 48.9584 50.2241 48.9429C50.2073 48.941 50.1904 48.941 50.1737 48.9429C49.4489 49.1677 48.7241 49.3938 47.9994 49.6212C47.9224 49.6552 47.8556 49.7086 47.8056 49.7762C47.4335 50.2917 47.0614 50.8188 46.6894 51.342C46.6207 51.4313 46.5455 51.5155 46.4646 51.5939C46.4815 51.6176 46.497 51.6422 46.5111 51.6676C47.7513 50.7761 48.9903 49.8809 50.2279 48.9817V48.9817ZM14.0401 51.6715C14.0517 51.6559 14.0556 51.6443 14.0672 51.6288C13.6099 50.9893 13.1526 50.3421 12.6952 49.7064C12.6555 49.6634 12.6045 49.6325 12.5479 49.6173C12.0557 49.4661 11.5674 49.3111 11.0752 49.16C10.831 49.0863 10.5829 49.0088 10.3388 48.9352L10.3271 48.9817C11.5674 49.877 12.805 50.7736 14.0401 51.6715V51.6715ZM36.5504 0.891422V0.844913L32.2949 1.15885C32.3255 1.19876 32.3696 1.22628 32.4189 1.23636C32.8878 1.37977 33.3646 1.48829 33.8258 1.67045C34.003 1.74328 34.1943 1.77517 34.3856 1.76377C34.5769 1.75236 34.7631 1.69794 34.9304 1.60456C35.4613 1.34488 36.0078 1.13172 36.5504 0.891422ZM28.2757 1.20148C28.2757 1.18598 28.2718 1.17823 28.2718 1.16272C26.8533 1.05808 25.4348 0.953434 23.962 0.844913C23.9935 0.872224 24.0272 0.896856 24.0628 0.918552C24.7371 1.21311 25.4154 1.50767 26.0898 1.79835C26.1468 1.82095 26.2101 1.82232 26.2681 1.80222C26.6634 1.68595 27.0548 1.56968 27.4502 1.4534C27.7215 1.37201 27.9967 1.28675 28.2757 1.20148H28.2757ZM53.1231 23.4056C53.468 23.8358 53.813 24.2583 54.1269 24.6497C54.0882 23.801 54.0378 22.8592 53.9952 21.9173C53.9818 21.9132 53.9689 21.908 53.9564 21.9018C53.689 22.3902 53.4177 22.8785 53.1231 23.4056H53.1231ZM6.60254 21.9096C6.58776 21.913 6.57344 21.9182 6.55991 21.9251C6.51728 22.863 6.47077 23.7971 6.42813 24.6381C6.74207 24.2505 7.08313 23.8242 7.42808 23.3979C7.14515 22.8785 6.86997 22.3941 6.60255 21.9096H6.60254ZM52.1309 17.7625C52.1038 18.3749 52.0805 18.9175 52.065 19.4562C52.0676 19.477 52.0744 19.4971 52.0851 19.5151C52.0957 19.5331 52.11 19.5487 52.127 19.5609C52.565 19.7624 53.003 19.964 53.4913 20.181C53.0301 19.3555 52.596 18.5881 52.1309 17.7625H52.1309ZM8.42802 17.7625C7.96293 18.5881 7.52884 19.3555 7.06763 20.181C7.55597 19.9601 7.99393 19.7663 8.42802 19.5609C8.44688 19.545 8.46241 19.5255 8.47371 19.5035C8.48502 19.4816 8.49188 19.4576 8.49391 19.433C8.47841 18.8981 8.45127 18.3672 8.42802 17.7625V17.7625ZM45.391 52.152C45.9258 51.4001 46.4258 50.6986 46.9258 49.9971C46.4657 50.1004 46.0116 50.2284 45.5654 50.3808C45.5432 50.3914 45.5239 50.4071 45.5091 50.4266C45.4942 50.4462 45.4843 50.469 45.4801 50.4932C45.4491 51.0164 45.422 51.5474 45.391 52.152ZM15.1602 51.9621C15.1369 51.528 15.1098 50.9971 15.0788 50.4661C15.074 50.4456 15.0645 50.4266 15.0511 50.4104C15.0376 50.3943 15.0206 50.3815 15.0013 50.3731C14.5517 50.2297 14.0982 50.0901 13.6486 49.9545C13.637 49.9739 13.6331 49.9855 13.6215 50.0049C14.1409 50.6715 14.6641 51.3343 15.1602 51.9621H15.1602ZM44.0112 53.2062C44.0112 53.1869 44.0074 53.1675 44.0074 53.1559C43.5733 53.028 43.1392 52.8962 42.7051 52.7722C42.686 52.7682 42.6661 52.7702 42.6481 52.7778C42.6301 52.7854 42.6148 52.7983 42.6043 52.8148C42.3524 53.2489 42.1044 53.6868 41.8563 54.1248L41.8757 54.1636C42.585 53.838 43.2981 53.5241 44.0112 53.2062V53.2062ZM33.3529 2.29057V2.24793C32.6049 2.02314 31.8646 1.79447 31.1166 1.56968C31.105 1.59293 31.0895 1.61231 31.0779 1.63556C31.3763 2.02702 31.6747 2.41847 31.9732 2.80604C31.9877 2.82159 32.0063 2.83275 32.0269 2.83823C32.0474 2.84371 32.0691 2.8433 32.0894 2.83705C32.5158 2.66264 32.9344 2.4766 33.3529 2.29057V2.29057ZM18.7375 54.1791C18.5708 53.8845 18.4313 53.6403 18.2918 53.4C18.1716 53.1869 18.0747 52.8768 17.9197 52.7993C17.7531 52.7218 17.5321 52.8652 17.3384 52.9194C17.0748 52.9931 16.8151 53.0745 16.5516 53.1597V53.2101C17.2647 53.5241 17.9817 53.8419 18.7375 54.1791H18.7375ZM27.206 2.25568V2.29832C27.6246 2.48435 28.0432 2.67039 28.4656 2.84867C28.4859 2.8554 28.5077 2.85605 28.5284 2.85054C28.549 2.84503 28.5676 2.8336 28.5819 2.81767C28.8803 2.43009 29.1788 2.03864 29.4772 1.64719C29.4665 1.62639 29.4535 1.60688 29.4384 1.58906C28.6943 1.80222 27.9501 2.02702 27.206 2.25568H27.206ZM51.7085 24.7389C51.7201 24.7428 51.7278 24.7544 51.7395 24.7583C51.9875 24.3164 52.2356 23.8668 52.4914 23.4095C52.2821 23.146 52.0883 22.9018 51.8867 22.6421C51.8247 23.3359 51.7666 24.0374 51.7085 24.7389H51.7085ZM8.81947 24.7544C8.83109 24.7505 8.83885 24.7389 8.85435 24.735C8.79234 24.0335 8.73808 23.332 8.67994 22.6654C8.4784 22.9134 8.28074 23.1576 8.07532 23.4134C8.32725 23.8707 8.5753 24.3126 8.81947 24.7544H8.81947ZM15.5478 48.3499C15.533 48.3534 15.5187 48.3586 15.5051 48.3654C15.5284 48.8267 15.5555 49.2879 15.5826 49.7491C15.5865 49.784 15.6098 49.8421 15.633 49.8498C15.8927 49.939 16.1524 50.0165 16.4586 50.1095C16.133 49.4855 15.8423 48.9158 15.5478 48.3499H15.5478ZM45.0538 48.3693C45.039 48.3659 45.0247 48.3607 45.0112 48.3538C44.7166 48.9274 44.4221 49.4933 44.1042 50.1173C44.3988 50.0243 44.6507 49.9506 44.8988 49.8692C44.9199 49.8589 44.9384 49.8436 44.9525 49.8247C44.9667 49.8059 44.9761 49.7839 44.9802 49.7607C45.0073 49.2917 45.0306 48.8305 45.0538 48.3693V48.3693ZM9.09077 21.0453C9.49772 20.5143 9.87367 20.0299 10.2457 19.5415C9.85866 19.6714 9.48059 19.8268 9.11402 20.0066C9.07457 20.0471 9.05234 20.1012 9.05201 20.1578C9.06364 20.4329 9.07915 20.712 9.09077 21.0453H9.09077ZM51.4643 21.0453C51.4759 20.7236 51.4837 20.4562 51.503 20.1888C51.5131 20.1457 51.5072 20.1004 51.4866 20.0612C51.4659 20.0221 51.4319 19.9917 51.3906 19.9756C51.0922 19.8477 50.7938 19.7082 50.4954 19.5725C50.4372 19.5454 50.3791 19.526 50.3209 19.4989C50.3171 19.5144 50.3132 19.526 50.3093 19.5415C50.6853 20.0299 51.0573 20.5143 51.4643 21.0453H51.4643ZM29.5004 4.01527C29.2175 3.89125 28.9811 3.78273 28.7447 3.68583C28.7277 3.68358 28.7104 3.686 28.6947 3.69282C28.679 3.69965 28.6655 3.71064 28.6555 3.72459C28.3959 4.05791 28.1401 4.3951 27.8804 4.72841C27.892 4.75166 27.9075 4.77492 27.9191 4.79817C28.4307 4.55013 28.9385 4.2982 29.5004 4.01527H29.5004ZM32.6359 4.80205C32.6475 4.77492 32.663 4.75166 32.6747 4.72453C32.4228 4.3951 32.1747 4.06953 31.9228 3.74785C31.8956 3.70909 31.8375 3.68196 31.8065 3.69746C31.574 3.79048 31.3414 3.89512 31.0624 4.01915C31.6166 4.2982 32.1243 4.54625 32.6359 4.80205H32.6359ZM42.9105 51.156C42.3369 51.3033 41.8021 51.4389 41.2672 51.5746C41.6276 51.7186 41.9965 51.8403 42.3718 51.9389C42.3964 51.9397 42.4209 51.9341 42.4426 51.9225C42.4644 51.911 42.4827 51.8939 42.4958 51.873C42.6315 51.6521 42.7555 51.4273 42.9105 51.156V51.156ZM17.6484 51.156C17.8034 51.4273 17.9352 51.6637 18.0709 51.8924C18.082 51.9078 18.0965 51.9203 18.1133 51.9291C18.1301 51.9378 18.1488 51.9425 18.1678 51.9428C18.5437 51.8381 18.9158 51.7257 19.2917 51.6133C19.2924 51.599 19.2911 51.5846 19.2879 51.5707C18.7569 51.435 18.222 51.3033 17.6484 51.156H17.6484ZM42.6392 24.8319C42.5772 24.611 42.5229 24.4172 42.4687 24.2273C42.4562 24.2317 42.4431 24.2343 42.4299 24.235V24.9094C42.4958 24.8823 42.5578 24.859 42.6392 24.8319H42.6392ZM18.129 24.9094V24.235C18.1174 24.2312 18.1058 24.2312 18.0902 24.2273C18.0321 24.425 17.9779 24.6226 17.9197 24.8319C18.005 24.8629 18.0631 24.8823 18.129 24.9094V24.9094ZM17.7376 25.4714C17.6755 25.6807 17.6252 25.8667 17.5709 26.0566C17.5825 26.0644 17.5864 26.0721 17.598 26.0799C17.7143 25.9132 17.8267 25.7466 17.9585 25.5567C17.8771 25.5295 17.8189 25.5063 17.7376 25.4714V25.4714ZM42.6005 25.5567C42.7361 25.7505 42.8485 25.9171 42.9648 26.0838C42.9725 26.0799 42.9803 26.0683 42.988 26.0644C42.9338 25.8706 42.8756 25.6768 42.8214 25.4792C42.7439 25.5063 42.6896 25.5218 42.6005 25.5567H42.6005ZM23.2217 42.4162C23.2334 42.4007 23.2372 42.3929 23.2489 42.3774C23.152 42.2069 23.0512 42.0402 22.9427 41.8503C22.8962 41.9317 22.8574 41.9937 22.8148 42.0673C22.9621 42.1991 23.09 42.3076 23.2217 42.4162V42.4162ZM37.6162 41.8581C37.5039 42.048 37.407 42.2185 37.3101 42.3852C37.3178 42.4007 37.3256 42.4084 37.3333 42.4239C37.4728 42.3076 37.6046 42.1991 37.7713 42.0635C37.7054 41.9743 37.6666 41.9239 37.6162 41.8581V41.8581ZM22.4815 41.5364C22.3381 41.4937 22.2102 41.455 22.059 41.4085C22.3109 41.7263 22.3768 41.7418 22.4815 41.5364H22.4815ZM38.5154 41.4007C38.3488 41.4511 38.2209 41.4937 38.0891 41.5364C38.1782 41.7534 38.217 41.7379 38.5154 41.4007H38.5154ZM30.5624 15.034C30.6748 14.9836 30.7872 14.9371 30.9422 14.8674C30.5779 14.7937 30.5391 14.8092 30.5624 15.034V15.034ZM30.0043 15.0379C30.0082 14.817 29.9151 14.7782 29.6438 14.8829C29.7756 14.9371 29.8841 14.9836 30.0043 15.0379V15.0379Z" fill="#FFA700"/>
</svg>
