<svg width="38" height="24" viewBox="0 0 38 24" fill="none" xmlns="http://www.w3.org/2000/svg">
<g clip-path="url(#clip0_708_5686)">
<path d="M38 0H0V24H38V0Z" fill="white"/>
<path d="M37.5914 0.413818H0.4086V4.13796H37.5914V0.413818Z" fill="#2A0F4A"/>
<path d="M37.5914 19.8621H0.4086V23.5862H37.5914V19.8621Z" fill="#A585C9"/>
<path d="M16.2705 7.95312L14.9834 15.9849H17.0959L18.383 7.95312H16.2705Z" fill="#2A0F4A"/>
<path d="M13.2305 7.95309L11.2774 13.4814L11.0323 12.2814L10.2968 8.63172C10.2532 8.40847 10.1289 8.20971 9.94835 8.07427C9.76776 7.93883 9.5438 7.87644 9.32022 7.8993H6.07591L6.0228 8.05654H6.07591C6.12495 8.05654 6.12495 8.05654 6.17807 8.11034C6.2271 8.11034 6.28022 8.15999 6.38237 8.15999C6.47362 8.18067 6.56069 8.21706 6.63979 8.26758H6.6929C6.92217 8.33804 7.14612 8.42516 7.36301 8.52827H7.41204C7.54378 8.57627 7.66669 8.64619 7.7757 8.73516C7.87785 8.78896 8.03312 8.89241 8.13527 8.94206H8.17204L9.98624 15.931H12.1518L15.4452 7.86206H13.2305V7.95309Z" fill="#2A0F4A"/>
<path d="M29.828 7.95307H28.1936C27.9868 7.94105 27.7814 7.99482 27.6063 8.10687C27.4312 8.21891 27.2951 8.3836 27.217 8.5779L24.1075 16.0386H26.269L26.6776 14.8386H29.3049L29.5624 16.0386H31.4624L29.828 7.95307ZM27.3028 13.1669L28.3856 10.142L29.0108 13.1669H27.3028Z" fill="#2A0F4A"/>
<path d="M21.3699 10.1421C21.3699 9.20277 23.3761 9.36001 24.2546 9.83173L24.5611 8.11035C23.966 7.88891 23.3397 7.76595 22.706 7.74622C21.6763 7.74622 19.2574 8.2138 19.2574 10.4028C19.2574 12.4717 22.1421 12.4717 22.1421 13.5848C22.1421 14.6979 19.568 14.4704 18.7426 13.7959L18.432 15.6207C19.1644 15.9407 19.9554 16.1 20.7529 16.0883C22.1421 16.0883 24.3036 15.36 24.3036 13.3241C24.3036 11.2883 21.3699 11.0814 21.3699 10.1421Z" fill="#2A0F4A"/>
</g>
<defs>
<clipPath id="clip0_708_5686">
<rect width="38" height="24" fill="white"/>
</clipPath>
</defs>
</svg>
