<?xml version="1.0" encoding="utf-8"?>
<!-- Generator: Adobe Illustrator 24.1.2, SVG Export Plug-In . SVG Version: 6.00 Build 0)  -->
<svg version="1.1" id="Слой_1" xmlns="http://www.w3.org/2000/svg" xmlns:xlink="http://www.w3.org/1999/xlink" x="0px" y="0px"
	 viewBox="0 0 60 60" style="enable-background:new 0 0 60 60;" xml:space="preserve">
<style type="text/css">
	.st0{fill-rule:evenodd;clip-rule:evenodd;fill:#E33636;}
</style>
<g id="Wazdan">
	<g>
		<path class="st0" d="M17.1,39.1L0.3,22.5c-0.7-0.7-0.2-1.7,0.7-1.7h16.7c0.6,0,1,0.5,1,1v16.7C18.8,39.3,17.7,39.7,17.1,39.1
			 M20.8,38.4V21.6c0-0.6,0.5-1,1-1h16.7c0.9,0,1.4,1.1,0.7,1.7L22.5,39.1C21.9,39.7,20.8,39.3,20.8,38.4 M41.2,38.4V21.6
			c0-0.6,0.5-1,1-1H59c0.9,0,1.4,1.1,0.7,1.7L42.9,39.1C42.3,39.7,41.2,39.3,41.2,38.4"/>
	</g>
</g>
</svg>
