<svg width="60" height="60" viewBox="0 0 60 60" fill="none" xmlns="http://www.w3.org/2000/svg">
<g clip-path="url(#clip0)">
<path fill-rule="evenodd" clip-rule="evenodd" d="M21.4001 12.3997C20.9001 10.8997 20.4001 9.39974 19.9001 7.89974C19.5001 6.29974 19.1001 4.80003 18.9001 3.20003C18.8001 2.30003 18.8001 2.29984 19.6001 1.99984C21.3001 1.39984 23.1001 0.900031 24.9001 0.700031C25.7001 0.600031 25.8001 0.599835 25.9001 1.49984C26.4001 5.09984 27.4001 8.59964 28.9001 11.7996C29.1001 12.1996 29.2001 12.7996 29.6001 12.7996C30.1001 12.7996 30.2001 12.1996 30.4001 11.7996C31.9001 8.59964 32.9001 5.09993 33.4001 1.59993C33.5001 0.599933 33.6001 0.59964 34.5001 0.79964C36.3001 1.09964 38.1001 1.60003 39.8001 2.20003C40.6001 2.50003 40.6001 2.49974 40.4001 3.39974C40.0001 6.19974 39.3001 9.00003 38.3001 11.7C38.2001 12 37.9001 12.4 38.2001 12.7C38.5001 12.9 38.8001 12.5998 39.1001 12.4998C41.9001 11.2998 44.4001 9.59983 46.6001 7.49984L46.9001 7.20003C47.7001 6.40003 47.7001 6.40003 48.6001 7.20003C49.9001 8.30003 51.2001 9.49964 52.3001 10.7996C52.9001 11.4996 52.9001 11.4999 52.3001 12.0999C48.1001 16.4999 43.0001 19.3997 37.0001 20.8997C36.7001 20.9997 36.4001 20.9999 36.2001 21.0999C35.6001 21.2999 35.5001 21.3997 36.0001 21.8997C37.6001 23.5997 39.4001 24.9996 41.4001 26.2996C42.0001 26.6996 42.0001 26.6998 42.7001 25.9998C45.7001 23.1998 49.0001 20.9996 52.7001 19.2996C53.8001 18.7996 54.9001 18.3998 56.0001 17.9998C56.8001 17.6998 56.9001 17.7998 57.2001 18.4998C57.9001 20.1998 58.5001 21.9 58.9001 23.7C59.1001 24.5 59.1001 24.4996 58.2001 24.7996C56.4001 25.3996 54.7001 26.2 53.0001 27.2C51.9001 27.8 50.9001 28.5 49.9001 29.2C49.6001 29.4 49.2001 29.5997 49.2001 29.8997C49.3001 30.3997 49.8001 30.2997 50.1001 30.3997C52.6001 31.1997 55.2001 31.6997 57.8001 31.8997C59.8001 32.0997 59.4001 32 59.2001 33.7C59.1001 35.3 58.8001 36.7996 58.3001 38.2996C58.1001 39.0996 58.0001 39.0999 57.2001 39.0999C54.3001 38.8999 51.5001 38.3999 48.7001 37.5999C41.7001 35.4999 35.6001 31.8996 30.5001 26.7996C29.5001 25.7996 29.7001 25.6996 28.6001 26.7996C23.2001 32.2996 16.5001 36.0998 9.10014 37.9998C6.80014 38.5998 4.50014 39 2.20014 39.2C1.10014 39.3 1.10014 39.3 0.800135 38.2C0.300135 36.6 0.100135 34.8996 -0.0998646 33.2996C-0.199865 32.1996 -0.199865 32.0999 1.00014 32.0999C3.60014 31.8999 6.10014 31.4996 8.50014 30.7996C8.90014 30.6996 9.40014 30.4997 9.80014 30.3997C10.2001 30.2997 10.2001 29.9996 9.90014 29.7996C9.50014 29.4996 9.10014 29.0996 8.60014 28.7996C6.30014 27.1996 3.80014 25.8998 1.10014 24.9998C0.200135 24.6998 0.200135 24.7 0.400135 23.7C0.800135 22 1.30014 20.3 2.00014 18.7C2.40014 17.8 2.40014 17.7999 3.30014 18.0999C6.30014 19.0999 9.20014 20.5996 11.8001 22.2996C13.5001 23.3996 15.1001 24.6999 16.6001 26.0999C17.3001 26.6999 17.3001 26.7 18.0001 26.2C19.7001 25.1 21.3001 23.6996 22.8001 22.2996C23.0001 22.0996 23.2001 21.9996 23.3001 21.7996C23.5001 21.4996 23.4001 21.3 23.1001 21.2C22.9001 21.1 22.7001 21.0998 22.5001 20.9998C16.5001 19.5998 11.3001 16.6996 7.00014 12.2996L6.70014 11.9998C6.40014 11.6998 6.40014 11.5 6.70014 11.2C8.10014 9.60003 9.60014 8.19974 11.2001 6.89974C11.5001 6.59974 11.8001 6.79984 12.0001 6.99984C12.8001 7.89983 13.7001 8.69974 14.6001 9.39974C16.4001 10.7997 18.3001 11.8996 20.4001 12.7996C20.9001 12.3996 21.1001 12.5997 21.4001 12.3997Z" fill="#E6642B"/>
<path fill-rule="evenodd" clip-rule="evenodd" d="M29.7001 59.8C28.8001 59.8 27.9001 59.8 27.1001 59.8C26.3001 59.8 26.2001 59.6 26.2001 58.8C26.2001 56.1 26.2001 53.5 26.2001 50.8C26.2001 50 26.0001 49.2003 25.4001 48.6003C22.5001 44.9003 19.6001 41.1001 16.8001 37.4001C16.1001 36.4001 16.1001 36.4001 17.2001 35.9001C18.7001 35.2001 20.1001 34.5003 21.4001 33.6003C22.4001 33.0003 22.4001 33.0001 23.2001 33.9001C25.1001 36.4001 27.1001 39.0002 29.0001 41.5002C29.8001 42.5002 29.8001 42.5002 30.5001 41.5002L36.4001 33.7004C37.0001 32.9004 37.0001 32.9001 37.8001 33.4001C39.3001 34.4001 41.0001 35.2002 42.6001 36.0002C43.3001 36.3002 43.3001 36.5003 42.9001 37.1003C39.9001 41.0003 37.0001 44.9 34.0001 48.8C33.6001 49.3 33.3001 50.0004 33.3001 50.7004C33.3001 53.4004 33.3001 56.0004 33.3001 58.7004C33.3001 59.7004 33.3001 59.7 32.3001 59.8C31.5001 59.8 30.6001 59.8 29.7001 59.8Z" fill="#E6642B"/>
</g>
<defs>
<clipPath id="clip0">
<rect width="60" height="60" fill="white"/>
</clipPath>
</defs>
</svg>
