<svg width="60" height="60" viewBox="0 0 60 60" fill="none" xmlns="http://www.w3.org/2000/svg">
<g opacity="0.9">
<path d="M53.7391 1.29999H12.9596C11.4842 1.3 10.0578 1.82947 8.93974 2.79212C7.82167 3.75477 7.08616 5.08669 6.86695 6.54571L6.43709 9.40693C6.30539 10.2835 6.36438 11.1782 6.61008 12.03C6.85579 12.8817 7.28242 13.6703 7.8608 14.3421C8.43917 15.0139 9.15567 15.5529 9.96143 15.9224C10.7672 16.2919 11.6432 16.4832 12.5297 16.4832H49.5517L6.65827 30.6743C5.57694 31.032 4.61593 31.6825 3.882 32.5535C3.14808 33.4245 2.66997 34.4819 2.50075 35.6082L0.782318 47.0468L0.168454 51.1331C0.0367772 52.0097 0.0958024 52.9044 0.341522 53.7561C0.587241 54.6078 1.01385 55.3964 1.59224 56.0682C2.17062 56.74 2.88716 57.279 3.69291 57.6485C4.49867 58.018 5.37468 58.2093 6.26112 58.2093H47.0406C48.516 58.2093 49.9424 57.6799 51.0605 56.7172C52.1786 55.7546 52.9141 54.4226 53.1333 52.9636L53.5631 50.1024C53.6948 49.2258 53.6359 48.3311 53.3902 47.4794C53.1444 46.6277 52.7178 45.839 52.1394 45.1672C51.5611 44.4955 50.8446 43.9564 50.0388 43.5869C49.233 43.2174 48.357 43.0261 47.4706 43.0261H12.9353L53.2118 29.7009C54.2932 29.3431 55.2542 28.6926 55.9881 27.8216C56.722 26.9507 57.2001 25.8933 57.3694 24.7669L59.0878 13.3283L59.8317 8.37638C59.9634 7.49976 59.9044 6.60505 59.6587 5.75333C59.413 4.9016 58.9864 4.11292 58.408 3.44115C57.8296 2.76937 57.1131 2.23033 56.3073 1.8608C55.5016 1.49128 54.6255 1.29999 53.7391 1.29999V1.29999Z" fill="#EF7D0F"/>
</g>
</svg>
